G04 #@! TF.GenerationSoftware,KiCad,Pcbnew,5.1.5-52549c5~84~ubuntu18.04.1*
G04 #@! TF.CreationDate,2019-12-02T09:16:55+01:00*
G04 #@! TF.ProjectId,Lily58_Pro,4c696c79-3538-45f5-9072-6f2e6b696361,rev?*
G04 #@! TF.SameCoordinates,Original*
G04 #@! TF.FileFunction,Soldermask,Top*
G04 #@! TF.FilePolarity,Negative*
%FSLAX46Y46*%
G04 Gerber Fmt 4.6, Leading zero omitted, Abs format (unit mm)*
G04 Created by KiCad (PCBNEW 5.1.5-52549c5~84~ubuntu18.04.1) date 2019-12-02 09:16:55*
%MOMM*%
%LPD*%
G04 APERTURE LIST*
%ADD10C,1.600000*%
%ADD11R,1.600000X2.500000*%
%ADD12R,1.924000X1.924000*%
%ADD13C,0.100000*%
%ADD14C,3.400000*%
%ADD15C,0.500000*%
%ADD16C,4.400000*%
%ADD17C,2.300000*%
%ADD18C,2.100000*%
%ADD19R,1.100000X1.900000*%
%ADD20R,2.800000X2.800000*%
%ADD21R,2.900000X2.900000*%
%ADD22R,2.200000X2.400000*%
%ADD23R,2.400000X2.400000*%
%ADD24C,1.924000*%
%ADD25C,5.300000*%
%ADD26C,1.797000*%
%ADD27R,1.543000X1.035000*%
%ADD28C,2.900000*%
%ADD29R,0.781000X0.781000*%
%ADD30R,2.200000X1.900000*%
G04 APERTURE END LIST*
D10*
X86150000Y-47800000D03*
X86150000Y-40800000D03*
D11*
X84050000Y-49600000D03*
X88250000Y-51100000D03*
X84050000Y-42600000D03*
X84050000Y-45600000D03*
D10*
X87900000Y-40800000D03*
X87900000Y-47800000D03*
D11*
X90000000Y-42600000D03*
X90000000Y-45600000D03*
X90000000Y-49600000D03*
X85800000Y-51100000D03*
D12*
X112700000Y-76500000D03*
X112700000Y-78600000D03*
X112700000Y-80600000D03*
D13*
G36*
X104719006Y-118213303D02*
G01*
X106364454Y-117263303D01*
X106914454Y-118215931D01*
X105269006Y-119165931D01*
X104719006Y-118213303D01*
G37*
G36*
X110317340Y-133109902D02*
G01*
X111962788Y-132159902D01*
X112512788Y-133112530D01*
X110867340Y-134062530D01*
X110317340Y-133109902D01*
G37*
D14*
X109104705Y-129029557D03*
D13*
G36*
X108461845Y-120036091D02*
G01*
X106036973Y-121436091D01*
X104636973Y-119011219D01*
X107061845Y-117611219D01*
X108461845Y-120036091D01*
G37*
D14*
X109104705Y-129029557D03*
X108129409Y-122260295D03*
D13*
G36*
X112630442Y-132236312D02*
G01*
X110118968Y-133686312D01*
X108668968Y-131174838D01*
X111180442Y-129724838D01*
X112630442Y-132236312D01*
G37*
D15*
X109146846Y-129022547D03*
D14*
X104295706Y-133180127D03*
D13*
G36*
X100079680Y-127877757D02*
G01*
X98001220Y-129077757D01*
X96901220Y-127172501D01*
X98979680Y-125972501D01*
X100079680Y-127877757D01*
G37*
G36*
X107484936Y-136304036D02*
G01*
X105406476Y-137504036D01*
X104206476Y-135425576D01*
X106284936Y-134225576D01*
X107484936Y-136304036D01*
G37*
D14*
X99295706Y-124519873D03*
X99890450Y-129950000D03*
D15*
X105321846Y-122397453D03*
D14*
X110669409Y-126659705D03*
D16*
X105000000Y-127000000D03*
D17*
X102250000Y-122236860D03*
X107750000Y-131763140D03*
D18*
X107540000Y-131399409D03*
X102460000Y-122600591D03*
D14*
X105294705Y-122430443D03*
D19*
X160900000Y-118650000D03*
X176600000Y-121250000D03*
D14*
X171910000Y-121210000D03*
D20*
X162400000Y-118670000D03*
D14*
X171910000Y-121210000D03*
X165560000Y-118670000D03*
D21*
X175000000Y-121209999D03*
D15*
X171925000Y-121170000D03*
D14*
X173100000Y-127450000D03*
D22*
X165300000Y-129650000D03*
D23*
X176200000Y-127450000D03*
D14*
X163100000Y-127450000D03*
X168100000Y-129650000D03*
D15*
X164275000Y-121170000D03*
D14*
X170640000Y-118670000D03*
D16*
X168100000Y-123750000D03*
D17*
X162600000Y-123750000D03*
X173600000Y-123750000D03*
D18*
X173180000Y-123750000D03*
X163020000Y-123750000D03*
D14*
X164290000Y-121209999D03*
D19*
X141800000Y-118650000D03*
X157500000Y-121250000D03*
D14*
X152810000Y-121210000D03*
D20*
X143300000Y-118670000D03*
D14*
X152810000Y-121210000D03*
X146460000Y-118670000D03*
D21*
X155900000Y-121209999D03*
D15*
X152825000Y-121170000D03*
D14*
X154000000Y-127450000D03*
D22*
X146200000Y-129650000D03*
D23*
X157100000Y-127450000D03*
D14*
X144000000Y-127450000D03*
X149000000Y-129650000D03*
D15*
X145175000Y-121170000D03*
D14*
X151540000Y-118670000D03*
D16*
X149000000Y-123750000D03*
D17*
X143500000Y-123750000D03*
X154500000Y-123750000D03*
D18*
X154080000Y-123750000D03*
X143920000Y-123750000D03*
D14*
X145190000Y-121209999D03*
D19*
X122800000Y-120900000D03*
X138500000Y-123500000D03*
D14*
X133810000Y-123460000D03*
D20*
X124300000Y-120920000D03*
D14*
X133810000Y-123460000D03*
X127460000Y-120920000D03*
D21*
X136900000Y-123459999D03*
D15*
X133825000Y-123420000D03*
D14*
X135000000Y-129700000D03*
D22*
X127200000Y-131900000D03*
D23*
X138100000Y-129700000D03*
D14*
X125000000Y-129700000D03*
X130000000Y-131900000D03*
D15*
X126175000Y-123420000D03*
D14*
X132540000Y-120920000D03*
D16*
X130000000Y-126000000D03*
D17*
X124500000Y-126000000D03*
X135500000Y-126000000D03*
D18*
X135080000Y-126000000D03*
X124920000Y-126000000D03*
D14*
X126190000Y-123459999D03*
D19*
X94200000Y-92400000D03*
X109900000Y-95000000D03*
D14*
X105210000Y-94960000D03*
D20*
X95700000Y-92420000D03*
D14*
X105210000Y-94960000D03*
X98860000Y-92420000D03*
D21*
X108300000Y-94959999D03*
D15*
X105225000Y-94920000D03*
D14*
X106400000Y-101200000D03*
D22*
X98600000Y-103400000D03*
D23*
X109500000Y-101200000D03*
D14*
X96400000Y-101200000D03*
X101400000Y-103400000D03*
D15*
X97575000Y-94920000D03*
D14*
X103940000Y-92420000D03*
D16*
X101400000Y-97500000D03*
D17*
X95900000Y-97500000D03*
X106900000Y-97500000D03*
D18*
X106480000Y-97500000D03*
X96320000Y-97500000D03*
D14*
X97590000Y-94959999D03*
D19*
X208550000Y-105900000D03*
X224250000Y-108500000D03*
D14*
X219560000Y-108460000D03*
D20*
X210050000Y-105920000D03*
D14*
X219560000Y-108460000D03*
X213210000Y-105920000D03*
D21*
X222650000Y-108459999D03*
D15*
X219575000Y-108420000D03*
D14*
X220750000Y-114700000D03*
D22*
X212950000Y-116900000D03*
D23*
X223850000Y-114700000D03*
D14*
X210750000Y-114700000D03*
X215750000Y-116900000D03*
D15*
X211925000Y-108420000D03*
D14*
X218290000Y-105920000D03*
D16*
X215750000Y-111000000D03*
D17*
X210250000Y-111000000D03*
X221250000Y-111000000D03*
D18*
X220830000Y-111000000D03*
X210670000Y-111000000D03*
D14*
X211940000Y-108459999D03*
D19*
X189500000Y-104400000D03*
X205200000Y-107000000D03*
D14*
X200510000Y-106960000D03*
D20*
X191000000Y-104420000D03*
D14*
X200510000Y-106960000D03*
X194160000Y-104420000D03*
D21*
X203600000Y-106959999D03*
D15*
X200525000Y-106920000D03*
D14*
X201700000Y-113200000D03*
D22*
X193900000Y-115400000D03*
D23*
X204800000Y-113200000D03*
D14*
X191700000Y-113200000D03*
X196700000Y-115400000D03*
D15*
X192875000Y-106920000D03*
D14*
X199240000Y-104420000D03*
D16*
X196700000Y-109500000D03*
D17*
X191200000Y-109500000D03*
X202200000Y-109500000D03*
D18*
X201780000Y-109500000D03*
X191620000Y-109500000D03*
D14*
X192890000Y-106959999D03*
D19*
X170400000Y-99700000D03*
X186100000Y-102300000D03*
D14*
X181410000Y-102260000D03*
D20*
X171900000Y-99720000D03*
D14*
X181410000Y-102260000D03*
X175060000Y-99720000D03*
D21*
X184500000Y-102259999D03*
D15*
X181425000Y-102220000D03*
D14*
X182600000Y-108500000D03*
D22*
X174800000Y-110700000D03*
D23*
X185700000Y-108500000D03*
D14*
X172600000Y-108500000D03*
X177600000Y-110700000D03*
D15*
X173775000Y-102220000D03*
D14*
X180140000Y-99720000D03*
D16*
X177600000Y-104800000D03*
D17*
X172100000Y-104800000D03*
X183100000Y-104800000D03*
D18*
X182680000Y-104800000D03*
X172520000Y-104800000D03*
D14*
X173790000Y-102259999D03*
D19*
X151400000Y-98300000D03*
X167100000Y-100900000D03*
D14*
X162410000Y-100860000D03*
D20*
X152900000Y-98320000D03*
D14*
X162410000Y-100860000D03*
X156060000Y-98320000D03*
D21*
X165500000Y-100859999D03*
D15*
X162425000Y-100820000D03*
D14*
X163600000Y-107100000D03*
D22*
X155800000Y-109300000D03*
D23*
X166700000Y-107100000D03*
D14*
X153600000Y-107100000D03*
X158600000Y-109300000D03*
D15*
X154775000Y-100820000D03*
D14*
X161140000Y-98320000D03*
D16*
X158600000Y-103400000D03*
D17*
X153100000Y-103400000D03*
X164100000Y-103400000D03*
D18*
X163680000Y-103400000D03*
X153520000Y-103400000D03*
D14*
X154790000Y-100859999D03*
D19*
X132300000Y-99700000D03*
X148000000Y-102300000D03*
D14*
X143310000Y-102260000D03*
D20*
X133800000Y-99720000D03*
D14*
X143310000Y-102260000D03*
X136960000Y-99720000D03*
D21*
X146400000Y-102259999D03*
D15*
X143325000Y-102220000D03*
D14*
X144500000Y-108500000D03*
D22*
X136700000Y-110700000D03*
D23*
X147600000Y-108500000D03*
D14*
X134500000Y-108500000D03*
X139500000Y-110700000D03*
D15*
X135675000Y-102220000D03*
D14*
X142040000Y-99720000D03*
D16*
X139500000Y-104800000D03*
D17*
X134000000Y-104800000D03*
X145000000Y-104800000D03*
D18*
X144580000Y-104800000D03*
X134420000Y-104800000D03*
D14*
X135690000Y-102259999D03*
D19*
X113300000Y-102000000D03*
X129000000Y-104600000D03*
D14*
X124310000Y-104560000D03*
D20*
X114800000Y-102020000D03*
D14*
X124310000Y-104560000D03*
X117960000Y-102020000D03*
D21*
X127400000Y-104559999D03*
D15*
X124325000Y-104520000D03*
D14*
X125500000Y-110800000D03*
D22*
X117700000Y-113000000D03*
D23*
X128600000Y-110800000D03*
D14*
X115500000Y-110800000D03*
X120500000Y-113000000D03*
D15*
X116675000Y-104520000D03*
D14*
X123040000Y-102020000D03*
D16*
X120500000Y-107100000D03*
D17*
X115000000Y-107100000D03*
X126000000Y-107100000D03*
D18*
X125580000Y-107100000D03*
X115420000Y-107100000D03*
D14*
X116690000Y-104559999D03*
D19*
X208500000Y-86900000D03*
X224200000Y-89500000D03*
D14*
X219510000Y-89460000D03*
D20*
X210000000Y-86920000D03*
D14*
X219510000Y-89460000D03*
X213160000Y-86920000D03*
D21*
X222600000Y-89459999D03*
D15*
X219525000Y-89420000D03*
D14*
X220700000Y-95700000D03*
D22*
X212900000Y-97900000D03*
D23*
X223800000Y-95700000D03*
D14*
X210700000Y-95700000D03*
X215700000Y-97900000D03*
D15*
X211875000Y-89420000D03*
D14*
X218240000Y-86920000D03*
D16*
X215700000Y-92000000D03*
D17*
X210200000Y-92000000D03*
X221200000Y-92000000D03*
D18*
X220780000Y-92000000D03*
X210620000Y-92000000D03*
D14*
X211890000Y-89459999D03*
D19*
X189500000Y-85400000D03*
X205200000Y-88000000D03*
D14*
X200510000Y-87960000D03*
D20*
X191000000Y-85420000D03*
D14*
X200510000Y-87960000D03*
X194160000Y-85420000D03*
D21*
X203600000Y-87959999D03*
D15*
X200525000Y-87920000D03*
D14*
X201700000Y-94200000D03*
D22*
X193900000Y-96400000D03*
D23*
X204800000Y-94200000D03*
D14*
X191700000Y-94200000D03*
X196700000Y-96400000D03*
D15*
X192875000Y-87920000D03*
D14*
X199240000Y-85420000D03*
D16*
X196700000Y-90500000D03*
D17*
X191200000Y-90500000D03*
X202200000Y-90500000D03*
D18*
X201780000Y-90500000D03*
X191620000Y-90500000D03*
D14*
X192890000Y-87959999D03*
D19*
X170400000Y-80600000D03*
X186100000Y-83200000D03*
D14*
X181410000Y-83160000D03*
D20*
X171900000Y-80620000D03*
D14*
X181410000Y-83160000D03*
X175060000Y-80620000D03*
D21*
X184500000Y-83159999D03*
D15*
X181425000Y-83120000D03*
D14*
X182600000Y-89400000D03*
D22*
X174800000Y-91600000D03*
D23*
X185700000Y-89400000D03*
D14*
X172600000Y-89400000D03*
X177600000Y-91600000D03*
D15*
X173775000Y-83120000D03*
D14*
X180140000Y-80620000D03*
D16*
X177600000Y-85700000D03*
D17*
X172100000Y-85700000D03*
X183100000Y-85700000D03*
D18*
X182680000Y-85700000D03*
X172520000Y-85700000D03*
D14*
X173790000Y-83159999D03*
D19*
X151400000Y-79300000D03*
X167100000Y-81900000D03*
D14*
X162410000Y-81860000D03*
D20*
X152900000Y-79320000D03*
D14*
X162410000Y-81860000D03*
X156060000Y-79320000D03*
D21*
X165500000Y-81859999D03*
D15*
X162425000Y-81820000D03*
D14*
X163600000Y-88100000D03*
D22*
X155800000Y-90300000D03*
D23*
X166700000Y-88100000D03*
D14*
X153600000Y-88100000D03*
X158600000Y-90300000D03*
D15*
X154775000Y-81820000D03*
D14*
X161140000Y-79320000D03*
D16*
X158600000Y-84400000D03*
D17*
X153100000Y-84400000D03*
X164100000Y-84400000D03*
D18*
X163680000Y-84400000D03*
X153520000Y-84400000D03*
D14*
X154790000Y-81859999D03*
D19*
X132300000Y-80600000D03*
X148000000Y-83200000D03*
D14*
X143310000Y-83160000D03*
D20*
X133800000Y-80620000D03*
D14*
X143310000Y-83160000D03*
X136960000Y-80620000D03*
D21*
X146400000Y-83159999D03*
D15*
X143325000Y-83120000D03*
D14*
X144500000Y-89400000D03*
D22*
X136700000Y-91600000D03*
D23*
X147600000Y-89400000D03*
D14*
X134500000Y-89400000D03*
X139500000Y-91600000D03*
D15*
X135675000Y-83120000D03*
D14*
X142040000Y-80620000D03*
D16*
X139500000Y-85700000D03*
D17*
X134000000Y-85700000D03*
X145000000Y-85700000D03*
D18*
X144580000Y-85700000D03*
X134420000Y-85700000D03*
D14*
X135690000Y-83159999D03*
D19*
X113300000Y-83000000D03*
X129000000Y-85600000D03*
D14*
X124310000Y-85560000D03*
D20*
X114800000Y-83020000D03*
D14*
X124310000Y-85560000D03*
X117960000Y-83020000D03*
D21*
X127400000Y-85559999D03*
D15*
X124325000Y-85520000D03*
D14*
X125500000Y-91800000D03*
D22*
X117700000Y-94000000D03*
D23*
X128600000Y-91800000D03*
D14*
X115500000Y-91800000D03*
X120500000Y-94000000D03*
D15*
X116675000Y-85520000D03*
D14*
X123040000Y-83020000D03*
D16*
X120500000Y-88100000D03*
D17*
X115000000Y-88100000D03*
X126000000Y-88100000D03*
D18*
X125580000Y-88100000D03*
X115420000Y-88100000D03*
D14*
X116690000Y-85559999D03*
D19*
X208500000Y-67700000D03*
X224200000Y-70300000D03*
D14*
X219510000Y-70260000D03*
D20*
X210000000Y-67720000D03*
D14*
X219510000Y-70260000D03*
X213160000Y-67720000D03*
D21*
X222600000Y-70259999D03*
D15*
X219525000Y-70220000D03*
D14*
X220700000Y-76500000D03*
D22*
X212900000Y-78700000D03*
D23*
X223800000Y-76500000D03*
D14*
X210700000Y-76500000D03*
X215700000Y-78700000D03*
D15*
X211875000Y-70220000D03*
D14*
X218240000Y-67720000D03*
D16*
X215700000Y-72800000D03*
D17*
X210200000Y-72800000D03*
X221200000Y-72800000D03*
D18*
X220780000Y-72800000D03*
X210620000Y-72800000D03*
D14*
X211890000Y-70259999D03*
D19*
X189500000Y-66200000D03*
X205200000Y-68800000D03*
D14*
X200510000Y-68760000D03*
D20*
X191000000Y-66220000D03*
D14*
X200510000Y-68760000D03*
X194160000Y-66220000D03*
D21*
X203600000Y-68759999D03*
D15*
X200525000Y-68720000D03*
D14*
X201700000Y-75000000D03*
D22*
X193900000Y-77200000D03*
D23*
X204800000Y-75000000D03*
D14*
X191700000Y-75000000D03*
X196700000Y-77200000D03*
D15*
X192875000Y-68720000D03*
D14*
X199240000Y-66220000D03*
D16*
X196700000Y-71300000D03*
D17*
X191200000Y-71300000D03*
X202200000Y-71300000D03*
D18*
X201780000Y-71300000D03*
X191620000Y-71300000D03*
D14*
X192890000Y-68759999D03*
D19*
X170400000Y-61500000D03*
X186100000Y-64100000D03*
D14*
X181410000Y-64060000D03*
D20*
X171900000Y-61520000D03*
D14*
X181410000Y-64060000D03*
X175060000Y-61520000D03*
D21*
X184500000Y-64059999D03*
D15*
X181425000Y-64020000D03*
D14*
X182600000Y-70300000D03*
D22*
X174800000Y-72500000D03*
D23*
X185700000Y-70300000D03*
D14*
X172600000Y-70300000D03*
X177600000Y-72500000D03*
D15*
X173775000Y-64020000D03*
D14*
X180140000Y-61520000D03*
D16*
X177600000Y-66600000D03*
D17*
X172100000Y-66600000D03*
X183100000Y-66600000D03*
D18*
X182680000Y-66600000D03*
X172520000Y-66600000D03*
D14*
X173790000Y-64059999D03*
D19*
X151400000Y-60200000D03*
X167100000Y-62800000D03*
D14*
X162410000Y-62760000D03*
D20*
X152900000Y-60220000D03*
D14*
X162410000Y-62760000D03*
X156060000Y-60220000D03*
D21*
X165500000Y-62759999D03*
D15*
X162425000Y-62720000D03*
D14*
X163600000Y-69000000D03*
D22*
X155800000Y-71200000D03*
D23*
X166700000Y-69000000D03*
D14*
X153600000Y-69000000D03*
X158600000Y-71200000D03*
D15*
X154775000Y-62720000D03*
D14*
X161140000Y-60220000D03*
D16*
X158600000Y-65300000D03*
D17*
X153100000Y-65300000D03*
X164100000Y-65300000D03*
D18*
X163680000Y-65300000D03*
X153520000Y-65300000D03*
D14*
X154790000Y-62759999D03*
D19*
X132300000Y-61600000D03*
X148000000Y-64200000D03*
D14*
X143310000Y-64160000D03*
D20*
X133800000Y-61620000D03*
D14*
X143310000Y-64160000D03*
X136960000Y-61620000D03*
D21*
X146400000Y-64159999D03*
D15*
X143325000Y-64120000D03*
D14*
X144500000Y-70400000D03*
D22*
X136700000Y-72600000D03*
D23*
X147600000Y-70400000D03*
D14*
X134500000Y-70400000D03*
X139500000Y-72600000D03*
D15*
X135675000Y-64120000D03*
D14*
X142040000Y-61620000D03*
D16*
X139500000Y-66700000D03*
D17*
X134000000Y-66700000D03*
X145000000Y-66700000D03*
D18*
X144580000Y-66700000D03*
X134420000Y-66700000D03*
D14*
X135690000Y-64159999D03*
D19*
X113300000Y-64000000D03*
X129000000Y-66600000D03*
D14*
X124310000Y-66560000D03*
D20*
X114800000Y-64020000D03*
D14*
X124310000Y-66560000D03*
X117960000Y-64020000D03*
D21*
X127400000Y-66559999D03*
D15*
X124325000Y-66520000D03*
D14*
X125500000Y-72800000D03*
D22*
X117700000Y-75000000D03*
D23*
X128600000Y-72800000D03*
D14*
X115500000Y-72800000D03*
X120500000Y-75000000D03*
D15*
X116675000Y-66520000D03*
D14*
X123040000Y-64020000D03*
D16*
X120500000Y-69100000D03*
D17*
X115000000Y-69100000D03*
X126000000Y-69100000D03*
D18*
X125580000Y-69100000D03*
X115420000Y-69100000D03*
D14*
X116690000Y-66559999D03*
D19*
X208500000Y-48800000D03*
X224200000Y-51400000D03*
D14*
X219510000Y-51360000D03*
D20*
X210000000Y-48820000D03*
D14*
X219510000Y-51360000D03*
X213160000Y-48820000D03*
D21*
X222600000Y-51359999D03*
D15*
X219525000Y-51320000D03*
D14*
X220700000Y-57600000D03*
D22*
X212900000Y-59800000D03*
D23*
X223800000Y-57600000D03*
D14*
X210700000Y-57600000D03*
X215700000Y-59800000D03*
D15*
X211875000Y-51320000D03*
D14*
X218240000Y-48820000D03*
D16*
X215700000Y-53900000D03*
D17*
X210200000Y-53900000D03*
X221200000Y-53900000D03*
D18*
X220780000Y-53900000D03*
X210620000Y-53900000D03*
D14*
X211890000Y-51359999D03*
D19*
X189500000Y-47300000D03*
X205200000Y-49900000D03*
D14*
X200510000Y-49860000D03*
D20*
X191000000Y-47320000D03*
D14*
X200510000Y-49860000D03*
X194160000Y-47320000D03*
D21*
X203600000Y-49859999D03*
D15*
X200525000Y-49820000D03*
D14*
X201700000Y-56100000D03*
D22*
X193900000Y-58300000D03*
D23*
X204800000Y-56100000D03*
D14*
X191700000Y-56100000D03*
X196700000Y-58300000D03*
D15*
X192875000Y-49820000D03*
D14*
X199240000Y-47320000D03*
D16*
X196700000Y-52400000D03*
D17*
X191200000Y-52400000D03*
X202200000Y-52400000D03*
D18*
X201780000Y-52400000D03*
X191620000Y-52400000D03*
D14*
X192890000Y-49859999D03*
D19*
X170400000Y-42500000D03*
X186100000Y-45100000D03*
D14*
X181410000Y-45060000D03*
D20*
X171900000Y-42520000D03*
D14*
X181410000Y-45060000D03*
X175060000Y-42520000D03*
D21*
X184500000Y-45059999D03*
D15*
X181425000Y-45020000D03*
D14*
X182600000Y-51300000D03*
D22*
X174800000Y-53500000D03*
D23*
X185700000Y-51300000D03*
D14*
X172600000Y-51300000D03*
X177600000Y-53500000D03*
D15*
X173775000Y-45020000D03*
D14*
X180140000Y-42520000D03*
D16*
X177600000Y-47600000D03*
D17*
X172100000Y-47600000D03*
X183100000Y-47600000D03*
D18*
X182680000Y-47600000D03*
X172520000Y-47600000D03*
D14*
X173790000Y-45059999D03*
D19*
X151400000Y-41110000D03*
X167100000Y-43710000D03*
D14*
X162410000Y-43670000D03*
D20*
X152900000Y-41130000D03*
D14*
X162410000Y-43670000D03*
X156060000Y-41130000D03*
D21*
X165500000Y-43669999D03*
D15*
X162425000Y-43630000D03*
D14*
X163600000Y-49910000D03*
D22*
X155800000Y-52110000D03*
D23*
X166700000Y-49910000D03*
D14*
X153600000Y-49910000D03*
X158600000Y-52110000D03*
D15*
X154775000Y-43630000D03*
D14*
X161140000Y-41130000D03*
D16*
X158600000Y-46210000D03*
D17*
X153100000Y-46210000D03*
X164100000Y-46210000D03*
D18*
X163680000Y-46210000D03*
X153520000Y-46210000D03*
D14*
X154790000Y-43669999D03*
D19*
X132300000Y-42500000D03*
X148000000Y-45100000D03*
D14*
X143310000Y-45060000D03*
D20*
X133800000Y-42520000D03*
D14*
X143310000Y-45060000D03*
X136960000Y-42520000D03*
D21*
X146400000Y-45059999D03*
D15*
X143325000Y-45020000D03*
D14*
X144500000Y-51300000D03*
D22*
X136700000Y-53500000D03*
D23*
X147600000Y-51300000D03*
D14*
X134500000Y-51300000D03*
X139500000Y-53500000D03*
D15*
X135675000Y-45020000D03*
D14*
X142040000Y-42520000D03*
D16*
X139500000Y-47600000D03*
D17*
X134000000Y-47600000D03*
X145000000Y-47600000D03*
D18*
X144580000Y-47600000D03*
X134420000Y-47600000D03*
D14*
X135690000Y-45059999D03*
D19*
X113300000Y-44900000D03*
X129000000Y-47500000D03*
D14*
X124310000Y-47460000D03*
D20*
X114800000Y-44920000D03*
D14*
X124310000Y-47460000D03*
X117960000Y-44920000D03*
D21*
X127400000Y-47459999D03*
D15*
X124325000Y-47420000D03*
D14*
X125500000Y-53700000D03*
D22*
X117700000Y-55900000D03*
D23*
X128600000Y-53700000D03*
D14*
X115500000Y-53700000D03*
X120500000Y-55900000D03*
D15*
X116675000Y-47420000D03*
D14*
X123040000Y-44920000D03*
D16*
X120500000Y-50000000D03*
D17*
X115000000Y-50000000D03*
X126000000Y-50000000D03*
D18*
X125580000Y-50000000D03*
X115420000Y-50000000D03*
D14*
X116690000Y-47459999D03*
D24*
X107420000Y-41230000D03*
X107420000Y-43770000D03*
X107420000Y-46310000D03*
X107420000Y-48850000D03*
X107420000Y-51390000D03*
X107420000Y-53930000D03*
X107420000Y-56470000D03*
X107420000Y-59010000D03*
X107420000Y-61550000D03*
X107420000Y-64090000D03*
X107420000Y-66630000D03*
X107420000Y-69170000D03*
X92180000Y-69170000D03*
X92180000Y-66630000D03*
X92180000Y-64090000D03*
X92180000Y-61550000D03*
X92180000Y-59010000D03*
X92180000Y-56470000D03*
X92180000Y-53930000D03*
X92180000Y-51390000D03*
X92180000Y-48850000D03*
X92180000Y-46310000D03*
X92180000Y-43770000D03*
X92180000Y-41230000D03*
X108718815Y-52585745D03*
X108718815Y-57665745D03*
X93478815Y-42425745D03*
X108718815Y-44965745D03*
X108718815Y-67825745D03*
X93478815Y-70365745D03*
X108718815Y-60205745D03*
X108718815Y-62745745D03*
X93478815Y-60205745D03*
X93478815Y-65285745D03*
X93478815Y-52585745D03*
X93478815Y-50045745D03*
X93478815Y-44965745D03*
X93478815Y-55125745D03*
X108718815Y-70365745D03*
X93478815Y-62745745D03*
X108718815Y-42425745D03*
X108718815Y-47505745D03*
X93478815Y-67825745D03*
X108718815Y-50045745D03*
X108718815Y-55125745D03*
X93478815Y-57665745D03*
X108718815Y-65285745D03*
X93478815Y-47505745D03*
D25*
X129600000Y-59600000D03*
X205800000Y-61800000D03*
X129600000Y-97600000D03*
X205800000Y-100000000D03*
X105000000Y-114800000D03*
D26*
X84700000Y-60700000D03*
X86900000Y-60700000D03*
X86938035Y-58579272D03*
X86938035Y-53499272D03*
X84688035Y-53499272D03*
X84688035Y-58579272D03*
D27*
X104300000Y-68799620D03*
X104300000Y-69800380D03*
X101700000Y-69800380D03*
X101700000Y-68799620D03*
X99200000Y-68799620D03*
X99200000Y-69800380D03*
X96700000Y-69800380D03*
X96700000Y-68799620D03*
D28*
X85000000Y-70950000D03*
X85000000Y-64450000D03*
D29*
X89000000Y-60700000D03*
D27*
X89000000Y-60199620D03*
X89000000Y-61200380D03*
D30*
X112700000Y-58000000D03*
X116100000Y-58000000D03*
X132600000Y-55700000D03*
X136000000Y-55700000D03*
X150800000Y-54200000D03*
X154200000Y-54200000D03*
X169800000Y-55600000D03*
X173200000Y-55600000D03*
X192300000Y-60400000D03*
X188900000Y-60400000D03*
X220100000Y-61800000D03*
X223500000Y-61800000D03*
X116100000Y-61100000D03*
X112700000Y-61100000D03*
X137000000Y-58700000D03*
X133600000Y-58700000D03*
X154300000Y-57400000D03*
X150900000Y-57400000D03*
X169800000Y-58700000D03*
X173200000Y-58700000D03*
X192300000Y-63300000D03*
X188900000Y-63300000D03*
X223500000Y-64900000D03*
X220100000Y-64900000D03*
X112700000Y-96000000D03*
X116100000Y-96000000D03*
X136000000Y-93800000D03*
X132600000Y-93800000D03*
X154200000Y-92300000D03*
X150800000Y-92300000D03*
X169800000Y-93600000D03*
X173200000Y-93600000D03*
X188900000Y-98300000D03*
X192300000Y-98300000D03*
X223500000Y-99900000D03*
X220100000Y-99900000D03*
X116100000Y-99100000D03*
X112700000Y-99100000D03*
X133600000Y-96800000D03*
X137000000Y-96800000D03*
X154200000Y-95400000D03*
X150800000Y-95400000D03*
X169800000Y-96800000D03*
X173200000Y-96800000D03*
X192300000Y-101500000D03*
X188900000Y-101500000D03*
X220200000Y-103100000D03*
X223600000Y-103100000D03*
X103900000Y-89500000D03*
X107300000Y-89500000D03*
D13*
G36*
X109277276Y-120294615D02*
G01*
X110922724Y-119344615D01*
X112022724Y-121249871D01*
X110377276Y-122199871D01*
X109277276Y-120294615D01*
G37*
G36*
X107577276Y-117350129D02*
G01*
X109222724Y-116400129D01*
X110322724Y-118305385D01*
X108677276Y-119255385D01*
X107577276Y-117350129D01*
G37*
D30*
X122200000Y-118000000D03*
X125600000Y-118000000D03*
X144600000Y-115800000D03*
X141200000Y-115800000D03*
X160300000Y-115800000D03*
X163700000Y-115800000D03*
D16*
X86000000Y-85000000D03*
X108000000Y-85000000D03*
D26*
X96700000Y-74600000D03*
X99240000Y-74600000D03*
X101780000Y-74600000D03*
X104320000Y-74600000D03*
M02*
