G04 #@! TF.GenerationSoftware,KiCad,Pcbnew,5.1.5-52549c5~84~ubuntu18.04.1*
G04 #@! TF.CreationDate,2019-12-02T09:16:55+01:00*
G04 #@! TF.ProjectId,Lily58_Pro,4c696c79-3538-45f5-9072-6f2e6b696361,rev?*
G04 #@! TF.SameCoordinates,Original*
G04 #@! TF.FileFunction,Legend,Bot*
G04 #@! TF.FilePolarity,Positive*
%FSLAX46Y46*%
G04 Gerber Fmt 4.6, Leading zero omitted, Abs format (unit mm)*
G04 Created by KiCad (PCBNEW 5.1.5-52549c5~84~ubuntu18.04.1) date 2019-12-02 09:16:55*
%MOMM*%
%LPD*%
G04 APERTURE LIST*
%ADD10C,0.150000*%
%ADD11C,0.010000*%
%ADD12C,0.250000*%
G04 APERTURE END LIST*
D10*
X88650000Y-39300000D02*
X88650000Y-37400000D01*
X89150000Y-39300000D02*
X88650000Y-39300000D01*
X83700000Y-37400000D02*
X88650000Y-37400000D01*
X83650000Y-39300000D02*
X83650000Y-37400000D01*
X83150000Y-51300000D02*
X83150000Y-39300000D01*
X89150000Y-51300000D02*
X83150000Y-51300000D01*
X89150000Y-39300000D02*
X89150000Y-51300000D01*
X83150000Y-39300000D02*
X83650000Y-39300000D01*
X113600000Y-75600000D02*
X113600000Y-77400000D01*
X111800000Y-75600000D02*
X113600000Y-75600000D01*
X111800000Y-77400000D02*
X111800000Y-75600000D01*
X113600000Y-77400000D02*
X111800000Y-77400000D01*
X113600000Y-79700000D02*
X113600000Y-81500000D01*
X111800000Y-79700000D02*
X113600000Y-79700000D01*
X111800000Y-81500000D02*
X111800000Y-79700000D01*
X113600000Y-81500000D02*
X111800000Y-81500000D01*
X113600000Y-77700000D02*
X113600000Y-79500000D01*
X111800000Y-77700000D02*
X113600000Y-77700000D01*
X111800000Y-79500000D02*
X111800000Y-77700000D01*
X113600000Y-79500000D02*
X111800000Y-79500000D01*
D11*
G36*
X98576767Y-45508607D02*
G01*
X98610791Y-45548838D01*
X98656274Y-45596116D01*
X98704034Y-45641340D01*
X98744886Y-45675409D01*
X98769648Y-45689223D01*
X98769945Y-45689231D01*
X98792385Y-45676144D01*
X98831598Y-45642897D01*
X98878455Y-45598511D01*
X98923829Y-45552007D01*
X98958592Y-45512404D01*
X98973616Y-45488725D01*
X98973693Y-45487872D01*
X98960902Y-45467838D01*
X98927251Y-45428685D01*
X98879818Y-45378613D01*
X98876184Y-45374930D01*
X98816411Y-45320015D01*
X98773382Y-45292230D01*
X98754069Y-45290808D01*
X98719442Y-45316772D01*
X98674205Y-45357699D01*
X98627444Y-45404354D01*
X98588248Y-45447507D01*
X98565705Y-45477925D01*
X98563385Y-45484523D01*
X98576767Y-45508607D01*
G37*
X98576767Y-45508607D02*
X98610791Y-45548838D01*
X98656274Y-45596116D01*
X98704034Y-45641340D01*
X98744886Y-45675409D01*
X98769648Y-45689223D01*
X98769945Y-45689231D01*
X98792385Y-45676144D01*
X98831598Y-45642897D01*
X98878455Y-45598511D01*
X98923829Y-45552007D01*
X98958592Y-45512404D01*
X98973616Y-45488725D01*
X98973693Y-45487872D01*
X98960902Y-45467838D01*
X98927251Y-45428685D01*
X98879818Y-45378613D01*
X98876184Y-45374930D01*
X98816411Y-45320015D01*
X98773382Y-45292230D01*
X98754069Y-45290808D01*
X98719442Y-45316772D01*
X98674205Y-45357699D01*
X98627444Y-45404354D01*
X98588248Y-45447507D01*
X98565705Y-45477925D01*
X98563385Y-45484523D01*
X98576767Y-45508607D01*
G36*
X98539806Y-45982373D02*
G01*
X98581446Y-46031594D01*
X98646611Y-46098875D01*
X98707163Y-46157320D01*
X98778758Y-46224870D01*
X98895764Y-46109085D01*
X98954939Y-46045648D01*
X98995350Y-45992268D01*
X99011668Y-45956084D01*
X99011768Y-45953611D01*
X98997338Y-45920896D01*
X98960046Y-45872788D01*
X98907229Y-45818694D01*
X98904707Y-45816364D01*
X98850200Y-45767810D01*
X98805304Y-45730688D01*
X98778929Y-45712329D01*
X98777586Y-45711785D01*
X98755808Y-45721646D01*
X98715855Y-45752742D01*
X98665773Y-45797337D01*
X98613610Y-45847693D01*
X98567410Y-45896074D01*
X98535223Y-45934743D01*
X98524881Y-45954758D01*
X98539806Y-45982373D01*
G37*
X98539806Y-45982373D02*
X98581446Y-46031594D01*
X98646611Y-46098875D01*
X98707163Y-46157320D01*
X98778758Y-46224870D01*
X98895764Y-46109085D01*
X98954939Y-46045648D01*
X98995350Y-45992268D01*
X99011668Y-45956084D01*
X99011768Y-45953611D01*
X98997338Y-45920896D01*
X98960046Y-45872788D01*
X98907229Y-45818694D01*
X98904707Y-45816364D01*
X98850200Y-45767810D01*
X98805304Y-45730688D01*
X98778929Y-45712329D01*
X98777586Y-45711785D01*
X98755808Y-45721646D01*
X98715855Y-45752742D01*
X98665773Y-45797337D01*
X98613610Y-45847693D01*
X98567410Y-45896074D01*
X98535223Y-45934743D01*
X98524881Y-45954758D01*
X98539806Y-45982373D01*
G36*
X98528387Y-51110807D02*
G01*
X98544482Y-51175708D01*
X98578376Y-51216026D01*
X98635857Y-51238757D01*
X98719693Y-51250627D01*
X98809396Y-51253425D01*
X98892986Y-51246971D01*
X98928964Y-51239831D01*
X98983472Y-51220569D01*
X99013044Y-51193037D01*
X99031432Y-51144800D01*
X99049875Y-51023749D01*
X99037192Y-50912860D01*
X99023202Y-50872961D01*
X98994843Y-50830947D01*
X98949375Y-50804159D01*
X98880738Y-50790930D01*
X98782869Y-50789588D01*
X98730163Y-50792259D01*
X98638171Y-50802725D01*
X98578047Y-50824746D01*
X98543341Y-50865281D01*
X98527598Y-50931291D01*
X98524308Y-51014325D01*
X98528387Y-51110807D01*
G37*
X98528387Y-51110807D02*
X98544482Y-51175708D01*
X98578376Y-51216026D01*
X98635857Y-51238757D01*
X98719693Y-51250627D01*
X98809396Y-51253425D01*
X98892986Y-51246971D01*
X98928964Y-51239831D01*
X98983472Y-51220569D01*
X99013044Y-51193037D01*
X99031432Y-51144800D01*
X99049875Y-51023749D01*
X99037192Y-50912860D01*
X99023202Y-50872961D01*
X98994843Y-50830947D01*
X98949375Y-50804159D01*
X98880738Y-50790930D01*
X98782869Y-50789588D01*
X98730163Y-50792259D01*
X98638171Y-50802725D01*
X98578047Y-50824746D01*
X98543341Y-50865281D01*
X98527598Y-50931291D01*
X98524308Y-51014325D01*
X98528387Y-51110807D01*
G36*
X98498942Y-46559428D02*
G01*
X98534882Y-46605959D01*
X98585267Y-46661833D01*
X98642310Y-46719232D01*
X98698226Y-46770342D01*
X98745230Y-46807344D01*
X98775534Y-46822423D01*
X98776480Y-46822461D01*
X98803082Y-46809136D01*
X98847726Y-46774184D01*
X98902676Y-46725139D01*
X98960194Y-46669537D01*
X99012543Y-46614912D01*
X99051985Y-46568799D01*
X99070783Y-46538733D01*
X99071385Y-46535275D01*
X99058397Y-46512613D01*
X99023428Y-46469710D01*
X98972469Y-46413613D01*
X98934755Y-46374573D01*
X98874758Y-46315932D01*
X98823486Y-46269630D01*
X98787865Y-46241721D01*
X98776548Y-46236308D01*
X98750303Y-46249892D01*
X98706294Y-46285534D01*
X98652125Y-46335568D01*
X98595397Y-46392327D01*
X98543713Y-46448144D01*
X98504677Y-46495354D01*
X98485892Y-46526290D01*
X98485231Y-46530057D01*
X98498942Y-46559428D01*
G37*
X98498942Y-46559428D02*
X98534882Y-46605959D01*
X98585267Y-46661833D01*
X98642310Y-46719232D01*
X98698226Y-46770342D01*
X98745230Y-46807344D01*
X98775534Y-46822423D01*
X98776480Y-46822461D01*
X98803082Y-46809136D01*
X98847726Y-46774184D01*
X98902676Y-46725139D01*
X98960194Y-46669537D01*
X99012543Y-46614912D01*
X99051985Y-46568799D01*
X99070783Y-46538733D01*
X99071385Y-46535275D01*
X99058397Y-46512613D01*
X99023428Y-46469710D01*
X98972469Y-46413613D01*
X98934755Y-46374573D01*
X98874758Y-46315932D01*
X98823486Y-46269630D01*
X98787865Y-46241721D01*
X98776548Y-46236308D01*
X98750303Y-46249892D01*
X98706294Y-46285534D01*
X98652125Y-46335568D01*
X98595397Y-46392327D01*
X98543713Y-46448144D01*
X98504677Y-46495354D01*
X98485892Y-46526290D01*
X98485231Y-46530057D01*
X98498942Y-46559428D01*
G36*
X99026382Y-45515220D02*
G01*
X99061467Y-45563061D01*
X99109402Y-45617219D01*
X99161560Y-45668709D01*
X99209316Y-45708543D01*
X99244045Y-45727736D01*
X99248516Y-45728308D01*
X99274214Y-45715202D01*
X99317133Y-45681269D01*
X99368935Y-45634581D01*
X99421281Y-45583212D01*
X99465834Y-45535237D01*
X99494253Y-45498729D01*
X99500117Y-45484688D01*
X99486401Y-45462595D01*
X99450903Y-45421558D01*
X99400424Y-45369275D01*
X99383010Y-45352192D01*
X99327235Y-45300323D01*
X99280857Y-45261130D01*
X99251739Y-45241130D01*
X99247464Y-45239846D01*
X99218189Y-45253826D01*
X99173602Y-45289844D01*
X99122286Y-45339021D01*
X99072824Y-45392474D01*
X99033800Y-45441323D01*
X99013796Y-45476687D01*
X99012770Y-45482684D01*
X99026382Y-45515220D01*
G37*
X99026382Y-45515220D02*
X99061467Y-45563061D01*
X99109402Y-45617219D01*
X99161560Y-45668709D01*
X99209316Y-45708543D01*
X99244045Y-45727736D01*
X99248516Y-45728308D01*
X99274214Y-45715202D01*
X99317133Y-45681269D01*
X99368935Y-45634581D01*
X99421281Y-45583212D01*
X99465834Y-45535237D01*
X99494253Y-45498729D01*
X99500117Y-45484688D01*
X99486401Y-45462595D01*
X99450903Y-45421558D01*
X99400424Y-45369275D01*
X99383010Y-45352192D01*
X99327235Y-45300323D01*
X99280857Y-45261130D01*
X99251739Y-45241130D01*
X99247464Y-45239846D01*
X99218189Y-45253826D01*
X99173602Y-45289844D01*
X99122286Y-45339021D01*
X99072824Y-45392474D01*
X99033800Y-45441323D01*
X99013796Y-45476687D01*
X99012770Y-45482684D01*
X99026382Y-45515220D01*
G36*
X99123655Y-46555677D02*
G01*
X99157818Y-46599243D01*
X99204824Y-46651652D01*
X99256547Y-46704476D01*
X99304860Y-46749286D01*
X99341638Y-46777655D01*
X99355259Y-46783291D01*
X99376923Y-46769890D01*
X99416278Y-46735266D01*
X99465321Y-46687638D01*
X99516048Y-46635226D01*
X99560456Y-46586250D01*
X99590543Y-46548928D01*
X99598924Y-46533043D01*
X99586064Y-46512472D01*
X99551744Y-46471867D01*
X99502347Y-46418609D01*
X99480268Y-46395894D01*
X99425433Y-46341590D01*
X99380827Y-46299994D01*
X99353476Y-46277553D01*
X99348950Y-46275384D01*
X99325749Y-46289091D01*
X99285744Y-46324566D01*
X99236885Y-46373343D01*
X99187122Y-46426953D01*
X99144406Y-46476929D01*
X99116688Y-46514804D01*
X99110462Y-46529384D01*
X99123655Y-46555677D01*
G37*
X99123655Y-46555677D02*
X99157818Y-46599243D01*
X99204824Y-46651652D01*
X99256547Y-46704476D01*
X99304860Y-46749286D01*
X99341638Y-46777655D01*
X99355259Y-46783291D01*
X99376923Y-46769890D01*
X99416278Y-46735266D01*
X99465321Y-46687638D01*
X99516048Y-46635226D01*
X99560456Y-46586250D01*
X99590543Y-46548928D01*
X99598924Y-46533043D01*
X99586064Y-46512472D01*
X99551744Y-46471867D01*
X99502347Y-46418609D01*
X99480268Y-46395894D01*
X99425433Y-46341590D01*
X99380827Y-46299994D01*
X99353476Y-46277553D01*
X99348950Y-46275384D01*
X99325749Y-46289091D01*
X99285744Y-46324566D01*
X99236885Y-46373343D01*
X99187122Y-46426953D01*
X99144406Y-46476929D01*
X99116688Y-46514804D01*
X99110462Y-46529384D01*
X99123655Y-46555677D01*
G36*
X99652093Y-46566022D02*
G01*
X99687572Y-46612554D01*
X99734237Y-46661175D01*
X99781889Y-46701561D01*
X99820328Y-46723385D01*
X99828516Y-46724769D01*
X99861273Y-46711025D01*
X99907253Y-46676289D01*
X99956461Y-46630309D01*
X99998905Y-46582830D01*
X100024589Y-46543599D01*
X100028026Y-46530201D01*
X100014313Y-46501407D01*
X99979480Y-46457303D01*
X99940779Y-46417038D01*
X99891222Y-46373041D01*
X99850186Y-46342936D01*
X99829917Y-46334000D01*
X99799847Y-46348047D01*
X99756290Y-46383503D01*
X99708968Y-46430343D01*
X99667606Y-46478537D01*
X99641928Y-46518061D01*
X99638000Y-46531905D01*
X99652093Y-46566022D01*
G37*
X99652093Y-46566022D02*
X99687572Y-46612554D01*
X99734237Y-46661175D01*
X99781889Y-46701561D01*
X99820328Y-46723385D01*
X99828516Y-46724769D01*
X99861273Y-46711025D01*
X99907253Y-46676289D01*
X99956461Y-46630309D01*
X99998905Y-46582830D01*
X100024589Y-46543599D01*
X100028026Y-46530201D01*
X100014313Y-46501407D01*
X99979480Y-46457303D01*
X99940779Y-46417038D01*
X99891222Y-46373041D01*
X99850186Y-46342936D01*
X99829917Y-46334000D01*
X99799847Y-46348047D01*
X99756290Y-46383503D01*
X99708968Y-46430343D01*
X99667606Y-46478537D01*
X99641928Y-46518061D01*
X99638000Y-46531905D01*
X99652093Y-46566022D01*
G36*
X99592244Y-46082702D02*
G01*
X99625549Y-46125704D01*
X99671395Y-46178143D01*
X99721874Y-46231558D01*
X99769081Y-46277491D01*
X99805108Y-46307483D01*
X99819462Y-46314461D01*
X99843712Y-46300895D01*
X99884931Y-46265731D01*
X99935107Y-46217268D01*
X99986227Y-46163806D01*
X100030279Y-46113645D01*
X100059251Y-46075084D01*
X100066265Y-46058805D01*
X100052218Y-46031653D01*
X100017131Y-45988123D01*
X99973457Y-45942505D01*
X99906025Y-45877023D01*
X99859094Y-45836623D01*
X99823945Y-45820442D01*
X99791862Y-45827615D01*
X99754126Y-45857276D01*
X99702019Y-45908562D01*
X99695582Y-45914946D01*
X99642060Y-45971040D01*
X99601563Y-46019441D01*
X99580780Y-46051940D01*
X99579385Y-46057595D01*
X99592244Y-46082702D01*
G37*
X99592244Y-46082702D02*
X99625549Y-46125704D01*
X99671395Y-46178143D01*
X99721874Y-46231558D01*
X99769081Y-46277491D01*
X99805108Y-46307483D01*
X99819462Y-46314461D01*
X99843712Y-46300895D01*
X99884931Y-46265731D01*
X99935107Y-46217268D01*
X99986227Y-46163806D01*
X100030279Y-46113645D01*
X100059251Y-46075084D01*
X100066265Y-46058805D01*
X100052218Y-46031653D01*
X100017131Y-45988123D01*
X99973457Y-45942505D01*
X99906025Y-45877023D01*
X99859094Y-45836623D01*
X99823945Y-45820442D01*
X99791862Y-45827615D01*
X99754126Y-45857276D01*
X99702019Y-45908562D01*
X99695582Y-45914946D01*
X99642060Y-45971040D01*
X99601563Y-46019441D01*
X99580780Y-46051940D01*
X99579385Y-46057595D01*
X99592244Y-46082702D01*
G36*
X99534848Y-45513585D02*
G01*
X99571774Y-45557592D01*
X99623587Y-45610797D01*
X99682323Y-45665780D01*
X99740021Y-45715124D01*
X99788717Y-45751408D01*
X99820451Y-45767214D01*
X99822552Y-45767384D01*
X99855704Y-45753521D01*
X99904952Y-45717303D01*
X99962102Y-45666787D01*
X100018960Y-45610029D01*
X100067333Y-45555085D01*
X100099026Y-45510013D01*
X100106924Y-45487771D01*
X100093969Y-45459034D01*
X100059343Y-45411425D01*
X100009401Y-45353304D01*
X99984808Y-45327171D01*
X99921537Y-45266279D01*
X99867342Y-45222634D01*
X99829372Y-45201818D01*
X99823092Y-45200835D01*
X99794503Y-45213994D01*
X99747962Y-45248581D01*
X99691333Y-45297172D01*
X99632478Y-45352346D01*
X99579262Y-45406680D01*
X99539548Y-45452753D01*
X99521199Y-45483142D01*
X99520770Y-45486195D01*
X99534848Y-45513585D01*
G37*
X99534848Y-45513585D02*
X99571774Y-45557592D01*
X99623587Y-45610797D01*
X99682323Y-45665780D01*
X99740021Y-45715124D01*
X99788717Y-45751408D01*
X99820451Y-45767214D01*
X99822552Y-45767384D01*
X99855704Y-45753521D01*
X99904952Y-45717303D01*
X99962102Y-45666787D01*
X100018960Y-45610029D01*
X100067333Y-45555085D01*
X100099026Y-45510013D01*
X100106924Y-45487771D01*
X100093969Y-45459034D01*
X100059343Y-45411425D01*
X100009401Y-45353304D01*
X99984808Y-45327171D01*
X99921537Y-45266279D01*
X99867342Y-45222634D01*
X99829372Y-45201818D01*
X99823092Y-45200835D01*
X99794503Y-45213994D01*
X99747962Y-45248581D01*
X99691333Y-45297172D01*
X99632478Y-45352346D01*
X99579262Y-45406680D01*
X99539548Y-45452753D01*
X99521199Y-45483142D01*
X99520770Y-45486195D01*
X99534848Y-45513585D01*
G36*
X100208473Y-65604373D02*
G01*
X100223267Y-65650577D01*
X100252574Y-65687734D01*
X100316986Y-65727938D01*
X100392151Y-65730620D01*
X100459303Y-65706029D01*
X100489624Y-65687475D01*
X100510439Y-65663673D01*
X100524682Y-65626486D01*
X100535291Y-65567774D01*
X100545201Y-65479398D01*
X100546759Y-65463594D01*
X100570422Y-65336109D01*
X100615790Y-65236298D01*
X100686541Y-65157164D01*
X100722044Y-65130234D01*
X100773841Y-65095977D01*
X100821785Y-65069100D01*
X100871461Y-65048711D01*
X100928453Y-65033922D01*
X100998348Y-65023841D01*
X101086729Y-65017578D01*
X101199182Y-65014242D01*
X101341293Y-65012943D01*
X101458818Y-65012769D01*
X101619231Y-65012398D01*
X101745353Y-65010875D01*
X101841967Y-65007589D01*
X101913853Y-65001925D01*
X101965796Y-64993271D01*
X102002576Y-64981013D01*
X102028977Y-64964539D01*
X102049780Y-64943236D01*
X102055264Y-64936308D01*
X102069793Y-64896891D01*
X102077297Y-64836582D01*
X102076775Y-64773099D01*
X102067231Y-64724166D01*
X102043955Y-64698298D01*
X102001864Y-64670697D01*
X102001359Y-64670435D01*
X101981608Y-64663055D01*
X101951232Y-64657002D01*
X101906652Y-64652153D01*
X101844288Y-64648387D01*
X101760561Y-64645582D01*
X101651891Y-64643617D01*
X101514700Y-64642369D01*
X101345408Y-64641717D01*
X101151917Y-64641538D01*
X100947912Y-64641665D01*
X100779305Y-64642252D01*
X100642419Y-64643612D01*
X100533575Y-64646056D01*
X100449096Y-64649896D01*
X100385304Y-64655442D01*
X100338520Y-64663008D01*
X100305067Y-64672903D01*
X100281266Y-64685440D01*
X100263440Y-64700930D01*
X100249199Y-64717999D01*
X100232704Y-64760900D01*
X100225182Y-64823673D01*
X100227787Y-64887904D01*
X100236291Y-64923971D01*
X100267443Y-64960642D01*
X100322646Y-64991995D01*
X100386931Y-65010568D01*
X100414408Y-65012769D01*
X100441346Y-65013815D01*
X100451152Y-65020893D01*
X100441245Y-65039912D01*
X100409046Y-65076780D01*
X100366866Y-65121655D01*
X100280356Y-65232925D01*
X100227972Y-65351469D01*
X100205901Y-65487008D01*
X100204616Y-65534973D01*
X100208473Y-65604373D01*
G37*
X100208473Y-65604373D02*
X100223267Y-65650577D01*
X100252574Y-65687734D01*
X100316986Y-65727938D01*
X100392151Y-65730620D01*
X100459303Y-65706029D01*
X100489624Y-65687475D01*
X100510439Y-65663673D01*
X100524682Y-65626486D01*
X100535291Y-65567774D01*
X100545201Y-65479398D01*
X100546759Y-65463594D01*
X100570422Y-65336109D01*
X100615790Y-65236298D01*
X100686541Y-65157164D01*
X100722044Y-65130234D01*
X100773841Y-65095977D01*
X100821785Y-65069100D01*
X100871461Y-65048711D01*
X100928453Y-65033922D01*
X100998348Y-65023841D01*
X101086729Y-65017578D01*
X101199182Y-65014242D01*
X101341293Y-65012943D01*
X101458818Y-65012769D01*
X101619231Y-65012398D01*
X101745353Y-65010875D01*
X101841967Y-65007589D01*
X101913853Y-65001925D01*
X101965796Y-64993271D01*
X102002576Y-64981013D01*
X102028977Y-64964539D01*
X102049780Y-64943236D01*
X102055264Y-64936308D01*
X102069793Y-64896891D01*
X102077297Y-64836582D01*
X102076775Y-64773099D01*
X102067231Y-64724166D01*
X102043955Y-64698298D01*
X102001864Y-64670697D01*
X102001359Y-64670435D01*
X101981608Y-64663055D01*
X101951232Y-64657002D01*
X101906652Y-64652153D01*
X101844288Y-64648387D01*
X101760561Y-64645582D01*
X101651891Y-64643617D01*
X101514700Y-64642369D01*
X101345408Y-64641717D01*
X101151917Y-64641538D01*
X100947912Y-64641665D01*
X100779305Y-64642252D01*
X100642419Y-64643612D01*
X100533575Y-64646056D01*
X100449096Y-64649896D01*
X100385304Y-64655442D01*
X100338520Y-64663008D01*
X100305067Y-64672903D01*
X100281266Y-64685440D01*
X100263440Y-64700930D01*
X100249199Y-64717999D01*
X100232704Y-64760900D01*
X100225182Y-64823673D01*
X100227787Y-64887904D01*
X100236291Y-64923971D01*
X100267443Y-64960642D01*
X100322646Y-64991995D01*
X100386931Y-65010568D01*
X100414408Y-65012769D01*
X100441346Y-65013815D01*
X100451152Y-65020893D01*
X100441245Y-65039912D01*
X100409046Y-65076780D01*
X100366866Y-65121655D01*
X100280356Y-65232925D01*
X100227972Y-65351469D01*
X100205901Y-65487008D01*
X100204616Y-65534973D01*
X100208473Y-65604373D01*
G36*
X99335136Y-63124125D02*
G01*
X99337570Y-63264985D01*
X99341262Y-63396700D01*
X99346145Y-63512459D01*
X99352155Y-63605448D01*
X99359224Y-63668854D01*
X99362270Y-63684154D01*
X99415154Y-63837943D01*
X99489907Y-63974804D01*
X99580977Y-64084719D01*
X99587923Y-64091240D01*
X99714685Y-64182698D01*
X99859972Y-64244850D01*
X100016901Y-64277944D01*
X100178590Y-64282224D01*
X100338154Y-64257936D01*
X100488712Y-64205327D01*
X100623379Y-64124642D01*
X100704722Y-64051358D01*
X100765130Y-63981121D01*
X100813912Y-63909457D01*
X100852224Y-63831305D01*
X100881225Y-63741606D01*
X100902071Y-63635303D01*
X100915920Y-63507335D01*
X100923930Y-63352643D01*
X100927259Y-63166169D01*
X100927539Y-63077500D01*
X100927539Y-62609538D01*
X101984392Y-62609538D01*
X102032350Y-62561580D01*
X102071126Y-62497421D01*
X102082529Y-62418855D01*
X102066521Y-62339400D01*
X102033162Y-62283359D01*
X101986016Y-62228538D01*
X100846660Y-62223187D01*
X100570100Y-62222204D01*
X100331116Y-62222046D01*
X100155044Y-62222643D01*
X100155044Y-62609538D01*
X100595385Y-62609538D01*
X100595385Y-63061541D01*
X100594145Y-63246846D01*
X100590438Y-63394521D01*
X100584281Y-63504162D01*
X100575692Y-63575367D01*
X100571496Y-63593276D01*
X100532289Y-63674442D01*
X100469275Y-63752994D01*
X100393668Y-63817498D01*
X100316677Y-63856519D01*
X100312077Y-63857850D01*
X100185195Y-63879337D01*
X100057989Y-63877034D01*
X99939806Y-63852668D01*
X99839996Y-63807964D01*
X99780587Y-63759734D01*
X99746695Y-63719734D01*
X99720250Y-63678650D01*
X99700237Y-63630996D01*
X99685640Y-63571286D01*
X99675442Y-63494035D01*
X99668627Y-63393757D01*
X99664181Y-63264965D01*
X99661292Y-63115615D01*
X99659319Y-62971157D01*
X99658667Y-62860748D01*
X99659604Y-62779375D01*
X99662398Y-62722024D01*
X99667320Y-62683681D01*
X99674636Y-62659334D01*
X99684615Y-62643968D01*
X99686677Y-62641807D01*
X99701534Y-62631195D01*
X99725412Y-62623155D01*
X99763309Y-62617344D01*
X99820222Y-62613420D01*
X99901151Y-62611039D01*
X100011092Y-62609860D01*
X100155044Y-62609538D01*
X100155044Y-62222643D01*
X100128217Y-62222734D01*
X99959910Y-62224289D01*
X99824702Y-62226731D01*
X99721102Y-62230080D01*
X99647617Y-62234357D01*
X99602755Y-62239582D01*
X99599437Y-62240229D01*
X99496253Y-62278410D01*
X99415389Y-62342616D01*
X99362894Y-62427302D01*
X99350588Y-62468449D01*
X99344106Y-62521108D01*
X99339275Y-62605498D01*
X99336027Y-62714808D01*
X99334298Y-62842224D01*
X99334023Y-62980934D01*
X99335136Y-63124125D01*
G37*
X99335136Y-63124125D02*
X99337570Y-63264985D01*
X99341262Y-63396700D01*
X99346145Y-63512459D01*
X99352155Y-63605448D01*
X99359224Y-63668854D01*
X99362270Y-63684154D01*
X99415154Y-63837943D01*
X99489907Y-63974804D01*
X99580977Y-64084719D01*
X99587923Y-64091240D01*
X99714685Y-64182698D01*
X99859972Y-64244850D01*
X100016901Y-64277944D01*
X100178590Y-64282224D01*
X100338154Y-64257936D01*
X100488712Y-64205327D01*
X100623379Y-64124642D01*
X100704722Y-64051358D01*
X100765130Y-63981121D01*
X100813912Y-63909457D01*
X100852224Y-63831305D01*
X100881225Y-63741606D01*
X100902071Y-63635303D01*
X100915920Y-63507335D01*
X100923930Y-63352643D01*
X100927259Y-63166169D01*
X100927539Y-63077500D01*
X100927539Y-62609538D01*
X101984392Y-62609538D01*
X102032350Y-62561580D01*
X102071126Y-62497421D01*
X102082529Y-62418855D01*
X102066521Y-62339400D01*
X102033162Y-62283359D01*
X101986016Y-62228538D01*
X100846660Y-62223187D01*
X100570100Y-62222204D01*
X100331116Y-62222046D01*
X100155044Y-62222643D01*
X100155044Y-62609538D01*
X100595385Y-62609538D01*
X100595385Y-63061541D01*
X100594145Y-63246846D01*
X100590438Y-63394521D01*
X100584281Y-63504162D01*
X100575692Y-63575367D01*
X100571496Y-63593276D01*
X100532289Y-63674442D01*
X100469275Y-63752994D01*
X100393668Y-63817498D01*
X100316677Y-63856519D01*
X100312077Y-63857850D01*
X100185195Y-63879337D01*
X100057989Y-63877034D01*
X99939806Y-63852668D01*
X99839996Y-63807964D01*
X99780587Y-63759734D01*
X99746695Y-63719734D01*
X99720250Y-63678650D01*
X99700237Y-63630996D01*
X99685640Y-63571286D01*
X99675442Y-63494035D01*
X99668627Y-63393757D01*
X99664181Y-63264965D01*
X99661292Y-63115615D01*
X99659319Y-62971157D01*
X99658667Y-62860748D01*
X99659604Y-62779375D01*
X99662398Y-62722024D01*
X99667320Y-62683681D01*
X99674636Y-62659334D01*
X99684615Y-62643968D01*
X99686677Y-62641807D01*
X99701534Y-62631195D01*
X99725412Y-62623155D01*
X99763309Y-62617344D01*
X99820222Y-62613420D01*
X99901151Y-62611039D01*
X100011092Y-62609860D01*
X100155044Y-62609538D01*
X100155044Y-62222643D01*
X100128217Y-62222734D01*
X99959910Y-62224289D01*
X99824702Y-62226731D01*
X99721102Y-62230080D01*
X99647617Y-62234357D01*
X99602755Y-62239582D01*
X99599437Y-62240229D01*
X99496253Y-62278410D01*
X99415389Y-62342616D01*
X99362894Y-62427302D01*
X99350588Y-62468449D01*
X99344106Y-62521108D01*
X99339275Y-62605498D01*
X99336027Y-62714808D01*
X99334298Y-62842224D01*
X99334023Y-62980934D01*
X99335136Y-63124125D01*
G36*
X100231875Y-67005656D02*
G01*
X100276012Y-67138936D01*
X100346438Y-67256604D01*
X100427598Y-67349018D01*
X100560075Y-67460302D01*
X100705554Y-67540754D01*
X100869023Y-67592210D01*
X101055471Y-67616504D01*
X101162000Y-67619019D01*
X101372761Y-67602775D01*
X101560273Y-67557377D01*
X101695976Y-67498335D01*
X101794217Y-67430337D01*
X101890321Y-67338179D01*
X101973617Y-67233871D01*
X102033438Y-67129422D01*
X102041886Y-67108945D01*
X102072773Y-66995681D01*
X102090379Y-66862114D01*
X102093935Y-66723986D01*
X102082673Y-66597036D01*
X102069763Y-66537243D01*
X102006072Y-66379886D01*
X101910085Y-66242493D01*
X101784358Y-66127358D01*
X101631448Y-66036773D01*
X101453911Y-65973032D01*
X101435539Y-65968378D01*
X101334480Y-65951907D01*
X101211057Y-65943914D01*
X101152231Y-65944127D01*
X101152231Y-66302308D01*
X101330447Y-66314438D01*
X101483759Y-66350141D01*
X101609902Y-66408382D01*
X101706612Y-66488128D01*
X101769787Y-66584233D01*
X101796515Y-66676603D01*
X101805481Y-66785248D01*
X101796365Y-66891975D01*
X101776425Y-66962358D01*
X101712815Y-67069361D01*
X101621079Y-67152063D01*
X101500399Y-67210810D01*
X101349954Y-67245947D01*
X101168925Y-67257821D01*
X101081005Y-67255839D01*
X100927193Y-67241377D01*
X100803489Y-67211985D01*
X100703038Y-67165420D01*
X100627114Y-67107221D01*
X100553616Y-67013107D01*
X100509887Y-66902103D01*
X100495942Y-66782650D01*
X100511794Y-66663187D01*
X100557459Y-66552157D01*
X100626031Y-66464502D01*
X100727221Y-66389476D01*
X100851892Y-66338183D01*
X101003440Y-66309575D01*
X101152231Y-66302308D01*
X101152231Y-65944127D01*
X101080753Y-65944388D01*
X100959050Y-65953319D01*
X100868924Y-65968762D01*
X100687679Y-66031247D01*
X100532528Y-66120952D01*
X100405348Y-66235378D01*
X100308012Y-66372025D01*
X100242396Y-66528393D01*
X100210376Y-66701983D01*
X100209893Y-66847233D01*
X100231875Y-67005656D01*
G37*
X100231875Y-67005656D02*
X100276012Y-67138936D01*
X100346438Y-67256604D01*
X100427598Y-67349018D01*
X100560075Y-67460302D01*
X100705554Y-67540754D01*
X100869023Y-67592210D01*
X101055471Y-67616504D01*
X101162000Y-67619019D01*
X101372761Y-67602775D01*
X101560273Y-67557377D01*
X101695976Y-67498335D01*
X101794217Y-67430337D01*
X101890321Y-67338179D01*
X101973617Y-67233871D01*
X102033438Y-67129422D01*
X102041886Y-67108945D01*
X102072773Y-66995681D01*
X102090379Y-66862114D01*
X102093935Y-66723986D01*
X102082673Y-66597036D01*
X102069763Y-66537243D01*
X102006072Y-66379886D01*
X101910085Y-66242493D01*
X101784358Y-66127358D01*
X101631448Y-66036773D01*
X101453911Y-65973032D01*
X101435539Y-65968378D01*
X101334480Y-65951907D01*
X101211057Y-65943914D01*
X101152231Y-65944127D01*
X101152231Y-66302308D01*
X101330447Y-66314438D01*
X101483759Y-66350141D01*
X101609902Y-66408382D01*
X101706612Y-66488128D01*
X101769787Y-66584233D01*
X101796515Y-66676603D01*
X101805481Y-66785248D01*
X101796365Y-66891975D01*
X101776425Y-66962358D01*
X101712815Y-67069361D01*
X101621079Y-67152063D01*
X101500399Y-67210810D01*
X101349954Y-67245947D01*
X101168925Y-67257821D01*
X101081005Y-67255839D01*
X100927193Y-67241377D01*
X100803489Y-67211985D01*
X100703038Y-67165420D01*
X100627114Y-67107221D01*
X100553616Y-67013107D01*
X100509887Y-66902103D01*
X100495942Y-66782650D01*
X100511794Y-66663187D01*
X100557459Y-66552157D01*
X100626031Y-66464502D01*
X100727221Y-66389476D01*
X100851892Y-66338183D01*
X101003440Y-66309575D01*
X101152231Y-66302308D01*
X101152231Y-65944127D01*
X101080753Y-65944388D01*
X100959050Y-65953319D01*
X100868924Y-65968762D01*
X100687679Y-66031247D01*
X100532528Y-66120952D01*
X100405348Y-66235378D01*
X100308012Y-66372025D01*
X100242396Y-66528393D01*
X100210376Y-66701983D01*
X100209893Y-66847233D01*
X100231875Y-67005656D01*
G36*
X99580616Y-51089770D02*
G01*
X99586370Y-51137207D01*
X99599737Y-51167613D01*
X99623808Y-51191995D01*
X99630866Y-51197659D01*
X99641921Y-51205798D01*
X99654780Y-51212766D01*
X99672377Y-51218654D01*
X99697643Y-51223554D01*
X99733510Y-51227555D01*
X99782910Y-51230749D01*
X99848776Y-51233228D01*
X99934040Y-51235080D01*
X100041633Y-51236399D01*
X100174488Y-51237273D01*
X100335536Y-51237795D01*
X100527711Y-51238055D01*
X100753944Y-51238144D01*
X100937308Y-51238154D01*
X101189565Y-51238131D01*
X101405678Y-51238002D01*
X101588577Y-51237675D01*
X101741197Y-51237061D01*
X101866467Y-51236068D01*
X101967321Y-51234605D01*
X102046691Y-51232581D01*
X102107509Y-51229906D01*
X102152707Y-51226488D01*
X102185216Y-51222237D01*
X102207970Y-51217062D01*
X102223900Y-51210871D01*
X102235939Y-51203575D01*
X102243750Y-51197659D01*
X102271250Y-51172286D01*
X102286753Y-51142970D01*
X102293624Y-51098211D01*
X102295229Y-51026512D01*
X102295231Y-51021812D01*
X102292887Y-50943484D01*
X102284199Y-50892969D01*
X102266689Y-50859194D01*
X102256154Y-50847384D01*
X102247459Y-50839574D01*
X102236247Y-50832880D01*
X102219631Y-50827216D01*
X102194729Y-50822497D01*
X102158655Y-50818636D01*
X102108525Y-50815547D01*
X102041454Y-50813144D01*
X101954559Y-50811342D01*
X101844953Y-50810053D01*
X101709754Y-50809192D01*
X101546076Y-50808674D01*
X101351034Y-50808411D01*
X101121745Y-50808318D01*
X100946390Y-50808308D01*
X100689930Y-50808384D01*
X100469692Y-50808659D01*
X100282825Y-50809201D01*
X100126473Y-50810077D01*
X99997783Y-50811357D01*
X99893901Y-50813109D01*
X99811975Y-50815400D01*
X99749149Y-50818300D01*
X99702571Y-50821876D01*
X99669387Y-50826196D01*
X99646743Y-50831330D01*
X99631785Y-50837345D01*
X99627544Y-50839862D01*
X99602454Y-50859855D01*
X99587980Y-50885667D01*
X99581256Y-50927674D01*
X99579418Y-50996254D01*
X99579385Y-51014290D01*
X99580616Y-51089770D01*
G37*
X99580616Y-51089770D02*
X99586370Y-51137207D01*
X99599737Y-51167613D01*
X99623808Y-51191995D01*
X99630866Y-51197659D01*
X99641921Y-51205798D01*
X99654780Y-51212766D01*
X99672377Y-51218654D01*
X99697643Y-51223554D01*
X99733510Y-51227555D01*
X99782910Y-51230749D01*
X99848776Y-51233228D01*
X99934040Y-51235080D01*
X100041633Y-51236399D01*
X100174488Y-51237273D01*
X100335536Y-51237795D01*
X100527711Y-51238055D01*
X100753944Y-51238144D01*
X100937308Y-51238154D01*
X101189565Y-51238131D01*
X101405678Y-51238002D01*
X101588577Y-51237675D01*
X101741197Y-51237061D01*
X101866467Y-51236068D01*
X101967321Y-51234605D01*
X102046691Y-51232581D01*
X102107509Y-51229906D01*
X102152707Y-51226488D01*
X102185216Y-51222237D01*
X102207970Y-51217062D01*
X102223900Y-51210871D01*
X102235939Y-51203575D01*
X102243750Y-51197659D01*
X102271250Y-51172286D01*
X102286753Y-51142970D01*
X102293624Y-51098211D01*
X102295229Y-51026512D01*
X102295231Y-51021812D01*
X102292887Y-50943484D01*
X102284199Y-50892969D01*
X102266689Y-50859194D01*
X102256154Y-50847384D01*
X102247459Y-50839574D01*
X102236247Y-50832880D01*
X102219631Y-50827216D01*
X102194729Y-50822497D01*
X102158655Y-50818636D01*
X102108525Y-50815547D01*
X102041454Y-50813144D01*
X101954559Y-50811342D01*
X101844953Y-50810053D01*
X101709754Y-50809192D01*
X101546076Y-50808674D01*
X101351034Y-50808411D01*
X101121745Y-50808318D01*
X100946390Y-50808308D01*
X100689930Y-50808384D01*
X100469692Y-50808659D01*
X100282825Y-50809201D01*
X100126473Y-50810077D01*
X99997783Y-50811357D01*
X99893901Y-50813109D01*
X99811975Y-50815400D01*
X99749149Y-50818300D01*
X99702571Y-50821876D01*
X99669387Y-50826196D01*
X99646743Y-50831330D01*
X99631785Y-50837345D01*
X99627544Y-50839862D01*
X99602454Y-50859855D01*
X99587980Y-50885667D01*
X99581256Y-50927674D01*
X99579418Y-50996254D01*
X99579385Y-51014290D01*
X99580616Y-51089770D01*
G36*
X98522506Y-48601678D02*
G01*
X98530817Y-48621544D01*
X98547451Y-48638230D01*
X98574786Y-48652033D01*
X98615199Y-48663248D01*
X98671069Y-48672172D01*
X98744774Y-48679101D01*
X98838691Y-48684332D01*
X98955199Y-48688161D01*
X99096675Y-48690885D01*
X99265498Y-48692798D01*
X99464045Y-48694199D01*
X99694695Y-48695383D01*
X99959825Y-48696646D01*
X100239645Y-48698154D01*
X101894693Y-48707923D01*
X101904462Y-49523036D01*
X101906884Y-49733364D01*
X101909134Y-49907943D01*
X101911935Y-50050093D01*
X101916006Y-50163132D01*
X101922069Y-50250378D01*
X101930846Y-50315150D01*
X101943059Y-50360767D01*
X101959427Y-50390547D01*
X101980674Y-50407808D01*
X102007519Y-50415869D01*
X102040684Y-50418049D01*
X102080892Y-50417666D01*
X102098894Y-50417538D01*
X102170960Y-50414593D01*
X102216996Y-50403434D01*
X102249760Y-50380575D01*
X102255393Y-50374777D01*
X102264330Y-50364228D01*
X102271821Y-50351205D01*
X102277991Y-50332399D01*
X102282970Y-50304499D01*
X102286885Y-50264196D01*
X102289864Y-50208180D01*
X102292034Y-50133141D01*
X102293524Y-50035769D01*
X102294461Y-49912754D01*
X102294972Y-49760787D01*
X102295187Y-49576557D01*
X102295231Y-49356754D01*
X102295231Y-48353273D01*
X102250010Y-48310790D01*
X102204790Y-48268308D01*
X98609274Y-48268308D01*
X98566791Y-48313528D01*
X98542291Y-48347441D01*
X98529400Y-48390878D01*
X98525031Y-48456450D01*
X98524930Y-48484490D01*
X98523729Y-48520038D01*
X98521340Y-48551222D01*
X98520139Y-48578336D01*
X98522506Y-48601678D01*
G37*
X98522506Y-48601678D02*
X98530817Y-48621544D01*
X98547451Y-48638230D01*
X98574786Y-48652033D01*
X98615199Y-48663248D01*
X98671069Y-48672172D01*
X98744774Y-48679101D01*
X98838691Y-48684332D01*
X98955199Y-48688161D01*
X99096675Y-48690885D01*
X99265498Y-48692798D01*
X99464045Y-48694199D01*
X99694695Y-48695383D01*
X99959825Y-48696646D01*
X100239645Y-48698154D01*
X101894693Y-48707923D01*
X101904462Y-49523036D01*
X101906884Y-49733364D01*
X101909134Y-49907943D01*
X101911935Y-50050093D01*
X101916006Y-50163132D01*
X101922069Y-50250378D01*
X101930846Y-50315150D01*
X101943059Y-50360767D01*
X101959427Y-50390547D01*
X101980674Y-50407808D01*
X102007519Y-50415869D01*
X102040684Y-50418049D01*
X102080892Y-50417666D01*
X102098894Y-50417538D01*
X102170960Y-50414593D01*
X102216996Y-50403434D01*
X102249760Y-50380575D01*
X102255393Y-50374777D01*
X102264330Y-50364228D01*
X102271821Y-50351205D01*
X102277991Y-50332399D01*
X102282970Y-50304499D01*
X102286885Y-50264196D01*
X102289864Y-50208180D01*
X102292034Y-50133141D01*
X102293524Y-50035769D01*
X102294461Y-49912754D01*
X102294972Y-49760787D01*
X102295187Y-49576557D01*
X102295231Y-49356754D01*
X102295231Y-48353273D01*
X102250010Y-48310790D01*
X102204790Y-48268308D01*
X98609274Y-48268308D01*
X98566791Y-48313528D01*
X98542291Y-48347441D01*
X98529400Y-48390878D01*
X98525031Y-48456450D01*
X98524930Y-48484490D01*
X98523729Y-48520038D01*
X98521340Y-48551222D01*
X98520139Y-48578336D01*
X98522506Y-48601678D01*
G36*
X98523569Y-52251891D02*
G01*
X98537813Y-52326575D01*
X98561648Y-52374104D01*
X98598988Y-52420231D01*
X100168687Y-52430000D01*
X100453375Y-52431800D01*
X100701605Y-52433472D01*
X100915995Y-52435091D01*
X101099164Y-52436734D01*
X101253728Y-52438478D01*
X101382307Y-52440400D01*
X101487518Y-52442576D01*
X101571980Y-52445083D01*
X101638311Y-52447998D01*
X101689129Y-52451398D01*
X101727051Y-52455358D01*
X101754697Y-52459957D01*
X101774685Y-52465271D01*
X101789632Y-52471376D01*
X101801314Y-52477837D01*
X101852658Y-52525810D01*
X101895964Y-52594952D01*
X101921201Y-52667507D01*
X101924000Y-52695053D01*
X101936966Y-52728343D01*
X101968523Y-52769300D01*
X101971958Y-52772811D01*
X102033027Y-52809124D01*
X102111507Y-52822967D01*
X102192577Y-52813960D01*
X102261415Y-52781723D01*
X102263289Y-52780274D01*
X102290298Y-52755612D01*
X102305650Y-52727483D01*
X102312460Y-52684727D01*
X102313843Y-52616186D01*
X102313752Y-52599543D01*
X102302916Y-52468790D01*
X102274928Y-52361070D01*
X102207711Y-52239648D01*
X102108833Y-52137898D01*
X101985781Y-52061786D01*
X101875154Y-52009923D01*
X100239971Y-52004607D01*
X98604788Y-51999290D01*
X98564548Y-52042483D01*
X98537065Y-52095199D01*
X98523363Y-52169884D01*
X98523569Y-52251891D01*
G37*
X98523569Y-52251891D02*
X98537813Y-52326575D01*
X98561648Y-52374104D01*
X98598988Y-52420231D01*
X100168687Y-52430000D01*
X100453375Y-52431800D01*
X100701605Y-52433472D01*
X100915995Y-52435091D01*
X101099164Y-52436734D01*
X101253728Y-52438478D01*
X101382307Y-52440400D01*
X101487518Y-52442576D01*
X101571980Y-52445083D01*
X101638311Y-52447998D01*
X101689129Y-52451398D01*
X101727051Y-52455358D01*
X101754697Y-52459957D01*
X101774685Y-52465271D01*
X101789632Y-52471376D01*
X101801314Y-52477837D01*
X101852658Y-52525810D01*
X101895964Y-52594952D01*
X101921201Y-52667507D01*
X101924000Y-52695053D01*
X101936966Y-52728343D01*
X101968523Y-52769300D01*
X101971958Y-52772811D01*
X102033027Y-52809124D01*
X102111507Y-52822967D01*
X102192577Y-52813960D01*
X102261415Y-52781723D01*
X102263289Y-52780274D01*
X102290298Y-52755612D01*
X102305650Y-52727483D01*
X102312460Y-52684727D01*
X102313843Y-52616186D01*
X102313752Y-52599543D01*
X102302916Y-52468790D01*
X102274928Y-52361070D01*
X102207711Y-52239648D01*
X102108833Y-52137898D01*
X101985781Y-52061786D01*
X101875154Y-52009923D01*
X100239971Y-52004607D01*
X98604788Y-51999290D01*
X98564548Y-52042483D01*
X98537065Y-52095199D01*
X98523363Y-52169884D01*
X98523569Y-52251891D01*
G36*
X98485266Y-60249716D02*
G01*
X98516068Y-60458419D01*
X98571139Y-60651879D01*
X98636254Y-60797235D01*
X98695167Y-60886191D01*
X98774739Y-60980436D01*
X98863982Y-61068642D01*
X98951904Y-61139476D01*
X98993807Y-61165879D01*
X99163433Y-61237476D01*
X99347330Y-61273834D01*
X99542212Y-61274623D01*
X99740462Y-61240628D01*
X99889076Y-61193846D01*
X100031106Y-61129291D01*
X100177240Y-61041564D01*
X100284576Y-60965795D01*
X100436124Y-60853429D01*
X100468341Y-60902598D01*
X100584126Y-61051309D01*
X100721055Y-61180278D01*
X100868968Y-61279978D01*
X100873316Y-61282334D01*
X100930883Y-61311888D01*
X100979717Y-61331441D01*
X101031168Y-61343455D01*
X101096588Y-61350392D01*
X101187331Y-61354713D01*
X101210847Y-61355525D01*
X101310820Y-61357882D01*
X101383921Y-61356091D01*
X101442268Y-61348654D01*
X101497975Y-61334072D01*
X101558808Y-61312493D01*
X101749705Y-61220628D01*
X101915716Y-61099615D01*
X102055398Y-60951571D01*
X102167308Y-60778612D01*
X102250002Y-60582856D01*
X102302036Y-60366419D01*
X102319834Y-60196538D01*
X102322846Y-60094951D01*
X102322209Y-59991053D01*
X102318149Y-59902008D01*
X102315590Y-59874154D01*
X102274698Y-59659884D01*
X102204340Y-59463372D01*
X102107488Y-59287095D01*
X101987116Y-59133530D01*
X101846198Y-59005151D01*
X101687705Y-58904436D01*
X101514611Y-58833862D01*
X101329890Y-58795904D01*
X101155025Y-58793314D01*
X101155025Y-59327268D01*
X101251019Y-59329603D01*
X101322111Y-59337963D01*
X101382306Y-59354752D01*
X101428496Y-59374215D01*
X101566450Y-59459095D01*
X101681067Y-59571475D01*
X101769870Y-59705811D01*
X101830381Y-59856559D01*
X101860122Y-60018174D01*
X101856614Y-60185112D01*
X101836887Y-60287971D01*
X101777977Y-60449709D01*
X101693360Y-60586839D01*
X101585969Y-60696434D01*
X101458740Y-60775567D01*
X101314606Y-60821313D01*
X101299510Y-60823917D01*
X101222789Y-60824488D01*
X101128731Y-60807449D01*
X101110735Y-60802511D01*
X101018499Y-60765398D01*
X100935383Y-60708016D01*
X100857599Y-60626154D01*
X100781360Y-60515597D01*
X100702876Y-60372132D01*
X100677833Y-60321015D01*
X100633861Y-60228070D01*
X100595188Y-60144029D01*
X100565495Y-60077053D01*
X100548463Y-60035306D01*
X100546824Y-60030461D01*
X100529293Y-59984758D01*
X100501348Y-59922384D01*
X100483868Y-59886446D01*
X100456466Y-59819770D01*
X100445368Y-59765468D01*
X100446663Y-59748897D01*
X100467111Y-59713116D01*
X100513724Y-59656808D01*
X100582529Y-59584321D01*
X100669551Y-59500002D01*
X100699852Y-59471914D01*
X100728191Y-59453365D01*
X100781017Y-59424512D01*
X100847302Y-59391357D01*
X100852484Y-59388876D01*
X100921934Y-59357878D01*
X100980051Y-59339353D01*
X101042019Y-59330210D01*
X101123018Y-59327358D01*
X101155025Y-59327268D01*
X101155025Y-58793314D01*
X101136514Y-58793039D01*
X101033504Y-58806244D01*
X100834952Y-58860678D01*
X100647803Y-58951676D01*
X100471230Y-59079732D01*
X100307521Y-59241812D01*
X100196702Y-59367257D01*
X100147488Y-59303205D01*
X100015213Y-59159297D01*
X99867435Y-59050156D01*
X99706596Y-58976633D01*
X99535142Y-58939576D01*
X99516050Y-58939603D01*
X99516050Y-59456197D01*
X99637631Y-59489737D01*
X99720338Y-59535586D01*
X99803549Y-59608921D01*
X99888392Y-59716211D01*
X99975541Y-59858588D01*
X100065666Y-60037185D01*
X100159439Y-60253134D01*
X100187661Y-60323538D01*
X100212184Y-60390098D01*
X100219111Y-60433179D01*
X100206031Y-60465309D01*
X100170535Y-60499013D01*
X100150885Y-60514669D01*
X99990992Y-60623366D01*
X99830491Y-60700296D01*
X99672778Y-60745716D01*
X99521251Y-60759885D01*
X99379307Y-60743061D01*
X99250344Y-60695503D01*
X99137760Y-60617470D01*
X99044951Y-60509218D01*
X98998841Y-60427062D01*
X98974754Y-60372121D01*
X98959225Y-60322849D01*
X98950438Y-60268013D01*
X98946580Y-60196383D01*
X98945834Y-60098846D01*
X98947060Y-59998475D01*
X98951528Y-59925934D01*
X98960995Y-59870005D01*
X98977218Y-59819468D01*
X98996585Y-59774635D01*
X99071062Y-59651950D01*
X99165534Y-59557017D01*
X99274715Y-59491583D01*
X99393316Y-59457394D01*
X99516050Y-59456197D01*
X99516050Y-58939603D01*
X99355516Y-58939837D01*
X99193626Y-58971328D01*
X99019507Y-59040289D01*
X98864786Y-59141562D01*
X98732744Y-59271862D01*
X98626662Y-59427900D01*
X98549822Y-59606392D01*
X98545317Y-59620633D01*
X98499207Y-59821974D01*
X98479418Y-60034618D01*
X98485266Y-60249716D01*
G37*
X98485266Y-60249716D02*
X98516068Y-60458419D01*
X98571139Y-60651879D01*
X98636254Y-60797235D01*
X98695167Y-60886191D01*
X98774739Y-60980436D01*
X98863982Y-61068642D01*
X98951904Y-61139476D01*
X98993807Y-61165879D01*
X99163433Y-61237476D01*
X99347330Y-61273834D01*
X99542212Y-61274623D01*
X99740462Y-61240628D01*
X99889076Y-61193846D01*
X100031106Y-61129291D01*
X100177240Y-61041564D01*
X100284576Y-60965795D01*
X100436124Y-60853429D01*
X100468341Y-60902598D01*
X100584126Y-61051309D01*
X100721055Y-61180278D01*
X100868968Y-61279978D01*
X100873316Y-61282334D01*
X100930883Y-61311888D01*
X100979717Y-61331441D01*
X101031168Y-61343455D01*
X101096588Y-61350392D01*
X101187331Y-61354713D01*
X101210847Y-61355525D01*
X101310820Y-61357882D01*
X101383921Y-61356091D01*
X101442268Y-61348654D01*
X101497975Y-61334072D01*
X101558808Y-61312493D01*
X101749705Y-61220628D01*
X101915716Y-61099615D01*
X102055398Y-60951571D01*
X102167308Y-60778612D01*
X102250002Y-60582856D01*
X102302036Y-60366419D01*
X102319834Y-60196538D01*
X102322846Y-60094951D01*
X102322209Y-59991053D01*
X102318149Y-59902008D01*
X102315590Y-59874154D01*
X102274698Y-59659884D01*
X102204340Y-59463372D01*
X102107488Y-59287095D01*
X101987116Y-59133530D01*
X101846198Y-59005151D01*
X101687705Y-58904436D01*
X101514611Y-58833862D01*
X101329890Y-58795904D01*
X101155025Y-58793314D01*
X101155025Y-59327268D01*
X101251019Y-59329603D01*
X101322111Y-59337963D01*
X101382306Y-59354752D01*
X101428496Y-59374215D01*
X101566450Y-59459095D01*
X101681067Y-59571475D01*
X101769870Y-59705811D01*
X101830381Y-59856559D01*
X101860122Y-60018174D01*
X101856614Y-60185112D01*
X101836887Y-60287971D01*
X101777977Y-60449709D01*
X101693360Y-60586839D01*
X101585969Y-60696434D01*
X101458740Y-60775567D01*
X101314606Y-60821313D01*
X101299510Y-60823917D01*
X101222789Y-60824488D01*
X101128731Y-60807449D01*
X101110735Y-60802511D01*
X101018499Y-60765398D01*
X100935383Y-60708016D01*
X100857599Y-60626154D01*
X100781360Y-60515597D01*
X100702876Y-60372132D01*
X100677833Y-60321015D01*
X100633861Y-60228070D01*
X100595188Y-60144029D01*
X100565495Y-60077053D01*
X100548463Y-60035306D01*
X100546824Y-60030461D01*
X100529293Y-59984758D01*
X100501348Y-59922384D01*
X100483868Y-59886446D01*
X100456466Y-59819770D01*
X100445368Y-59765468D01*
X100446663Y-59748897D01*
X100467111Y-59713116D01*
X100513724Y-59656808D01*
X100582529Y-59584321D01*
X100669551Y-59500002D01*
X100699852Y-59471914D01*
X100728191Y-59453365D01*
X100781017Y-59424512D01*
X100847302Y-59391357D01*
X100852484Y-59388876D01*
X100921934Y-59357878D01*
X100980051Y-59339353D01*
X101042019Y-59330210D01*
X101123018Y-59327358D01*
X101155025Y-59327268D01*
X101155025Y-58793314D01*
X101136514Y-58793039D01*
X101033504Y-58806244D01*
X100834952Y-58860678D01*
X100647803Y-58951676D01*
X100471230Y-59079732D01*
X100307521Y-59241812D01*
X100196702Y-59367257D01*
X100147488Y-59303205D01*
X100015213Y-59159297D01*
X99867435Y-59050156D01*
X99706596Y-58976633D01*
X99535142Y-58939576D01*
X99516050Y-58939603D01*
X99516050Y-59456197D01*
X99637631Y-59489737D01*
X99720338Y-59535586D01*
X99803549Y-59608921D01*
X99888392Y-59716211D01*
X99975541Y-59858588D01*
X100065666Y-60037185D01*
X100159439Y-60253134D01*
X100187661Y-60323538D01*
X100212184Y-60390098D01*
X100219111Y-60433179D01*
X100206031Y-60465309D01*
X100170535Y-60499013D01*
X100150885Y-60514669D01*
X99990992Y-60623366D01*
X99830491Y-60700296D01*
X99672778Y-60745716D01*
X99521251Y-60759885D01*
X99379307Y-60743061D01*
X99250344Y-60695503D01*
X99137760Y-60617470D01*
X99044951Y-60509218D01*
X98998841Y-60427062D01*
X98974754Y-60372121D01*
X98959225Y-60322849D01*
X98950438Y-60268013D01*
X98946580Y-60196383D01*
X98945834Y-60098846D01*
X98947060Y-59998475D01*
X98951528Y-59925934D01*
X98960995Y-59870005D01*
X98977218Y-59819468D01*
X98996585Y-59774635D01*
X99071062Y-59651950D01*
X99165534Y-59557017D01*
X99274715Y-59491583D01*
X99393316Y-59457394D01*
X99516050Y-59456197D01*
X99516050Y-58939603D01*
X99355516Y-58939837D01*
X99193626Y-58971328D01*
X99019507Y-59040289D01*
X98864786Y-59141562D01*
X98732744Y-59271862D01*
X98626662Y-59427900D01*
X98549822Y-59606392D01*
X98545317Y-59620633D01*
X98499207Y-59821974D01*
X98479418Y-60034618D01*
X98485266Y-60249716D01*
G36*
X98544540Y-57603821D02*
G01*
X98547028Y-57722140D01*
X98551863Y-57814316D01*
X98559776Y-57883582D01*
X98571498Y-57933170D01*
X98587760Y-57966313D01*
X98609292Y-57986243D01*
X98636826Y-57996192D01*
X98671093Y-57999393D01*
X98712824Y-57999079D01*
X98756135Y-57998461D01*
X98837547Y-57995557D01*
X98892498Y-57985062D01*
X98933295Y-57964301D01*
X98941495Y-57958167D01*
X98992721Y-57917873D01*
X98997861Y-57250379D01*
X99003000Y-56582886D01*
X99198385Y-56559554D01*
X99401964Y-56535416D01*
X99569164Y-56515993D01*
X99702370Y-56501036D01*
X99803963Y-56490297D01*
X99876326Y-56483526D01*
X99921841Y-56480476D01*
X99942892Y-56480897D01*
X99944800Y-56481672D01*
X99943160Y-56502832D01*
X99931037Y-56550474D01*
X99911143Y-56614015D01*
X99868561Y-56797580D01*
X99857074Y-56995213D01*
X99875674Y-57198701D01*
X99923352Y-57399832D01*
X99999101Y-57590392D01*
X100040475Y-57667764D01*
X100156145Y-57829217D01*
X100301879Y-57972093D01*
X100471007Y-58091149D01*
X100656859Y-58181138D01*
X100722385Y-58204089D01*
X100831539Y-58227897D01*
X100964982Y-58240700D01*
X101109540Y-58242605D01*
X101252039Y-58233722D01*
X101379303Y-58214159D01*
X101440229Y-58198190D01*
X101646000Y-58113124D01*
X101828966Y-57996412D01*
X101989610Y-57847690D01*
X102106853Y-57698933D01*
X102198548Y-57533987D01*
X102266763Y-57344538D01*
X102309787Y-57138538D01*
X102325908Y-56923936D01*
X102315822Y-56728461D01*
X102272391Y-56510339D01*
X102192425Y-56298821D01*
X102089045Y-56112555D01*
X102026819Y-56024755D01*
X101959671Y-55945879D01*
X101894886Y-55883482D01*
X101839751Y-55845119D01*
X101825376Y-55839166D01*
X101782900Y-55842109D01*
X101721529Y-55866350D01*
X101651075Y-55906669D01*
X101581346Y-55957849D01*
X101550082Y-55985629D01*
X101509115Y-56043488D01*
X101493425Y-56107396D01*
X101504959Y-56164678D01*
X101519507Y-56184873D01*
X101581869Y-56258279D01*
X101648899Y-56352882D01*
X101710733Y-56453606D01*
X101757507Y-56545374D01*
X101761484Y-56554693D01*
X101785417Y-56617136D01*
X101800757Y-56673756D01*
X101809358Y-56736605D01*
X101813073Y-56817735D01*
X101813764Y-56894538D01*
X101812512Y-56999292D01*
X101807347Y-57076415D01*
X101796722Y-57137282D01*
X101779092Y-57193268D01*
X101770041Y-57216095D01*
X101688275Y-57370082D01*
X101581896Y-57499570D01*
X101470832Y-57589067D01*
X101324069Y-57662241D01*
X101170383Y-57699855D01*
X101015133Y-57703445D01*
X100863679Y-57674548D01*
X100721379Y-57614701D01*
X100593591Y-57525441D01*
X100485676Y-57408304D01*
X100412434Y-57285570D01*
X100361692Y-57158452D01*
X100333064Y-57032217D01*
X100324111Y-56892823D01*
X100327271Y-56795314D01*
X100336839Y-56688684D01*
X100353702Y-56602423D01*
X100382109Y-56517944D01*
X100401075Y-56472611D01*
X100445714Y-56343572D01*
X100464417Y-56224254D01*
X100457514Y-56119835D01*
X100425337Y-56035494D01*
X100369404Y-55977183D01*
X100342258Y-55963048D01*
X100307858Y-55953756D01*
X100261066Y-55949379D01*
X100196741Y-55949990D01*
X100109744Y-55955660D01*
X99994937Y-55966461D01*
X99847179Y-55982466D01*
X99826617Y-55984782D01*
X99694457Y-55999472D01*
X99555158Y-56014552D01*
X99422025Y-56028606D01*
X99308363Y-56040220D01*
X99266770Y-56044307D01*
X99094412Y-56061057D01*
X98956631Y-56074927D01*
X98849093Y-56086620D01*
X98767463Y-56096842D01*
X98707407Y-56106299D01*
X98664589Y-56115695D01*
X98634675Y-56125736D01*
X98613331Y-56137127D01*
X98596222Y-56150574D01*
X98592447Y-56154016D01*
X98543847Y-56199057D01*
X98543847Y-57059682D01*
X98543680Y-57275825D01*
X98543667Y-57456127D01*
X98544540Y-57603821D01*
G37*
X98544540Y-57603821D02*
X98547028Y-57722140D01*
X98551863Y-57814316D01*
X98559776Y-57883582D01*
X98571498Y-57933170D01*
X98587760Y-57966313D01*
X98609292Y-57986243D01*
X98636826Y-57996192D01*
X98671093Y-57999393D01*
X98712824Y-57999079D01*
X98756135Y-57998461D01*
X98837547Y-57995557D01*
X98892498Y-57985062D01*
X98933295Y-57964301D01*
X98941495Y-57958167D01*
X98992721Y-57917873D01*
X98997861Y-57250379D01*
X99003000Y-56582886D01*
X99198385Y-56559554D01*
X99401964Y-56535416D01*
X99569164Y-56515993D01*
X99702370Y-56501036D01*
X99803963Y-56490297D01*
X99876326Y-56483526D01*
X99921841Y-56480476D01*
X99942892Y-56480897D01*
X99944800Y-56481672D01*
X99943160Y-56502832D01*
X99931037Y-56550474D01*
X99911143Y-56614015D01*
X99868561Y-56797580D01*
X99857074Y-56995213D01*
X99875674Y-57198701D01*
X99923352Y-57399832D01*
X99999101Y-57590392D01*
X100040475Y-57667764D01*
X100156145Y-57829217D01*
X100301879Y-57972093D01*
X100471007Y-58091149D01*
X100656859Y-58181138D01*
X100722385Y-58204089D01*
X100831539Y-58227897D01*
X100964982Y-58240700D01*
X101109540Y-58242605D01*
X101252039Y-58233722D01*
X101379303Y-58214159D01*
X101440229Y-58198190D01*
X101646000Y-58113124D01*
X101828966Y-57996412D01*
X101989610Y-57847690D01*
X102106853Y-57698933D01*
X102198548Y-57533987D01*
X102266763Y-57344538D01*
X102309787Y-57138538D01*
X102325908Y-56923936D01*
X102315822Y-56728461D01*
X102272391Y-56510339D01*
X102192425Y-56298821D01*
X102089045Y-56112555D01*
X102026819Y-56024755D01*
X101959671Y-55945879D01*
X101894886Y-55883482D01*
X101839751Y-55845119D01*
X101825376Y-55839166D01*
X101782900Y-55842109D01*
X101721529Y-55866350D01*
X101651075Y-55906669D01*
X101581346Y-55957849D01*
X101550082Y-55985629D01*
X101509115Y-56043488D01*
X101493425Y-56107396D01*
X101504959Y-56164678D01*
X101519507Y-56184873D01*
X101581869Y-56258279D01*
X101648899Y-56352882D01*
X101710733Y-56453606D01*
X101757507Y-56545374D01*
X101761484Y-56554693D01*
X101785417Y-56617136D01*
X101800757Y-56673756D01*
X101809358Y-56736605D01*
X101813073Y-56817735D01*
X101813764Y-56894538D01*
X101812512Y-56999292D01*
X101807347Y-57076415D01*
X101796722Y-57137282D01*
X101779092Y-57193268D01*
X101770041Y-57216095D01*
X101688275Y-57370082D01*
X101581896Y-57499570D01*
X101470832Y-57589067D01*
X101324069Y-57662241D01*
X101170383Y-57699855D01*
X101015133Y-57703445D01*
X100863679Y-57674548D01*
X100721379Y-57614701D01*
X100593591Y-57525441D01*
X100485676Y-57408304D01*
X100412434Y-57285570D01*
X100361692Y-57158452D01*
X100333064Y-57032217D01*
X100324111Y-56892823D01*
X100327271Y-56795314D01*
X100336839Y-56688684D01*
X100353702Y-56602423D01*
X100382109Y-56517944D01*
X100401075Y-56472611D01*
X100445714Y-56343572D01*
X100464417Y-56224254D01*
X100457514Y-56119835D01*
X100425337Y-56035494D01*
X100369404Y-55977183D01*
X100342258Y-55963048D01*
X100307858Y-55953756D01*
X100261066Y-55949379D01*
X100196741Y-55949990D01*
X100109744Y-55955660D01*
X99994937Y-55966461D01*
X99847179Y-55982466D01*
X99826617Y-55984782D01*
X99694457Y-55999472D01*
X99555158Y-56014552D01*
X99422025Y-56028606D01*
X99308363Y-56040220D01*
X99266770Y-56044307D01*
X99094412Y-56061057D01*
X98956631Y-56074927D01*
X98849093Y-56086620D01*
X98767463Y-56096842D01*
X98707407Y-56106299D01*
X98664589Y-56115695D01*
X98634675Y-56125736D01*
X98613331Y-56137127D01*
X98596222Y-56150574D01*
X98592447Y-56154016D01*
X98543847Y-56199057D01*
X98543847Y-57059682D01*
X98543680Y-57275825D01*
X98543667Y-57456127D01*
X98544540Y-57603821D01*
G36*
X97346259Y-43843774D02*
G01*
X97383468Y-43886951D01*
X97437819Y-43941802D01*
X97481457Y-43982344D01*
X97547746Y-44042228D01*
X97605808Y-44095130D01*
X97647699Y-44133788D01*
X97662187Y-44147538D01*
X97691096Y-44172370D01*
X97742836Y-44213631D01*
X97808806Y-44264536D01*
X97850231Y-44295832D01*
X98118961Y-44485457D01*
X98378003Y-44643108D01*
X98634256Y-44772196D01*
X98894620Y-44876128D01*
X99165995Y-44958313D01*
X99217555Y-44971307D01*
X99337167Y-44993242D01*
X99481645Y-45008284D01*
X99640364Y-45016355D01*
X99802697Y-45017376D01*
X99958018Y-45011270D01*
X100095701Y-44997958D01*
X100200656Y-44978523D01*
X100269797Y-44961974D01*
X100322557Y-44951434D01*
X100349128Y-44948817D01*
X100350359Y-44949322D01*
X100349979Y-44970311D01*
X100343288Y-45021202D01*
X100331512Y-45093555D01*
X100320996Y-45151923D01*
X100286242Y-45443642D01*
X100289280Y-45741257D01*
X100329775Y-46042094D01*
X100407391Y-46343481D01*
X100502162Y-46597769D01*
X100540859Y-46682100D01*
X100592929Y-46787016D01*
X100651832Y-46900096D01*
X100711024Y-47008920D01*
X100763964Y-47101068D01*
X100786866Y-47138295D01*
X100830194Y-47204792D01*
X100878344Y-47276486D01*
X100925217Y-47344557D01*
X100964717Y-47400185D01*
X100990746Y-47434551D01*
X100994992Y-47439369D01*
X101019672Y-47467742D01*
X101055195Y-47511773D01*
X101064308Y-47523457D01*
X101115065Y-47585932D01*
X101184867Y-47667615D01*
X101265778Y-47759444D01*
X101349862Y-47852361D01*
X101396462Y-47902651D01*
X101484385Y-47996572D01*
X101558673Y-47926367D01*
X101676690Y-47806939D01*
X101804411Y-47664209D01*
X101932840Y-47509186D01*
X102052979Y-47352881D01*
X102155832Y-47206301D01*
X102187770Y-47156630D01*
X102209856Y-47121420D01*
X102242519Y-47069556D01*
X102256654Y-47047154D01*
X102312950Y-46949640D01*
X102375826Y-46827173D01*
X102439661Y-46691919D01*
X102498834Y-46556048D01*
X102547723Y-46431729D01*
X102568065Y-46373077D01*
X102647752Y-46084137D01*
X102693671Y-45808321D01*
X102705816Y-45539080D01*
X102684180Y-45269860D01*
X102628755Y-44994110D01*
X102566466Y-44783449D01*
X102529204Y-44681587D01*
X102480555Y-44563474D01*
X102425109Y-44438950D01*
X102367453Y-44317851D01*
X102312178Y-44210016D01*
X102263872Y-44125282D01*
X102248077Y-44100863D01*
X102217893Y-44054399D01*
X102199824Y-44022366D01*
X102197539Y-44015760D01*
X102188018Y-43997112D01*
X102157991Y-43955981D01*
X102105261Y-43889424D01*
X102080014Y-43858324D01*
X102067843Y-43841739D01*
X102064363Y-43825089D01*
X102072584Y-43800967D01*
X102095519Y-43761964D01*
X102136179Y-43700674D01*
X102156078Y-43671220D01*
X102331013Y-43384980D01*
X102473772Y-43092616D01*
X102583171Y-42797678D01*
X102658024Y-42503720D01*
X102697146Y-42214293D01*
X102702878Y-42032469D01*
X102701173Y-41934720D01*
X102698502Y-41847370D01*
X102695234Y-41780013D01*
X102691773Y-41742461D01*
X102654157Y-41563515D01*
X102602328Y-41371859D01*
X102540813Y-41181976D01*
X102474134Y-41008347D01*
X102435381Y-40921846D01*
X102376177Y-40804774D01*
X102307033Y-40678607D01*
X102232948Y-40551575D01*
X102158921Y-40431913D01*
X102089950Y-40327852D01*
X102031035Y-40247625D01*
X102012265Y-40225033D01*
X101987203Y-40194441D01*
X101953044Y-40150679D01*
X101950142Y-40146880D01*
X101875807Y-40052466D01*
X101797072Y-39957789D01*
X101718500Y-39867778D01*
X101644653Y-39787361D01*
X101580091Y-39721470D01*
X101529378Y-39675033D01*
X101497074Y-39652980D01*
X101494022Y-39652293D01*
X101494022Y-40189154D01*
X101592905Y-40296615D01*
X101649544Y-40362614D01*
X101720153Y-40451410D01*
X101797352Y-40553070D01*
X101873764Y-40657659D01*
X101942010Y-40755245D01*
X101994714Y-40835895D01*
X102000486Y-40845359D01*
X102052315Y-40938032D01*
X102110843Y-41053364D01*
X102170803Y-41179905D01*
X102226928Y-41306204D01*
X102273952Y-41420813D01*
X102305261Y-41508000D01*
X102342918Y-41647372D01*
X102374763Y-41805022D01*
X102397858Y-41963638D01*
X102409263Y-42105911D01*
X102409758Y-42123461D01*
X102407746Y-42186546D01*
X102400692Y-42273677D01*
X102389887Y-42370343D01*
X102383652Y-42416538D01*
X102341455Y-42634542D01*
X102276721Y-42850617D01*
X102186767Y-43071856D01*
X102068909Y-43305348D01*
X102003649Y-43420423D01*
X101919191Y-43552761D01*
X101837891Y-43651826D01*
X101835231Y-43654053D01*
X101835231Y-43989384D01*
X101860029Y-44005885D01*
X101898648Y-44051576D01*
X101947349Y-44120737D01*
X102002392Y-44207650D01*
X102060035Y-44306597D01*
X102116539Y-44411859D01*
X102133537Y-44445476D01*
X102229189Y-44653534D01*
X102300818Y-44848044D01*
X102352802Y-45042301D01*
X102382306Y-45200769D01*
X102399989Y-45330760D01*
X102408175Y-45442770D01*
X102406899Y-45551998D01*
X102396192Y-45673642D01*
X102383562Y-45771072D01*
X102333944Y-46013780D01*
X102253054Y-46266620D01*
X102143964Y-46521074D01*
X102046982Y-46705231D01*
X101989634Y-46800130D01*
X101922045Y-46903116D01*
X101848112Y-47009157D01*
X101771730Y-47113222D01*
X101696796Y-47210279D01*
X101627205Y-47295296D01*
X101566853Y-47363244D01*
X101519636Y-47409090D01*
X101489451Y-47427803D01*
X101487319Y-47427989D01*
X101462930Y-47412502D01*
X101420834Y-47369746D01*
X101365000Y-47304969D01*
X101299395Y-47223417D01*
X101227987Y-47130337D01*
X101154745Y-47030976D01*
X101083635Y-46930581D01*
X101018625Y-46834399D01*
X100963684Y-46747676D01*
X100933369Y-46695461D01*
X100840275Y-46518011D01*
X100766613Y-46356845D01*
X100706801Y-46198228D01*
X100655257Y-46028422D01*
X100641759Y-45977818D01*
X100601751Y-45766823D01*
X100585011Y-45540105D01*
X100591640Y-45311882D01*
X100621737Y-45096376D01*
X100635166Y-45037094D01*
X100683308Y-44844111D01*
X100868924Y-44751956D01*
X101074511Y-44645393D01*
X101245530Y-44546406D01*
X101385174Y-44452507D01*
X101496634Y-44361210D01*
X101583102Y-44270027D01*
X101647769Y-44176471D01*
X101674822Y-44123927D01*
X101725049Y-44044677D01*
X101786079Y-43999399D01*
X101835231Y-43989384D01*
X101835231Y-43654053D01*
X101753705Y-43722327D01*
X101660589Y-43768971D01*
X101552500Y-43796462D01*
X101513693Y-43801992D01*
X101387725Y-43823810D01*
X101289435Y-43856961D01*
X101208185Y-43905086D01*
X101204672Y-43907728D01*
X101158596Y-43949458D01*
X101109610Y-44004366D01*
X101063634Y-44064155D01*
X101026591Y-44120531D01*
X101004398Y-44165198D01*
X101002978Y-44189861D01*
X101003172Y-44190064D01*
X101030230Y-44197910D01*
X101084791Y-44201934D01*
X101155397Y-44201332D01*
X101160266Y-44201113D01*
X101231071Y-44198641D01*
X101268476Y-44200334D01*
X101278030Y-44207219D01*
X101265284Y-44220321D01*
X101265060Y-44220488D01*
X101227427Y-44245983D01*
X101170203Y-44281751D01*
X101102011Y-44322761D01*
X101031476Y-44363982D01*
X100967221Y-44400384D01*
X100917869Y-44426936D01*
X100892044Y-44438607D01*
X100890891Y-44438769D01*
X100861617Y-44455758D01*
X100824604Y-44500834D01*
X100784912Y-44565165D01*
X100747600Y-44639916D01*
X100717727Y-44716254D01*
X100704203Y-44764748D01*
X100693772Y-44795505D01*
X100672897Y-44818656D01*
X100633189Y-44839870D01*
X100566259Y-44864814D01*
X100545754Y-44871803D01*
X100470383Y-44896518D01*
X100425029Y-44905360D01*
X100405411Y-44893444D01*
X100407249Y-44855881D01*
X100426264Y-44787784D01*
X100438288Y-44749079D01*
X100456897Y-44685805D01*
X100468513Y-44639365D01*
X100470643Y-44620130D01*
X100450459Y-44622432D01*
X100406362Y-44635127D01*
X100382349Y-44643257D01*
X100288601Y-44669954D01*
X100170301Y-44694440D01*
X100041975Y-44714415D01*
X99918148Y-44727579D01*
X99823616Y-44731705D01*
X99663009Y-44722541D01*
X99483200Y-44696794D01*
X99299050Y-44657029D01*
X99159308Y-44617077D01*
X98935109Y-44533756D01*
X98712816Y-44428037D01*
X98488045Y-44297240D01*
X98256412Y-44138684D01*
X98013535Y-43949689D01*
X97869933Y-43828653D01*
X97863154Y-43806842D01*
X97872658Y-43798071D01*
X97897418Y-43779190D01*
X97942490Y-43742051D01*
X97998801Y-43694151D01*
X98007613Y-43686538D01*
X98213679Y-43522761D01*
X98443991Y-43365222D01*
X98683872Y-43223654D01*
X98786481Y-43170027D01*
X98880861Y-43123897D01*
X98963253Y-43085824D01*
X99027286Y-43058578D01*
X99066589Y-43044932D01*
X99075465Y-43044290D01*
X99095313Y-43065984D01*
X99126158Y-43108941D01*
X99142435Y-43133914D01*
X99229418Y-43252383D01*
X99343551Y-43379092D01*
X99476302Y-43506341D01*
X99619144Y-43626431D01*
X99763545Y-43731664D01*
X99889502Y-43808232D01*
X100089004Y-43909137D01*
X100285217Y-43995623D01*
X100468313Y-44063580D01*
X100580840Y-44097251D01*
X100650758Y-44114912D01*
X100693829Y-44122080D01*
X100720858Y-44118722D01*
X100742648Y-44104808D01*
X100751802Y-44096747D01*
X100780904Y-44064242D01*
X100790770Y-44043169D01*
X100801862Y-44016280D01*
X100828643Y-43976713D01*
X100829580Y-43975516D01*
X100853853Y-43937466D01*
X100859817Y-43912442D01*
X100859418Y-43911657D01*
X100837264Y-43899333D01*
X100788199Y-43881388D01*
X100727800Y-43863133D01*
X100484011Y-43782510D01*
X100243171Y-43678371D01*
X100019733Y-43557302D01*
X99928548Y-43498940D01*
X99872474Y-43456357D01*
X99800217Y-43395029D01*
X99720433Y-43323036D01*
X99641777Y-43248460D01*
X99572907Y-43179383D01*
X99522479Y-43123885D01*
X99510192Y-43108363D01*
X99349352Y-42860780D01*
X99211613Y-42586614D01*
X99099200Y-42292313D01*
X99014335Y-41984325D01*
X98959241Y-41669099D01*
X98939936Y-41454269D01*
X98929004Y-41254000D01*
X99053925Y-41254004D01*
X99187522Y-41261109D01*
X99347428Y-41281064D01*
X99523820Y-41311835D01*
X99706875Y-41351388D01*
X99886771Y-41397691D01*
X100053684Y-41448711D01*
X100136407Y-41478051D01*
X100224142Y-41511147D01*
X100281183Y-41535852D01*
X100312939Y-41558723D01*
X100324821Y-41586321D01*
X100322239Y-41625203D01*
X100310602Y-41681928D01*
X100309375Y-41687754D01*
X100287175Y-41852246D01*
X100282369Y-42041725D01*
X100294115Y-42246619D01*
X100321567Y-42457354D01*
X100363883Y-42664359D01*
X100409805Y-42826846D01*
X100449255Y-42933770D01*
X100504322Y-43063040D01*
X100569778Y-43203948D01*
X100640394Y-43345787D01*
X100710943Y-43477850D01*
X100776195Y-43589430D01*
X100800973Y-43627923D01*
X100856008Y-43709843D01*
X100894801Y-43763167D01*
X100923379Y-43791410D01*
X100947766Y-43798088D01*
X100973991Y-43786716D01*
X101008078Y-43760809D01*
X101016824Y-43753832D01*
X101066849Y-43715241D01*
X101107127Y-43686199D01*
X101119633Y-43678229D01*
X101127630Y-43662127D01*
X101116220Y-43629251D01*
X101083095Y-43574305D01*
X101058662Y-43538331D01*
X101008880Y-43460755D01*
X100949299Y-43358997D01*
X100886157Y-43244509D01*
X100825696Y-43128742D01*
X100774155Y-43023147D01*
X100755687Y-42982347D01*
X100720225Y-42888300D01*
X100683371Y-42768565D01*
X100648484Y-42636239D01*
X100618925Y-42504420D01*
X100598055Y-42386205D01*
X100593308Y-42349433D01*
X100581343Y-42120036D01*
X100598588Y-41891777D01*
X100646016Y-41653257D01*
X100655909Y-41615461D01*
X100683760Y-41520937D01*
X100718640Y-41415625D01*
X100757180Y-41308418D01*
X100796010Y-41208209D01*
X100831757Y-41123891D01*
X100861053Y-41064359D01*
X100870651Y-41048846D01*
X100887114Y-41021814D01*
X100915036Y-40972803D01*
X100937837Y-40931615D01*
X100990021Y-40844074D01*
X101060262Y-40737052D01*
X101141227Y-40620775D01*
X101225582Y-40505466D01*
X101305997Y-40401351D01*
X101375137Y-40318654D01*
X101386230Y-40306384D01*
X101494022Y-40189154D01*
X101494022Y-39652293D01*
X101492040Y-39651846D01*
X101464331Y-39666720D01*
X101417169Y-39708281D01*
X101354521Y-39771936D01*
X101280355Y-39853093D01*
X101198641Y-39947158D01*
X101113346Y-40049540D01*
X101028440Y-40155646D01*
X100947889Y-40260884D01*
X100875664Y-40360660D01*
X100860031Y-40383253D01*
X100799146Y-40477104D01*
X100732986Y-40587418D01*
X100665617Y-40706524D01*
X100601108Y-40826749D01*
X100543525Y-40940423D01*
X100496935Y-41039874D01*
X100465406Y-41117430D01*
X100457264Y-41142963D01*
X100441779Y-41190471D01*
X100422835Y-41208843D01*
X100388309Y-41207045D01*
X100374472Y-41204207D01*
X100325078Y-41191020D01*
X100292843Y-41177791D01*
X100292539Y-41177588D01*
X100255224Y-41158582D01*
X100190885Y-41131844D01*
X100109813Y-41101243D01*
X100022298Y-41070650D01*
X99938632Y-41043933D01*
X99931077Y-41041683D01*
X99703405Y-40980500D01*
X99481165Y-40934206D01*
X99252265Y-40900898D01*
X99004612Y-40878673D01*
X98838612Y-40869721D01*
X98537455Y-40856853D01*
X98550375Y-41187311D01*
X98572486Y-41499629D01*
X98613167Y-41802577D01*
X98662479Y-42048522D01*
X98682839Y-42124602D01*
X98711923Y-42220561D01*
X98746235Y-42326109D01*
X98782279Y-42430959D01*
X98816559Y-42524821D01*
X98845577Y-42597408D01*
X98858666Y-42625798D01*
X98882050Y-42678096D01*
X98894767Y-42718841D01*
X98895539Y-42725993D01*
X98878050Y-42747454D01*
X98830896Y-42774686D01*
X98773424Y-42798828D01*
X98704991Y-42826754D01*
X98619865Y-42865329D01*
X98526775Y-42910143D01*
X98434448Y-42956787D01*
X98351615Y-43000848D01*
X98287003Y-43037918D01*
X98249342Y-43063586D01*
X98249231Y-43063683D01*
X98217338Y-43085735D01*
X98202866Y-43090615D01*
X98177764Y-43102196D01*
X98127555Y-43134354D01*
X98057613Y-43183211D01*
X97973311Y-43244891D01*
X97880022Y-43315514D01*
X97783118Y-43391204D01*
X97752539Y-43415608D01*
X97642370Y-43506361D01*
X97542924Y-43592776D01*
X97458208Y-43671003D01*
X97392229Y-43737194D01*
X97348995Y-43787498D01*
X97332513Y-43818067D01*
X97332462Y-43819142D01*
X97346259Y-43843774D01*
G37*
X97346259Y-43843774D02*
X97383468Y-43886951D01*
X97437819Y-43941802D01*
X97481457Y-43982344D01*
X97547746Y-44042228D01*
X97605808Y-44095130D01*
X97647699Y-44133788D01*
X97662187Y-44147538D01*
X97691096Y-44172370D01*
X97742836Y-44213631D01*
X97808806Y-44264536D01*
X97850231Y-44295832D01*
X98118961Y-44485457D01*
X98378003Y-44643108D01*
X98634256Y-44772196D01*
X98894620Y-44876128D01*
X99165995Y-44958313D01*
X99217555Y-44971307D01*
X99337167Y-44993242D01*
X99481645Y-45008284D01*
X99640364Y-45016355D01*
X99802697Y-45017376D01*
X99958018Y-45011270D01*
X100095701Y-44997958D01*
X100200656Y-44978523D01*
X100269797Y-44961974D01*
X100322557Y-44951434D01*
X100349128Y-44948817D01*
X100350359Y-44949322D01*
X100349979Y-44970311D01*
X100343288Y-45021202D01*
X100331512Y-45093555D01*
X100320996Y-45151923D01*
X100286242Y-45443642D01*
X100289280Y-45741257D01*
X100329775Y-46042094D01*
X100407391Y-46343481D01*
X100502162Y-46597769D01*
X100540859Y-46682100D01*
X100592929Y-46787016D01*
X100651832Y-46900096D01*
X100711024Y-47008920D01*
X100763964Y-47101068D01*
X100786866Y-47138295D01*
X100830194Y-47204792D01*
X100878344Y-47276486D01*
X100925217Y-47344557D01*
X100964717Y-47400185D01*
X100990746Y-47434551D01*
X100994992Y-47439369D01*
X101019672Y-47467742D01*
X101055195Y-47511773D01*
X101064308Y-47523457D01*
X101115065Y-47585932D01*
X101184867Y-47667615D01*
X101265778Y-47759444D01*
X101349862Y-47852361D01*
X101396462Y-47902651D01*
X101484385Y-47996572D01*
X101558673Y-47926367D01*
X101676690Y-47806939D01*
X101804411Y-47664209D01*
X101932840Y-47509186D01*
X102052979Y-47352881D01*
X102155832Y-47206301D01*
X102187770Y-47156630D01*
X102209856Y-47121420D01*
X102242519Y-47069556D01*
X102256654Y-47047154D01*
X102312950Y-46949640D01*
X102375826Y-46827173D01*
X102439661Y-46691919D01*
X102498834Y-46556048D01*
X102547723Y-46431729D01*
X102568065Y-46373077D01*
X102647752Y-46084137D01*
X102693671Y-45808321D01*
X102705816Y-45539080D01*
X102684180Y-45269860D01*
X102628755Y-44994110D01*
X102566466Y-44783449D01*
X102529204Y-44681587D01*
X102480555Y-44563474D01*
X102425109Y-44438950D01*
X102367453Y-44317851D01*
X102312178Y-44210016D01*
X102263872Y-44125282D01*
X102248077Y-44100863D01*
X102217893Y-44054399D01*
X102199824Y-44022366D01*
X102197539Y-44015760D01*
X102188018Y-43997112D01*
X102157991Y-43955981D01*
X102105261Y-43889424D01*
X102080014Y-43858324D01*
X102067843Y-43841739D01*
X102064363Y-43825089D01*
X102072584Y-43800967D01*
X102095519Y-43761964D01*
X102136179Y-43700674D01*
X102156078Y-43671220D01*
X102331013Y-43384980D01*
X102473772Y-43092616D01*
X102583171Y-42797678D01*
X102658024Y-42503720D01*
X102697146Y-42214293D01*
X102702878Y-42032469D01*
X102701173Y-41934720D01*
X102698502Y-41847370D01*
X102695234Y-41780013D01*
X102691773Y-41742461D01*
X102654157Y-41563515D01*
X102602328Y-41371859D01*
X102540813Y-41181976D01*
X102474134Y-41008347D01*
X102435381Y-40921846D01*
X102376177Y-40804774D01*
X102307033Y-40678607D01*
X102232948Y-40551575D01*
X102158921Y-40431913D01*
X102089950Y-40327852D01*
X102031035Y-40247625D01*
X102012265Y-40225033D01*
X101987203Y-40194441D01*
X101953044Y-40150679D01*
X101950142Y-40146880D01*
X101875807Y-40052466D01*
X101797072Y-39957789D01*
X101718500Y-39867778D01*
X101644653Y-39787361D01*
X101580091Y-39721470D01*
X101529378Y-39675033D01*
X101497074Y-39652980D01*
X101494022Y-39652293D01*
X101494022Y-40189154D01*
X101592905Y-40296615D01*
X101649544Y-40362614D01*
X101720153Y-40451410D01*
X101797352Y-40553070D01*
X101873764Y-40657659D01*
X101942010Y-40755245D01*
X101994714Y-40835895D01*
X102000486Y-40845359D01*
X102052315Y-40938032D01*
X102110843Y-41053364D01*
X102170803Y-41179905D01*
X102226928Y-41306204D01*
X102273952Y-41420813D01*
X102305261Y-41508000D01*
X102342918Y-41647372D01*
X102374763Y-41805022D01*
X102397858Y-41963638D01*
X102409263Y-42105911D01*
X102409758Y-42123461D01*
X102407746Y-42186546D01*
X102400692Y-42273677D01*
X102389887Y-42370343D01*
X102383652Y-42416538D01*
X102341455Y-42634542D01*
X102276721Y-42850617D01*
X102186767Y-43071856D01*
X102068909Y-43305348D01*
X102003649Y-43420423D01*
X101919191Y-43552761D01*
X101837891Y-43651826D01*
X101835231Y-43654053D01*
X101835231Y-43989384D01*
X101860029Y-44005885D01*
X101898648Y-44051576D01*
X101947349Y-44120737D01*
X102002392Y-44207650D01*
X102060035Y-44306597D01*
X102116539Y-44411859D01*
X102133537Y-44445476D01*
X102229189Y-44653534D01*
X102300818Y-44848044D01*
X102352802Y-45042301D01*
X102382306Y-45200769D01*
X102399989Y-45330760D01*
X102408175Y-45442770D01*
X102406899Y-45551998D01*
X102396192Y-45673642D01*
X102383562Y-45771072D01*
X102333944Y-46013780D01*
X102253054Y-46266620D01*
X102143964Y-46521074D01*
X102046982Y-46705231D01*
X101989634Y-46800130D01*
X101922045Y-46903116D01*
X101848112Y-47009157D01*
X101771730Y-47113222D01*
X101696796Y-47210279D01*
X101627205Y-47295296D01*
X101566853Y-47363244D01*
X101519636Y-47409090D01*
X101489451Y-47427803D01*
X101487319Y-47427989D01*
X101462930Y-47412502D01*
X101420834Y-47369746D01*
X101365000Y-47304969D01*
X101299395Y-47223417D01*
X101227987Y-47130337D01*
X101154745Y-47030976D01*
X101083635Y-46930581D01*
X101018625Y-46834399D01*
X100963684Y-46747676D01*
X100933369Y-46695461D01*
X100840275Y-46518011D01*
X100766613Y-46356845D01*
X100706801Y-46198228D01*
X100655257Y-46028422D01*
X100641759Y-45977818D01*
X100601751Y-45766823D01*
X100585011Y-45540105D01*
X100591640Y-45311882D01*
X100621737Y-45096376D01*
X100635166Y-45037094D01*
X100683308Y-44844111D01*
X100868924Y-44751956D01*
X101074511Y-44645393D01*
X101245530Y-44546406D01*
X101385174Y-44452507D01*
X101496634Y-44361210D01*
X101583102Y-44270027D01*
X101647769Y-44176471D01*
X101674822Y-44123927D01*
X101725049Y-44044677D01*
X101786079Y-43999399D01*
X101835231Y-43989384D01*
X101835231Y-43654053D01*
X101753705Y-43722327D01*
X101660589Y-43768971D01*
X101552500Y-43796462D01*
X101513693Y-43801992D01*
X101387725Y-43823810D01*
X101289435Y-43856961D01*
X101208185Y-43905086D01*
X101204672Y-43907728D01*
X101158596Y-43949458D01*
X101109610Y-44004366D01*
X101063634Y-44064155D01*
X101026591Y-44120531D01*
X101004398Y-44165198D01*
X101002978Y-44189861D01*
X101003172Y-44190064D01*
X101030230Y-44197910D01*
X101084791Y-44201934D01*
X101155397Y-44201332D01*
X101160266Y-44201113D01*
X101231071Y-44198641D01*
X101268476Y-44200334D01*
X101278030Y-44207219D01*
X101265284Y-44220321D01*
X101265060Y-44220488D01*
X101227427Y-44245983D01*
X101170203Y-44281751D01*
X101102011Y-44322761D01*
X101031476Y-44363982D01*
X100967221Y-44400384D01*
X100917869Y-44426936D01*
X100892044Y-44438607D01*
X100890891Y-44438769D01*
X100861617Y-44455758D01*
X100824604Y-44500834D01*
X100784912Y-44565165D01*
X100747600Y-44639916D01*
X100717727Y-44716254D01*
X100704203Y-44764748D01*
X100693772Y-44795505D01*
X100672897Y-44818656D01*
X100633189Y-44839870D01*
X100566259Y-44864814D01*
X100545754Y-44871803D01*
X100470383Y-44896518D01*
X100425029Y-44905360D01*
X100405411Y-44893444D01*
X100407249Y-44855881D01*
X100426264Y-44787784D01*
X100438288Y-44749079D01*
X100456897Y-44685805D01*
X100468513Y-44639365D01*
X100470643Y-44620130D01*
X100450459Y-44622432D01*
X100406362Y-44635127D01*
X100382349Y-44643257D01*
X100288601Y-44669954D01*
X100170301Y-44694440D01*
X100041975Y-44714415D01*
X99918148Y-44727579D01*
X99823616Y-44731705D01*
X99663009Y-44722541D01*
X99483200Y-44696794D01*
X99299050Y-44657029D01*
X99159308Y-44617077D01*
X98935109Y-44533756D01*
X98712816Y-44428037D01*
X98488045Y-44297240D01*
X98256412Y-44138684D01*
X98013535Y-43949689D01*
X97869933Y-43828653D01*
X97863154Y-43806842D01*
X97872658Y-43798071D01*
X97897418Y-43779190D01*
X97942490Y-43742051D01*
X97998801Y-43694151D01*
X98007613Y-43686538D01*
X98213679Y-43522761D01*
X98443991Y-43365222D01*
X98683872Y-43223654D01*
X98786481Y-43170027D01*
X98880861Y-43123897D01*
X98963253Y-43085824D01*
X99027286Y-43058578D01*
X99066589Y-43044932D01*
X99075465Y-43044290D01*
X99095313Y-43065984D01*
X99126158Y-43108941D01*
X99142435Y-43133914D01*
X99229418Y-43252383D01*
X99343551Y-43379092D01*
X99476302Y-43506341D01*
X99619144Y-43626431D01*
X99763545Y-43731664D01*
X99889502Y-43808232D01*
X100089004Y-43909137D01*
X100285217Y-43995623D01*
X100468313Y-44063580D01*
X100580840Y-44097251D01*
X100650758Y-44114912D01*
X100693829Y-44122080D01*
X100720858Y-44118722D01*
X100742648Y-44104808D01*
X100751802Y-44096747D01*
X100780904Y-44064242D01*
X100790770Y-44043169D01*
X100801862Y-44016280D01*
X100828643Y-43976713D01*
X100829580Y-43975516D01*
X100853853Y-43937466D01*
X100859817Y-43912442D01*
X100859418Y-43911657D01*
X100837264Y-43899333D01*
X100788199Y-43881388D01*
X100727800Y-43863133D01*
X100484011Y-43782510D01*
X100243171Y-43678371D01*
X100019733Y-43557302D01*
X99928548Y-43498940D01*
X99872474Y-43456357D01*
X99800217Y-43395029D01*
X99720433Y-43323036D01*
X99641777Y-43248460D01*
X99572907Y-43179383D01*
X99522479Y-43123885D01*
X99510192Y-43108363D01*
X99349352Y-42860780D01*
X99211613Y-42586614D01*
X99099200Y-42292313D01*
X99014335Y-41984325D01*
X98959241Y-41669099D01*
X98939936Y-41454269D01*
X98929004Y-41254000D01*
X99053925Y-41254004D01*
X99187522Y-41261109D01*
X99347428Y-41281064D01*
X99523820Y-41311835D01*
X99706875Y-41351388D01*
X99886771Y-41397691D01*
X100053684Y-41448711D01*
X100136407Y-41478051D01*
X100224142Y-41511147D01*
X100281183Y-41535852D01*
X100312939Y-41558723D01*
X100324821Y-41586321D01*
X100322239Y-41625203D01*
X100310602Y-41681928D01*
X100309375Y-41687754D01*
X100287175Y-41852246D01*
X100282369Y-42041725D01*
X100294115Y-42246619D01*
X100321567Y-42457354D01*
X100363883Y-42664359D01*
X100409805Y-42826846D01*
X100449255Y-42933770D01*
X100504322Y-43063040D01*
X100569778Y-43203948D01*
X100640394Y-43345787D01*
X100710943Y-43477850D01*
X100776195Y-43589430D01*
X100800973Y-43627923D01*
X100856008Y-43709843D01*
X100894801Y-43763167D01*
X100923379Y-43791410D01*
X100947766Y-43798088D01*
X100973991Y-43786716D01*
X101008078Y-43760809D01*
X101016824Y-43753832D01*
X101066849Y-43715241D01*
X101107127Y-43686199D01*
X101119633Y-43678229D01*
X101127630Y-43662127D01*
X101116220Y-43629251D01*
X101083095Y-43574305D01*
X101058662Y-43538331D01*
X101008880Y-43460755D01*
X100949299Y-43358997D01*
X100886157Y-43244509D01*
X100825696Y-43128742D01*
X100774155Y-43023147D01*
X100755687Y-42982347D01*
X100720225Y-42888300D01*
X100683371Y-42768565D01*
X100648484Y-42636239D01*
X100618925Y-42504420D01*
X100598055Y-42386205D01*
X100593308Y-42349433D01*
X100581343Y-42120036D01*
X100598588Y-41891777D01*
X100646016Y-41653257D01*
X100655909Y-41615461D01*
X100683760Y-41520937D01*
X100718640Y-41415625D01*
X100757180Y-41308418D01*
X100796010Y-41208209D01*
X100831757Y-41123891D01*
X100861053Y-41064359D01*
X100870651Y-41048846D01*
X100887114Y-41021814D01*
X100915036Y-40972803D01*
X100937837Y-40931615D01*
X100990021Y-40844074D01*
X101060262Y-40737052D01*
X101141227Y-40620775D01*
X101225582Y-40505466D01*
X101305997Y-40401351D01*
X101375137Y-40318654D01*
X101386230Y-40306384D01*
X101494022Y-40189154D01*
X101494022Y-39652293D01*
X101492040Y-39651846D01*
X101464331Y-39666720D01*
X101417169Y-39708281D01*
X101354521Y-39771936D01*
X101280355Y-39853093D01*
X101198641Y-39947158D01*
X101113346Y-40049540D01*
X101028440Y-40155646D01*
X100947889Y-40260884D01*
X100875664Y-40360660D01*
X100860031Y-40383253D01*
X100799146Y-40477104D01*
X100732986Y-40587418D01*
X100665617Y-40706524D01*
X100601108Y-40826749D01*
X100543525Y-40940423D01*
X100496935Y-41039874D01*
X100465406Y-41117430D01*
X100457264Y-41142963D01*
X100441779Y-41190471D01*
X100422835Y-41208843D01*
X100388309Y-41207045D01*
X100374472Y-41204207D01*
X100325078Y-41191020D01*
X100292843Y-41177791D01*
X100292539Y-41177588D01*
X100255224Y-41158582D01*
X100190885Y-41131844D01*
X100109813Y-41101243D01*
X100022298Y-41070650D01*
X99938632Y-41043933D01*
X99931077Y-41041683D01*
X99703405Y-40980500D01*
X99481165Y-40934206D01*
X99252265Y-40900898D01*
X99004612Y-40878673D01*
X98838612Y-40869721D01*
X98537455Y-40856853D01*
X98550375Y-41187311D01*
X98572486Y-41499629D01*
X98613167Y-41802577D01*
X98662479Y-42048522D01*
X98682839Y-42124602D01*
X98711923Y-42220561D01*
X98746235Y-42326109D01*
X98782279Y-42430959D01*
X98816559Y-42524821D01*
X98845577Y-42597408D01*
X98858666Y-42625798D01*
X98882050Y-42678096D01*
X98894767Y-42718841D01*
X98895539Y-42725993D01*
X98878050Y-42747454D01*
X98830896Y-42774686D01*
X98773424Y-42798828D01*
X98704991Y-42826754D01*
X98619865Y-42865329D01*
X98526775Y-42910143D01*
X98434448Y-42956787D01*
X98351615Y-43000848D01*
X98287003Y-43037918D01*
X98249342Y-43063586D01*
X98249231Y-43063683D01*
X98217338Y-43085735D01*
X98202866Y-43090615D01*
X98177764Y-43102196D01*
X98127555Y-43134354D01*
X98057613Y-43183211D01*
X97973311Y-43244891D01*
X97880022Y-43315514D01*
X97783118Y-43391204D01*
X97752539Y-43415608D01*
X97642370Y-43506361D01*
X97542924Y-43592776D01*
X97458208Y-43671003D01*
X97392229Y-43737194D01*
X97348995Y-43787498D01*
X97332513Y-43818067D01*
X97332462Y-43819142D01*
X97346259Y-43843774D01*
G36*
X99583169Y-55316808D02*
G01*
X99593613Y-55380472D01*
X99604881Y-55407707D01*
X99650414Y-55437493D01*
X99723177Y-55441405D01*
X99821245Y-55419583D01*
X99913766Y-55384918D01*
X99989549Y-55352899D01*
X100088564Y-55311526D01*
X100197856Y-55266193D01*
X100302308Y-55223180D01*
X100410743Y-55178673D01*
X100523193Y-55132441D01*
X100626061Y-55090079D01*
X100702847Y-55058382D01*
X100769578Y-55030879D01*
X100864104Y-54992060D01*
X100978034Y-54945364D01*
X101102978Y-54894227D01*
X101230546Y-54842090D01*
X101249924Y-54834178D01*
X101428316Y-54761320D01*
X101574478Y-54701569D01*
X101692372Y-54653292D01*
X101785957Y-54614856D01*
X101859195Y-54584630D01*
X101916046Y-54560981D01*
X101960472Y-54542276D01*
X101996434Y-54526885D01*
X102011924Y-54520163D01*
X102067794Y-54496544D01*
X102145176Y-54464759D01*
X102229199Y-54430901D01*
X102246385Y-54424063D01*
X102445617Y-54344114D01*
X102611967Y-54275185D01*
X102749400Y-54215288D01*
X102861884Y-54162432D01*
X102953383Y-54114628D01*
X103027863Y-54069887D01*
X103089291Y-54026220D01*
X103141632Y-53981637D01*
X103156295Y-53967650D01*
X103265621Y-53836070D01*
X103345052Y-53687389D01*
X103392457Y-53528350D01*
X103405708Y-53365696D01*
X103388858Y-53231077D01*
X103349328Y-53096925D01*
X103300423Y-53000222D01*
X103242279Y-52941157D01*
X103175029Y-52919919D01*
X103167527Y-52919889D01*
X103084894Y-52938401D01*
X103009303Y-52983883D01*
X102959540Y-53041923D01*
X102945007Y-53073205D01*
X102941691Y-53104623D01*
X102950568Y-53148056D01*
X102972618Y-53215379D01*
X102974194Y-53219902D01*
X103004155Y-53317949D01*
X103015315Y-53394259D01*
X103007945Y-53461203D01*
X102982312Y-53531152D01*
X102981034Y-53533923D01*
X102936268Y-53609116D01*
X102872576Y-53678410D01*
X102785714Y-53744781D01*
X102671438Y-53811206D01*
X102525505Y-53880661D01*
X102426887Y-53922601D01*
X102341227Y-53957541D01*
X102282708Y-53979115D01*
X102242291Y-53988726D01*
X102210939Y-53987779D01*
X102179615Y-53977679D01*
X102151646Y-53965365D01*
X102109135Y-53946720D01*
X102040518Y-53917162D01*
X101955703Y-53880940D01*
X101875154Y-53846768D01*
X101783385Y-53807932D01*
X101698159Y-53771813D01*
X101629736Y-53742763D01*
X101591847Y-53726620D01*
X101558729Y-53712460D01*
X101528378Y-53699539D01*
X101494836Y-53685355D01*
X101452145Y-53667405D01*
X101394346Y-53643187D01*
X101315482Y-53610198D01*
X101209593Y-53565937D01*
X101142462Y-53537881D01*
X101015175Y-53484639D01*
X100878098Y-53427221D01*
X100736313Y-53367764D01*
X100594902Y-53308404D01*
X100458945Y-53251278D01*
X100333525Y-53198521D01*
X100223722Y-53152270D01*
X100134619Y-53114661D01*
X100071296Y-53087830D01*
X100038836Y-53073914D01*
X100038539Y-53073783D01*
X99927230Y-53025567D01*
X99844561Y-52992112D01*
X99784007Y-52971143D01*
X99739043Y-52960381D01*
X99705349Y-52957538D01*
X99649064Y-52964034D01*
X99611865Y-52987500D01*
X99590256Y-53033902D01*
X99580743Y-53109206D01*
X99579385Y-53172526D01*
X99580264Y-53250362D01*
X99584807Y-53299262D01*
X99595874Y-53329361D01*
X99616326Y-53350793D01*
X99633116Y-53362904D01*
X99676339Y-53387516D01*
X99743393Y-53420192D01*
X99821671Y-53454874D01*
X99843154Y-53463820D01*
X99928271Y-53498774D01*
X100011734Y-53533111D01*
X100077829Y-53560364D01*
X100087385Y-53564315D01*
X100148521Y-53589174D01*
X100230197Y-53621814D01*
X100316518Y-53655892D01*
X100331616Y-53661803D01*
X100408219Y-53691891D01*
X100474563Y-53718193D01*
X100519315Y-53736211D01*
X100527000Y-53739398D01*
X100592135Y-53766492D01*
X100682811Y-53803705D01*
X100788285Y-53846655D01*
X100897811Y-53890959D01*
X100956847Y-53914702D01*
X101056382Y-53954898D01*
X101168074Y-54000400D01*
X101268013Y-54041465D01*
X101269462Y-54042064D01*
X101360280Y-54079158D01*
X101455081Y-54117128D01*
X101535031Y-54148439D01*
X101543000Y-54151493D01*
X101626133Y-54185311D01*
X101673536Y-54209505D01*
X101684566Y-54223675D01*
X101664802Y-54227538D01*
X101625154Y-54234899D01*
X101572560Y-54252806D01*
X101568086Y-54254665D01*
X101469930Y-54295229D01*
X101357955Y-54340105D01*
X101254064Y-54380548D01*
X101230385Y-54389519D01*
X101163480Y-54415217D01*
X101075652Y-54449694D01*
X100979349Y-54487986D01*
X100887022Y-54525123D01*
X100811117Y-54556141D01*
X100778280Y-54569899D01*
X100742841Y-54584450D01*
X100677071Y-54610911D01*
X100586997Y-54646880D01*
X100478650Y-54689951D01*
X100358059Y-54737721D01*
X100289819Y-54764684D01*
X100122091Y-54830923D01*
X99986903Y-54884454D01*
X99880446Y-54926911D01*
X99798908Y-54959928D01*
X99738480Y-54985138D01*
X99695352Y-55004174D01*
X99665714Y-55018671D01*
X99645755Y-55030261D01*
X99631665Y-55040579D01*
X99619635Y-55051256D01*
X99618147Y-55052641D01*
X99597050Y-55079579D01*
X99585115Y-55118121D01*
X99580063Y-55178754D01*
X99579385Y-55230796D01*
X99583169Y-55316808D01*
G37*
X99583169Y-55316808D02*
X99593613Y-55380472D01*
X99604881Y-55407707D01*
X99650414Y-55437493D01*
X99723177Y-55441405D01*
X99821245Y-55419583D01*
X99913766Y-55384918D01*
X99989549Y-55352899D01*
X100088564Y-55311526D01*
X100197856Y-55266193D01*
X100302308Y-55223180D01*
X100410743Y-55178673D01*
X100523193Y-55132441D01*
X100626061Y-55090079D01*
X100702847Y-55058382D01*
X100769578Y-55030879D01*
X100864104Y-54992060D01*
X100978034Y-54945364D01*
X101102978Y-54894227D01*
X101230546Y-54842090D01*
X101249924Y-54834178D01*
X101428316Y-54761320D01*
X101574478Y-54701569D01*
X101692372Y-54653292D01*
X101785957Y-54614856D01*
X101859195Y-54584630D01*
X101916046Y-54560981D01*
X101960472Y-54542276D01*
X101996434Y-54526885D01*
X102011924Y-54520163D01*
X102067794Y-54496544D01*
X102145176Y-54464759D01*
X102229199Y-54430901D01*
X102246385Y-54424063D01*
X102445617Y-54344114D01*
X102611967Y-54275185D01*
X102749400Y-54215288D01*
X102861884Y-54162432D01*
X102953383Y-54114628D01*
X103027863Y-54069887D01*
X103089291Y-54026220D01*
X103141632Y-53981637D01*
X103156295Y-53967650D01*
X103265621Y-53836070D01*
X103345052Y-53687389D01*
X103392457Y-53528350D01*
X103405708Y-53365696D01*
X103388858Y-53231077D01*
X103349328Y-53096925D01*
X103300423Y-53000222D01*
X103242279Y-52941157D01*
X103175029Y-52919919D01*
X103167527Y-52919889D01*
X103084894Y-52938401D01*
X103009303Y-52983883D01*
X102959540Y-53041923D01*
X102945007Y-53073205D01*
X102941691Y-53104623D01*
X102950568Y-53148056D01*
X102972618Y-53215379D01*
X102974194Y-53219902D01*
X103004155Y-53317949D01*
X103015315Y-53394259D01*
X103007945Y-53461203D01*
X102982312Y-53531152D01*
X102981034Y-53533923D01*
X102936268Y-53609116D01*
X102872576Y-53678410D01*
X102785714Y-53744781D01*
X102671438Y-53811206D01*
X102525505Y-53880661D01*
X102426887Y-53922601D01*
X102341227Y-53957541D01*
X102282708Y-53979115D01*
X102242291Y-53988726D01*
X102210939Y-53987779D01*
X102179615Y-53977679D01*
X102151646Y-53965365D01*
X102109135Y-53946720D01*
X102040518Y-53917162D01*
X101955703Y-53880940D01*
X101875154Y-53846768D01*
X101783385Y-53807932D01*
X101698159Y-53771813D01*
X101629736Y-53742763D01*
X101591847Y-53726620D01*
X101558729Y-53712460D01*
X101528378Y-53699539D01*
X101494836Y-53685355D01*
X101452145Y-53667405D01*
X101394346Y-53643187D01*
X101315482Y-53610198D01*
X101209593Y-53565937D01*
X101142462Y-53537881D01*
X101015175Y-53484639D01*
X100878098Y-53427221D01*
X100736313Y-53367764D01*
X100594902Y-53308404D01*
X100458945Y-53251278D01*
X100333525Y-53198521D01*
X100223722Y-53152270D01*
X100134619Y-53114661D01*
X100071296Y-53087830D01*
X100038836Y-53073914D01*
X100038539Y-53073783D01*
X99927230Y-53025567D01*
X99844561Y-52992112D01*
X99784007Y-52971143D01*
X99739043Y-52960381D01*
X99705349Y-52957538D01*
X99649064Y-52964034D01*
X99611865Y-52987500D01*
X99590256Y-53033902D01*
X99580743Y-53109206D01*
X99579385Y-53172526D01*
X99580264Y-53250362D01*
X99584807Y-53299262D01*
X99595874Y-53329361D01*
X99616326Y-53350793D01*
X99633116Y-53362904D01*
X99676339Y-53387516D01*
X99743393Y-53420192D01*
X99821671Y-53454874D01*
X99843154Y-53463820D01*
X99928271Y-53498774D01*
X100011734Y-53533111D01*
X100077829Y-53560364D01*
X100087385Y-53564315D01*
X100148521Y-53589174D01*
X100230197Y-53621814D01*
X100316518Y-53655892D01*
X100331616Y-53661803D01*
X100408219Y-53691891D01*
X100474563Y-53718193D01*
X100519315Y-53736211D01*
X100527000Y-53739398D01*
X100592135Y-53766492D01*
X100682811Y-53803705D01*
X100788285Y-53846655D01*
X100897811Y-53890959D01*
X100956847Y-53914702D01*
X101056382Y-53954898D01*
X101168074Y-54000400D01*
X101268013Y-54041465D01*
X101269462Y-54042064D01*
X101360280Y-54079158D01*
X101455081Y-54117128D01*
X101535031Y-54148439D01*
X101543000Y-54151493D01*
X101626133Y-54185311D01*
X101673536Y-54209505D01*
X101684566Y-54223675D01*
X101664802Y-54227538D01*
X101625154Y-54234899D01*
X101572560Y-54252806D01*
X101568086Y-54254665D01*
X101469930Y-54295229D01*
X101357955Y-54340105D01*
X101254064Y-54380548D01*
X101230385Y-54389519D01*
X101163480Y-54415217D01*
X101075652Y-54449694D01*
X100979349Y-54487986D01*
X100887022Y-54525123D01*
X100811117Y-54556141D01*
X100778280Y-54569899D01*
X100742841Y-54584450D01*
X100677071Y-54610911D01*
X100586997Y-54646880D01*
X100478650Y-54689951D01*
X100358059Y-54737721D01*
X100289819Y-54764684D01*
X100122091Y-54830923D01*
X99986903Y-54884454D01*
X99880446Y-54926911D01*
X99798908Y-54959928D01*
X99738480Y-54985138D01*
X99695352Y-55004174D01*
X99665714Y-55018671D01*
X99645755Y-55030261D01*
X99631665Y-55040579D01*
X99619635Y-55051256D01*
X99618147Y-55052641D01*
X99597050Y-55079579D01*
X99585115Y-55118121D01*
X99580063Y-55178754D01*
X99579385Y-55230796D01*
X99583169Y-55316808D01*
D10*
X97364809Y-128775462D02*
X96758592Y-129125462D01*
X97408111Y-128750463D02*
G75*
G03X98027867Y-126983911I-573398J1193154D01*
G01*
X102502564Y-125474314D02*
G75*
G03X101808289Y-128611795I1221603J-1915878D01*
G01*
X100150064Y-121399665D02*
X96153848Y-123678015D01*
X103032309Y-130791858D02*
X99048592Y-133091858D01*
X98032197Y-126981411D02*
X96144697Y-123712165D01*
X102521715Y-125457485D02*
X100171715Y-121387165D01*
X103041459Y-130757708D02*
X101766459Y-128549343D01*
X99014441Y-133082708D02*
X96739441Y-129142292D01*
X104554244Y-124387927D02*
G75*
G02X107312371Y-125405144I870455J-1887672D01*
G01*
X106216345Y-119266771D02*
G75*
G02X108979937Y-120285453I872455J-1891137D01*
G01*
X109868172Y-129731922D02*
X107303335Y-125381494D01*
X109908010Y-129708922D02*
X113292437Y-127754922D01*
X113292437Y-127754922D02*
X108979937Y-120285453D01*
X106150223Y-119292245D02*
X102733753Y-121264745D01*
X102725959Y-121269245D02*
X104530959Y-124395597D01*
X165820000Y-131250000D02*
X165820000Y-131950000D01*
X165820000Y-131200000D02*
G75*
G03X164600000Y-129780000I-1320000J100000D01*
G01*
X165530000Y-125150000D02*
G75*
G03X167900000Y-127320000I2270000J100000D01*
G01*
X160825000Y-125150000D02*
X160800001Y-129750000D01*
X170400000Y-127349999D02*
X170400000Y-131950000D01*
X164600000Y-129775000D02*
X160825000Y-129775000D01*
X165525000Y-125125000D02*
X160825000Y-125125000D01*
X170375000Y-127325000D02*
X167825000Y-127325000D01*
X170375000Y-131975000D02*
X165825000Y-131975000D01*
X165615001Y-122829999D02*
G75*
G02X167875000Y-120950000I2069999J-190000D01*
G01*
X162011000Y-118830000D02*
G75*
G02X164275000Y-116946000I2074000J-190000D01*
G01*
X172900000Y-120900000D02*
X167850000Y-120946000D01*
X172900000Y-120854000D02*
X172900000Y-116946000D01*
X172900000Y-116946000D02*
X164275000Y-116946000D01*
X162000000Y-118900000D02*
X162000000Y-122845000D01*
X162000000Y-122854000D02*
X165610000Y-122854000D01*
X146720000Y-131250000D02*
X146720000Y-131950000D01*
X146720000Y-131200000D02*
G75*
G03X145500000Y-129780000I-1320000J100000D01*
G01*
X146430000Y-125150000D02*
G75*
G03X148800000Y-127320000I2270000J100000D01*
G01*
X141725000Y-125150000D02*
X141700001Y-129750000D01*
X151300000Y-127349999D02*
X151300000Y-131950000D01*
X145500000Y-129775000D02*
X141725000Y-129775000D01*
X146425000Y-125125000D02*
X141725000Y-125125000D01*
X151275000Y-127325000D02*
X148725000Y-127325000D01*
X151275000Y-131975000D02*
X146725000Y-131975000D01*
X146515001Y-122829999D02*
G75*
G02X148775000Y-120950000I2069999J-190000D01*
G01*
X142911000Y-118830000D02*
G75*
G02X145175000Y-116946000I2074000J-190000D01*
G01*
X153800000Y-120900000D02*
X148750000Y-120946000D01*
X153800000Y-120854000D02*
X153800000Y-116946000D01*
X153800000Y-116946000D02*
X145175000Y-116946000D01*
X142900000Y-118900000D02*
X142900000Y-122845000D01*
X142900000Y-122854000D02*
X146510000Y-122854000D01*
X127720000Y-133500000D02*
X127720000Y-134200000D01*
X127720000Y-133450000D02*
G75*
G03X126500000Y-132030000I-1320000J100000D01*
G01*
X127430000Y-127400000D02*
G75*
G03X129800000Y-129570000I2270000J100000D01*
G01*
X122725000Y-127400000D02*
X122700001Y-132000000D01*
X132300000Y-129599999D02*
X132300000Y-134200000D01*
X126500000Y-132025000D02*
X122725000Y-132025000D01*
X127425000Y-127375000D02*
X122725000Y-127375000D01*
X132275000Y-129575000D02*
X129725000Y-129575000D01*
X132275000Y-134225000D02*
X127725000Y-134225000D01*
X127515001Y-125079999D02*
G75*
G02X129775000Y-123200000I2069999J-190000D01*
G01*
X123911000Y-121080000D02*
G75*
G02X126175000Y-119196000I2074000J-190000D01*
G01*
X134800000Y-123150000D02*
X129750000Y-123196000D01*
X134800000Y-123104000D02*
X134800000Y-119196000D01*
X134800000Y-119196000D02*
X126175000Y-119196000D01*
X123900000Y-121150000D02*
X123900000Y-125095000D01*
X123900000Y-125104000D02*
X127510000Y-125104000D01*
X99120000Y-105000000D02*
X99120000Y-105700000D01*
X99120000Y-104950000D02*
G75*
G03X97900000Y-103530000I-1320000J100000D01*
G01*
X98830000Y-98900000D02*
G75*
G03X101200000Y-101070000I2270000J100000D01*
G01*
X94125000Y-98900000D02*
X94100001Y-103500000D01*
X103700000Y-101099999D02*
X103700000Y-105700000D01*
X97900000Y-103525000D02*
X94125000Y-103525000D01*
X98825000Y-98875000D02*
X94125000Y-98875000D01*
X103675000Y-101075000D02*
X101125000Y-101075000D01*
X103675000Y-105725000D02*
X99125000Y-105725000D01*
X98915001Y-96579999D02*
G75*
G02X101175000Y-94700000I2069999J-190000D01*
G01*
X95311000Y-92580000D02*
G75*
G02X97575000Y-90696000I2074000J-190000D01*
G01*
X106200000Y-94650000D02*
X101150000Y-94696000D01*
X106200000Y-94604000D02*
X106200000Y-90696000D01*
X106200000Y-90696000D02*
X97575000Y-90696000D01*
X95300000Y-92650000D02*
X95300000Y-96595000D01*
X95300000Y-96604000D02*
X98910000Y-96604000D01*
X213470000Y-118500000D02*
X213470000Y-119200000D01*
X213470000Y-118450000D02*
G75*
G03X212250000Y-117030000I-1320000J100000D01*
G01*
X213180000Y-112400000D02*
G75*
G03X215550000Y-114570000I2270000J100000D01*
G01*
X208475000Y-112400000D02*
X208450001Y-117000000D01*
X218050000Y-114599999D02*
X218050000Y-119200000D01*
X212250000Y-117025000D02*
X208475000Y-117025000D01*
X213175000Y-112375000D02*
X208475000Y-112375000D01*
X218025000Y-114575000D02*
X215475000Y-114575000D01*
X218025000Y-119225000D02*
X213475000Y-119225000D01*
X213265001Y-110079999D02*
G75*
G02X215525000Y-108200000I2069999J-190000D01*
G01*
X209661000Y-106080000D02*
G75*
G02X211925000Y-104196000I2074000J-190000D01*
G01*
X220550000Y-108150000D02*
X215500000Y-108196000D01*
X220550000Y-108104000D02*
X220550000Y-104196000D01*
X220550000Y-104196000D02*
X211925000Y-104196000D01*
X209650000Y-106150000D02*
X209650000Y-110095000D01*
X209650000Y-110104000D02*
X213260000Y-110104000D01*
X194420000Y-117000000D02*
X194420000Y-117700000D01*
X194420000Y-116950000D02*
G75*
G03X193200000Y-115530000I-1320000J100000D01*
G01*
X194130000Y-110900000D02*
G75*
G03X196500000Y-113070000I2270000J100000D01*
G01*
X189425000Y-110900000D02*
X189400001Y-115500000D01*
X199000000Y-113099999D02*
X199000000Y-117700000D01*
X193200000Y-115525000D02*
X189425000Y-115525000D01*
X194125000Y-110875000D02*
X189425000Y-110875000D01*
X198975000Y-113075000D02*
X196425000Y-113075000D01*
X198975000Y-117725000D02*
X194425000Y-117725000D01*
X194215001Y-108579999D02*
G75*
G02X196475000Y-106700000I2069999J-190000D01*
G01*
X190611000Y-104580000D02*
G75*
G02X192875000Y-102696000I2074000J-190000D01*
G01*
X201500000Y-106650000D02*
X196450000Y-106696000D01*
X201500000Y-106604000D02*
X201500000Y-102696000D01*
X201500000Y-102696000D02*
X192875000Y-102696000D01*
X190600000Y-104650000D02*
X190600000Y-108595000D01*
X190600000Y-108604000D02*
X194210000Y-108604000D01*
X175320000Y-112300000D02*
X175320000Y-113000000D01*
X175320000Y-112250000D02*
G75*
G03X174100000Y-110830000I-1320000J100000D01*
G01*
X175030000Y-106200000D02*
G75*
G03X177400000Y-108370000I2270000J100000D01*
G01*
X170325000Y-106200000D02*
X170300001Y-110800000D01*
X179900000Y-108399999D02*
X179900000Y-113000000D01*
X174100000Y-110825000D02*
X170325000Y-110825000D01*
X175025000Y-106175000D02*
X170325000Y-106175000D01*
X179875000Y-108375000D02*
X177325000Y-108375000D01*
X179875000Y-113025000D02*
X175325000Y-113025000D01*
X175115001Y-103879999D02*
G75*
G02X177375000Y-102000000I2069999J-190000D01*
G01*
X171511000Y-99880000D02*
G75*
G02X173775000Y-97996000I2074000J-190000D01*
G01*
X182400000Y-101950000D02*
X177350000Y-101996000D01*
X182400000Y-101904000D02*
X182400000Y-97996000D01*
X182400000Y-97996000D02*
X173775000Y-97996000D01*
X171500000Y-99950000D02*
X171500000Y-103895000D01*
X171500000Y-103904000D02*
X175110000Y-103904000D01*
X156320000Y-110900000D02*
X156320000Y-111600000D01*
X156320000Y-110850000D02*
G75*
G03X155100000Y-109430000I-1320000J100000D01*
G01*
X156030000Y-104800000D02*
G75*
G03X158400000Y-106970000I2270000J100000D01*
G01*
X151325000Y-104800000D02*
X151300001Y-109400000D01*
X160900000Y-106999999D02*
X160900000Y-111600000D01*
X155100000Y-109425000D02*
X151325000Y-109425000D01*
X156025000Y-104775000D02*
X151325000Y-104775000D01*
X160875000Y-106975000D02*
X158325000Y-106975000D01*
X160875000Y-111625000D02*
X156325000Y-111625000D01*
X156115001Y-102479999D02*
G75*
G02X158375000Y-100600000I2069999J-190000D01*
G01*
X152511000Y-98480000D02*
G75*
G02X154775000Y-96596000I2074000J-190000D01*
G01*
X163400000Y-100550000D02*
X158350000Y-100596000D01*
X163400000Y-100504000D02*
X163400000Y-96596000D01*
X163400000Y-96596000D02*
X154775000Y-96596000D01*
X152500000Y-98550000D02*
X152500000Y-102495000D01*
X152500000Y-102504000D02*
X156110000Y-102504000D01*
X137220000Y-112300000D02*
X137220000Y-113000000D01*
X137220000Y-112250000D02*
G75*
G03X136000000Y-110830000I-1320000J100000D01*
G01*
X136930000Y-106200000D02*
G75*
G03X139300000Y-108370000I2270000J100000D01*
G01*
X132225000Y-106200000D02*
X132200001Y-110800000D01*
X141800000Y-108399999D02*
X141800000Y-113000000D01*
X136000000Y-110825000D02*
X132225000Y-110825000D01*
X136925000Y-106175000D02*
X132225000Y-106175000D01*
X141775000Y-108375000D02*
X139225000Y-108375000D01*
X141775000Y-113025000D02*
X137225000Y-113025000D01*
X137015001Y-103879999D02*
G75*
G02X139275000Y-102000000I2069999J-190000D01*
G01*
X133411000Y-99880000D02*
G75*
G02X135675000Y-97996000I2074000J-190000D01*
G01*
X144300000Y-101950000D02*
X139250000Y-101996000D01*
X144300000Y-101904000D02*
X144300000Y-97996000D01*
X144300000Y-97996000D02*
X135675000Y-97996000D01*
X133400000Y-99950000D02*
X133400000Y-103895000D01*
X133400000Y-103904000D02*
X137010000Y-103904000D01*
X118220000Y-114600000D02*
X118220000Y-115300000D01*
X118220000Y-114550000D02*
G75*
G03X117000000Y-113130000I-1320000J100000D01*
G01*
X117930000Y-108500000D02*
G75*
G03X120300000Y-110670000I2270000J100000D01*
G01*
X113225000Y-108500000D02*
X113200001Y-113100000D01*
X122800000Y-110699999D02*
X122800000Y-115300000D01*
X117000000Y-113125000D02*
X113225000Y-113125000D01*
X117925000Y-108475000D02*
X113225000Y-108475000D01*
X122775000Y-110675000D02*
X120225000Y-110675000D01*
X122775000Y-115325000D02*
X118225000Y-115325000D01*
X118015001Y-106179999D02*
G75*
G02X120275000Y-104300000I2069999J-190000D01*
G01*
X114411000Y-102180000D02*
G75*
G02X116675000Y-100296000I2074000J-190000D01*
G01*
X125300000Y-104250000D02*
X120250000Y-104296000D01*
X125300000Y-104204000D02*
X125300000Y-100296000D01*
X125300000Y-100296000D02*
X116675000Y-100296000D01*
X114400000Y-102250000D02*
X114400000Y-106195000D01*
X114400000Y-106204000D02*
X118010000Y-106204000D01*
X213420000Y-99500000D02*
X213420000Y-100200000D01*
X213420000Y-99450000D02*
G75*
G03X212200000Y-98030000I-1320000J100000D01*
G01*
X213130000Y-93400000D02*
G75*
G03X215500000Y-95570000I2270000J100000D01*
G01*
X208425000Y-93400000D02*
X208400001Y-98000000D01*
X218000000Y-95599999D02*
X218000000Y-100200000D01*
X212200000Y-98025000D02*
X208425000Y-98025000D01*
X213125000Y-93375000D02*
X208425000Y-93375000D01*
X217975000Y-95575000D02*
X215425000Y-95575000D01*
X217975000Y-100225000D02*
X213425000Y-100225000D01*
X213215001Y-91079999D02*
G75*
G02X215475000Y-89200000I2069999J-190000D01*
G01*
X209611000Y-87080000D02*
G75*
G02X211875000Y-85196000I2074000J-190000D01*
G01*
X220500000Y-89150000D02*
X215450000Y-89196000D01*
X220500000Y-89104000D02*
X220500000Y-85196000D01*
X220500000Y-85196000D02*
X211875000Y-85196000D01*
X209600000Y-87150000D02*
X209600000Y-91095000D01*
X209600000Y-91104000D02*
X213210000Y-91104000D01*
X194420000Y-98000000D02*
X194420000Y-98700000D01*
X194420000Y-97950000D02*
G75*
G03X193200000Y-96530000I-1320000J100000D01*
G01*
X194130000Y-91900000D02*
G75*
G03X196500000Y-94070000I2270000J100000D01*
G01*
X189425000Y-91900000D02*
X189400001Y-96500000D01*
X199000000Y-94099999D02*
X199000000Y-98700000D01*
X193200000Y-96525000D02*
X189425000Y-96525000D01*
X194125000Y-91875000D02*
X189425000Y-91875000D01*
X198975000Y-94075000D02*
X196425000Y-94075000D01*
X198975000Y-98725000D02*
X194425000Y-98725000D01*
X194215001Y-89579999D02*
G75*
G02X196475000Y-87700000I2069999J-190000D01*
G01*
X190611000Y-85580000D02*
G75*
G02X192875000Y-83696000I2074000J-190000D01*
G01*
X201500000Y-87650000D02*
X196450000Y-87696000D01*
X201500000Y-87604000D02*
X201500000Y-83696000D01*
X201500000Y-83696000D02*
X192875000Y-83696000D01*
X190600000Y-85650000D02*
X190600000Y-89595000D01*
X190600000Y-89604000D02*
X194210000Y-89604000D01*
X175320000Y-93200000D02*
X175320000Y-93900000D01*
X175320000Y-93150000D02*
G75*
G03X174100000Y-91730000I-1320000J100000D01*
G01*
X175030000Y-87100000D02*
G75*
G03X177400000Y-89270000I2270000J100000D01*
G01*
X170325000Y-87100000D02*
X170300001Y-91700000D01*
X179900000Y-89299999D02*
X179900000Y-93900000D01*
X174100000Y-91725000D02*
X170325000Y-91725000D01*
X175025000Y-87075000D02*
X170325000Y-87075000D01*
X179875000Y-89275000D02*
X177325000Y-89275000D01*
X179875000Y-93925000D02*
X175325000Y-93925000D01*
X175115001Y-84779999D02*
G75*
G02X177375000Y-82900000I2069999J-190000D01*
G01*
X171511000Y-80780000D02*
G75*
G02X173775000Y-78896000I2074000J-190000D01*
G01*
X182400000Y-82850000D02*
X177350000Y-82896000D01*
X182400000Y-82804000D02*
X182400000Y-78896000D01*
X182400000Y-78896000D02*
X173775000Y-78896000D01*
X171500000Y-80850000D02*
X171500000Y-84795000D01*
X171500000Y-84804000D02*
X175110000Y-84804000D01*
X156320000Y-91900000D02*
X156320000Y-92600000D01*
X156320000Y-91850000D02*
G75*
G03X155100000Y-90430000I-1320000J100000D01*
G01*
X156030000Y-85800000D02*
G75*
G03X158400000Y-87970000I2270000J100000D01*
G01*
X151325000Y-85800000D02*
X151300001Y-90400000D01*
X160900000Y-87999999D02*
X160900000Y-92600000D01*
X155100000Y-90425000D02*
X151325000Y-90425000D01*
X156025000Y-85775000D02*
X151325000Y-85775000D01*
X160875000Y-87975000D02*
X158325000Y-87975000D01*
X160875000Y-92625000D02*
X156325000Y-92625000D01*
X156115001Y-83479999D02*
G75*
G02X158375000Y-81600000I2069999J-190000D01*
G01*
X152511000Y-79480000D02*
G75*
G02X154775000Y-77596000I2074000J-190000D01*
G01*
X163400000Y-81550000D02*
X158350000Y-81596000D01*
X163400000Y-81504000D02*
X163400000Y-77596000D01*
X163400000Y-77596000D02*
X154775000Y-77596000D01*
X152500000Y-79550000D02*
X152500000Y-83495000D01*
X152500000Y-83504000D02*
X156110000Y-83504000D01*
X137220000Y-93200000D02*
X137220000Y-93900000D01*
X137220000Y-93150000D02*
G75*
G03X136000000Y-91730000I-1320000J100000D01*
G01*
X136930000Y-87100000D02*
G75*
G03X139300000Y-89270000I2270000J100000D01*
G01*
X132225000Y-87100000D02*
X132200001Y-91700000D01*
X141800000Y-89299999D02*
X141800000Y-93900000D01*
X136000000Y-91725000D02*
X132225000Y-91725000D01*
X136925000Y-87075000D02*
X132225000Y-87075000D01*
X141775000Y-89275000D02*
X139225000Y-89275000D01*
X141775000Y-93925000D02*
X137225000Y-93925000D01*
X137015001Y-84779999D02*
G75*
G02X139275000Y-82900000I2069999J-190000D01*
G01*
X133411000Y-80780000D02*
G75*
G02X135675000Y-78896000I2074000J-190000D01*
G01*
X144300000Y-82850000D02*
X139250000Y-82896000D01*
X144300000Y-82804000D02*
X144300000Y-78896000D01*
X144300000Y-78896000D02*
X135675000Y-78896000D01*
X133400000Y-80850000D02*
X133400000Y-84795000D01*
X133400000Y-84804000D02*
X137010000Y-84804000D01*
X118220000Y-95600000D02*
X118220000Y-96300000D01*
X118220000Y-95550000D02*
G75*
G03X117000000Y-94130000I-1320000J100000D01*
G01*
X117930000Y-89500000D02*
G75*
G03X120300000Y-91670000I2270000J100000D01*
G01*
X113225000Y-89500000D02*
X113200001Y-94100000D01*
X122800000Y-91699999D02*
X122800000Y-96300000D01*
X117000000Y-94125000D02*
X113225000Y-94125000D01*
X117925000Y-89475000D02*
X113225000Y-89475000D01*
X122775000Y-91675000D02*
X120225000Y-91675000D01*
X122775000Y-96325000D02*
X118225000Y-96325000D01*
X118015001Y-87179999D02*
G75*
G02X120275000Y-85300000I2069999J-190000D01*
G01*
X114411000Y-83180000D02*
G75*
G02X116675000Y-81296000I2074000J-190000D01*
G01*
X125300000Y-85250000D02*
X120250000Y-85296000D01*
X125300000Y-85204000D02*
X125300000Y-81296000D01*
X125300000Y-81296000D02*
X116675000Y-81296000D01*
X114400000Y-83250000D02*
X114400000Y-87195000D01*
X114400000Y-87204000D02*
X118010000Y-87204000D01*
X213420000Y-80300000D02*
X213420000Y-81000000D01*
X213420000Y-80250000D02*
G75*
G03X212200000Y-78830000I-1320000J100000D01*
G01*
X213130000Y-74200000D02*
G75*
G03X215500000Y-76370000I2270000J100000D01*
G01*
X208425000Y-74200000D02*
X208400001Y-78800000D01*
X218000000Y-76399999D02*
X218000000Y-81000000D01*
X212200000Y-78825000D02*
X208425000Y-78825000D01*
X213125000Y-74175000D02*
X208425000Y-74175000D01*
X217975000Y-76375000D02*
X215425000Y-76375000D01*
X217975000Y-81025000D02*
X213425000Y-81025000D01*
X213215001Y-71879999D02*
G75*
G02X215475000Y-70000000I2069999J-190000D01*
G01*
X209611000Y-67880000D02*
G75*
G02X211875000Y-65996000I2074000J-190000D01*
G01*
X220500000Y-69950000D02*
X215450000Y-69996000D01*
X220500000Y-69904000D02*
X220500000Y-65996000D01*
X220500000Y-65996000D02*
X211875000Y-65996000D01*
X209600000Y-67950000D02*
X209600000Y-71895000D01*
X209600000Y-71904000D02*
X213210000Y-71904000D01*
X194420000Y-78800000D02*
X194420000Y-79500000D01*
X194420000Y-78750000D02*
G75*
G03X193200000Y-77330000I-1320000J100000D01*
G01*
X194130000Y-72700000D02*
G75*
G03X196500000Y-74870000I2270000J100000D01*
G01*
X189425000Y-72700000D02*
X189400001Y-77300000D01*
X199000000Y-74899999D02*
X199000000Y-79500000D01*
X193200000Y-77325000D02*
X189425000Y-77325000D01*
X194125000Y-72675000D02*
X189425000Y-72675000D01*
X198975000Y-74875000D02*
X196425000Y-74875000D01*
X198975000Y-79525000D02*
X194425000Y-79525000D01*
X194215001Y-70379999D02*
G75*
G02X196475000Y-68500000I2069999J-190000D01*
G01*
X190611000Y-66380000D02*
G75*
G02X192875000Y-64496000I2074000J-190000D01*
G01*
X201500000Y-68450000D02*
X196450000Y-68496000D01*
X201500000Y-68404000D02*
X201500000Y-64496000D01*
X201500000Y-64496000D02*
X192875000Y-64496000D01*
X190600000Y-66450000D02*
X190600000Y-70395000D01*
X190600000Y-70404000D02*
X194210000Y-70404000D01*
X175320000Y-74100000D02*
X175320000Y-74800000D01*
X175320000Y-74050000D02*
G75*
G03X174100000Y-72630000I-1320000J100000D01*
G01*
X175030000Y-68000000D02*
G75*
G03X177400000Y-70170000I2270000J100000D01*
G01*
X170325000Y-68000000D02*
X170300001Y-72600000D01*
X179900000Y-70199999D02*
X179900000Y-74800000D01*
X174100000Y-72625000D02*
X170325000Y-72625000D01*
X175025000Y-67975000D02*
X170325000Y-67975000D01*
X179875000Y-70175000D02*
X177325000Y-70175000D01*
X179875000Y-74825000D02*
X175325000Y-74825000D01*
X175115001Y-65679999D02*
G75*
G02X177375000Y-63800000I2069999J-190000D01*
G01*
X171511000Y-61680000D02*
G75*
G02X173775000Y-59796000I2074000J-190000D01*
G01*
X182400000Y-63750000D02*
X177350000Y-63796000D01*
X182400000Y-63704000D02*
X182400000Y-59796000D01*
X182400000Y-59796000D02*
X173775000Y-59796000D01*
X171500000Y-61750000D02*
X171500000Y-65695000D01*
X171500000Y-65704000D02*
X175110000Y-65704000D01*
X156320000Y-72800000D02*
X156320000Y-73500000D01*
X156320000Y-72750000D02*
G75*
G03X155100000Y-71330000I-1320000J100000D01*
G01*
X156030000Y-66700000D02*
G75*
G03X158400000Y-68870000I2270000J100000D01*
G01*
X151325000Y-66700000D02*
X151300001Y-71300000D01*
X160900000Y-68899999D02*
X160900000Y-73500000D01*
X155100000Y-71325000D02*
X151325000Y-71325000D01*
X156025000Y-66675000D02*
X151325000Y-66675000D01*
X160875000Y-68875000D02*
X158325000Y-68875000D01*
X160875000Y-73525000D02*
X156325000Y-73525000D01*
X156115001Y-64379999D02*
G75*
G02X158375000Y-62500000I2069999J-190000D01*
G01*
X152511000Y-60380000D02*
G75*
G02X154775000Y-58496000I2074000J-190000D01*
G01*
X163400000Y-62450000D02*
X158350000Y-62496000D01*
X163400000Y-62404000D02*
X163400000Y-58496000D01*
X163400000Y-58496000D02*
X154775000Y-58496000D01*
X152500000Y-60450000D02*
X152500000Y-64395000D01*
X152500000Y-64404000D02*
X156110000Y-64404000D01*
X137220000Y-74200000D02*
X137220000Y-74900000D01*
X137220000Y-74150000D02*
G75*
G03X136000000Y-72730000I-1320000J100000D01*
G01*
X136930000Y-68100000D02*
G75*
G03X139300000Y-70270000I2270000J100000D01*
G01*
X132225000Y-68100000D02*
X132200001Y-72700000D01*
X141800000Y-70299999D02*
X141800000Y-74900000D01*
X136000000Y-72725000D02*
X132225000Y-72725000D01*
X136925000Y-68075000D02*
X132225000Y-68075000D01*
X141775000Y-70275000D02*
X139225000Y-70275000D01*
X141775000Y-74925000D02*
X137225000Y-74925000D01*
X137015001Y-65779999D02*
G75*
G02X139275000Y-63900000I2069999J-190000D01*
G01*
X133411000Y-61780000D02*
G75*
G02X135675000Y-59896000I2074000J-190000D01*
G01*
X144300000Y-63850000D02*
X139250000Y-63896000D01*
X144300000Y-63804000D02*
X144300000Y-59896000D01*
X144300000Y-59896000D02*
X135675000Y-59896000D01*
X133400000Y-61850000D02*
X133400000Y-65795000D01*
X133400000Y-65804000D02*
X137010000Y-65804000D01*
X118220000Y-76600000D02*
X118220000Y-77300000D01*
X118220000Y-76550000D02*
G75*
G03X117000000Y-75130000I-1320000J100000D01*
G01*
X117930000Y-70500000D02*
G75*
G03X120300000Y-72670000I2270000J100000D01*
G01*
X113225000Y-70500000D02*
X113200001Y-75100000D01*
X122800000Y-72699999D02*
X122800000Y-77300000D01*
X117000000Y-75125000D02*
X113225000Y-75125000D01*
X117925000Y-70475000D02*
X113225000Y-70475000D01*
X122775000Y-72675000D02*
X120225000Y-72675000D01*
X122775000Y-77325000D02*
X118225000Y-77325000D01*
X118015001Y-68179999D02*
G75*
G02X120275000Y-66300000I2069999J-190000D01*
G01*
X114411000Y-64180000D02*
G75*
G02X116675000Y-62296000I2074000J-190000D01*
G01*
X125300000Y-66250000D02*
X120250000Y-66296000D01*
X125300000Y-66204000D02*
X125300000Y-62296000D01*
X125300000Y-62296000D02*
X116675000Y-62296000D01*
X114400000Y-64250000D02*
X114400000Y-68195000D01*
X114400000Y-68204000D02*
X118010000Y-68204000D01*
X213420000Y-61400000D02*
X213420000Y-62100000D01*
X213420000Y-61350000D02*
G75*
G03X212200000Y-59930000I-1320000J100000D01*
G01*
X213130000Y-55300000D02*
G75*
G03X215500000Y-57470000I2270000J100000D01*
G01*
X208425000Y-55300000D02*
X208400001Y-59900000D01*
X218000000Y-57499999D02*
X218000000Y-62100000D01*
X212200000Y-59925000D02*
X208425000Y-59925000D01*
X213125000Y-55275000D02*
X208425000Y-55275000D01*
X217975000Y-57475000D02*
X215425000Y-57475000D01*
X217975000Y-62125000D02*
X213425000Y-62125000D01*
X213215001Y-52979999D02*
G75*
G02X215475000Y-51100000I2069999J-190000D01*
G01*
X209611000Y-48980000D02*
G75*
G02X211875000Y-47096000I2074000J-190000D01*
G01*
X220500000Y-51050000D02*
X215450000Y-51096000D01*
X220500000Y-51004000D02*
X220500000Y-47096000D01*
X220500000Y-47096000D02*
X211875000Y-47096000D01*
X209600000Y-49050000D02*
X209600000Y-52995000D01*
X209600000Y-53004000D02*
X213210000Y-53004000D01*
X194420000Y-59900000D02*
X194420000Y-60600000D01*
X194420000Y-59850000D02*
G75*
G03X193200000Y-58430000I-1320000J100000D01*
G01*
X194130000Y-53800000D02*
G75*
G03X196500000Y-55970000I2270000J100000D01*
G01*
X189425000Y-53800000D02*
X189400001Y-58400000D01*
X199000000Y-55999999D02*
X199000000Y-60600000D01*
X193200000Y-58425000D02*
X189425000Y-58425000D01*
X194125000Y-53775000D02*
X189425000Y-53775000D01*
X198975000Y-55975000D02*
X196425000Y-55975000D01*
X198975000Y-60625000D02*
X194425000Y-60625000D01*
X194215001Y-51479999D02*
G75*
G02X196475000Y-49600000I2069999J-190000D01*
G01*
X190611000Y-47480000D02*
G75*
G02X192875000Y-45596000I2074000J-190000D01*
G01*
X201500000Y-49550000D02*
X196450000Y-49596000D01*
X201500000Y-49504000D02*
X201500000Y-45596000D01*
X201500000Y-45596000D02*
X192875000Y-45596000D01*
X190600000Y-47550000D02*
X190600000Y-51495000D01*
X190600000Y-51504000D02*
X194210000Y-51504000D01*
X175320000Y-55100000D02*
X175320000Y-55800000D01*
X175320000Y-55050000D02*
G75*
G03X174100000Y-53630000I-1320000J100000D01*
G01*
X175030000Y-49000000D02*
G75*
G03X177400000Y-51170000I2270000J100000D01*
G01*
X170325000Y-49000000D02*
X170300001Y-53600000D01*
X179900000Y-51199999D02*
X179900000Y-55800000D01*
X174100000Y-53625000D02*
X170325000Y-53625000D01*
X175025000Y-48975000D02*
X170325000Y-48975000D01*
X179875000Y-51175000D02*
X177325000Y-51175000D01*
X179875000Y-55825000D02*
X175325000Y-55825000D01*
X175115001Y-46679999D02*
G75*
G02X177375000Y-44800000I2069999J-190000D01*
G01*
X171511000Y-42680000D02*
G75*
G02X173775000Y-40796000I2074000J-190000D01*
G01*
X182400000Y-44750000D02*
X177350000Y-44796000D01*
X182400000Y-44704000D02*
X182400000Y-40796000D01*
X182400000Y-40796000D02*
X173775000Y-40796000D01*
X171500000Y-42750000D02*
X171500000Y-46695000D01*
X171500000Y-46704000D02*
X175110000Y-46704000D01*
X156320000Y-53710000D02*
X156320000Y-54410000D01*
X156320000Y-53660000D02*
G75*
G03X155100000Y-52240000I-1320000J100000D01*
G01*
X156030000Y-47610000D02*
G75*
G03X158400000Y-49780000I2270000J100000D01*
G01*
X151325000Y-47610000D02*
X151300001Y-52210000D01*
X160900000Y-49809999D02*
X160900000Y-54410000D01*
X155100000Y-52235000D02*
X151325000Y-52235000D01*
X156025000Y-47585000D02*
X151325000Y-47585000D01*
X160875000Y-49785000D02*
X158325000Y-49785000D01*
X160875000Y-54435000D02*
X156325000Y-54435000D01*
X156115001Y-45289999D02*
G75*
G02X158375000Y-43410000I2069999J-190000D01*
G01*
X152511000Y-41290000D02*
G75*
G02X154775000Y-39406000I2074000J-190000D01*
G01*
X163400000Y-43360000D02*
X158350000Y-43406000D01*
X163400000Y-43314000D02*
X163400000Y-39406000D01*
X163400000Y-39406000D02*
X154775000Y-39406000D01*
X152500000Y-41360000D02*
X152500000Y-45305000D01*
X152500000Y-45314000D02*
X156110000Y-45314000D01*
X137220000Y-55100000D02*
X137220000Y-55800000D01*
X137220000Y-55050000D02*
G75*
G03X136000000Y-53630000I-1320000J100000D01*
G01*
X136930000Y-49000000D02*
G75*
G03X139300000Y-51170000I2270000J100000D01*
G01*
X132225000Y-49000000D02*
X132200001Y-53600000D01*
X141800000Y-51199999D02*
X141800000Y-55800000D01*
X136000000Y-53625000D02*
X132225000Y-53625000D01*
X136925000Y-48975000D02*
X132225000Y-48975000D01*
X141775000Y-51175000D02*
X139225000Y-51175000D01*
X141775000Y-55825000D02*
X137225000Y-55825000D01*
X137015001Y-46679999D02*
G75*
G02X139275000Y-44800000I2069999J-190000D01*
G01*
X133411000Y-42680000D02*
G75*
G02X135675000Y-40796000I2074000J-190000D01*
G01*
X144300000Y-44750000D02*
X139250000Y-44796000D01*
X144300000Y-44704000D02*
X144300000Y-40796000D01*
X144300000Y-40796000D02*
X135675000Y-40796000D01*
X133400000Y-42750000D02*
X133400000Y-46695000D01*
X133400000Y-46704000D02*
X137010000Y-46704000D01*
X118220000Y-57500000D02*
X118220000Y-58200000D01*
X118220000Y-57450000D02*
G75*
G03X117000000Y-56030000I-1320000J100000D01*
G01*
X117930000Y-51400000D02*
G75*
G03X120300000Y-53570000I2270000J100000D01*
G01*
X113225000Y-51400000D02*
X113200001Y-56000000D01*
X122800000Y-53599999D02*
X122800000Y-58200000D01*
X117000000Y-56025000D02*
X113225000Y-56025000D01*
X117925000Y-51375000D02*
X113225000Y-51375000D01*
X122775000Y-53575000D02*
X120225000Y-53575000D01*
X122775000Y-58225000D02*
X118225000Y-58225000D01*
X118015001Y-49079999D02*
G75*
G02X120275000Y-47200000I2069999J-190000D01*
G01*
X114411000Y-45080000D02*
G75*
G02X116675000Y-43196000I2074000J-190000D01*
G01*
X125300000Y-47150000D02*
X120250000Y-47196000D01*
X125300000Y-47104000D02*
X125300000Y-43196000D01*
X125300000Y-43196000D02*
X116675000Y-43196000D01*
X114400000Y-45150000D02*
X114400000Y-49095000D01*
X114400000Y-49104000D02*
X118010000Y-49104000D01*
X90910000Y-70440000D02*
X90910000Y-39960000D01*
D12*
X93450000Y-70440000D02*
X90910000Y-70440000D01*
X93450000Y-39960000D02*
X93450000Y-70440000D01*
X90910000Y-39960000D02*
X93450000Y-39960000D01*
X106150000Y-70440000D02*
X106150000Y-39960000D01*
X108690000Y-70440000D02*
X106150000Y-70440000D01*
D10*
X108690000Y-39960000D02*
X108690000Y-70440000D01*
D12*
X106150000Y-39960000D02*
X108690000Y-39960000D01*
X90910000Y-70440000D02*
X90910000Y-37420000D01*
X108690000Y-37420000D02*
X108690000Y-70440000D01*
X90910000Y-37420000D02*
X108690000Y-37420000D01*
D10*
X85700000Y-61700000D02*
X83700000Y-61700000D01*
X83700000Y-61700000D02*
X83700000Y-59700000D01*
X83700000Y-59700000D02*
X85700000Y-59700000D01*
X85700000Y-59700000D02*
X85700000Y-61700000D01*
X87900000Y-59700000D02*
X87900000Y-61700000D01*
X85900000Y-59700000D02*
X87900000Y-59700000D01*
X85900000Y-61700000D02*
X85900000Y-59700000D01*
X87900000Y-61700000D02*
X85900000Y-61700000D01*
X85938035Y-54539272D02*
X87938035Y-54539272D01*
X85938035Y-57539272D02*
X85938035Y-54539272D01*
X87938035Y-57539272D02*
X85938035Y-57539272D01*
X87938035Y-54539272D02*
X87938035Y-57539272D01*
X85688035Y-54539272D02*
X85688035Y-57539272D01*
X85688035Y-57539272D02*
X83688035Y-57539272D01*
X83688035Y-57539272D02*
X83688035Y-54539272D01*
X83688035Y-54539272D02*
X85688035Y-54539272D01*
X103411000Y-70443000D02*
X105189000Y-70443000D01*
X103411000Y-68157000D02*
X103411000Y-70443000D01*
X105189000Y-68157000D02*
X103411000Y-68157000D01*
X105189000Y-70443000D02*
X105189000Y-68157000D01*
X102589000Y-70443000D02*
X102589000Y-68157000D01*
X102589000Y-68157000D02*
X100811000Y-68157000D01*
X100811000Y-68157000D02*
X100811000Y-70443000D01*
X100811000Y-70443000D02*
X102589000Y-70443000D01*
X98311000Y-70443000D02*
X100089000Y-70443000D01*
X98311000Y-68157000D02*
X98311000Y-70443000D01*
X100089000Y-68157000D02*
X98311000Y-68157000D01*
X100089000Y-70443000D02*
X100089000Y-68157000D01*
X97589000Y-70443000D02*
X97589000Y-68157000D01*
X97589000Y-68157000D02*
X95811000Y-68157000D01*
X95811000Y-68157000D02*
X95811000Y-70443000D01*
X95811000Y-70443000D02*
X97589000Y-70443000D01*
X83200000Y-70700000D02*
X83200000Y-64800000D01*
X83200000Y-70700000D02*
X83200000Y-64700000D01*
X86700000Y-64700000D02*
X86700000Y-70700000D01*
X83200000Y-64700000D02*
X83700000Y-64700000D01*
X86700000Y-64700000D02*
X86300000Y-64700000D01*
X86700000Y-70700000D02*
X86300000Y-70700000D01*
X83200000Y-70700000D02*
X83700000Y-70700000D01*
X113900000Y-58000000D02*
X114800000Y-57300000D01*
X114800000Y-57300000D02*
X114800000Y-58700000D01*
X114800000Y-58700000D02*
X113900000Y-58000000D01*
X113900000Y-57300000D02*
X113900000Y-58700000D01*
X133800000Y-55700000D02*
X134700000Y-55000000D01*
X134700000Y-55000000D02*
X134700000Y-56400000D01*
X134700000Y-56400000D02*
X133800000Y-55700000D01*
X133800000Y-55000000D02*
X133800000Y-56400000D01*
X152000000Y-54200000D02*
X152900000Y-53500000D01*
X152900000Y-53500000D02*
X152900000Y-54900000D01*
X152900000Y-54900000D02*
X152000000Y-54200000D01*
X152000000Y-53500000D02*
X152000000Y-54900000D01*
X171000000Y-55600000D02*
X171900000Y-54900000D01*
X171900000Y-54900000D02*
X171900000Y-56300000D01*
X171900000Y-56300000D02*
X171000000Y-55600000D01*
X171000000Y-54900000D02*
X171000000Y-56300000D01*
X190100000Y-59700000D02*
X190100000Y-61100000D01*
X191000000Y-61100000D02*
X190100000Y-60400000D01*
X191000000Y-59700000D02*
X191000000Y-61100000D01*
X190100000Y-60400000D02*
X191000000Y-59700000D01*
X221300000Y-61800000D02*
X222200000Y-61100000D01*
X222200000Y-61100000D02*
X222200000Y-62500000D01*
X222200000Y-62500000D02*
X221300000Y-61800000D01*
X221300000Y-61100000D02*
X221300000Y-62500000D01*
X113900000Y-60400000D02*
X113900000Y-61800000D01*
X114800000Y-61800000D02*
X113900000Y-61100000D01*
X114800000Y-60400000D02*
X114800000Y-61800000D01*
X113900000Y-61100000D02*
X114800000Y-60400000D01*
X134800000Y-58000000D02*
X134800000Y-59400000D01*
X135700000Y-59400000D02*
X134800000Y-58700000D01*
X135700000Y-58000000D02*
X135700000Y-59400000D01*
X134800000Y-58700000D02*
X135700000Y-58000000D01*
X152100000Y-56700000D02*
X152100000Y-58100000D01*
X153000000Y-58100000D02*
X152100000Y-57400000D01*
X153000000Y-56700000D02*
X153000000Y-58100000D01*
X152100000Y-57400000D02*
X153000000Y-56700000D01*
X171000000Y-58700000D02*
X171900000Y-58000000D01*
X171900000Y-58000000D02*
X171900000Y-59400000D01*
X171900000Y-59400000D02*
X171000000Y-58700000D01*
X171000000Y-58000000D02*
X171000000Y-59400000D01*
X190100000Y-62600000D02*
X190100000Y-64000000D01*
X191000000Y-64000000D02*
X190100000Y-63300000D01*
X191000000Y-62600000D02*
X191000000Y-64000000D01*
X190100000Y-63300000D02*
X191000000Y-62600000D01*
X221300000Y-64200000D02*
X221300000Y-65600000D01*
X222200000Y-65600000D02*
X221300000Y-64900000D01*
X222200000Y-64200000D02*
X222200000Y-65600000D01*
X221300000Y-64900000D02*
X222200000Y-64200000D01*
X113900000Y-96000000D02*
X114800000Y-95300000D01*
X114800000Y-95300000D02*
X114800000Y-96700000D01*
X114800000Y-96700000D02*
X113900000Y-96000000D01*
X113900000Y-95300000D02*
X113900000Y-96700000D01*
X133800000Y-93100000D02*
X133800000Y-94500000D01*
X134700000Y-94500000D02*
X133800000Y-93800000D01*
X134700000Y-93100000D02*
X134700000Y-94500000D01*
X133800000Y-93800000D02*
X134700000Y-93100000D01*
X152000000Y-91600000D02*
X152000000Y-93000000D01*
X152900000Y-93000000D02*
X152000000Y-92300000D01*
X152900000Y-91600000D02*
X152900000Y-93000000D01*
X152000000Y-92300000D02*
X152900000Y-91600000D01*
X171000000Y-93600000D02*
X171900000Y-92900000D01*
X171900000Y-92900000D02*
X171900000Y-94300000D01*
X171900000Y-94300000D02*
X171000000Y-93600000D01*
X171000000Y-92900000D02*
X171000000Y-94300000D01*
X190100000Y-98300000D02*
X191000000Y-97600000D01*
X191000000Y-97600000D02*
X191000000Y-99000000D01*
X191000000Y-99000000D02*
X190100000Y-98300000D01*
X190100000Y-97600000D02*
X190100000Y-99000000D01*
X221300000Y-99200000D02*
X221300000Y-100600000D01*
X222200000Y-100600000D02*
X221300000Y-99900000D01*
X222200000Y-99200000D02*
X222200000Y-100600000D01*
X221300000Y-99900000D02*
X222200000Y-99200000D01*
X113900000Y-98400000D02*
X113900000Y-99800000D01*
X114800000Y-99800000D02*
X113900000Y-99100000D01*
X114800000Y-98400000D02*
X114800000Y-99800000D01*
X113900000Y-99100000D02*
X114800000Y-98400000D01*
X134800000Y-96800000D02*
X135700000Y-96100000D01*
X135700000Y-96100000D02*
X135700000Y-97500000D01*
X135700000Y-97500000D02*
X134800000Y-96800000D01*
X134800000Y-96100000D02*
X134800000Y-97500000D01*
X152000000Y-94700000D02*
X152000000Y-96100000D01*
X152900000Y-96100000D02*
X152000000Y-95400000D01*
X152900000Y-94700000D02*
X152900000Y-96100000D01*
X152000000Y-95400000D02*
X152900000Y-94700000D01*
X171000000Y-96800000D02*
X171900000Y-96100000D01*
X171900000Y-96100000D02*
X171900000Y-97500000D01*
X171900000Y-97500000D02*
X171000000Y-96800000D01*
X171000000Y-96100000D02*
X171000000Y-97500000D01*
X190100000Y-100800000D02*
X190100000Y-102200000D01*
X191000000Y-102200000D02*
X190100000Y-101500000D01*
X191000000Y-100800000D02*
X191000000Y-102200000D01*
X190100000Y-101500000D02*
X191000000Y-100800000D01*
X221400000Y-103100000D02*
X222300000Y-102400000D01*
X222300000Y-102400000D02*
X222300000Y-103800000D01*
X222300000Y-103800000D02*
X221400000Y-103100000D01*
X221400000Y-102400000D02*
X221400000Y-103800000D01*
X105100000Y-89500000D02*
X106000000Y-88800000D01*
X106000000Y-88800000D02*
X106000000Y-90200000D01*
X106000000Y-90200000D02*
X105100000Y-89500000D01*
X105100000Y-88800000D02*
X105100000Y-90200000D01*
X110156218Y-118516987D02*
X108943782Y-119216987D01*
X109393782Y-119996410D02*
X109550000Y-118866987D01*
X110606218Y-119296410D02*
X109393782Y-119996410D01*
X109550000Y-118866987D02*
X110606218Y-119296410D01*
X123400000Y-118000000D02*
X124300000Y-117300000D01*
X124300000Y-117300000D02*
X124300000Y-118700000D01*
X124300000Y-118700000D02*
X123400000Y-118000000D01*
X123400000Y-117300000D02*
X123400000Y-118700000D01*
X142400000Y-115100000D02*
X142400000Y-116500000D01*
X143300000Y-116500000D02*
X142400000Y-115800000D01*
X143300000Y-115100000D02*
X143300000Y-116500000D01*
X142400000Y-115800000D02*
X143300000Y-115100000D01*
X161500000Y-115800000D02*
X162400000Y-115100000D01*
X162400000Y-115100000D02*
X162400000Y-116500000D01*
X162400000Y-116500000D02*
X161500000Y-115800000D01*
X161500000Y-115100000D02*
X161500000Y-116500000D01*
X95430000Y-73330000D02*
X105590000Y-73330000D01*
X105590000Y-73330000D02*
X105590000Y-75870000D01*
X105590000Y-75870000D02*
X95430000Y-75870000D01*
X95430000Y-75870000D02*
X95430000Y-73330000D01*
X115966666Y-80261904D02*
X115700000Y-81061904D01*
X115433333Y-80261904D01*
X114709523Y-80985714D02*
X114747619Y-81023809D01*
X114861904Y-81061904D01*
X114938095Y-81061904D01*
X115052380Y-81023809D01*
X115128571Y-80947619D01*
X115166666Y-80871428D01*
X115204761Y-80719047D01*
X115204761Y-80604761D01*
X115166666Y-80452380D01*
X115128571Y-80376190D01*
X115052380Y-80300000D01*
X114938095Y-80261904D01*
X114861904Y-80261904D01*
X114747619Y-80300000D01*
X114709523Y-80338095D01*
X113909523Y-80985714D02*
X113947619Y-81023809D01*
X114061904Y-81061904D01*
X114138095Y-81061904D01*
X114252380Y-81023809D01*
X114328571Y-80947619D01*
X114366666Y-80871428D01*
X114404761Y-80719047D01*
X114404761Y-80604761D01*
X114366666Y-80452380D01*
X114328571Y-80376190D01*
X114252380Y-80300000D01*
X114138095Y-80261904D01*
X114061904Y-80261904D01*
X113947619Y-80300000D01*
X113909523Y-80338095D01*
X115414285Y-78961904D02*
X115795238Y-78961904D01*
X115795238Y-78161904D01*
X115147619Y-78542857D02*
X114880952Y-78542857D01*
X114766666Y-78961904D02*
X115147619Y-78961904D01*
X115147619Y-78161904D01*
X114766666Y-78161904D01*
X114423809Y-78961904D02*
X114423809Y-78161904D01*
X114233333Y-78161904D01*
X114119047Y-78200000D01*
X114042857Y-78276190D01*
X114004761Y-78352380D01*
X113966666Y-78504761D01*
X113966666Y-78619047D01*
X114004761Y-78771428D01*
X114042857Y-78847619D01*
X114119047Y-78923809D01*
X114233333Y-78961904D01*
X114423809Y-78961904D01*
X115509523Y-76200000D02*
X115585714Y-76161904D01*
X115700000Y-76161904D01*
X115814285Y-76200000D01*
X115890476Y-76276190D01*
X115928571Y-76352380D01*
X115966666Y-76504761D01*
X115966666Y-76619047D01*
X115928571Y-76771428D01*
X115890476Y-76847619D01*
X115814285Y-76923809D01*
X115700000Y-76961904D01*
X115623809Y-76961904D01*
X115509523Y-76923809D01*
X115471428Y-76885714D01*
X115471428Y-76619047D01*
X115623809Y-76619047D01*
X115128571Y-76961904D02*
X115128571Y-76161904D01*
X114671428Y-76961904D01*
X114671428Y-76161904D01*
X114290476Y-76961904D02*
X114290476Y-76161904D01*
X114100000Y-76161904D01*
X113985714Y-76200000D01*
X113909523Y-76276190D01*
X113871428Y-76352380D01*
X113833333Y-76504761D01*
X113833333Y-76619047D01*
X113871428Y-76771428D01*
X113909523Y-76847619D01*
X113985714Y-76923809D01*
X114100000Y-76961904D01*
X114290476Y-76961904D01*
X85090476Y-62761904D02*
X85090476Y-61961904D01*
X84785714Y-61961904D01*
X84709523Y-62000000D01*
X84671428Y-62038095D01*
X84633333Y-62114285D01*
X84633333Y-62228571D01*
X84671428Y-62304761D01*
X84709523Y-62342857D01*
X84785714Y-62380952D01*
X85090476Y-62380952D01*
X83871428Y-62761904D02*
X84328571Y-62761904D01*
X84100000Y-62761904D02*
X84100000Y-61961904D01*
X84176190Y-62076190D01*
X84252380Y-62152380D01*
X84328571Y-62190476D01*
X87490476Y-62761904D02*
X87490476Y-61961904D01*
X87185714Y-61961904D01*
X87109523Y-62000000D01*
X87071428Y-62038095D01*
X87033333Y-62114285D01*
X87033333Y-62228571D01*
X87071428Y-62304761D01*
X87109523Y-62342857D01*
X87185714Y-62380952D01*
X87490476Y-62380952D01*
X86728571Y-62038095D02*
X86690476Y-62000000D01*
X86614285Y-61961904D01*
X86423809Y-61961904D01*
X86347619Y-62000000D01*
X86309523Y-62038095D01*
X86271428Y-62114285D01*
X86271428Y-62190476D01*
X86309523Y-62304761D01*
X86766666Y-62761904D01*
X86271428Y-62761904D01*
X87299939Y-55905938D02*
X86918987Y-55639272D01*
X87299939Y-55448795D02*
X86499939Y-55448795D01*
X86499939Y-55753557D01*
X86538035Y-55829748D01*
X86576130Y-55867843D01*
X86652320Y-55905938D01*
X86766606Y-55905938D01*
X86842796Y-55867843D01*
X86880892Y-55829748D01*
X86918987Y-55753557D01*
X86918987Y-55448795D01*
X86576130Y-56210700D02*
X86538035Y-56248795D01*
X86499939Y-56324986D01*
X86499939Y-56515462D01*
X86538035Y-56591652D01*
X86576130Y-56629748D01*
X86652320Y-56667843D01*
X86728511Y-56667843D01*
X86842796Y-56629748D01*
X87299939Y-56172605D01*
X87299939Y-56667843D01*
X85061904Y-55905938D02*
X84680952Y-55639272D01*
X85061904Y-55448795D02*
X84261904Y-55448795D01*
X84261904Y-55753557D01*
X84300000Y-55829748D01*
X84338095Y-55867843D01*
X84414285Y-55905938D01*
X84528571Y-55905938D01*
X84604761Y-55867843D01*
X84642857Y-55829748D01*
X84680952Y-55753557D01*
X84680952Y-55448795D01*
X85061904Y-56667843D02*
X85061904Y-56210700D01*
X85061904Y-56439272D02*
X84261904Y-56439272D01*
X84376190Y-56363081D01*
X84452380Y-56286891D01*
X84490476Y-56210700D01*
X85361904Y-66538095D02*
X84980952Y-66271428D01*
X85361904Y-66080952D02*
X84561904Y-66080952D01*
X84561904Y-66385714D01*
X84600000Y-66461904D01*
X84638095Y-66500000D01*
X84714285Y-66538095D01*
X84828571Y-66538095D01*
X84904761Y-66500000D01*
X84942857Y-66461904D01*
X84980952Y-66385714D01*
X84980952Y-66080952D01*
X84942857Y-66880952D02*
X84942857Y-67147619D01*
X85361904Y-67261904D02*
X85361904Y-66880952D01*
X84561904Y-66880952D01*
X84561904Y-67261904D01*
X85323809Y-67566666D02*
X85361904Y-67680952D01*
X85361904Y-67871428D01*
X85323809Y-67947619D01*
X85285714Y-67985714D01*
X85209523Y-68023809D01*
X85133333Y-68023809D01*
X85057142Y-67985714D01*
X85019047Y-67947619D01*
X84980952Y-67871428D01*
X84942857Y-67719047D01*
X84904761Y-67642857D01*
X84866666Y-67604761D01*
X84790476Y-67566666D01*
X84714285Y-67566666D01*
X84638095Y-67604761D01*
X84600000Y-67642857D01*
X84561904Y-67719047D01*
X84561904Y-67909523D01*
X84600000Y-68023809D01*
X84942857Y-68366666D02*
X84942857Y-68633333D01*
X85361904Y-68747619D02*
X85361904Y-68366666D01*
X84561904Y-68366666D01*
X84561904Y-68747619D01*
X84561904Y-68976190D02*
X84561904Y-69433333D01*
X85361904Y-69204761D02*
X84561904Y-69204761D01*
M02*
