G04 #@! TF.GenerationSoftware,KiCad,Pcbnew,5.1.5-52549c5~84~ubuntu18.04.1*
G04 #@! TF.CreationDate,2019-12-02T09:16:55+01:00*
G04 #@! TF.ProjectId,Lily58_Pro,4c696c79-3538-45f5-9072-6f2e6b696361,rev?*
G04 #@! TF.SameCoordinates,Original*
G04 #@! TF.FileFunction,Legend,Top*
G04 #@! TF.FilePolarity,Positive*
%FSLAX46Y46*%
G04 Gerber Fmt 4.6, Leading zero omitted, Abs format (unit mm)*
G04 Created by KiCad (PCBNEW 5.1.5-52549c5~84~ubuntu18.04.1) date 2019-12-02 09:16:55*
%MOMM*%
%LPD*%
G04 APERTURE LIST*
%ADD10C,0.150000*%
%ADD11C,0.010000*%
%ADD12C,0.250000*%
G04 APERTURE END LIST*
D10*
X85400000Y-37400000D02*
X90400000Y-37400000D01*
X90900000Y-39300000D02*
X90400000Y-39300000D01*
X85400000Y-39300000D02*
X85400000Y-37400000D01*
X90400000Y-39300000D02*
X90400000Y-37400000D01*
X84900000Y-39300000D02*
X85400000Y-39300000D01*
X90900000Y-39300000D02*
X90900000Y-51300000D01*
X90900000Y-51300000D02*
X84900000Y-51300000D01*
X84900000Y-51300000D02*
X84900000Y-39300000D01*
X113600000Y-77400000D02*
X111800000Y-77400000D01*
X113600000Y-81500000D02*
X111800000Y-81500000D01*
X111800000Y-81500000D02*
X111800000Y-79700000D01*
X111800000Y-79700000D02*
X113600000Y-79700000D01*
X113600000Y-79700000D02*
X113600000Y-81500000D01*
X113600000Y-79500000D02*
X111800000Y-79500000D01*
X111800000Y-77700000D02*
X113600000Y-77700000D01*
X111800000Y-79500000D02*
X111800000Y-77700000D01*
X113600000Y-79500000D02*
X113600000Y-77700000D01*
X111800000Y-77400000D02*
X111800000Y-75600000D01*
X111800000Y-75600000D02*
X113600000Y-75600000D01*
X113600000Y-77400000D02*
X113600000Y-75600000D01*
D11*
G36*
X98576767Y-61791393D02*
G01*
X98610791Y-61751162D01*
X98656274Y-61703884D01*
X98704034Y-61658660D01*
X98744886Y-61624591D01*
X98769648Y-61610777D01*
X98769945Y-61610769D01*
X98792385Y-61623856D01*
X98831598Y-61657103D01*
X98878455Y-61701489D01*
X98923829Y-61747993D01*
X98958592Y-61787596D01*
X98973616Y-61811275D01*
X98973693Y-61812128D01*
X98960902Y-61832162D01*
X98927251Y-61871315D01*
X98879818Y-61921387D01*
X98876184Y-61925070D01*
X98816411Y-61979985D01*
X98773382Y-62007770D01*
X98754069Y-62009192D01*
X98719442Y-61983228D01*
X98674205Y-61942301D01*
X98627444Y-61895646D01*
X98588248Y-61852493D01*
X98565705Y-61822075D01*
X98563385Y-61815477D01*
X98576767Y-61791393D01*
G37*
X98576767Y-61791393D02*
X98610791Y-61751162D01*
X98656274Y-61703884D01*
X98704034Y-61658660D01*
X98744886Y-61624591D01*
X98769648Y-61610777D01*
X98769945Y-61610769D01*
X98792385Y-61623856D01*
X98831598Y-61657103D01*
X98878455Y-61701489D01*
X98923829Y-61747993D01*
X98958592Y-61787596D01*
X98973616Y-61811275D01*
X98973693Y-61812128D01*
X98960902Y-61832162D01*
X98927251Y-61871315D01*
X98879818Y-61921387D01*
X98876184Y-61925070D01*
X98816411Y-61979985D01*
X98773382Y-62007770D01*
X98754069Y-62009192D01*
X98719442Y-61983228D01*
X98674205Y-61942301D01*
X98627444Y-61895646D01*
X98588248Y-61852493D01*
X98565705Y-61822075D01*
X98563385Y-61815477D01*
X98576767Y-61791393D01*
G36*
X98539806Y-61317627D02*
G01*
X98581446Y-61268406D01*
X98646611Y-61201125D01*
X98707163Y-61142680D01*
X98778758Y-61075130D01*
X98895764Y-61190915D01*
X98954939Y-61254352D01*
X98995350Y-61307732D01*
X99011668Y-61343916D01*
X99011768Y-61346389D01*
X98997338Y-61379104D01*
X98960046Y-61427212D01*
X98907229Y-61481306D01*
X98904707Y-61483636D01*
X98850200Y-61532190D01*
X98805304Y-61569312D01*
X98778929Y-61587671D01*
X98777586Y-61588215D01*
X98755808Y-61578354D01*
X98715855Y-61547258D01*
X98665773Y-61502663D01*
X98613610Y-61452307D01*
X98567410Y-61403926D01*
X98535223Y-61365257D01*
X98524881Y-61345242D01*
X98539806Y-61317627D01*
G37*
X98539806Y-61317627D02*
X98581446Y-61268406D01*
X98646611Y-61201125D01*
X98707163Y-61142680D01*
X98778758Y-61075130D01*
X98895764Y-61190915D01*
X98954939Y-61254352D01*
X98995350Y-61307732D01*
X99011668Y-61343916D01*
X99011768Y-61346389D01*
X98997338Y-61379104D01*
X98960046Y-61427212D01*
X98907229Y-61481306D01*
X98904707Y-61483636D01*
X98850200Y-61532190D01*
X98805304Y-61569312D01*
X98778929Y-61587671D01*
X98777586Y-61588215D01*
X98755808Y-61578354D01*
X98715855Y-61547258D01*
X98665773Y-61502663D01*
X98613610Y-61452307D01*
X98567410Y-61403926D01*
X98535223Y-61365257D01*
X98524881Y-61345242D01*
X98539806Y-61317627D01*
G36*
X98528387Y-56189193D02*
G01*
X98544482Y-56124292D01*
X98578376Y-56083974D01*
X98635857Y-56061243D01*
X98719693Y-56049373D01*
X98809396Y-56046575D01*
X98892986Y-56053029D01*
X98928964Y-56060169D01*
X98983472Y-56079431D01*
X99013044Y-56106963D01*
X99031432Y-56155200D01*
X99049875Y-56276251D01*
X99037192Y-56387140D01*
X99023202Y-56427039D01*
X98994843Y-56469053D01*
X98949375Y-56495841D01*
X98880738Y-56509070D01*
X98782869Y-56510412D01*
X98730163Y-56507741D01*
X98638171Y-56497275D01*
X98578047Y-56475254D01*
X98543341Y-56434719D01*
X98527598Y-56368709D01*
X98524308Y-56285675D01*
X98528387Y-56189193D01*
G37*
X98528387Y-56189193D02*
X98544482Y-56124292D01*
X98578376Y-56083974D01*
X98635857Y-56061243D01*
X98719693Y-56049373D01*
X98809396Y-56046575D01*
X98892986Y-56053029D01*
X98928964Y-56060169D01*
X98983472Y-56079431D01*
X99013044Y-56106963D01*
X99031432Y-56155200D01*
X99049875Y-56276251D01*
X99037192Y-56387140D01*
X99023202Y-56427039D01*
X98994843Y-56469053D01*
X98949375Y-56495841D01*
X98880738Y-56509070D01*
X98782869Y-56510412D01*
X98730163Y-56507741D01*
X98638171Y-56497275D01*
X98578047Y-56475254D01*
X98543341Y-56434719D01*
X98527598Y-56368709D01*
X98524308Y-56285675D01*
X98528387Y-56189193D01*
G36*
X98498942Y-60740572D02*
G01*
X98534882Y-60694041D01*
X98585267Y-60638167D01*
X98642310Y-60580768D01*
X98698226Y-60529658D01*
X98745230Y-60492656D01*
X98775534Y-60477577D01*
X98776480Y-60477539D01*
X98803082Y-60490864D01*
X98847726Y-60525816D01*
X98902676Y-60574861D01*
X98960194Y-60630463D01*
X99012543Y-60685088D01*
X99051985Y-60731201D01*
X99070783Y-60761267D01*
X99071385Y-60764725D01*
X99058397Y-60787387D01*
X99023428Y-60830290D01*
X98972469Y-60886387D01*
X98934755Y-60925427D01*
X98874758Y-60984068D01*
X98823486Y-61030370D01*
X98787865Y-61058279D01*
X98776548Y-61063692D01*
X98750303Y-61050108D01*
X98706294Y-61014466D01*
X98652125Y-60964432D01*
X98595397Y-60907673D01*
X98543713Y-60851856D01*
X98504677Y-60804646D01*
X98485892Y-60773710D01*
X98485231Y-60769943D01*
X98498942Y-60740572D01*
G37*
X98498942Y-60740572D02*
X98534882Y-60694041D01*
X98585267Y-60638167D01*
X98642310Y-60580768D01*
X98698226Y-60529658D01*
X98745230Y-60492656D01*
X98775534Y-60477577D01*
X98776480Y-60477539D01*
X98803082Y-60490864D01*
X98847726Y-60525816D01*
X98902676Y-60574861D01*
X98960194Y-60630463D01*
X99012543Y-60685088D01*
X99051985Y-60731201D01*
X99070783Y-60761267D01*
X99071385Y-60764725D01*
X99058397Y-60787387D01*
X99023428Y-60830290D01*
X98972469Y-60886387D01*
X98934755Y-60925427D01*
X98874758Y-60984068D01*
X98823486Y-61030370D01*
X98787865Y-61058279D01*
X98776548Y-61063692D01*
X98750303Y-61050108D01*
X98706294Y-61014466D01*
X98652125Y-60964432D01*
X98595397Y-60907673D01*
X98543713Y-60851856D01*
X98504677Y-60804646D01*
X98485892Y-60773710D01*
X98485231Y-60769943D01*
X98498942Y-60740572D01*
G36*
X99026382Y-61784780D02*
G01*
X99061467Y-61736939D01*
X99109402Y-61682781D01*
X99161560Y-61631291D01*
X99209316Y-61591457D01*
X99244045Y-61572264D01*
X99248516Y-61571692D01*
X99274214Y-61584798D01*
X99317133Y-61618731D01*
X99368935Y-61665419D01*
X99421281Y-61716788D01*
X99465834Y-61764763D01*
X99494253Y-61801271D01*
X99500117Y-61815312D01*
X99486401Y-61837405D01*
X99450903Y-61878442D01*
X99400424Y-61930725D01*
X99383010Y-61947808D01*
X99327235Y-61999677D01*
X99280857Y-62038870D01*
X99251739Y-62058870D01*
X99247464Y-62060154D01*
X99218189Y-62046174D01*
X99173602Y-62010156D01*
X99122286Y-61960979D01*
X99072824Y-61907526D01*
X99033800Y-61858677D01*
X99013796Y-61823313D01*
X99012770Y-61817316D01*
X99026382Y-61784780D01*
G37*
X99026382Y-61784780D02*
X99061467Y-61736939D01*
X99109402Y-61682781D01*
X99161560Y-61631291D01*
X99209316Y-61591457D01*
X99244045Y-61572264D01*
X99248516Y-61571692D01*
X99274214Y-61584798D01*
X99317133Y-61618731D01*
X99368935Y-61665419D01*
X99421281Y-61716788D01*
X99465834Y-61764763D01*
X99494253Y-61801271D01*
X99500117Y-61815312D01*
X99486401Y-61837405D01*
X99450903Y-61878442D01*
X99400424Y-61930725D01*
X99383010Y-61947808D01*
X99327235Y-61999677D01*
X99280857Y-62038870D01*
X99251739Y-62058870D01*
X99247464Y-62060154D01*
X99218189Y-62046174D01*
X99173602Y-62010156D01*
X99122286Y-61960979D01*
X99072824Y-61907526D01*
X99033800Y-61858677D01*
X99013796Y-61823313D01*
X99012770Y-61817316D01*
X99026382Y-61784780D01*
G36*
X99123655Y-60744323D02*
G01*
X99157818Y-60700757D01*
X99204824Y-60648348D01*
X99256547Y-60595524D01*
X99304860Y-60550714D01*
X99341638Y-60522345D01*
X99355259Y-60516709D01*
X99376923Y-60530110D01*
X99416278Y-60564734D01*
X99465321Y-60612362D01*
X99516048Y-60664774D01*
X99560456Y-60713750D01*
X99590543Y-60751072D01*
X99598924Y-60766957D01*
X99586064Y-60787528D01*
X99551744Y-60828133D01*
X99502347Y-60881391D01*
X99480268Y-60904106D01*
X99425433Y-60958410D01*
X99380827Y-61000006D01*
X99353476Y-61022447D01*
X99348950Y-61024616D01*
X99325749Y-61010909D01*
X99285744Y-60975434D01*
X99236885Y-60926657D01*
X99187122Y-60873047D01*
X99144406Y-60823071D01*
X99116688Y-60785196D01*
X99110462Y-60770616D01*
X99123655Y-60744323D01*
G37*
X99123655Y-60744323D02*
X99157818Y-60700757D01*
X99204824Y-60648348D01*
X99256547Y-60595524D01*
X99304860Y-60550714D01*
X99341638Y-60522345D01*
X99355259Y-60516709D01*
X99376923Y-60530110D01*
X99416278Y-60564734D01*
X99465321Y-60612362D01*
X99516048Y-60664774D01*
X99560456Y-60713750D01*
X99590543Y-60751072D01*
X99598924Y-60766957D01*
X99586064Y-60787528D01*
X99551744Y-60828133D01*
X99502347Y-60881391D01*
X99480268Y-60904106D01*
X99425433Y-60958410D01*
X99380827Y-61000006D01*
X99353476Y-61022447D01*
X99348950Y-61024616D01*
X99325749Y-61010909D01*
X99285744Y-60975434D01*
X99236885Y-60926657D01*
X99187122Y-60873047D01*
X99144406Y-60823071D01*
X99116688Y-60785196D01*
X99110462Y-60770616D01*
X99123655Y-60744323D01*
G36*
X99652093Y-60733978D02*
G01*
X99687572Y-60687446D01*
X99734237Y-60638825D01*
X99781889Y-60598439D01*
X99820328Y-60576615D01*
X99828516Y-60575231D01*
X99861273Y-60588975D01*
X99907253Y-60623711D01*
X99956461Y-60669691D01*
X99998905Y-60717170D01*
X100024589Y-60756401D01*
X100028026Y-60769799D01*
X100014313Y-60798593D01*
X99979480Y-60842697D01*
X99940779Y-60882962D01*
X99891222Y-60926959D01*
X99850186Y-60957064D01*
X99829917Y-60966000D01*
X99799847Y-60951953D01*
X99756290Y-60916497D01*
X99708968Y-60869657D01*
X99667606Y-60821463D01*
X99641928Y-60781939D01*
X99638000Y-60768095D01*
X99652093Y-60733978D01*
G37*
X99652093Y-60733978D02*
X99687572Y-60687446D01*
X99734237Y-60638825D01*
X99781889Y-60598439D01*
X99820328Y-60576615D01*
X99828516Y-60575231D01*
X99861273Y-60588975D01*
X99907253Y-60623711D01*
X99956461Y-60669691D01*
X99998905Y-60717170D01*
X100024589Y-60756401D01*
X100028026Y-60769799D01*
X100014313Y-60798593D01*
X99979480Y-60842697D01*
X99940779Y-60882962D01*
X99891222Y-60926959D01*
X99850186Y-60957064D01*
X99829917Y-60966000D01*
X99799847Y-60951953D01*
X99756290Y-60916497D01*
X99708968Y-60869657D01*
X99667606Y-60821463D01*
X99641928Y-60781939D01*
X99638000Y-60768095D01*
X99652093Y-60733978D01*
G36*
X99592244Y-61217298D02*
G01*
X99625549Y-61174296D01*
X99671395Y-61121857D01*
X99721874Y-61068442D01*
X99769081Y-61022509D01*
X99805108Y-60992517D01*
X99819462Y-60985539D01*
X99843712Y-60999105D01*
X99884931Y-61034269D01*
X99935107Y-61082732D01*
X99986227Y-61136194D01*
X100030279Y-61186355D01*
X100059251Y-61224916D01*
X100066265Y-61241195D01*
X100052218Y-61268347D01*
X100017131Y-61311877D01*
X99973457Y-61357495D01*
X99906025Y-61422977D01*
X99859094Y-61463377D01*
X99823945Y-61479558D01*
X99791862Y-61472385D01*
X99754126Y-61442724D01*
X99702019Y-61391438D01*
X99695582Y-61385054D01*
X99642060Y-61328960D01*
X99601563Y-61280559D01*
X99580780Y-61248060D01*
X99579385Y-61242405D01*
X99592244Y-61217298D01*
G37*
X99592244Y-61217298D02*
X99625549Y-61174296D01*
X99671395Y-61121857D01*
X99721874Y-61068442D01*
X99769081Y-61022509D01*
X99805108Y-60992517D01*
X99819462Y-60985539D01*
X99843712Y-60999105D01*
X99884931Y-61034269D01*
X99935107Y-61082732D01*
X99986227Y-61136194D01*
X100030279Y-61186355D01*
X100059251Y-61224916D01*
X100066265Y-61241195D01*
X100052218Y-61268347D01*
X100017131Y-61311877D01*
X99973457Y-61357495D01*
X99906025Y-61422977D01*
X99859094Y-61463377D01*
X99823945Y-61479558D01*
X99791862Y-61472385D01*
X99754126Y-61442724D01*
X99702019Y-61391438D01*
X99695582Y-61385054D01*
X99642060Y-61328960D01*
X99601563Y-61280559D01*
X99580780Y-61248060D01*
X99579385Y-61242405D01*
X99592244Y-61217298D01*
G36*
X99534848Y-61786415D02*
G01*
X99571774Y-61742408D01*
X99623587Y-61689203D01*
X99682323Y-61634220D01*
X99740021Y-61584876D01*
X99788717Y-61548592D01*
X99820451Y-61532786D01*
X99822552Y-61532616D01*
X99855704Y-61546479D01*
X99904952Y-61582697D01*
X99962102Y-61633213D01*
X100018960Y-61689971D01*
X100067333Y-61744915D01*
X100099026Y-61789987D01*
X100106924Y-61812229D01*
X100093969Y-61840966D01*
X100059343Y-61888575D01*
X100009401Y-61946696D01*
X99984808Y-61972829D01*
X99921537Y-62033721D01*
X99867342Y-62077366D01*
X99829372Y-62098182D01*
X99823092Y-62099165D01*
X99794503Y-62086006D01*
X99747962Y-62051419D01*
X99691333Y-62002828D01*
X99632478Y-61947654D01*
X99579262Y-61893320D01*
X99539548Y-61847247D01*
X99521199Y-61816858D01*
X99520770Y-61813805D01*
X99534848Y-61786415D01*
G37*
X99534848Y-61786415D02*
X99571774Y-61742408D01*
X99623587Y-61689203D01*
X99682323Y-61634220D01*
X99740021Y-61584876D01*
X99788717Y-61548592D01*
X99820451Y-61532786D01*
X99822552Y-61532616D01*
X99855704Y-61546479D01*
X99904952Y-61582697D01*
X99962102Y-61633213D01*
X100018960Y-61689971D01*
X100067333Y-61744915D01*
X100099026Y-61789987D01*
X100106924Y-61812229D01*
X100093969Y-61840966D01*
X100059343Y-61888575D01*
X100009401Y-61946696D01*
X99984808Y-61972829D01*
X99921537Y-62033721D01*
X99867342Y-62077366D01*
X99829372Y-62098182D01*
X99823092Y-62099165D01*
X99794503Y-62086006D01*
X99747962Y-62051419D01*
X99691333Y-62002828D01*
X99632478Y-61947654D01*
X99579262Y-61893320D01*
X99539548Y-61847247D01*
X99521199Y-61816858D01*
X99520770Y-61813805D01*
X99534848Y-61786415D01*
G36*
X100208473Y-41695627D02*
G01*
X100223267Y-41649423D01*
X100252574Y-41612266D01*
X100316986Y-41572062D01*
X100392151Y-41569380D01*
X100459303Y-41593971D01*
X100489624Y-41612525D01*
X100510439Y-41636327D01*
X100524682Y-41673514D01*
X100535291Y-41732226D01*
X100545201Y-41820602D01*
X100546759Y-41836406D01*
X100570422Y-41963891D01*
X100615790Y-42063702D01*
X100686541Y-42142836D01*
X100722044Y-42169766D01*
X100773841Y-42204023D01*
X100821785Y-42230900D01*
X100871461Y-42251289D01*
X100928453Y-42266078D01*
X100998348Y-42276159D01*
X101086729Y-42282422D01*
X101199182Y-42285758D01*
X101341293Y-42287057D01*
X101458818Y-42287231D01*
X101619231Y-42287602D01*
X101745353Y-42289125D01*
X101841967Y-42292411D01*
X101913853Y-42298075D01*
X101965796Y-42306729D01*
X102002576Y-42318987D01*
X102028977Y-42335461D01*
X102049780Y-42356764D01*
X102055264Y-42363692D01*
X102069793Y-42403109D01*
X102077297Y-42463418D01*
X102076775Y-42526901D01*
X102067231Y-42575834D01*
X102043955Y-42601702D01*
X102001864Y-42629303D01*
X102001359Y-42629565D01*
X101981608Y-42636945D01*
X101951232Y-42642998D01*
X101906652Y-42647847D01*
X101844288Y-42651613D01*
X101760561Y-42654418D01*
X101651891Y-42656383D01*
X101514700Y-42657631D01*
X101345408Y-42658283D01*
X101151917Y-42658462D01*
X100947912Y-42658335D01*
X100779305Y-42657748D01*
X100642419Y-42656388D01*
X100533575Y-42653944D01*
X100449096Y-42650104D01*
X100385304Y-42644558D01*
X100338520Y-42636992D01*
X100305067Y-42627097D01*
X100281266Y-42614560D01*
X100263440Y-42599070D01*
X100249199Y-42582001D01*
X100232704Y-42539100D01*
X100225182Y-42476327D01*
X100227787Y-42412096D01*
X100236291Y-42376029D01*
X100267443Y-42339358D01*
X100322646Y-42308005D01*
X100386931Y-42289432D01*
X100414408Y-42287231D01*
X100441346Y-42286185D01*
X100451152Y-42279107D01*
X100441245Y-42260088D01*
X100409046Y-42223220D01*
X100366866Y-42178345D01*
X100280356Y-42067075D01*
X100227972Y-41948531D01*
X100205901Y-41812992D01*
X100204616Y-41765027D01*
X100208473Y-41695627D01*
G37*
X100208473Y-41695627D02*
X100223267Y-41649423D01*
X100252574Y-41612266D01*
X100316986Y-41572062D01*
X100392151Y-41569380D01*
X100459303Y-41593971D01*
X100489624Y-41612525D01*
X100510439Y-41636327D01*
X100524682Y-41673514D01*
X100535291Y-41732226D01*
X100545201Y-41820602D01*
X100546759Y-41836406D01*
X100570422Y-41963891D01*
X100615790Y-42063702D01*
X100686541Y-42142836D01*
X100722044Y-42169766D01*
X100773841Y-42204023D01*
X100821785Y-42230900D01*
X100871461Y-42251289D01*
X100928453Y-42266078D01*
X100998348Y-42276159D01*
X101086729Y-42282422D01*
X101199182Y-42285758D01*
X101341293Y-42287057D01*
X101458818Y-42287231D01*
X101619231Y-42287602D01*
X101745353Y-42289125D01*
X101841967Y-42292411D01*
X101913853Y-42298075D01*
X101965796Y-42306729D01*
X102002576Y-42318987D01*
X102028977Y-42335461D01*
X102049780Y-42356764D01*
X102055264Y-42363692D01*
X102069793Y-42403109D01*
X102077297Y-42463418D01*
X102076775Y-42526901D01*
X102067231Y-42575834D01*
X102043955Y-42601702D01*
X102001864Y-42629303D01*
X102001359Y-42629565D01*
X101981608Y-42636945D01*
X101951232Y-42642998D01*
X101906652Y-42647847D01*
X101844288Y-42651613D01*
X101760561Y-42654418D01*
X101651891Y-42656383D01*
X101514700Y-42657631D01*
X101345408Y-42658283D01*
X101151917Y-42658462D01*
X100947912Y-42658335D01*
X100779305Y-42657748D01*
X100642419Y-42656388D01*
X100533575Y-42653944D01*
X100449096Y-42650104D01*
X100385304Y-42644558D01*
X100338520Y-42636992D01*
X100305067Y-42627097D01*
X100281266Y-42614560D01*
X100263440Y-42599070D01*
X100249199Y-42582001D01*
X100232704Y-42539100D01*
X100225182Y-42476327D01*
X100227787Y-42412096D01*
X100236291Y-42376029D01*
X100267443Y-42339358D01*
X100322646Y-42308005D01*
X100386931Y-42289432D01*
X100414408Y-42287231D01*
X100441346Y-42286185D01*
X100451152Y-42279107D01*
X100441245Y-42260088D01*
X100409046Y-42223220D01*
X100366866Y-42178345D01*
X100280356Y-42067075D01*
X100227972Y-41948531D01*
X100205901Y-41812992D01*
X100204616Y-41765027D01*
X100208473Y-41695627D01*
G36*
X99335136Y-44175875D02*
G01*
X99337570Y-44035015D01*
X99341262Y-43903300D01*
X99346145Y-43787541D01*
X99352155Y-43694552D01*
X99359224Y-43631146D01*
X99362270Y-43615846D01*
X99415154Y-43462057D01*
X99489907Y-43325196D01*
X99580977Y-43215281D01*
X99587923Y-43208760D01*
X99714685Y-43117302D01*
X99859972Y-43055150D01*
X100016901Y-43022056D01*
X100178590Y-43017776D01*
X100338154Y-43042064D01*
X100488712Y-43094673D01*
X100623379Y-43175358D01*
X100704722Y-43248642D01*
X100765130Y-43318879D01*
X100813912Y-43390543D01*
X100852224Y-43468695D01*
X100881225Y-43558394D01*
X100902071Y-43664697D01*
X100915920Y-43792665D01*
X100923930Y-43947357D01*
X100927259Y-44133831D01*
X100927539Y-44222500D01*
X100927539Y-44690462D01*
X101984392Y-44690462D01*
X102032350Y-44738420D01*
X102071126Y-44802579D01*
X102082529Y-44881145D01*
X102066521Y-44960600D01*
X102033162Y-45016641D01*
X101986016Y-45071462D01*
X100846660Y-45076813D01*
X100570100Y-45077796D01*
X100331116Y-45077954D01*
X100155044Y-45077357D01*
X100155044Y-44690462D01*
X100595385Y-44690462D01*
X100595385Y-44238459D01*
X100594145Y-44053154D01*
X100590438Y-43905479D01*
X100584281Y-43795838D01*
X100575692Y-43724633D01*
X100571496Y-43706724D01*
X100532289Y-43625558D01*
X100469275Y-43547006D01*
X100393668Y-43482502D01*
X100316677Y-43443481D01*
X100312077Y-43442150D01*
X100185195Y-43420663D01*
X100057989Y-43422966D01*
X99939806Y-43447332D01*
X99839996Y-43492036D01*
X99780587Y-43540266D01*
X99746695Y-43580266D01*
X99720250Y-43621350D01*
X99700237Y-43669004D01*
X99685640Y-43728714D01*
X99675442Y-43805965D01*
X99668627Y-43906243D01*
X99664181Y-44035035D01*
X99661292Y-44184385D01*
X99659319Y-44328843D01*
X99658667Y-44439252D01*
X99659604Y-44520625D01*
X99662398Y-44577976D01*
X99667320Y-44616319D01*
X99674636Y-44640666D01*
X99684615Y-44656032D01*
X99686677Y-44658193D01*
X99701534Y-44668805D01*
X99725412Y-44676845D01*
X99763309Y-44682656D01*
X99820222Y-44686580D01*
X99901151Y-44688961D01*
X100011092Y-44690140D01*
X100155044Y-44690462D01*
X100155044Y-45077357D01*
X100128217Y-45077266D01*
X99959910Y-45075711D01*
X99824702Y-45073269D01*
X99721102Y-45069920D01*
X99647617Y-45065643D01*
X99602755Y-45060418D01*
X99599437Y-45059771D01*
X99496253Y-45021590D01*
X99415389Y-44957384D01*
X99362894Y-44872698D01*
X99350588Y-44831551D01*
X99344106Y-44778892D01*
X99339275Y-44694502D01*
X99336027Y-44585192D01*
X99334298Y-44457776D01*
X99334023Y-44319066D01*
X99335136Y-44175875D01*
G37*
X99335136Y-44175875D02*
X99337570Y-44035015D01*
X99341262Y-43903300D01*
X99346145Y-43787541D01*
X99352155Y-43694552D01*
X99359224Y-43631146D01*
X99362270Y-43615846D01*
X99415154Y-43462057D01*
X99489907Y-43325196D01*
X99580977Y-43215281D01*
X99587923Y-43208760D01*
X99714685Y-43117302D01*
X99859972Y-43055150D01*
X100016901Y-43022056D01*
X100178590Y-43017776D01*
X100338154Y-43042064D01*
X100488712Y-43094673D01*
X100623379Y-43175358D01*
X100704722Y-43248642D01*
X100765130Y-43318879D01*
X100813912Y-43390543D01*
X100852224Y-43468695D01*
X100881225Y-43558394D01*
X100902071Y-43664697D01*
X100915920Y-43792665D01*
X100923930Y-43947357D01*
X100927259Y-44133831D01*
X100927539Y-44222500D01*
X100927539Y-44690462D01*
X101984392Y-44690462D01*
X102032350Y-44738420D01*
X102071126Y-44802579D01*
X102082529Y-44881145D01*
X102066521Y-44960600D01*
X102033162Y-45016641D01*
X101986016Y-45071462D01*
X100846660Y-45076813D01*
X100570100Y-45077796D01*
X100331116Y-45077954D01*
X100155044Y-45077357D01*
X100155044Y-44690462D01*
X100595385Y-44690462D01*
X100595385Y-44238459D01*
X100594145Y-44053154D01*
X100590438Y-43905479D01*
X100584281Y-43795838D01*
X100575692Y-43724633D01*
X100571496Y-43706724D01*
X100532289Y-43625558D01*
X100469275Y-43547006D01*
X100393668Y-43482502D01*
X100316677Y-43443481D01*
X100312077Y-43442150D01*
X100185195Y-43420663D01*
X100057989Y-43422966D01*
X99939806Y-43447332D01*
X99839996Y-43492036D01*
X99780587Y-43540266D01*
X99746695Y-43580266D01*
X99720250Y-43621350D01*
X99700237Y-43669004D01*
X99685640Y-43728714D01*
X99675442Y-43805965D01*
X99668627Y-43906243D01*
X99664181Y-44035035D01*
X99661292Y-44184385D01*
X99659319Y-44328843D01*
X99658667Y-44439252D01*
X99659604Y-44520625D01*
X99662398Y-44577976D01*
X99667320Y-44616319D01*
X99674636Y-44640666D01*
X99684615Y-44656032D01*
X99686677Y-44658193D01*
X99701534Y-44668805D01*
X99725412Y-44676845D01*
X99763309Y-44682656D01*
X99820222Y-44686580D01*
X99901151Y-44688961D01*
X100011092Y-44690140D01*
X100155044Y-44690462D01*
X100155044Y-45077357D01*
X100128217Y-45077266D01*
X99959910Y-45075711D01*
X99824702Y-45073269D01*
X99721102Y-45069920D01*
X99647617Y-45065643D01*
X99602755Y-45060418D01*
X99599437Y-45059771D01*
X99496253Y-45021590D01*
X99415389Y-44957384D01*
X99362894Y-44872698D01*
X99350588Y-44831551D01*
X99344106Y-44778892D01*
X99339275Y-44694502D01*
X99336027Y-44585192D01*
X99334298Y-44457776D01*
X99334023Y-44319066D01*
X99335136Y-44175875D01*
G36*
X100231875Y-40294344D02*
G01*
X100276012Y-40161064D01*
X100346438Y-40043396D01*
X100427598Y-39950982D01*
X100560075Y-39839698D01*
X100705554Y-39759246D01*
X100869023Y-39707790D01*
X101055471Y-39683496D01*
X101162000Y-39680981D01*
X101372761Y-39697225D01*
X101560273Y-39742623D01*
X101695976Y-39801665D01*
X101794217Y-39869663D01*
X101890321Y-39961821D01*
X101973617Y-40066129D01*
X102033438Y-40170578D01*
X102041886Y-40191055D01*
X102072773Y-40304319D01*
X102090379Y-40437886D01*
X102093935Y-40576014D01*
X102082673Y-40702964D01*
X102069763Y-40762757D01*
X102006072Y-40920114D01*
X101910085Y-41057507D01*
X101784358Y-41172642D01*
X101631448Y-41263227D01*
X101453911Y-41326968D01*
X101435539Y-41331622D01*
X101334480Y-41348093D01*
X101211057Y-41356086D01*
X101152231Y-41355873D01*
X101152231Y-40997692D01*
X101330447Y-40985562D01*
X101483759Y-40949859D01*
X101609902Y-40891618D01*
X101706612Y-40811872D01*
X101769787Y-40715767D01*
X101796515Y-40623397D01*
X101805481Y-40514752D01*
X101796365Y-40408025D01*
X101776425Y-40337642D01*
X101712815Y-40230639D01*
X101621079Y-40147937D01*
X101500399Y-40089190D01*
X101349954Y-40054053D01*
X101168925Y-40042179D01*
X101081005Y-40044161D01*
X100927193Y-40058623D01*
X100803489Y-40088015D01*
X100703038Y-40134580D01*
X100627114Y-40192779D01*
X100553616Y-40286893D01*
X100509887Y-40397897D01*
X100495942Y-40517350D01*
X100511794Y-40636813D01*
X100557459Y-40747843D01*
X100626031Y-40835498D01*
X100727221Y-40910524D01*
X100851892Y-40961817D01*
X101003440Y-40990425D01*
X101152231Y-40997692D01*
X101152231Y-41355873D01*
X101080753Y-41355612D01*
X100959050Y-41346681D01*
X100868924Y-41331238D01*
X100687679Y-41268753D01*
X100532528Y-41179048D01*
X100405348Y-41064622D01*
X100308012Y-40927975D01*
X100242396Y-40771607D01*
X100210376Y-40598017D01*
X100209893Y-40452767D01*
X100231875Y-40294344D01*
G37*
X100231875Y-40294344D02*
X100276012Y-40161064D01*
X100346438Y-40043396D01*
X100427598Y-39950982D01*
X100560075Y-39839698D01*
X100705554Y-39759246D01*
X100869023Y-39707790D01*
X101055471Y-39683496D01*
X101162000Y-39680981D01*
X101372761Y-39697225D01*
X101560273Y-39742623D01*
X101695976Y-39801665D01*
X101794217Y-39869663D01*
X101890321Y-39961821D01*
X101973617Y-40066129D01*
X102033438Y-40170578D01*
X102041886Y-40191055D01*
X102072773Y-40304319D01*
X102090379Y-40437886D01*
X102093935Y-40576014D01*
X102082673Y-40702964D01*
X102069763Y-40762757D01*
X102006072Y-40920114D01*
X101910085Y-41057507D01*
X101784358Y-41172642D01*
X101631448Y-41263227D01*
X101453911Y-41326968D01*
X101435539Y-41331622D01*
X101334480Y-41348093D01*
X101211057Y-41356086D01*
X101152231Y-41355873D01*
X101152231Y-40997692D01*
X101330447Y-40985562D01*
X101483759Y-40949859D01*
X101609902Y-40891618D01*
X101706612Y-40811872D01*
X101769787Y-40715767D01*
X101796515Y-40623397D01*
X101805481Y-40514752D01*
X101796365Y-40408025D01*
X101776425Y-40337642D01*
X101712815Y-40230639D01*
X101621079Y-40147937D01*
X101500399Y-40089190D01*
X101349954Y-40054053D01*
X101168925Y-40042179D01*
X101081005Y-40044161D01*
X100927193Y-40058623D01*
X100803489Y-40088015D01*
X100703038Y-40134580D01*
X100627114Y-40192779D01*
X100553616Y-40286893D01*
X100509887Y-40397897D01*
X100495942Y-40517350D01*
X100511794Y-40636813D01*
X100557459Y-40747843D01*
X100626031Y-40835498D01*
X100727221Y-40910524D01*
X100851892Y-40961817D01*
X101003440Y-40990425D01*
X101152231Y-40997692D01*
X101152231Y-41355873D01*
X101080753Y-41355612D01*
X100959050Y-41346681D01*
X100868924Y-41331238D01*
X100687679Y-41268753D01*
X100532528Y-41179048D01*
X100405348Y-41064622D01*
X100308012Y-40927975D01*
X100242396Y-40771607D01*
X100210376Y-40598017D01*
X100209893Y-40452767D01*
X100231875Y-40294344D01*
G36*
X99580616Y-56210230D02*
G01*
X99586370Y-56162793D01*
X99599737Y-56132387D01*
X99623808Y-56108005D01*
X99630866Y-56102341D01*
X99641921Y-56094202D01*
X99654780Y-56087234D01*
X99672377Y-56081346D01*
X99697643Y-56076446D01*
X99733510Y-56072445D01*
X99782910Y-56069251D01*
X99848776Y-56066772D01*
X99934040Y-56064920D01*
X100041633Y-56063601D01*
X100174488Y-56062727D01*
X100335536Y-56062205D01*
X100527711Y-56061945D01*
X100753944Y-56061856D01*
X100937308Y-56061846D01*
X101189565Y-56061869D01*
X101405678Y-56061998D01*
X101588577Y-56062325D01*
X101741197Y-56062939D01*
X101866467Y-56063932D01*
X101967321Y-56065395D01*
X102046691Y-56067419D01*
X102107509Y-56070094D01*
X102152707Y-56073512D01*
X102185216Y-56077763D01*
X102207970Y-56082938D01*
X102223900Y-56089129D01*
X102235939Y-56096425D01*
X102243750Y-56102341D01*
X102271250Y-56127714D01*
X102286753Y-56157030D01*
X102293624Y-56201789D01*
X102295229Y-56273488D01*
X102295231Y-56278188D01*
X102292887Y-56356516D01*
X102284199Y-56407031D01*
X102266689Y-56440806D01*
X102256154Y-56452616D01*
X102247459Y-56460426D01*
X102236247Y-56467120D01*
X102219631Y-56472784D01*
X102194729Y-56477503D01*
X102158655Y-56481364D01*
X102108525Y-56484453D01*
X102041454Y-56486856D01*
X101954559Y-56488658D01*
X101844953Y-56489947D01*
X101709754Y-56490808D01*
X101546076Y-56491326D01*
X101351034Y-56491589D01*
X101121745Y-56491682D01*
X100946390Y-56491692D01*
X100689930Y-56491616D01*
X100469692Y-56491341D01*
X100282825Y-56490799D01*
X100126473Y-56489923D01*
X99997783Y-56488643D01*
X99893901Y-56486891D01*
X99811975Y-56484600D01*
X99749149Y-56481700D01*
X99702571Y-56478124D01*
X99669387Y-56473804D01*
X99646743Y-56468670D01*
X99631785Y-56462655D01*
X99627544Y-56460138D01*
X99602454Y-56440145D01*
X99587980Y-56414333D01*
X99581256Y-56372326D01*
X99579418Y-56303746D01*
X99579385Y-56285710D01*
X99580616Y-56210230D01*
G37*
X99580616Y-56210230D02*
X99586370Y-56162793D01*
X99599737Y-56132387D01*
X99623808Y-56108005D01*
X99630866Y-56102341D01*
X99641921Y-56094202D01*
X99654780Y-56087234D01*
X99672377Y-56081346D01*
X99697643Y-56076446D01*
X99733510Y-56072445D01*
X99782910Y-56069251D01*
X99848776Y-56066772D01*
X99934040Y-56064920D01*
X100041633Y-56063601D01*
X100174488Y-56062727D01*
X100335536Y-56062205D01*
X100527711Y-56061945D01*
X100753944Y-56061856D01*
X100937308Y-56061846D01*
X101189565Y-56061869D01*
X101405678Y-56061998D01*
X101588577Y-56062325D01*
X101741197Y-56062939D01*
X101866467Y-56063932D01*
X101967321Y-56065395D01*
X102046691Y-56067419D01*
X102107509Y-56070094D01*
X102152707Y-56073512D01*
X102185216Y-56077763D01*
X102207970Y-56082938D01*
X102223900Y-56089129D01*
X102235939Y-56096425D01*
X102243750Y-56102341D01*
X102271250Y-56127714D01*
X102286753Y-56157030D01*
X102293624Y-56201789D01*
X102295229Y-56273488D01*
X102295231Y-56278188D01*
X102292887Y-56356516D01*
X102284199Y-56407031D01*
X102266689Y-56440806D01*
X102256154Y-56452616D01*
X102247459Y-56460426D01*
X102236247Y-56467120D01*
X102219631Y-56472784D01*
X102194729Y-56477503D01*
X102158655Y-56481364D01*
X102108525Y-56484453D01*
X102041454Y-56486856D01*
X101954559Y-56488658D01*
X101844953Y-56489947D01*
X101709754Y-56490808D01*
X101546076Y-56491326D01*
X101351034Y-56491589D01*
X101121745Y-56491682D01*
X100946390Y-56491692D01*
X100689930Y-56491616D01*
X100469692Y-56491341D01*
X100282825Y-56490799D01*
X100126473Y-56489923D01*
X99997783Y-56488643D01*
X99893901Y-56486891D01*
X99811975Y-56484600D01*
X99749149Y-56481700D01*
X99702571Y-56478124D01*
X99669387Y-56473804D01*
X99646743Y-56468670D01*
X99631785Y-56462655D01*
X99627544Y-56460138D01*
X99602454Y-56440145D01*
X99587980Y-56414333D01*
X99581256Y-56372326D01*
X99579418Y-56303746D01*
X99579385Y-56285710D01*
X99580616Y-56210230D01*
G36*
X98522506Y-58698322D02*
G01*
X98530817Y-58678456D01*
X98547451Y-58661770D01*
X98574786Y-58647967D01*
X98615199Y-58636752D01*
X98671069Y-58627828D01*
X98744774Y-58620899D01*
X98838691Y-58615668D01*
X98955199Y-58611839D01*
X99096675Y-58609115D01*
X99265498Y-58607202D01*
X99464045Y-58605801D01*
X99694695Y-58604617D01*
X99959825Y-58603354D01*
X100239645Y-58601846D01*
X101894693Y-58592077D01*
X101904462Y-57776964D01*
X101906884Y-57566636D01*
X101909134Y-57392057D01*
X101911935Y-57249907D01*
X101916006Y-57136868D01*
X101922069Y-57049622D01*
X101930846Y-56984850D01*
X101943059Y-56939233D01*
X101959427Y-56909453D01*
X101980674Y-56892192D01*
X102007519Y-56884131D01*
X102040684Y-56881951D01*
X102080892Y-56882334D01*
X102098894Y-56882462D01*
X102170960Y-56885407D01*
X102216996Y-56896566D01*
X102249760Y-56919425D01*
X102255393Y-56925223D01*
X102264330Y-56935772D01*
X102271821Y-56948795D01*
X102277991Y-56967601D01*
X102282970Y-56995501D01*
X102286885Y-57035804D01*
X102289864Y-57091820D01*
X102292034Y-57166859D01*
X102293524Y-57264231D01*
X102294461Y-57387246D01*
X102294972Y-57539213D01*
X102295187Y-57723443D01*
X102295231Y-57943246D01*
X102295231Y-58946727D01*
X102250010Y-58989210D01*
X102204790Y-59031692D01*
X98609274Y-59031692D01*
X98566791Y-58986472D01*
X98542291Y-58952559D01*
X98529400Y-58909122D01*
X98525031Y-58843550D01*
X98524930Y-58815510D01*
X98523729Y-58779962D01*
X98521340Y-58748778D01*
X98520139Y-58721664D01*
X98522506Y-58698322D01*
G37*
X98522506Y-58698322D02*
X98530817Y-58678456D01*
X98547451Y-58661770D01*
X98574786Y-58647967D01*
X98615199Y-58636752D01*
X98671069Y-58627828D01*
X98744774Y-58620899D01*
X98838691Y-58615668D01*
X98955199Y-58611839D01*
X99096675Y-58609115D01*
X99265498Y-58607202D01*
X99464045Y-58605801D01*
X99694695Y-58604617D01*
X99959825Y-58603354D01*
X100239645Y-58601846D01*
X101894693Y-58592077D01*
X101904462Y-57776964D01*
X101906884Y-57566636D01*
X101909134Y-57392057D01*
X101911935Y-57249907D01*
X101916006Y-57136868D01*
X101922069Y-57049622D01*
X101930846Y-56984850D01*
X101943059Y-56939233D01*
X101959427Y-56909453D01*
X101980674Y-56892192D01*
X102007519Y-56884131D01*
X102040684Y-56881951D01*
X102080892Y-56882334D01*
X102098894Y-56882462D01*
X102170960Y-56885407D01*
X102216996Y-56896566D01*
X102249760Y-56919425D01*
X102255393Y-56925223D01*
X102264330Y-56935772D01*
X102271821Y-56948795D01*
X102277991Y-56967601D01*
X102282970Y-56995501D01*
X102286885Y-57035804D01*
X102289864Y-57091820D01*
X102292034Y-57166859D01*
X102293524Y-57264231D01*
X102294461Y-57387246D01*
X102294972Y-57539213D01*
X102295187Y-57723443D01*
X102295231Y-57943246D01*
X102295231Y-58946727D01*
X102250010Y-58989210D01*
X102204790Y-59031692D01*
X98609274Y-59031692D01*
X98566791Y-58986472D01*
X98542291Y-58952559D01*
X98529400Y-58909122D01*
X98525031Y-58843550D01*
X98524930Y-58815510D01*
X98523729Y-58779962D01*
X98521340Y-58748778D01*
X98520139Y-58721664D01*
X98522506Y-58698322D01*
G36*
X98523569Y-55048109D02*
G01*
X98537813Y-54973425D01*
X98561648Y-54925896D01*
X98598988Y-54879769D01*
X100168687Y-54870000D01*
X100453375Y-54868200D01*
X100701605Y-54866528D01*
X100915995Y-54864909D01*
X101099164Y-54863266D01*
X101253728Y-54861522D01*
X101382307Y-54859600D01*
X101487518Y-54857424D01*
X101571980Y-54854917D01*
X101638311Y-54852002D01*
X101689129Y-54848602D01*
X101727051Y-54844642D01*
X101754697Y-54840043D01*
X101774685Y-54834729D01*
X101789632Y-54828624D01*
X101801314Y-54822163D01*
X101852658Y-54774190D01*
X101895964Y-54705048D01*
X101921201Y-54632493D01*
X101924000Y-54604947D01*
X101936966Y-54571657D01*
X101968523Y-54530700D01*
X101971958Y-54527189D01*
X102033027Y-54490876D01*
X102111507Y-54477033D01*
X102192577Y-54486040D01*
X102261415Y-54518277D01*
X102263289Y-54519726D01*
X102290298Y-54544388D01*
X102305650Y-54572517D01*
X102312460Y-54615273D01*
X102313843Y-54683814D01*
X102313752Y-54700457D01*
X102302916Y-54831210D01*
X102274928Y-54938930D01*
X102207711Y-55060352D01*
X102108833Y-55162102D01*
X101985781Y-55238214D01*
X101875154Y-55290077D01*
X100239971Y-55295393D01*
X98604788Y-55300710D01*
X98564548Y-55257517D01*
X98537065Y-55204801D01*
X98523363Y-55130116D01*
X98523569Y-55048109D01*
G37*
X98523569Y-55048109D02*
X98537813Y-54973425D01*
X98561648Y-54925896D01*
X98598988Y-54879769D01*
X100168687Y-54870000D01*
X100453375Y-54868200D01*
X100701605Y-54866528D01*
X100915995Y-54864909D01*
X101099164Y-54863266D01*
X101253728Y-54861522D01*
X101382307Y-54859600D01*
X101487518Y-54857424D01*
X101571980Y-54854917D01*
X101638311Y-54852002D01*
X101689129Y-54848602D01*
X101727051Y-54844642D01*
X101754697Y-54840043D01*
X101774685Y-54834729D01*
X101789632Y-54828624D01*
X101801314Y-54822163D01*
X101852658Y-54774190D01*
X101895964Y-54705048D01*
X101921201Y-54632493D01*
X101924000Y-54604947D01*
X101936966Y-54571657D01*
X101968523Y-54530700D01*
X101971958Y-54527189D01*
X102033027Y-54490876D01*
X102111507Y-54477033D01*
X102192577Y-54486040D01*
X102261415Y-54518277D01*
X102263289Y-54519726D01*
X102290298Y-54544388D01*
X102305650Y-54572517D01*
X102312460Y-54615273D01*
X102313843Y-54683814D01*
X102313752Y-54700457D01*
X102302916Y-54831210D01*
X102274928Y-54938930D01*
X102207711Y-55060352D01*
X102108833Y-55162102D01*
X101985781Y-55238214D01*
X101875154Y-55290077D01*
X100239971Y-55295393D01*
X98604788Y-55300710D01*
X98564548Y-55257517D01*
X98537065Y-55204801D01*
X98523363Y-55130116D01*
X98523569Y-55048109D01*
G36*
X98485266Y-47050284D02*
G01*
X98516068Y-46841581D01*
X98571139Y-46648121D01*
X98636254Y-46502765D01*
X98695167Y-46413809D01*
X98774739Y-46319564D01*
X98863982Y-46231358D01*
X98951904Y-46160524D01*
X98993807Y-46134121D01*
X99163433Y-46062524D01*
X99347330Y-46026166D01*
X99542212Y-46025377D01*
X99740462Y-46059372D01*
X99889076Y-46106154D01*
X100031106Y-46170709D01*
X100177240Y-46258436D01*
X100284576Y-46334205D01*
X100436124Y-46446571D01*
X100468341Y-46397402D01*
X100584126Y-46248691D01*
X100721055Y-46119722D01*
X100868968Y-46020022D01*
X100873316Y-46017666D01*
X100930883Y-45988112D01*
X100979717Y-45968559D01*
X101031168Y-45956545D01*
X101096588Y-45949608D01*
X101187331Y-45945287D01*
X101210847Y-45944475D01*
X101310820Y-45942118D01*
X101383921Y-45943909D01*
X101442268Y-45951346D01*
X101497975Y-45965928D01*
X101558808Y-45987507D01*
X101749705Y-46079372D01*
X101915716Y-46200385D01*
X102055398Y-46348429D01*
X102167308Y-46521388D01*
X102250002Y-46717144D01*
X102302036Y-46933581D01*
X102319834Y-47103462D01*
X102322846Y-47205049D01*
X102322209Y-47308947D01*
X102318149Y-47397992D01*
X102315590Y-47425846D01*
X102274698Y-47640116D01*
X102204340Y-47836628D01*
X102107488Y-48012905D01*
X101987116Y-48166470D01*
X101846198Y-48294849D01*
X101687705Y-48395564D01*
X101514611Y-48466138D01*
X101329890Y-48504096D01*
X101155025Y-48506686D01*
X101155025Y-47972732D01*
X101251019Y-47970397D01*
X101322111Y-47962037D01*
X101382306Y-47945248D01*
X101428496Y-47925785D01*
X101566450Y-47840905D01*
X101681067Y-47728525D01*
X101769870Y-47594189D01*
X101830381Y-47443441D01*
X101860122Y-47281826D01*
X101856614Y-47114888D01*
X101836887Y-47012029D01*
X101777977Y-46850291D01*
X101693360Y-46713161D01*
X101585969Y-46603566D01*
X101458740Y-46524433D01*
X101314606Y-46478687D01*
X101299510Y-46476083D01*
X101222789Y-46475512D01*
X101128731Y-46492551D01*
X101110735Y-46497489D01*
X101018499Y-46534602D01*
X100935383Y-46591984D01*
X100857599Y-46673846D01*
X100781360Y-46784403D01*
X100702876Y-46927868D01*
X100677833Y-46978985D01*
X100633861Y-47071930D01*
X100595188Y-47155971D01*
X100565495Y-47222947D01*
X100548463Y-47264694D01*
X100546824Y-47269539D01*
X100529293Y-47315242D01*
X100501348Y-47377616D01*
X100483868Y-47413554D01*
X100456466Y-47480230D01*
X100445368Y-47534532D01*
X100446663Y-47551103D01*
X100467111Y-47586884D01*
X100513724Y-47643192D01*
X100582529Y-47715679D01*
X100669551Y-47799998D01*
X100699852Y-47828086D01*
X100728191Y-47846635D01*
X100781017Y-47875488D01*
X100847302Y-47908643D01*
X100852484Y-47911124D01*
X100921934Y-47942122D01*
X100980051Y-47960647D01*
X101042019Y-47969790D01*
X101123018Y-47972642D01*
X101155025Y-47972732D01*
X101155025Y-48506686D01*
X101136514Y-48506961D01*
X101033504Y-48493756D01*
X100834952Y-48439322D01*
X100647803Y-48348324D01*
X100471230Y-48220268D01*
X100307521Y-48058188D01*
X100196702Y-47932743D01*
X100147488Y-47996795D01*
X100015213Y-48140703D01*
X99867435Y-48249844D01*
X99706596Y-48323367D01*
X99535142Y-48360424D01*
X99516050Y-48360397D01*
X99516050Y-47843803D01*
X99637631Y-47810263D01*
X99720338Y-47764414D01*
X99803549Y-47691079D01*
X99888392Y-47583789D01*
X99975541Y-47441412D01*
X100065666Y-47262815D01*
X100159439Y-47046866D01*
X100187661Y-46976462D01*
X100212184Y-46909902D01*
X100219111Y-46866821D01*
X100206031Y-46834691D01*
X100170535Y-46800987D01*
X100150885Y-46785331D01*
X99990992Y-46676634D01*
X99830491Y-46599704D01*
X99672778Y-46554284D01*
X99521251Y-46540115D01*
X99379307Y-46556939D01*
X99250344Y-46604497D01*
X99137760Y-46682530D01*
X99044951Y-46790782D01*
X98998841Y-46872938D01*
X98974754Y-46927879D01*
X98959225Y-46977151D01*
X98950438Y-47031987D01*
X98946580Y-47103617D01*
X98945834Y-47201154D01*
X98947060Y-47301525D01*
X98951528Y-47374066D01*
X98960995Y-47429995D01*
X98977218Y-47480532D01*
X98996585Y-47525365D01*
X99071062Y-47648050D01*
X99165534Y-47742983D01*
X99274715Y-47808417D01*
X99393316Y-47842606D01*
X99516050Y-47843803D01*
X99516050Y-48360397D01*
X99355516Y-48360163D01*
X99193626Y-48328672D01*
X99019507Y-48259711D01*
X98864786Y-48158438D01*
X98732744Y-48028138D01*
X98626662Y-47872100D01*
X98549822Y-47693608D01*
X98545317Y-47679367D01*
X98499207Y-47478026D01*
X98479418Y-47265382D01*
X98485266Y-47050284D01*
G37*
X98485266Y-47050284D02*
X98516068Y-46841581D01*
X98571139Y-46648121D01*
X98636254Y-46502765D01*
X98695167Y-46413809D01*
X98774739Y-46319564D01*
X98863982Y-46231358D01*
X98951904Y-46160524D01*
X98993807Y-46134121D01*
X99163433Y-46062524D01*
X99347330Y-46026166D01*
X99542212Y-46025377D01*
X99740462Y-46059372D01*
X99889076Y-46106154D01*
X100031106Y-46170709D01*
X100177240Y-46258436D01*
X100284576Y-46334205D01*
X100436124Y-46446571D01*
X100468341Y-46397402D01*
X100584126Y-46248691D01*
X100721055Y-46119722D01*
X100868968Y-46020022D01*
X100873316Y-46017666D01*
X100930883Y-45988112D01*
X100979717Y-45968559D01*
X101031168Y-45956545D01*
X101096588Y-45949608D01*
X101187331Y-45945287D01*
X101210847Y-45944475D01*
X101310820Y-45942118D01*
X101383921Y-45943909D01*
X101442268Y-45951346D01*
X101497975Y-45965928D01*
X101558808Y-45987507D01*
X101749705Y-46079372D01*
X101915716Y-46200385D01*
X102055398Y-46348429D01*
X102167308Y-46521388D01*
X102250002Y-46717144D01*
X102302036Y-46933581D01*
X102319834Y-47103462D01*
X102322846Y-47205049D01*
X102322209Y-47308947D01*
X102318149Y-47397992D01*
X102315590Y-47425846D01*
X102274698Y-47640116D01*
X102204340Y-47836628D01*
X102107488Y-48012905D01*
X101987116Y-48166470D01*
X101846198Y-48294849D01*
X101687705Y-48395564D01*
X101514611Y-48466138D01*
X101329890Y-48504096D01*
X101155025Y-48506686D01*
X101155025Y-47972732D01*
X101251019Y-47970397D01*
X101322111Y-47962037D01*
X101382306Y-47945248D01*
X101428496Y-47925785D01*
X101566450Y-47840905D01*
X101681067Y-47728525D01*
X101769870Y-47594189D01*
X101830381Y-47443441D01*
X101860122Y-47281826D01*
X101856614Y-47114888D01*
X101836887Y-47012029D01*
X101777977Y-46850291D01*
X101693360Y-46713161D01*
X101585969Y-46603566D01*
X101458740Y-46524433D01*
X101314606Y-46478687D01*
X101299510Y-46476083D01*
X101222789Y-46475512D01*
X101128731Y-46492551D01*
X101110735Y-46497489D01*
X101018499Y-46534602D01*
X100935383Y-46591984D01*
X100857599Y-46673846D01*
X100781360Y-46784403D01*
X100702876Y-46927868D01*
X100677833Y-46978985D01*
X100633861Y-47071930D01*
X100595188Y-47155971D01*
X100565495Y-47222947D01*
X100548463Y-47264694D01*
X100546824Y-47269539D01*
X100529293Y-47315242D01*
X100501348Y-47377616D01*
X100483868Y-47413554D01*
X100456466Y-47480230D01*
X100445368Y-47534532D01*
X100446663Y-47551103D01*
X100467111Y-47586884D01*
X100513724Y-47643192D01*
X100582529Y-47715679D01*
X100669551Y-47799998D01*
X100699852Y-47828086D01*
X100728191Y-47846635D01*
X100781017Y-47875488D01*
X100847302Y-47908643D01*
X100852484Y-47911124D01*
X100921934Y-47942122D01*
X100980051Y-47960647D01*
X101042019Y-47969790D01*
X101123018Y-47972642D01*
X101155025Y-47972732D01*
X101155025Y-48506686D01*
X101136514Y-48506961D01*
X101033504Y-48493756D01*
X100834952Y-48439322D01*
X100647803Y-48348324D01*
X100471230Y-48220268D01*
X100307521Y-48058188D01*
X100196702Y-47932743D01*
X100147488Y-47996795D01*
X100015213Y-48140703D01*
X99867435Y-48249844D01*
X99706596Y-48323367D01*
X99535142Y-48360424D01*
X99516050Y-48360397D01*
X99516050Y-47843803D01*
X99637631Y-47810263D01*
X99720338Y-47764414D01*
X99803549Y-47691079D01*
X99888392Y-47583789D01*
X99975541Y-47441412D01*
X100065666Y-47262815D01*
X100159439Y-47046866D01*
X100187661Y-46976462D01*
X100212184Y-46909902D01*
X100219111Y-46866821D01*
X100206031Y-46834691D01*
X100170535Y-46800987D01*
X100150885Y-46785331D01*
X99990992Y-46676634D01*
X99830491Y-46599704D01*
X99672778Y-46554284D01*
X99521251Y-46540115D01*
X99379307Y-46556939D01*
X99250344Y-46604497D01*
X99137760Y-46682530D01*
X99044951Y-46790782D01*
X98998841Y-46872938D01*
X98974754Y-46927879D01*
X98959225Y-46977151D01*
X98950438Y-47031987D01*
X98946580Y-47103617D01*
X98945834Y-47201154D01*
X98947060Y-47301525D01*
X98951528Y-47374066D01*
X98960995Y-47429995D01*
X98977218Y-47480532D01*
X98996585Y-47525365D01*
X99071062Y-47648050D01*
X99165534Y-47742983D01*
X99274715Y-47808417D01*
X99393316Y-47842606D01*
X99516050Y-47843803D01*
X99516050Y-48360397D01*
X99355516Y-48360163D01*
X99193626Y-48328672D01*
X99019507Y-48259711D01*
X98864786Y-48158438D01*
X98732744Y-48028138D01*
X98626662Y-47872100D01*
X98549822Y-47693608D01*
X98545317Y-47679367D01*
X98499207Y-47478026D01*
X98479418Y-47265382D01*
X98485266Y-47050284D01*
G36*
X98544540Y-49696179D02*
G01*
X98547028Y-49577860D01*
X98551863Y-49485684D01*
X98559776Y-49416418D01*
X98571498Y-49366830D01*
X98587760Y-49333687D01*
X98609292Y-49313757D01*
X98636826Y-49303808D01*
X98671093Y-49300607D01*
X98712824Y-49300921D01*
X98756135Y-49301539D01*
X98837547Y-49304443D01*
X98892498Y-49314938D01*
X98933295Y-49335699D01*
X98941495Y-49341833D01*
X98992721Y-49382127D01*
X98997861Y-50049621D01*
X99003000Y-50717114D01*
X99198385Y-50740446D01*
X99401964Y-50764584D01*
X99569164Y-50784007D01*
X99702370Y-50798964D01*
X99803963Y-50809703D01*
X99876326Y-50816474D01*
X99921841Y-50819524D01*
X99942892Y-50819103D01*
X99944800Y-50818328D01*
X99943160Y-50797168D01*
X99931037Y-50749526D01*
X99911143Y-50685985D01*
X99868561Y-50502420D01*
X99857074Y-50304787D01*
X99875674Y-50101299D01*
X99923352Y-49900168D01*
X99999101Y-49709608D01*
X100040475Y-49632236D01*
X100156145Y-49470783D01*
X100301879Y-49327907D01*
X100471007Y-49208851D01*
X100656859Y-49118862D01*
X100722385Y-49095911D01*
X100831539Y-49072103D01*
X100964982Y-49059300D01*
X101109540Y-49057395D01*
X101252039Y-49066278D01*
X101379303Y-49085841D01*
X101440229Y-49101810D01*
X101646000Y-49186876D01*
X101828966Y-49303588D01*
X101989610Y-49452310D01*
X102106853Y-49601067D01*
X102198548Y-49766013D01*
X102266763Y-49955462D01*
X102309787Y-50161462D01*
X102325908Y-50376064D01*
X102315822Y-50571539D01*
X102272391Y-50789661D01*
X102192425Y-51001179D01*
X102089045Y-51187445D01*
X102026819Y-51275245D01*
X101959671Y-51354121D01*
X101894886Y-51416518D01*
X101839751Y-51454881D01*
X101825376Y-51460834D01*
X101782900Y-51457891D01*
X101721529Y-51433650D01*
X101651075Y-51393331D01*
X101581346Y-51342151D01*
X101550082Y-51314371D01*
X101509115Y-51256512D01*
X101493425Y-51192604D01*
X101504959Y-51135322D01*
X101519507Y-51115127D01*
X101581869Y-51041721D01*
X101648899Y-50947118D01*
X101710733Y-50846394D01*
X101757507Y-50754626D01*
X101761484Y-50745307D01*
X101785417Y-50682864D01*
X101800757Y-50626244D01*
X101809358Y-50563395D01*
X101813073Y-50482265D01*
X101813764Y-50405462D01*
X101812512Y-50300708D01*
X101807347Y-50223585D01*
X101796722Y-50162718D01*
X101779092Y-50106732D01*
X101770041Y-50083905D01*
X101688275Y-49929918D01*
X101581896Y-49800430D01*
X101470832Y-49710933D01*
X101324069Y-49637759D01*
X101170383Y-49600145D01*
X101015133Y-49596555D01*
X100863679Y-49625452D01*
X100721379Y-49685299D01*
X100593591Y-49774559D01*
X100485676Y-49891696D01*
X100412434Y-50014430D01*
X100361692Y-50141548D01*
X100333064Y-50267783D01*
X100324111Y-50407177D01*
X100327271Y-50504686D01*
X100336839Y-50611316D01*
X100353702Y-50697577D01*
X100382109Y-50782056D01*
X100401075Y-50827389D01*
X100445714Y-50956428D01*
X100464417Y-51075746D01*
X100457514Y-51180165D01*
X100425337Y-51264506D01*
X100369404Y-51322817D01*
X100342258Y-51336952D01*
X100307858Y-51346244D01*
X100261066Y-51350621D01*
X100196741Y-51350010D01*
X100109744Y-51344340D01*
X99994937Y-51333539D01*
X99847179Y-51317534D01*
X99826617Y-51315218D01*
X99694457Y-51300528D01*
X99555158Y-51285448D01*
X99422025Y-51271394D01*
X99308363Y-51259780D01*
X99266770Y-51255693D01*
X99094412Y-51238943D01*
X98956631Y-51225073D01*
X98849093Y-51213380D01*
X98767463Y-51203158D01*
X98707407Y-51193701D01*
X98664589Y-51184305D01*
X98634675Y-51174264D01*
X98613331Y-51162873D01*
X98596222Y-51149426D01*
X98592447Y-51145984D01*
X98543847Y-51100943D01*
X98543847Y-50240318D01*
X98543680Y-50024175D01*
X98543667Y-49843873D01*
X98544540Y-49696179D01*
G37*
X98544540Y-49696179D02*
X98547028Y-49577860D01*
X98551863Y-49485684D01*
X98559776Y-49416418D01*
X98571498Y-49366830D01*
X98587760Y-49333687D01*
X98609292Y-49313757D01*
X98636826Y-49303808D01*
X98671093Y-49300607D01*
X98712824Y-49300921D01*
X98756135Y-49301539D01*
X98837547Y-49304443D01*
X98892498Y-49314938D01*
X98933295Y-49335699D01*
X98941495Y-49341833D01*
X98992721Y-49382127D01*
X98997861Y-50049621D01*
X99003000Y-50717114D01*
X99198385Y-50740446D01*
X99401964Y-50764584D01*
X99569164Y-50784007D01*
X99702370Y-50798964D01*
X99803963Y-50809703D01*
X99876326Y-50816474D01*
X99921841Y-50819524D01*
X99942892Y-50819103D01*
X99944800Y-50818328D01*
X99943160Y-50797168D01*
X99931037Y-50749526D01*
X99911143Y-50685985D01*
X99868561Y-50502420D01*
X99857074Y-50304787D01*
X99875674Y-50101299D01*
X99923352Y-49900168D01*
X99999101Y-49709608D01*
X100040475Y-49632236D01*
X100156145Y-49470783D01*
X100301879Y-49327907D01*
X100471007Y-49208851D01*
X100656859Y-49118862D01*
X100722385Y-49095911D01*
X100831539Y-49072103D01*
X100964982Y-49059300D01*
X101109540Y-49057395D01*
X101252039Y-49066278D01*
X101379303Y-49085841D01*
X101440229Y-49101810D01*
X101646000Y-49186876D01*
X101828966Y-49303588D01*
X101989610Y-49452310D01*
X102106853Y-49601067D01*
X102198548Y-49766013D01*
X102266763Y-49955462D01*
X102309787Y-50161462D01*
X102325908Y-50376064D01*
X102315822Y-50571539D01*
X102272391Y-50789661D01*
X102192425Y-51001179D01*
X102089045Y-51187445D01*
X102026819Y-51275245D01*
X101959671Y-51354121D01*
X101894886Y-51416518D01*
X101839751Y-51454881D01*
X101825376Y-51460834D01*
X101782900Y-51457891D01*
X101721529Y-51433650D01*
X101651075Y-51393331D01*
X101581346Y-51342151D01*
X101550082Y-51314371D01*
X101509115Y-51256512D01*
X101493425Y-51192604D01*
X101504959Y-51135322D01*
X101519507Y-51115127D01*
X101581869Y-51041721D01*
X101648899Y-50947118D01*
X101710733Y-50846394D01*
X101757507Y-50754626D01*
X101761484Y-50745307D01*
X101785417Y-50682864D01*
X101800757Y-50626244D01*
X101809358Y-50563395D01*
X101813073Y-50482265D01*
X101813764Y-50405462D01*
X101812512Y-50300708D01*
X101807347Y-50223585D01*
X101796722Y-50162718D01*
X101779092Y-50106732D01*
X101770041Y-50083905D01*
X101688275Y-49929918D01*
X101581896Y-49800430D01*
X101470832Y-49710933D01*
X101324069Y-49637759D01*
X101170383Y-49600145D01*
X101015133Y-49596555D01*
X100863679Y-49625452D01*
X100721379Y-49685299D01*
X100593591Y-49774559D01*
X100485676Y-49891696D01*
X100412434Y-50014430D01*
X100361692Y-50141548D01*
X100333064Y-50267783D01*
X100324111Y-50407177D01*
X100327271Y-50504686D01*
X100336839Y-50611316D01*
X100353702Y-50697577D01*
X100382109Y-50782056D01*
X100401075Y-50827389D01*
X100445714Y-50956428D01*
X100464417Y-51075746D01*
X100457514Y-51180165D01*
X100425337Y-51264506D01*
X100369404Y-51322817D01*
X100342258Y-51336952D01*
X100307858Y-51346244D01*
X100261066Y-51350621D01*
X100196741Y-51350010D01*
X100109744Y-51344340D01*
X99994937Y-51333539D01*
X99847179Y-51317534D01*
X99826617Y-51315218D01*
X99694457Y-51300528D01*
X99555158Y-51285448D01*
X99422025Y-51271394D01*
X99308363Y-51259780D01*
X99266770Y-51255693D01*
X99094412Y-51238943D01*
X98956631Y-51225073D01*
X98849093Y-51213380D01*
X98767463Y-51203158D01*
X98707407Y-51193701D01*
X98664589Y-51184305D01*
X98634675Y-51174264D01*
X98613331Y-51162873D01*
X98596222Y-51149426D01*
X98592447Y-51145984D01*
X98543847Y-51100943D01*
X98543847Y-50240318D01*
X98543680Y-50024175D01*
X98543667Y-49843873D01*
X98544540Y-49696179D01*
G36*
X97346259Y-63456226D02*
G01*
X97383468Y-63413049D01*
X97437819Y-63358198D01*
X97481457Y-63317656D01*
X97547746Y-63257772D01*
X97605808Y-63204870D01*
X97647699Y-63166212D01*
X97662187Y-63152462D01*
X97691096Y-63127630D01*
X97742836Y-63086369D01*
X97808806Y-63035464D01*
X97850231Y-63004168D01*
X98118961Y-62814543D01*
X98378003Y-62656892D01*
X98634256Y-62527804D01*
X98894620Y-62423872D01*
X99165995Y-62341687D01*
X99217555Y-62328693D01*
X99337167Y-62306758D01*
X99481645Y-62291716D01*
X99640364Y-62283645D01*
X99802697Y-62282624D01*
X99958018Y-62288730D01*
X100095701Y-62302042D01*
X100200656Y-62321477D01*
X100269797Y-62338026D01*
X100322557Y-62348566D01*
X100349128Y-62351183D01*
X100350359Y-62350678D01*
X100349979Y-62329689D01*
X100343288Y-62278798D01*
X100331512Y-62206445D01*
X100320996Y-62148077D01*
X100286242Y-61856358D01*
X100289280Y-61558743D01*
X100329775Y-61257906D01*
X100407391Y-60956519D01*
X100502162Y-60702231D01*
X100540859Y-60617900D01*
X100592929Y-60512984D01*
X100651832Y-60399904D01*
X100711024Y-60291080D01*
X100763964Y-60198932D01*
X100786866Y-60161705D01*
X100830194Y-60095208D01*
X100878344Y-60023514D01*
X100925217Y-59955443D01*
X100964717Y-59899815D01*
X100990746Y-59865449D01*
X100994992Y-59860631D01*
X101019672Y-59832258D01*
X101055195Y-59788227D01*
X101064308Y-59776543D01*
X101115065Y-59714068D01*
X101184867Y-59632385D01*
X101265778Y-59540556D01*
X101349862Y-59447639D01*
X101396462Y-59397349D01*
X101484385Y-59303428D01*
X101558673Y-59373633D01*
X101676690Y-59493061D01*
X101804411Y-59635791D01*
X101932840Y-59790814D01*
X102052979Y-59947119D01*
X102155832Y-60093699D01*
X102187770Y-60143370D01*
X102209856Y-60178580D01*
X102242519Y-60230444D01*
X102256654Y-60252846D01*
X102312950Y-60350360D01*
X102375826Y-60472827D01*
X102439661Y-60608081D01*
X102498834Y-60743952D01*
X102547723Y-60868271D01*
X102568065Y-60926923D01*
X102647752Y-61215863D01*
X102693671Y-61491679D01*
X102705816Y-61760920D01*
X102684180Y-62030140D01*
X102628755Y-62305890D01*
X102566466Y-62516551D01*
X102529204Y-62618413D01*
X102480555Y-62736526D01*
X102425109Y-62861050D01*
X102367453Y-62982149D01*
X102312178Y-63089984D01*
X102263872Y-63174718D01*
X102248077Y-63199137D01*
X102217893Y-63245601D01*
X102199824Y-63277634D01*
X102197539Y-63284240D01*
X102188018Y-63302888D01*
X102157991Y-63344019D01*
X102105261Y-63410576D01*
X102080014Y-63441676D01*
X102067843Y-63458261D01*
X102064363Y-63474911D01*
X102072584Y-63499033D01*
X102095519Y-63538036D01*
X102136179Y-63599326D01*
X102156078Y-63628780D01*
X102331013Y-63915020D01*
X102473772Y-64207384D01*
X102583171Y-64502322D01*
X102658024Y-64796280D01*
X102697146Y-65085707D01*
X102702878Y-65267531D01*
X102701173Y-65365280D01*
X102698502Y-65452630D01*
X102695234Y-65519987D01*
X102691773Y-65557539D01*
X102654157Y-65736485D01*
X102602328Y-65928141D01*
X102540813Y-66118024D01*
X102474134Y-66291653D01*
X102435381Y-66378154D01*
X102376177Y-66495226D01*
X102307033Y-66621393D01*
X102232948Y-66748425D01*
X102158921Y-66868087D01*
X102089950Y-66972148D01*
X102031035Y-67052375D01*
X102012265Y-67074967D01*
X101987203Y-67105559D01*
X101953044Y-67149321D01*
X101950142Y-67153120D01*
X101875807Y-67247534D01*
X101797072Y-67342211D01*
X101718500Y-67432222D01*
X101644653Y-67512639D01*
X101580091Y-67578530D01*
X101529378Y-67624967D01*
X101497074Y-67647020D01*
X101494022Y-67647707D01*
X101494022Y-67110846D01*
X101592905Y-67003385D01*
X101649544Y-66937386D01*
X101720153Y-66848590D01*
X101797352Y-66746930D01*
X101873764Y-66642341D01*
X101942010Y-66544755D01*
X101994714Y-66464105D01*
X102000486Y-66454641D01*
X102052315Y-66361968D01*
X102110843Y-66246636D01*
X102170803Y-66120095D01*
X102226928Y-65993796D01*
X102273952Y-65879187D01*
X102305261Y-65792000D01*
X102342918Y-65652628D01*
X102374763Y-65494978D01*
X102397858Y-65336362D01*
X102409263Y-65194089D01*
X102409758Y-65176539D01*
X102407746Y-65113454D01*
X102400692Y-65026323D01*
X102389887Y-64929657D01*
X102383652Y-64883462D01*
X102341455Y-64665458D01*
X102276721Y-64449383D01*
X102186767Y-64228144D01*
X102068909Y-63994652D01*
X102003649Y-63879577D01*
X101919191Y-63747239D01*
X101837891Y-63648174D01*
X101835231Y-63645947D01*
X101835231Y-63310616D01*
X101860029Y-63294115D01*
X101898648Y-63248424D01*
X101947349Y-63179263D01*
X102002392Y-63092350D01*
X102060035Y-62993403D01*
X102116539Y-62888141D01*
X102133537Y-62854524D01*
X102229189Y-62646466D01*
X102300818Y-62451956D01*
X102352802Y-62257699D01*
X102382306Y-62099231D01*
X102399989Y-61969240D01*
X102408175Y-61857230D01*
X102406899Y-61748002D01*
X102396192Y-61626358D01*
X102383562Y-61528928D01*
X102333944Y-61286220D01*
X102253054Y-61033380D01*
X102143964Y-60778926D01*
X102046982Y-60594769D01*
X101989634Y-60499870D01*
X101922045Y-60396884D01*
X101848112Y-60290843D01*
X101771730Y-60186778D01*
X101696796Y-60089721D01*
X101627205Y-60004704D01*
X101566853Y-59936756D01*
X101519636Y-59890910D01*
X101489451Y-59872197D01*
X101487319Y-59872011D01*
X101462930Y-59887498D01*
X101420834Y-59930254D01*
X101365000Y-59995031D01*
X101299395Y-60076583D01*
X101227987Y-60169663D01*
X101154745Y-60269024D01*
X101083635Y-60369419D01*
X101018625Y-60465601D01*
X100963684Y-60552324D01*
X100933369Y-60604539D01*
X100840275Y-60781989D01*
X100766613Y-60943155D01*
X100706801Y-61101772D01*
X100655257Y-61271578D01*
X100641759Y-61322182D01*
X100601751Y-61533177D01*
X100585011Y-61759895D01*
X100591640Y-61988118D01*
X100621737Y-62203624D01*
X100635166Y-62262906D01*
X100683308Y-62455889D01*
X100868924Y-62548044D01*
X101074511Y-62654607D01*
X101245530Y-62753594D01*
X101385174Y-62847493D01*
X101496634Y-62938790D01*
X101583102Y-63029973D01*
X101647769Y-63123529D01*
X101674822Y-63176073D01*
X101725049Y-63255323D01*
X101786079Y-63300601D01*
X101835231Y-63310616D01*
X101835231Y-63645947D01*
X101753705Y-63577673D01*
X101660589Y-63531029D01*
X101552500Y-63503538D01*
X101513693Y-63498008D01*
X101387725Y-63476190D01*
X101289435Y-63443039D01*
X101208185Y-63394914D01*
X101204672Y-63392272D01*
X101158596Y-63350542D01*
X101109610Y-63295634D01*
X101063634Y-63235845D01*
X101026591Y-63179469D01*
X101004398Y-63134802D01*
X101002978Y-63110139D01*
X101003172Y-63109936D01*
X101030230Y-63102090D01*
X101084791Y-63098066D01*
X101155397Y-63098668D01*
X101160266Y-63098887D01*
X101231071Y-63101359D01*
X101268476Y-63099666D01*
X101278030Y-63092781D01*
X101265284Y-63079679D01*
X101265060Y-63079512D01*
X101227427Y-63054017D01*
X101170203Y-63018249D01*
X101102011Y-62977239D01*
X101031476Y-62936018D01*
X100967221Y-62899616D01*
X100917869Y-62873064D01*
X100892044Y-62861393D01*
X100890891Y-62861231D01*
X100861617Y-62844242D01*
X100824604Y-62799166D01*
X100784912Y-62734835D01*
X100747600Y-62660084D01*
X100717727Y-62583746D01*
X100704203Y-62535252D01*
X100693772Y-62504495D01*
X100672897Y-62481344D01*
X100633189Y-62460130D01*
X100566259Y-62435186D01*
X100545754Y-62428197D01*
X100470383Y-62403482D01*
X100425029Y-62394640D01*
X100405411Y-62406556D01*
X100407249Y-62444119D01*
X100426264Y-62512216D01*
X100438288Y-62550921D01*
X100456897Y-62614195D01*
X100468513Y-62660635D01*
X100470643Y-62679870D01*
X100450459Y-62677568D01*
X100406362Y-62664873D01*
X100382349Y-62656743D01*
X100288601Y-62630046D01*
X100170301Y-62605560D01*
X100041975Y-62585585D01*
X99918148Y-62572421D01*
X99823616Y-62568295D01*
X99663009Y-62577459D01*
X99483200Y-62603206D01*
X99299050Y-62642971D01*
X99159308Y-62682923D01*
X98935109Y-62766244D01*
X98712816Y-62871963D01*
X98488045Y-63002760D01*
X98256412Y-63161316D01*
X98013535Y-63350311D01*
X97869933Y-63471347D01*
X97863154Y-63493158D01*
X97872658Y-63501929D01*
X97897418Y-63520810D01*
X97942490Y-63557949D01*
X97998801Y-63605849D01*
X98007613Y-63613462D01*
X98213679Y-63777239D01*
X98443991Y-63934778D01*
X98683872Y-64076346D01*
X98786481Y-64129973D01*
X98880861Y-64176103D01*
X98963253Y-64214176D01*
X99027286Y-64241422D01*
X99066589Y-64255068D01*
X99075465Y-64255710D01*
X99095313Y-64234016D01*
X99126158Y-64191059D01*
X99142435Y-64166086D01*
X99229418Y-64047617D01*
X99343551Y-63920908D01*
X99476302Y-63793659D01*
X99619144Y-63673569D01*
X99763545Y-63568336D01*
X99889502Y-63491768D01*
X100089004Y-63390863D01*
X100285217Y-63304377D01*
X100468313Y-63236420D01*
X100580840Y-63202749D01*
X100650758Y-63185088D01*
X100693829Y-63177920D01*
X100720858Y-63181278D01*
X100742648Y-63195192D01*
X100751802Y-63203253D01*
X100780904Y-63235758D01*
X100790770Y-63256831D01*
X100801862Y-63283720D01*
X100828643Y-63323287D01*
X100829580Y-63324484D01*
X100853853Y-63362534D01*
X100859817Y-63387558D01*
X100859418Y-63388343D01*
X100837264Y-63400667D01*
X100788199Y-63418612D01*
X100727800Y-63436867D01*
X100484011Y-63517490D01*
X100243171Y-63621629D01*
X100019733Y-63742698D01*
X99928548Y-63801060D01*
X99872474Y-63843643D01*
X99800217Y-63904971D01*
X99720433Y-63976964D01*
X99641777Y-64051540D01*
X99572907Y-64120617D01*
X99522479Y-64176115D01*
X99510192Y-64191637D01*
X99349352Y-64439220D01*
X99211613Y-64713386D01*
X99099200Y-65007687D01*
X99014335Y-65315675D01*
X98959241Y-65630901D01*
X98939936Y-65845731D01*
X98929004Y-66046000D01*
X99053925Y-66045996D01*
X99187522Y-66038891D01*
X99347428Y-66018936D01*
X99523820Y-65988165D01*
X99706875Y-65948612D01*
X99886771Y-65902309D01*
X100053684Y-65851289D01*
X100136407Y-65821949D01*
X100224142Y-65788853D01*
X100281183Y-65764148D01*
X100312939Y-65741277D01*
X100324821Y-65713679D01*
X100322239Y-65674797D01*
X100310602Y-65618072D01*
X100309375Y-65612246D01*
X100287175Y-65447754D01*
X100282369Y-65258275D01*
X100294115Y-65053381D01*
X100321567Y-64842646D01*
X100363883Y-64635641D01*
X100409805Y-64473154D01*
X100449255Y-64366230D01*
X100504322Y-64236960D01*
X100569778Y-64096052D01*
X100640394Y-63954213D01*
X100710943Y-63822150D01*
X100776195Y-63710570D01*
X100800973Y-63672077D01*
X100856008Y-63590157D01*
X100894801Y-63536833D01*
X100923379Y-63508590D01*
X100947766Y-63501912D01*
X100973991Y-63513284D01*
X101008078Y-63539191D01*
X101016824Y-63546168D01*
X101066849Y-63584759D01*
X101107127Y-63613801D01*
X101119633Y-63621771D01*
X101127630Y-63637873D01*
X101116220Y-63670749D01*
X101083095Y-63725695D01*
X101058662Y-63761669D01*
X101008880Y-63839245D01*
X100949299Y-63941003D01*
X100886157Y-64055491D01*
X100825696Y-64171258D01*
X100774155Y-64276853D01*
X100755687Y-64317653D01*
X100720225Y-64411700D01*
X100683371Y-64531435D01*
X100648484Y-64663761D01*
X100618925Y-64795580D01*
X100598055Y-64913795D01*
X100593308Y-64950567D01*
X100581343Y-65179964D01*
X100598588Y-65408223D01*
X100646016Y-65646743D01*
X100655909Y-65684539D01*
X100683760Y-65779063D01*
X100718640Y-65884375D01*
X100757180Y-65991582D01*
X100796010Y-66091791D01*
X100831757Y-66176109D01*
X100861053Y-66235641D01*
X100870651Y-66251154D01*
X100887114Y-66278186D01*
X100915036Y-66327197D01*
X100937837Y-66368385D01*
X100990021Y-66455926D01*
X101060262Y-66562948D01*
X101141227Y-66679225D01*
X101225582Y-66794534D01*
X101305997Y-66898649D01*
X101375137Y-66981346D01*
X101386230Y-66993616D01*
X101494022Y-67110846D01*
X101494022Y-67647707D01*
X101492040Y-67648154D01*
X101464331Y-67633280D01*
X101417169Y-67591719D01*
X101354521Y-67528064D01*
X101280355Y-67446907D01*
X101198641Y-67352842D01*
X101113346Y-67250460D01*
X101028440Y-67144354D01*
X100947889Y-67039116D01*
X100875664Y-66939340D01*
X100860031Y-66916747D01*
X100799146Y-66822896D01*
X100732986Y-66712582D01*
X100665617Y-66593476D01*
X100601108Y-66473251D01*
X100543525Y-66359577D01*
X100496935Y-66260126D01*
X100465406Y-66182570D01*
X100457264Y-66157037D01*
X100441779Y-66109529D01*
X100422835Y-66091157D01*
X100388309Y-66092955D01*
X100374472Y-66095793D01*
X100325078Y-66108980D01*
X100292843Y-66122209D01*
X100292539Y-66122412D01*
X100255224Y-66141418D01*
X100190885Y-66168156D01*
X100109813Y-66198757D01*
X100022298Y-66229350D01*
X99938632Y-66256067D01*
X99931077Y-66258317D01*
X99703405Y-66319500D01*
X99481165Y-66365794D01*
X99252265Y-66399102D01*
X99004612Y-66421327D01*
X98838612Y-66430279D01*
X98537455Y-66443147D01*
X98550375Y-66112689D01*
X98572486Y-65800371D01*
X98613167Y-65497423D01*
X98662479Y-65251478D01*
X98682839Y-65175398D01*
X98711923Y-65079439D01*
X98746235Y-64973891D01*
X98782279Y-64869041D01*
X98816559Y-64775179D01*
X98845577Y-64702592D01*
X98858666Y-64674202D01*
X98882050Y-64621904D01*
X98894767Y-64581159D01*
X98895539Y-64574007D01*
X98878050Y-64552546D01*
X98830896Y-64525314D01*
X98773424Y-64501172D01*
X98704991Y-64473246D01*
X98619865Y-64434671D01*
X98526775Y-64389857D01*
X98434448Y-64343213D01*
X98351615Y-64299152D01*
X98287003Y-64262082D01*
X98249342Y-64236414D01*
X98249231Y-64236317D01*
X98217338Y-64214265D01*
X98202866Y-64209385D01*
X98177764Y-64197804D01*
X98127555Y-64165646D01*
X98057613Y-64116789D01*
X97973311Y-64055109D01*
X97880022Y-63984486D01*
X97783118Y-63908796D01*
X97752539Y-63884392D01*
X97642370Y-63793639D01*
X97542924Y-63707224D01*
X97458208Y-63628997D01*
X97392229Y-63562806D01*
X97348995Y-63512502D01*
X97332513Y-63481933D01*
X97332462Y-63480858D01*
X97346259Y-63456226D01*
G37*
X97346259Y-63456226D02*
X97383468Y-63413049D01*
X97437819Y-63358198D01*
X97481457Y-63317656D01*
X97547746Y-63257772D01*
X97605808Y-63204870D01*
X97647699Y-63166212D01*
X97662187Y-63152462D01*
X97691096Y-63127630D01*
X97742836Y-63086369D01*
X97808806Y-63035464D01*
X97850231Y-63004168D01*
X98118961Y-62814543D01*
X98378003Y-62656892D01*
X98634256Y-62527804D01*
X98894620Y-62423872D01*
X99165995Y-62341687D01*
X99217555Y-62328693D01*
X99337167Y-62306758D01*
X99481645Y-62291716D01*
X99640364Y-62283645D01*
X99802697Y-62282624D01*
X99958018Y-62288730D01*
X100095701Y-62302042D01*
X100200656Y-62321477D01*
X100269797Y-62338026D01*
X100322557Y-62348566D01*
X100349128Y-62351183D01*
X100350359Y-62350678D01*
X100349979Y-62329689D01*
X100343288Y-62278798D01*
X100331512Y-62206445D01*
X100320996Y-62148077D01*
X100286242Y-61856358D01*
X100289280Y-61558743D01*
X100329775Y-61257906D01*
X100407391Y-60956519D01*
X100502162Y-60702231D01*
X100540859Y-60617900D01*
X100592929Y-60512984D01*
X100651832Y-60399904D01*
X100711024Y-60291080D01*
X100763964Y-60198932D01*
X100786866Y-60161705D01*
X100830194Y-60095208D01*
X100878344Y-60023514D01*
X100925217Y-59955443D01*
X100964717Y-59899815D01*
X100990746Y-59865449D01*
X100994992Y-59860631D01*
X101019672Y-59832258D01*
X101055195Y-59788227D01*
X101064308Y-59776543D01*
X101115065Y-59714068D01*
X101184867Y-59632385D01*
X101265778Y-59540556D01*
X101349862Y-59447639D01*
X101396462Y-59397349D01*
X101484385Y-59303428D01*
X101558673Y-59373633D01*
X101676690Y-59493061D01*
X101804411Y-59635791D01*
X101932840Y-59790814D01*
X102052979Y-59947119D01*
X102155832Y-60093699D01*
X102187770Y-60143370D01*
X102209856Y-60178580D01*
X102242519Y-60230444D01*
X102256654Y-60252846D01*
X102312950Y-60350360D01*
X102375826Y-60472827D01*
X102439661Y-60608081D01*
X102498834Y-60743952D01*
X102547723Y-60868271D01*
X102568065Y-60926923D01*
X102647752Y-61215863D01*
X102693671Y-61491679D01*
X102705816Y-61760920D01*
X102684180Y-62030140D01*
X102628755Y-62305890D01*
X102566466Y-62516551D01*
X102529204Y-62618413D01*
X102480555Y-62736526D01*
X102425109Y-62861050D01*
X102367453Y-62982149D01*
X102312178Y-63089984D01*
X102263872Y-63174718D01*
X102248077Y-63199137D01*
X102217893Y-63245601D01*
X102199824Y-63277634D01*
X102197539Y-63284240D01*
X102188018Y-63302888D01*
X102157991Y-63344019D01*
X102105261Y-63410576D01*
X102080014Y-63441676D01*
X102067843Y-63458261D01*
X102064363Y-63474911D01*
X102072584Y-63499033D01*
X102095519Y-63538036D01*
X102136179Y-63599326D01*
X102156078Y-63628780D01*
X102331013Y-63915020D01*
X102473772Y-64207384D01*
X102583171Y-64502322D01*
X102658024Y-64796280D01*
X102697146Y-65085707D01*
X102702878Y-65267531D01*
X102701173Y-65365280D01*
X102698502Y-65452630D01*
X102695234Y-65519987D01*
X102691773Y-65557539D01*
X102654157Y-65736485D01*
X102602328Y-65928141D01*
X102540813Y-66118024D01*
X102474134Y-66291653D01*
X102435381Y-66378154D01*
X102376177Y-66495226D01*
X102307033Y-66621393D01*
X102232948Y-66748425D01*
X102158921Y-66868087D01*
X102089950Y-66972148D01*
X102031035Y-67052375D01*
X102012265Y-67074967D01*
X101987203Y-67105559D01*
X101953044Y-67149321D01*
X101950142Y-67153120D01*
X101875807Y-67247534D01*
X101797072Y-67342211D01*
X101718500Y-67432222D01*
X101644653Y-67512639D01*
X101580091Y-67578530D01*
X101529378Y-67624967D01*
X101497074Y-67647020D01*
X101494022Y-67647707D01*
X101494022Y-67110846D01*
X101592905Y-67003385D01*
X101649544Y-66937386D01*
X101720153Y-66848590D01*
X101797352Y-66746930D01*
X101873764Y-66642341D01*
X101942010Y-66544755D01*
X101994714Y-66464105D01*
X102000486Y-66454641D01*
X102052315Y-66361968D01*
X102110843Y-66246636D01*
X102170803Y-66120095D01*
X102226928Y-65993796D01*
X102273952Y-65879187D01*
X102305261Y-65792000D01*
X102342918Y-65652628D01*
X102374763Y-65494978D01*
X102397858Y-65336362D01*
X102409263Y-65194089D01*
X102409758Y-65176539D01*
X102407746Y-65113454D01*
X102400692Y-65026323D01*
X102389887Y-64929657D01*
X102383652Y-64883462D01*
X102341455Y-64665458D01*
X102276721Y-64449383D01*
X102186767Y-64228144D01*
X102068909Y-63994652D01*
X102003649Y-63879577D01*
X101919191Y-63747239D01*
X101837891Y-63648174D01*
X101835231Y-63645947D01*
X101835231Y-63310616D01*
X101860029Y-63294115D01*
X101898648Y-63248424D01*
X101947349Y-63179263D01*
X102002392Y-63092350D01*
X102060035Y-62993403D01*
X102116539Y-62888141D01*
X102133537Y-62854524D01*
X102229189Y-62646466D01*
X102300818Y-62451956D01*
X102352802Y-62257699D01*
X102382306Y-62099231D01*
X102399989Y-61969240D01*
X102408175Y-61857230D01*
X102406899Y-61748002D01*
X102396192Y-61626358D01*
X102383562Y-61528928D01*
X102333944Y-61286220D01*
X102253054Y-61033380D01*
X102143964Y-60778926D01*
X102046982Y-60594769D01*
X101989634Y-60499870D01*
X101922045Y-60396884D01*
X101848112Y-60290843D01*
X101771730Y-60186778D01*
X101696796Y-60089721D01*
X101627205Y-60004704D01*
X101566853Y-59936756D01*
X101519636Y-59890910D01*
X101489451Y-59872197D01*
X101487319Y-59872011D01*
X101462930Y-59887498D01*
X101420834Y-59930254D01*
X101365000Y-59995031D01*
X101299395Y-60076583D01*
X101227987Y-60169663D01*
X101154745Y-60269024D01*
X101083635Y-60369419D01*
X101018625Y-60465601D01*
X100963684Y-60552324D01*
X100933369Y-60604539D01*
X100840275Y-60781989D01*
X100766613Y-60943155D01*
X100706801Y-61101772D01*
X100655257Y-61271578D01*
X100641759Y-61322182D01*
X100601751Y-61533177D01*
X100585011Y-61759895D01*
X100591640Y-61988118D01*
X100621737Y-62203624D01*
X100635166Y-62262906D01*
X100683308Y-62455889D01*
X100868924Y-62548044D01*
X101074511Y-62654607D01*
X101245530Y-62753594D01*
X101385174Y-62847493D01*
X101496634Y-62938790D01*
X101583102Y-63029973D01*
X101647769Y-63123529D01*
X101674822Y-63176073D01*
X101725049Y-63255323D01*
X101786079Y-63300601D01*
X101835231Y-63310616D01*
X101835231Y-63645947D01*
X101753705Y-63577673D01*
X101660589Y-63531029D01*
X101552500Y-63503538D01*
X101513693Y-63498008D01*
X101387725Y-63476190D01*
X101289435Y-63443039D01*
X101208185Y-63394914D01*
X101204672Y-63392272D01*
X101158596Y-63350542D01*
X101109610Y-63295634D01*
X101063634Y-63235845D01*
X101026591Y-63179469D01*
X101004398Y-63134802D01*
X101002978Y-63110139D01*
X101003172Y-63109936D01*
X101030230Y-63102090D01*
X101084791Y-63098066D01*
X101155397Y-63098668D01*
X101160266Y-63098887D01*
X101231071Y-63101359D01*
X101268476Y-63099666D01*
X101278030Y-63092781D01*
X101265284Y-63079679D01*
X101265060Y-63079512D01*
X101227427Y-63054017D01*
X101170203Y-63018249D01*
X101102011Y-62977239D01*
X101031476Y-62936018D01*
X100967221Y-62899616D01*
X100917869Y-62873064D01*
X100892044Y-62861393D01*
X100890891Y-62861231D01*
X100861617Y-62844242D01*
X100824604Y-62799166D01*
X100784912Y-62734835D01*
X100747600Y-62660084D01*
X100717727Y-62583746D01*
X100704203Y-62535252D01*
X100693772Y-62504495D01*
X100672897Y-62481344D01*
X100633189Y-62460130D01*
X100566259Y-62435186D01*
X100545754Y-62428197D01*
X100470383Y-62403482D01*
X100425029Y-62394640D01*
X100405411Y-62406556D01*
X100407249Y-62444119D01*
X100426264Y-62512216D01*
X100438288Y-62550921D01*
X100456897Y-62614195D01*
X100468513Y-62660635D01*
X100470643Y-62679870D01*
X100450459Y-62677568D01*
X100406362Y-62664873D01*
X100382349Y-62656743D01*
X100288601Y-62630046D01*
X100170301Y-62605560D01*
X100041975Y-62585585D01*
X99918148Y-62572421D01*
X99823616Y-62568295D01*
X99663009Y-62577459D01*
X99483200Y-62603206D01*
X99299050Y-62642971D01*
X99159308Y-62682923D01*
X98935109Y-62766244D01*
X98712816Y-62871963D01*
X98488045Y-63002760D01*
X98256412Y-63161316D01*
X98013535Y-63350311D01*
X97869933Y-63471347D01*
X97863154Y-63493158D01*
X97872658Y-63501929D01*
X97897418Y-63520810D01*
X97942490Y-63557949D01*
X97998801Y-63605849D01*
X98007613Y-63613462D01*
X98213679Y-63777239D01*
X98443991Y-63934778D01*
X98683872Y-64076346D01*
X98786481Y-64129973D01*
X98880861Y-64176103D01*
X98963253Y-64214176D01*
X99027286Y-64241422D01*
X99066589Y-64255068D01*
X99075465Y-64255710D01*
X99095313Y-64234016D01*
X99126158Y-64191059D01*
X99142435Y-64166086D01*
X99229418Y-64047617D01*
X99343551Y-63920908D01*
X99476302Y-63793659D01*
X99619144Y-63673569D01*
X99763545Y-63568336D01*
X99889502Y-63491768D01*
X100089004Y-63390863D01*
X100285217Y-63304377D01*
X100468313Y-63236420D01*
X100580840Y-63202749D01*
X100650758Y-63185088D01*
X100693829Y-63177920D01*
X100720858Y-63181278D01*
X100742648Y-63195192D01*
X100751802Y-63203253D01*
X100780904Y-63235758D01*
X100790770Y-63256831D01*
X100801862Y-63283720D01*
X100828643Y-63323287D01*
X100829580Y-63324484D01*
X100853853Y-63362534D01*
X100859817Y-63387558D01*
X100859418Y-63388343D01*
X100837264Y-63400667D01*
X100788199Y-63418612D01*
X100727800Y-63436867D01*
X100484011Y-63517490D01*
X100243171Y-63621629D01*
X100019733Y-63742698D01*
X99928548Y-63801060D01*
X99872474Y-63843643D01*
X99800217Y-63904971D01*
X99720433Y-63976964D01*
X99641777Y-64051540D01*
X99572907Y-64120617D01*
X99522479Y-64176115D01*
X99510192Y-64191637D01*
X99349352Y-64439220D01*
X99211613Y-64713386D01*
X99099200Y-65007687D01*
X99014335Y-65315675D01*
X98959241Y-65630901D01*
X98939936Y-65845731D01*
X98929004Y-66046000D01*
X99053925Y-66045996D01*
X99187522Y-66038891D01*
X99347428Y-66018936D01*
X99523820Y-65988165D01*
X99706875Y-65948612D01*
X99886771Y-65902309D01*
X100053684Y-65851289D01*
X100136407Y-65821949D01*
X100224142Y-65788853D01*
X100281183Y-65764148D01*
X100312939Y-65741277D01*
X100324821Y-65713679D01*
X100322239Y-65674797D01*
X100310602Y-65618072D01*
X100309375Y-65612246D01*
X100287175Y-65447754D01*
X100282369Y-65258275D01*
X100294115Y-65053381D01*
X100321567Y-64842646D01*
X100363883Y-64635641D01*
X100409805Y-64473154D01*
X100449255Y-64366230D01*
X100504322Y-64236960D01*
X100569778Y-64096052D01*
X100640394Y-63954213D01*
X100710943Y-63822150D01*
X100776195Y-63710570D01*
X100800973Y-63672077D01*
X100856008Y-63590157D01*
X100894801Y-63536833D01*
X100923379Y-63508590D01*
X100947766Y-63501912D01*
X100973991Y-63513284D01*
X101008078Y-63539191D01*
X101016824Y-63546168D01*
X101066849Y-63584759D01*
X101107127Y-63613801D01*
X101119633Y-63621771D01*
X101127630Y-63637873D01*
X101116220Y-63670749D01*
X101083095Y-63725695D01*
X101058662Y-63761669D01*
X101008880Y-63839245D01*
X100949299Y-63941003D01*
X100886157Y-64055491D01*
X100825696Y-64171258D01*
X100774155Y-64276853D01*
X100755687Y-64317653D01*
X100720225Y-64411700D01*
X100683371Y-64531435D01*
X100648484Y-64663761D01*
X100618925Y-64795580D01*
X100598055Y-64913795D01*
X100593308Y-64950567D01*
X100581343Y-65179964D01*
X100598588Y-65408223D01*
X100646016Y-65646743D01*
X100655909Y-65684539D01*
X100683760Y-65779063D01*
X100718640Y-65884375D01*
X100757180Y-65991582D01*
X100796010Y-66091791D01*
X100831757Y-66176109D01*
X100861053Y-66235641D01*
X100870651Y-66251154D01*
X100887114Y-66278186D01*
X100915036Y-66327197D01*
X100937837Y-66368385D01*
X100990021Y-66455926D01*
X101060262Y-66562948D01*
X101141227Y-66679225D01*
X101225582Y-66794534D01*
X101305997Y-66898649D01*
X101375137Y-66981346D01*
X101386230Y-66993616D01*
X101494022Y-67110846D01*
X101494022Y-67647707D01*
X101492040Y-67648154D01*
X101464331Y-67633280D01*
X101417169Y-67591719D01*
X101354521Y-67528064D01*
X101280355Y-67446907D01*
X101198641Y-67352842D01*
X101113346Y-67250460D01*
X101028440Y-67144354D01*
X100947889Y-67039116D01*
X100875664Y-66939340D01*
X100860031Y-66916747D01*
X100799146Y-66822896D01*
X100732986Y-66712582D01*
X100665617Y-66593476D01*
X100601108Y-66473251D01*
X100543525Y-66359577D01*
X100496935Y-66260126D01*
X100465406Y-66182570D01*
X100457264Y-66157037D01*
X100441779Y-66109529D01*
X100422835Y-66091157D01*
X100388309Y-66092955D01*
X100374472Y-66095793D01*
X100325078Y-66108980D01*
X100292843Y-66122209D01*
X100292539Y-66122412D01*
X100255224Y-66141418D01*
X100190885Y-66168156D01*
X100109813Y-66198757D01*
X100022298Y-66229350D01*
X99938632Y-66256067D01*
X99931077Y-66258317D01*
X99703405Y-66319500D01*
X99481165Y-66365794D01*
X99252265Y-66399102D01*
X99004612Y-66421327D01*
X98838612Y-66430279D01*
X98537455Y-66443147D01*
X98550375Y-66112689D01*
X98572486Y-65800371D01*
X98613167Y-65497423D01*
X98662479Y-65251478D01*
X98682839Y-65175398D01*
X98711923Y-65079439D01*
X98746235Y-64973891D01*
X98782279Y-64869041D01*
X98816559Y-64775179D01*
X98845577Y-64702592D01*
X98858666Y-64674202D01*
X98882050Y-64621904D01*
X98894767Y-64581159D01*
X98895539Y-64574007D01*
X98878050Y-64552546D01*
X98830896Y-64525314D01*
X98773424Y-64501172D01*
X98704991Y-64473246D01*
X98619865Y-64434671D01*
X98526775Y-64389857D01*
X98434448Y-64343213D01*
X98351615Y-64299152D01*
X98287003Y-64262082D01*
X98249342Y-64236414D01*
X98249231Y-64236317D01*
X98217338Y-64214265D01*
X98202866Y-64209385D01*
X98177764Y-64197804D01*
X98127555Y-64165646D01*
X98057613Y-64116789D01*
X97973311Y-64055109D01*
X97880022Y-63984486D01*
X97783118Y-63908796D01*
X97752539Y-63884392D01*
X97642370Y-63793639D01*
X97542924Y-63707224D01*
X97458208Y-63628997D01*
X97392229Y-63562806D01*
X97348995Y-63512502D01*
X97332513Y-63481933D01*
X97332462Y-63480858D01*
X97346259Y-63456226D01*
G36*
X99583169Y-51983192D02*
G01*
X99593613Y-51919528D01*
X99604881Y-51892293D01*
X99650414Y-51862507D01*
X99723177Y-51858595D01*
X99821245Y-51880417D01*
X99913766Y-51915082D01*
X99989549Y-51947101D01*
X100088564Y-51988474D01*
X100197856Y-52033807D01*
X100302308Y-52076820D01*
X100410743Y-52121327D01*
X100523193Y-52167559D01*
X100626061Y-52209921D01*
X100702847Y-52241618D01*
X100769578Y-52269121D01*
X100864104Y-52307940D01*
X100978034Y-52354636D01*
X101102978Y-52405773D01*
X101230546Y-52457910D01*
X101249924Y-52465822D01*
X101428316Y-52538680D01*
X101574478Y-52598431D01*
X101692372Y-52646708D01*
X101785957Y-52685144D01*
X101859195Y-52715370D01*
X101916046Y-52739019D01*
X101960472Y-52757724D01*
X101996434Y-52773115D01*
X102011924Y-52779837D01*
X102067794Y-52803456D01*
X102145176Y-52835241D01*
X102229199Y-52869099D01*
X102246385Y-52875937D01*
X102445617Y-52955886D01*
X102611967Y-53024815D01*
X102749400Y-53084712D01*
X102861884Y-53137568D01*
X102953383Y-53185372D01*
X103027863Y-53230113D01*
X103089291Y-53273780D01*
X103141632Y-53318363D01*
X103156295Y-53332350D01*
X103265621Y-53463930D01*
X103345052Y-53612611D01*
X103392457Y-53771650D01*
X103405708Y-53934304D01*
X103388858Y-54068923D01*
X103349328Y-54203075D01*
X103300423Y-54299778D01*
X103242279Y-54358843D01*
X103175029Y-54380081D01*
X103167527Y-54380111D01*
X103084894Y-54361599D01*
X103009303Y-54316117D01*
X102959540Y-54258077D01*
X102945007Y-54226795D01*
X102941691Y-54195377D01*
X102950568Y-54151944D01*
X102972618Y-54084621D01*
X102974194Y-54080098D01*
X103004155Y-53982051D01*
X103015315Y-53905741D01*
X103007945Y-53838797D01*
X102982312Y-53768848D01*
X102981034Y-53766077D01*
X102936268Y-53690884D01*
X102872576Y-53621590D01*
X102785714Y-53555219D01*
X102671438Y-53488794D01*
X102525505Y-53419339D01*
X102426887Y-53377399D01*
X102341227Y-53342459D01*
X102282708Y-53320885D01*
X102242291Y-53311274D01*
X102210939Y-53312221D01*
X102179615Y-53322321D01*
X102151646Y-53334635D01*
X102109135Y-53353280D01*
X102040518Y-53382838D01*
X101955703Y-53419060D01*
X101875154Y-53453232D01*
X101783385Y-53492068D01*
X101698159Y-53528187D01*
X101629736Y-53557237D01*
X101591847Y-53573380D01*
X101558729Y-53587540D01*
X101528378Y-53600461D01*
X101494836Y-53614645D01*
X101452145Y-53632595D01*
X101394346Y-53656813D01*
X101315482Y-53689802D01*
X101209593Y-53734063D01*
X101142462Y-53762119D01*
X101015175Y-53815361D01*
X100878098Y-53872779D01*
X100736313Y-53932236D01*
X100594902Y-53991596D01*
X100458945Y-54048722D01*
X100333525Y-54101479D01*
X100223722Y-54147730D01*
X100134619Y-54185339D01*
X100071296Y-54212170D01*
X100038836Y-54226086D01*
X100038539Y-54226217D01*
X99927230Y-54274433D01*
X99844561Y-54307888D01*
X99784007Y-54328857D01*
X99739043Y-54339619D01*
X99705349Y-54342462D01*
X99649064Y-54335966D01*
X99611865Y-54312500D01*
X99590256Y-54266098D01*
X99580743Y-54190794D01*
X99579385Y-54127474D01*
X99580264Y-54049638D01*
X99584807Y-54000738D01*
X99595874Y-53970639D01*
X99616326Y-53949207D01*
X99633116Y-53937096D01*
X99676339Y-53912484D01*
X99743393Y-53879808D01*
X99821671Y-53845126D01*
X99843154Y-53836180D01*
X99928271Y-53801226D01*
X100011734Y-53766889D01*
X100077829Y-53739636D01*
X100087385Y-53735685D01*
X100148521Y-53710826D01*
X100230197Y-53678186D01*
X100316518Y-53644108D01*
X100331616Y-53638197D01*
X100408219Y-53608109D01*
X100474563Y-53581807D01*
X100519315Y-53563789D01*
X100527000Y-53560602D01*
X100592135Y-53533508D01*
X100682811Y-53496295D01*
X100788285Y-53453345D01*
X100897811Y-53409041D01*
X100956847Y-53385298D01*
X101056382Y-53345102D01*
X101168074Y-53299600D01*
X101268013Y-53258535D01*
X101269462Y-53257936D01*
X101360280Y-53220842D01*
X101455081Y-53182872D01*
X101535031Y-53151561D01*
X101543000Y-53148507D01*
X101626133Y-53114689D01*
X101673536Y-53090495D01*
X101684566Y-53076325D01*
X101664802Y-53072462D01*
X101625154Y-53065101D01*
X101572560Y-53047194D01*
X101568086Y-53045335D01*
X101469930Y-53004771D01*
X101357955Y-52959895D01*
X101254064Y-52919452D01*
X101230385Y-52910481D01*
X101163480Y-52884783D01*
X101075652Y-52850306D01*
X100979349Y-52812014D01*
X100887022Y-52774877D01*
X100811117Y-52743859D01*
X100778280Y-52730101D01*
X100742841Y-52715550D01*
X100677071Y-52689089D01*
X100586997Y-52653120D01*
X100478650Y-52610049D01*
X100358059Y-52562279D01*
X100289819Y-52535316D01*
X100122091Y-52469077D01*
X99986903Y-52415546D01*
X99880446Y-52373089D01*
X99798908Y-52340072D01*
X99738480Y-52314862D01*
X99695352Y-52295826D01*
X99665714Y-52281329D01*
X99645755Y-52269739D01*
X99631665Y-52259421D01*
X99619635Y-52248744D01*
X99618147Y-52247359D01*
X99597050Y-52220421D01*
X99585115Y-52181879D01*
X99580063Y-52121246D01*
X99579385Y-52069204D01*
X99583169Y-51983192D01*
G37*
X99583169Y-51983192D02*
X99593613Y-51919528D01*
X99604881Y-51892293D01*
X99650414Y-51862507D01*
X99723177Y-51858595D01*
X99821245Y-51880417D01*
X99913766Y-51915082D01*
X99989549Y-51947101D01*
X100088564Y-51988474D01*
X100197856Y-52033807D01*
X100302308Y-52076820D01*
X100410743Y-52121327D01*
X100523193Y-52167559D01*
X100626061Y-52209921D01*
X100702847Y-52241618D01*
X100769578Y-52269121D01*
X100864104Y-52307940D01*
X100978034Y-52354636D01*
X101102978Y-52405773D01*
X101230546Y-52457910D01*
X101249924Y-52465822D01*
X101428316Y-52538680D01*
X101574478Y-52598431D01*
X101692372Y-52646708D01*
X101785957Y-52685144D01*
X101859195Y-52715370D01*
X101916046Y-52739019D01*
X101960472Y-52757724D01*
X101996434Y-52773115D01*
X102011924Y-52779837D01*
X102067794Y-52803456D01*
X102145176Y-52835241D01*
X102229199Y-52869099D01*
X102246385Y-52875937D01*
X102445617Y-52955886D01*
X102611967Y-53024815D01*
X102749400Y-53084712D01*
X102861884Y-53137568D01*
X102953383Y-53185372D01*
X103027863Y-53230113D01*
X103089291Y-53273780D01*
X103141632Y-53318363D01*
X103156295Y-53332350D01*
X103265621Y-53463930D01*
X103345052Y-53612611D01*
X103392457Y-53771650D01*
X103405708Y-53934304D01*
X103388858Y-54068923D01*
X103349328Y-54203075D01*
X103300423Y-54299778D01*
X103242279Y-54358843D01*
X103175029Y-54380081D01*
X103167527Y-54380111D01*
X103084894Y-54361599D01*
X103009303Y-54316117D01*
X102959540Y-54258077D01*
X102945007Y-54226795D01*
X102941691Y-54195377D01*
X102950568Y-54151944D01*
X102972618Y-54084621D01*
X102974194Y-54080098D01*
X103004155Y-53982051D01*
X103015315Y-53905741D01*
X103007945Y-53838797D01*
X102982312Y-53768848D01*
X102981034Y-53766077D01*
X102936268Y-53690884D01*
X102872576Y-53621590D01*
X102785714Y-53555219D01*
X102671438Y-53488794D01*
X102525505Y-53419339D01*
X102426887Y-53377399D01*
X102341227Y-53342459D01*
X102282708Y-53320885D01*
X102242291Y-53311274D01*
X102210939Y-53312221D01*
X102179615Y-53322321D01*
X102151646Y-53334635D01*
X102109135Y-53353280D01*
X102040518Y-53382838D01*
X101955703Y-53419060D01*
X101875154Y-53453232D01*
X101783385Y-53492068D01*
X101698159Y-53528187D01*
X101629736Y-53557237D01*
X101591847Y-53573380D01*
X101558729Y-53587540D01*
X101528378Y-53600461D01*
X101494836Y-53614645D01*
X101452145Y-53632595D01*
X101394346Y-53656813D01*
X101315482Y-53689802D01*
X101209593Y-53734063D01*
X101142462Y-53762119D01*
X101015175Y-53815361D01*
X100878098Y-53872779D01*
X100736313Y-53932236D01*
X100594902Y-53991596D01*
X100458945Y-54048722D01*
X100333525Y-54101479D01*
X100223722Y-54147730D01*
X100134619Y-54185339D01*
X100071296Y-54212170D01*
X100038836Y-54226086D01*
X100038539Y-54226217D01*
X99927230Y-54274433D01*
X99844561Y-54307888D01*
X99784007Y-54328857D01*
X99739043Y-54339619D01*
X99705349Y-54342462D01*
X99649064Y-54335966D01*
X99611865Y-54312500D01*
X99590256Y-54266098D01*
X99580743Y-54190794D01*
X99579385Y-54127474D01*
X99580264Y-54049638D01*
X99584807Y-54000738D01*
X99595874Y-53970639D01*
X99616326Y-53949207D01*
X99633116Y-53937096D01*
X99676339Y-53912484D01*
X99743393Y-53879808D01*
X99821671Y-53845126D01*
X99843154Y-53836180D01*
X99928271Y-53801226D01*
X100011734Y-53766889D01*
X100077829Y-53739636D01*
X100087385Y-53735685D01*
X100148521Y-53710826D01*
X100230197Y-53678186D01*
X100316518Y-53644108D01*
X100331616Y-53638197D01*
X100408219Y-53608109D01*
X100474563Y-53581807D01*
X100519315Y-53563789D01*
X100527000Y-53560602D01*
X100592135Y-53533508D01*
X100682811Y-53496295D01*
X100788285Y-53453345D01*
X100897811Y-53409041D01*
X100956847Y-53385298D01*
X101056382Y-53345102D01*
X101168074Y-53299600D01*
X101268013Y-53258535D01*
X101269462Y-53257936D01*
X101360280Y-53220842D01*
X101455081Y-53182872D01*
X101535031Y-53151561D01*
X101543000Y-53148507D01*
X101626133Y-53114689D01*
X101673536Y-53090495D01*
X101684566Y-53076325D01*
X101664802Y-53072462D01*
X101625154Y-53065101D01*
X101572560Y-53047194D01*
X101568086Y-53045335D01*
X101469930Y-53004771D01*
X101357955Y-52959895D01*
X101254064Y-52919452D01*
X101230385Y-52910481D01*
X101163480Y-52884783D01*
X101075652Y-52850306D01*
X100979349Y-52812014D01*
X100887022Y-52774877D01*
X100811117Y-52743859D01*
X100778280Y-52730101D01*
X100742841Y-52715550D01*
X100677071Y-52689089D01*
X100586997Y-52653120D01*
X100478650Y-52610049D01*
X100358059Y-52562279D01*
X100289819Y-52535316D01*
X100122091Y-52469077D01*
X99986903Y-52415546D01*
X99880446Y-52373089D01*
X99798908Y-52340072D01*
X99738480Y-52314862D01*
X99695352Y-52295826D01*
X99665714Y-52281329D01*
X99645755Y-52269739D01*
X99631665Y-52259421D01*
X99619635Y-52248744D01*
X99618147Y-52247359D01*
X99597050Y-52220421D01*
X99585115Y-52181879D01*
X99580063Y-52121246D01*
X99579385Y-52069204D01*
X99583169Y-51983192D01*
D10*
X108825959Y-131834755D02*
X107020959Y-128708403D01*
X112250223Y-129857755D02*
X108833753Y-131830255D01*
X108492437Y-119441078D02*
X112804937Y-126910547D01*
X105108010Y-121395078D02*
X108492437Y-119441078D01*
X105068172Y-121418078D02*
X107553335Y-125814506D01*
X112305345Y-129813229D02*
G75*
G03X112804937Y-126910547I-1201545J1701137D01*
G01*
X107039244Y-128692073D02*
G75*
G03X107537371Y-125794856I-1199545J1697672D01*
G01*
X96739441Y-129142292D02*
X99014441Y-133082708D01*
X100766459Y-126817292D02*
X102041459Y-129025657D01*
X105096715Y-129917515D02*
X107446715Y-133987835D01*
X101532197Y-133043589D02*
X103419697Y-136312835D01*
X100732309Y-126808142D02*
X96748592Y-129108142D01*
X107425064Y-134000335D02*
X103453848Y-136321985D01*
X105072564Y-129925686D02*
G75*
G02X102008289Y-128958205I-1048397J2015878D01*
G01*
X99688111Y-132699537D02*
G75*
G02X101527867Y-133046089I746602J-1093154D01*
G01*
X99644809Y-132724538D02*
X99038592Y-133074538D01*
X174200000Y-122854000D02*
X170590000Y-122854000D01*
X174200000Y-118900000D02*
X174200000Y-122845000D01*
X163300000Y-116946000D02*
X171925000Y-116946000D01*
X163300000Y-120854000D02*
X163300000Y-116946000D01*
X163300000Y-120900000D02*
X168350000Y-120946000D01*
X174189000Y-118830000D02*
G75*
G03X171925000Y-116946000I-2074000J-190000D01*
G01*
X170585001Y-122829999D02*
G75*
G03X168325000Y-120950000I-2070000J-190001D01*
G01*
X165825000Y-131975000D02*
X170375000Y-131975000D01*
X165825000Y-127325000D02*
X168375000Y-127325000D01*
X170675000Y-125125000D02*
X175375000Y-125125000D01*
X171600000Y-129775000D02*
X175375000Y-129775000D01*
X165800001Y-127350000D02*
X165800001Y-131950000D01*
X175375000Y-125150000D02*
X175400000Y-129749999D01*
X170670000Y-125150000D02*
G75*
G02X168300000Y-127320000I-2270000J100000D01*
G01*
X170379999Y-131199999D02*
G75*
G02X171600000Y-129780000I1320000J99999D01*
G01*
X170380000Y-131250000D02*
X170380000Y-131950000D01*
X155100000Y-122854000D02*
X151490000Y-122854000D01*
X155100000Y-118900000D02*
X155100000Y-122845000D01*
X144200000Y-116946000D02*
X152825000Y-116946000D01*
X144200000Y-120854000D02*
X144200000Y-116946000D01*
X144200000Y-120900000D02*
X149250000Y-120946000D01*
X155089000Y-118830000D02*
G75*
G03X152825000Y-116946000I-2074000J-190000D01*
G01*
X151485001Y-122829999D02*
G75*
G03X149225000Y-120950000I-2070000J-190001D01*
G01*
X146725000Y-131975000D02*
X151275000Y-131975000D01*
X146725000Y-127325000D02*
X149275000Y-127325000D01*
X151575000Y-125125000D02*
X156275000Y-125125000D01*
X152500000Y-129775000D02*
X156275000Y-129775000D01*
X146700001Y-127350000D02*
X146700001Y-131950000D01*
X156275000Y-125150000D02*
X156300000Y-129749999D01*
X151570000Y-125150000D02*
G75*
G02X149200000Y-127320000I-2270000J100000D01*
G01*
X151279999Y-131199999D02*
G75*
G02X152500000Y-129780000I1320000J99999D01*
G01*
X151280000Y-131250000D02*
X151280000Y-131950000D01*
X136100000Y-125104000D02*
X132490000Y-125104000D01*
X136100000Y-121150000D02*
X136100000Y-125095000D01*
X125200000Y-119196000D02*
X133825000Y-119196000D01*
X125200000Y-123104000D02*
X125200000Y-119196000D01*
X125200000Y-123150000D02*
X130250000Y-123196000D01*
X136089000Y-121080000D02*
G75*
G03X133825000Y-119196000I-2074000J-190000D01*
G01*
X132485001Y-125079999D02*
G75*
G03X130225000Y-123200000I-2070000J-190001D01*
G01*
X127725000Y-134225000D02*
X132275000Y-134225000D01*
X127725000Y-129575000D02*
X130275000Y-129575000D01*
X132575000Y-127375000D02*
X137275000Y-127375000D01*
X133500000Y-132025000D02*
X137275000Y-132025000D01*
X127700001Y-129600000D02*
X127700001Y-134200000D01*
X137275000Y-127400000D02*
X137300000Y-131999999D01*
X132570000Y-127400000D02*
G75*
G02X130200000Y-129570000I-2270000J100000D01*
G01*
X132279999Y-133449999D02*
G75*
G02X133500000Y-132030000I1320000J99999D01*
G01*
X132280000Y-133500000D02*
X132280000Y-134200000D01*
X107500000Y-96604000D02*
X103890000Y-96604000D01*
X107500000Y-92650000D02*
X107500000Y-96595000D01*
X96600000Y-90696000D02*
X105225000Y-90696000D01*
X96600000Y-94604000D02*
X96600000Y-90696000D01*
X96600000Y-94650000D02*
X101650000Y-94696000D01*
X107489000Y-92580000D02*
G75*
G03X105225000Y-90696000I-2074000J-190000D01*
G01*
X103885001Y-96579999D02*
G75*
G03X101625000Y-94700000I-2070000J-190001D01*
G01*
X99125000Y-105725000D02*
X103675000Y-105725000D01*
X99125000Y-101075000D02*
X101675000Y-101075000D01*
X103975000Y-98875000D02*
X108675000Y-98875000D01*
X104900000Y-103525000D02*
X108675000Y-103525000D01*
X99100001Y-101100000D02*
X99100001Y-105700000D01*
X108675000Y-98900000D02*
X108700000Y-103499999D01*
X103970000Y-98900000D02*
G75*
G02X101600000Y-101070000I-2270000J100000D01*
G01*
X103679999Y-104949999D02*
G75*
G02X104900000Y-103530000I1320000J99999D01*
G01*
X103680000Y-105000000D02*
X103680000Y-105700000D01*
X221850000Y-110104000D02*
X218240000Y-110104000D01*
X221850000Y-106150000D02*
X221850000Y-110095000D01*
X210950000Y-104196000D02*
X219575000Y-104196000D01*
X210950000Y-108104000D02*
X210950000Y-104196000D01*
X210950000Y-108150000D02*
X216000000Y-108196000D01*
X221839000Y-106080000D02*
G75*
G03X219575000Y-104196000I-2074000J-190000D01*
G01*
X218235001Y-110079999D02*
G75*
G03X215975000Y-108200000I-2070000J-190001D01*
G01*
X213475000Y-119225000D02*
X218025000Y-119225000D01*
X213475000Y-114575000D02*
X216025000Y-114575000D01*
X218325000Y-112375000D02*
X223025000Y-112375000D01*
X219250000Y-117025000D02*
X223025000Y-117025000D01*
X213450001Y-114600000D02*
X213450001Y-119200000D01*
X223025000Y-112400000D02*
X223050000Y-116999999D01*
X218320000Y-112400000D02*
G75*
G02X215950000Y-114570000I-2270000J100000D01*
G01*
X218029999Y-118449999D02*
G75*
G02X219250000Y-117030000I1320000J99999D01*
G01*
X218030000Y-118500000D02*
X218030000Y-119200000D01*
X202800000Y-108604000D02*
X199190000Y-108604000D01*
X202800000Y-104650000D02*
X202800000Y-108595000D01*
X191900000Y-102696000D02*
X200525000Y-102696000D01*
X191900000Y-106604000D02*
X191900000Y-102696000D01*
X191900000Y-106650000D02*
X196950000Y-106696000D01*
X202789000Y-104580000D02*
G75*
G03X200525000Y-102696000I-2074000J-190000D01*
G01*
X199185001Y-108579999D02*
G75*
G03X196925000Y-106700000I-2070000J-190001D01*
G01*
X194425000Y-117725000D02*
X198975000Y-117725000D01*
X194425000Y-113075000D02*
X196975000Y-113075000D01*
X199275000Y-110875000D02*
X203975000Y-110875000D01*
X200200000Y-115525000D02*
X203975000Y-115525000D01*
X194400001Y-113100000D02*
X194400001Y-117700000D01*
X203975000Y-110900000D02*
X204000000Y-115499999D01*
X199270000Y-110900000D02*
G75*
G02X196900000Y-113070000I-2270000J100000D01*
G01*
X198979999Y-116949999D02*
G75*
G02X200200000Y-115530000I1320000J99999D01*
G01*
X198980000Y-117000000D02*
X198980000Y-117700000D01*
X183700000Y-103904000D02*
X180090000Y-103904000D01*
X183700000Y-99950000D02*
X183700000Y-103895000D01*
X172800000Y-97996000D02*
X181425000Y-97996000D01*
X172800000Y-101904000D02*
X172800000Y-97996000D01*
X172800000Y-101950000D02*
X177850000Y-101996000D01*
X183689000Y-99880000D02*
G75*
G03X181425000Y-97996000I-2074000J-190000D01*
G01*
X180085001Y-103879999D02*
G75*
G03X177825000Y-102000000I-2070000J-190001D01*
G01*
X175325000Y-113025000D02*
X179875000Y-113025000D01*
X175325000Y-108375000D02*
X177875000Y-108375000D01*
X180175000Y-106175000D02*
X184875000Y-106175000D01*
X181100000Y-110825000D02*
X184875000Y-110825000D01*
X175300001Y-108400000D02*
X175300001Y-113000000D01*
X184875000Y-106200000D02*
X184900000Y-110799999D01*
X180170000Y-106200000D02*
G75*
G02X177800000Y-108370000I-2270000J100000D01*
G01*
X179879999Y-112249999D02*
G75*
G02X181100000Y-110830000I1320000J99999D01*
G01*
X179880000Y-112300000D02*
X179880000Y-113000000D01*
X164700000Y-102504000D02*
X161090000Y-102504000D01*
X164700000Y-98550000D02*
X164700000Y-102495000D01*
X153800000Y-96596000D02*
X162425000Y-96596000D01*
X153800000Y-100504000D02*
X153800000Y-96596000D01*
X153800000Y-100550000D02*
X158850000Y-100596000D01*
X164689000Y-98480000D02*
G75*
G03X162425000Y-96596000I-2074000J-190000D01*
G01*
X161085001Y-102479999D02*
G75*
G03X158825000Y-100600000I-2070000J-190001D01*
G01*
X156325000Y-111625000D02*
X160875000Y-111625000D01*
X156325000Y-106975000D02*
X158875000Y-106975000D01*
X161175000Y-104775000D02*
X165875000Y-104775000D01*
X162100000Y-109425000D02*
X165875000Y-109425000D01*
X156300001Y-107000000D02*
X156300001Y-111600000D01*
X165875000Y-104800000D02*
X165900000Y-109399999D01*
X161170000Y-104800000D02*
G75*
G02X158800000Y-106970000I-2270000J100000D01*
G01*
X160879999Y-110849999D02*
G75*
G02X162100000Y-109430000I1320000J99999D01*
G01*
X160880000Y-110900000D02*
X160880000Y-111600000D01*
X145600000Y-103904000D02*
X141990000Y-103904000D01*
X145600000Y-99950000D02*
X145600000Y-103895000D01*
X134700000Y-97996000D02*
X143325000Y-97996000D01*
X134700000Y-101904000D02*
X134700000Y-97996000D01*
X134700000Y-101950000D02*
X139750000Y-101996000D01*
X145589000Y-99880000D02*
G75*
G03X143325000Y-97996000I-2074000J-190000D01*
G01*
X141985001Y-103879999D02*
G75*
G03X139725000Y-102000000I-2070000J-190001D01*
G01*
X137225000Y-113025000D02*
X141775000Y-113025000D01*
X137225000Y-108375000D02*
X139775000Y-108375000D01*
X142075000Y-106175000D02*
X146775000Y-106175000D01*
X143000000Y-110825000D02*
X146775000Y-110825000D01*
X137200001Y-108400000D02*
X137200001Y-113000000D01*
X146775000Y-106200000D02*
X146800000Y-110799999D01*
X142070000Y-106200000D02*
G75*
G02X139700000Y-108370000I-2270000J100000D01*
G01*
X141779999Y-112249999D02*
G75*
G02X143000000Y-110830000I1320000J99999D01*
G01*
X141780000Y-112300000D02*
X141780000Y-113000000D01*
X126600000Y-106204000D02*
X122990000Y-106204000D01*
X126600000Y-102250000D02*
X126600000Y-106195000D01*
X115700000Y-100296000D02*
X124325000Y-100296000D01*
X115700000Y-104204000D02*
X115700000Y-100296000D01*
X115700000Y-104250000D02*
X120750000Y-104296000D01*
X126589000Y-102180000D02*
G75*
G03X124325000Y-100296000I-2074000J-190000D01*
G01*
X122985001Y-106179999D02*
G75*
G03X120725000Y-104300000I-2070000J-190001D01*
G01*
X118225000Y-115325000D02*
X122775000Y-115325000D01*
X118225000Y-110675000D02*
X120775000Y-110675000D01*
X123075000Y-108475000D02*
X127775000Y-108475000D01*
X124000000Y-113125000D02*
X127775000Y-113125000D01*
X118200001Y-110700000D02*
X118200001Y-115300000D01*
X127775000Y-108500000D02*
X127800000Y-113099999D01*
X123070000Y-108500000D02*
G75*
G02X120700000Y-110670000I-2270000J100000D01*
G01*
X122779999Y-114549999D02*
G75*
G02X124000000Y-113130000I1320000J99999D01*
G01*
X122780000Y-114600000D02*
X122780000Y-115300000D01*
X221800000Y-91104000D02*
X218190000Y-91104000D01*
X221800000Y-87150000D02*
X221800000Y-91095000D01*
X210900000Y-85196000D02*
X219525000Y-85196000D01*
X210900000Y-89104000D02*
X210900000Y-85196000D01*
X210900000Y-89150000D02*
X215950000Y-89196000D01*
X221789000Y-87080000D02*
G75*
G03X219525000Y-85196000I-2074000J-190000D01*
G01*
X218185001Y-91079999D02*
G75*
G03X215925000Y-89200000I-2070000J-190001D01*
G01*
X213425000Y-100225000D02*
X217975000Y-100225000D01*
X213425000Y-95575000D02*
X215975000Y-95575000D01*
X218275000Y-93375000D02*
X222975000Y-93375000D01*
X219200000Y-98025000D02*
X222975000Y-98025000D01*
X213400001Y-95600000D02*
X213400001Y-100200000D01*
X222975000Y-93400000D02*
X223000000Y-97999999D01*
X218270000Y-93400000D02*
G75*
G02X215900000Y-95570000I-2270000J100000D01*
G01*
X217979999Y-99449999D02*
G75*
G02X219200000Y-98030000I1320000J99999D01*
G01*
X217980000Y-99500000D02*
X217980000Y-100200000D01*
X202800000Y-89604000D02*
X199190000Y-89604000D01*
X202800000Y-85650000D02*
X202800000Y-89595000D01*
X191900000Y-83696000D02*
X200525000Y-83696000D01*
X191900000Y-87604000D02*
X191900000Y-83696000D01*
X191900000Y-87650000D02*
X196950000Y-87696000D01*
X202789000Y-85580000D02*
G75*
G03X200525000Y-83696000I-2074000J-190000D01*
G01*
X199185001Y-89579999D02*
G75*
G03X196925000Y-87700000I-2070000J-190001D01*
G01*
X194425000Y-98725000D02*
X198975000Y-98725000D01*
X194425000Y-94075000D02*
X196975000Y-94075000D01*
X199275000Y-91875000D02*
X203975000Y-91875000D01*
X200200000Y-96525000D02*
X203975000Y-96525000D01*
X194400001Y-94100000D02*
X194400001Y-98700000D01*
X203975000Y-91900000D02*
X204000000Y-96499999D01*
X199270000Y-91900000D02*
G75*
G02X196900000Y-94070000I-2270000J100000D01*
G01*
X198979999Y-97949999D02*
G75*
G02X200200000Y-96530000I1320000J99999D01*
G01*
X198980000Y-98000000D02*
X198980000Y-98700000D01*
X183700000Y-84804000D02*
X180090000Y-84804000D01*
X183700000Y-80850000D02*
X183700000Y-84795000D01*
X172800000Y-78896000D02*
X181425000Y-78896000D01*
X172800000Y-82804000D02*
X172800000Y-78896000D01*
X172800000Y-82850000D02*
X177850000Y-82896000D01*
X183689000Y-80780000D02*
G75*
G03X181425000Y-78896000I-2074000J-190000D01*
G01*
X180085001Y-84779999D02*
G75*
G03X177825000Y-82900000I-2070000J-190001D01*
G01*
X175325000Y-93925000D02*
X179875000Y-93925000D01*
X175325000Y-89275000D02*
X177875000Y-89275000D01*
X180175000Y-87075000D02*
X184875000Y-87075000D01*
X181100000Y-91725000D02*
X184875000Y-91725000D01*
X175300001Y-89300000D02*
X175300001Y-93900000D01*
X184875000Y-87100000D02*
X184900000Y-91699999D01*
X180170000Y-87100000D02*
G75*
G02X177800000Y-89270000I-2270000J100000D01*
G01*
X179879999Y-93149999D02*
G75*
G02X181100000Y-91730000I1320000J99999D01*
G01*
X179880000Y-93200000D02*
X179880000Y-93900000D01*
X164700000Y-83504000D02*
X161090000Y-83504000D01*
X164700000Y-79550000D02*
X164700000Y-83495000D01*
X153800000Y-77596000D02*
X162425000Y-77596000D01*
X153800000Y-81504000D02*
X153800000Y-77596000D01*
X153800000Y-81550000D02*
X158850000Y-81596000D01*
X164689000Y-79480000D02*
G75*
G03X162425000Y-77596000I-2074000J-190000D01*
G01*
X161085001Y-83479999D02*
G75*
G03X158825000Y-81600000I-2070000J-190001D01*
G01*
X156325000Y-92625000D02*
X160875000Y-92625000D01*
X156325000Y-87975000D02*
X158875000Y-87975000D01*
X161175000Y-85775000D02*
X165875000Y-85775000D01*
X162100000Y-90425000D02*
X165875000Y-90425000D01*
X156300001Y-88000000D02*
X156300001Y-92600000D01*
X165875000Y-85800000D02*
X165900000Y-90399999D01*
X161170000Y-85800000D02*
G75*
G02X158800000Y-87970000I-2270000J100000D01*
G01*
X160879999Y-91849999D02*
G75*
G02X162100000Y-90430000I1320000J99999D01*
G01*
X160880000Y-91900000D02*
X160880000Y-92600000D01*
X145600000Y-84804000D02*
X141990000Y-84804000D01*
X145600000Y-80850000D02*
X145600000Y-84795000D01*
X134700000Y-78896000D02*
X143325000Y-78896000D01*
X134700000Y-82804000D02*
X134700000Y-78896000D01*
X134700000Y-82850000D02*
X139750000Y-82896000D01*
X145589000Y-80780000D02*
G75*
G03X143325000Y-78896000I-2074000J-190000D01*
G01*
X141985001Y-84779999D02*
G75*
G03X139725000Y-82900000I-2070000J-190001D01*
G01*
X137225000Y-93925000D02*
X141775000Y-93925000D01*
X137225000Y-89275000D02*
X139775000Y-89275000D01*
X142075000Y-87075000D02*
X146775000Y-87075000D01*
X143000000Y-91725000D02*
X146775000Y-91725000D01*
X137200001Y-89300000D02*
X137200001Y-93900000D01*
X146775000Y-87100000D02*
X146800000Y-91699999D01*
X142070000Y-87100000D02*
G75*
G02X139700000Y-89270000I-2270000J100000D01*
G01*
X141779999Y-93149999D02*
G75*
G02X143000000Y-91730000I1320000J99999D01*
G01*
X141780000Y-93200000D02*
X141780000Y-93900000D01*
X126600000Y-87204000D02*
X122990000Y-87204000D01*
X126600000Y-83250000D02*
X126600000Y-87195000D01*
X115700000Y-81296000D02*
X124325000Y-81296000D01*
X115700000Y-85204000D02*
X115700000Y-81296000D01*
X115700000Y-85250000D02*
X120750000Y-85296000D01*
X126589000Y-83180000D02*
G75*
G03X124325000Y-81296000I-2074000J-190000D01*
G01*
X122985001Y-87179999D02*
G75*
G03X120725000Y-85300000I-2070000J-190001D01*
G01*
X118225000Y-96325000D02*
X122775000Y-96325000D01*
X118225000Y-91675000D02*
X120775000Y-91675000D01*
X123075000Y-89475000D02*
X127775000Y-89475000D01*
X124000000Y-94125000D02*
X127775000Y-94125000D01*
X118200001Y-91700000D02*
X118200001Y-96300000D01*
X127775000Y-89500000D02*
X127800000Y-94099999D01*
X123070000Y-89500000D02*
G75*
G02X120700000Y-91670000I-2270000J100000D01*
G01*
X122779999Y-95549999D02*
G75*
G02X124000000Y-94130000I1320000J99999D01*
G01*
X122780000Y-95600000D02*
X122780000Y-96300000D01*
X221800000Y-71904000D02*
X218190000Y-71904000D01*
X221800000Y-67950000D02*
X221800000Y-71895000D01*
X210900000Y-65996000D02*
X219525000Y-65996000D01*
X210900000Y-69904000D02*
X210900000Y-65996000D01*
X210900000Y-69950000D02*
X215950000Y-69996000D01*
X221789000Y-67880000D02*
G75*
G03X219525000Y-65996000I-2074000J-190000D01*
G01*
X218185001Y-71879999D02*
G75*
G03X215925000Y-70000000I-2070000J-190001D01*
G01*
X213425000Y-81025000D02*
X217975000Y-81025000D01*
X213425000Y-76375000D02*
X215975000Y-76375000D01*
X218275000Y-74175000D02*
X222975000Y-74175000D01*
X219200000Y-78825000D02*
X222975000Y-78825000D01*
X213400001Y-76400000D02*
X213400001Y-81000000D01*
X222975000Y-74200000D02*
X223000000Y-78799999D01*
X218270000Y-74200000D02*
G75*
G02X215900000Y-76370000I-2270000J100000D01*
G01*
X217979999Y-80249999D02*
G75*
G02X219200000Y-78830000I1320000J99999D01*
G01*
X217980000Y-80300000D02*
X217980000Y-81000000D01*
X202800000Y-70404000D02*
X199190000Y-70404000D01*
X202800000Y-66450000D02*
X202800000Y-70395000D01*
X191900000Y-64496000D02*
X200525000Y-64496000D01*
X191900000Y-68404000D02*
X191900000Y-64496000D01*
X191900000Y-68450000D02*
X196950000Y-68496000D01*
X202789000Y-66380000D02*
G75*
G03X200525000Y-64496000I-2074000J-190000D01*
G01*
X199185001Y-70379999D02*
G75*
G03X196925000Y-68500000I-2070000J-190001D01*
G01*
X194425000Y-79525000D02*
X198975000Y-79525000D01*
X194425000Y-74875000D02*
X196975000Y-74875000D01*
X199275000Y-72675000D02*
X203975000Y-72675000D01*
X200200000Y-77325000D02*
X203975000Y-77325000D01*
X194400001Y-74900000D02*
X194400001Y-79500000D01*
X203975000Y-72700000D02*
X204000000Y-77299999D01*
X199270000Y-72700000D02*
G75*
G02X196900000Y-74870000I-2270000J100000D01*
G01*
X198979999Y-78749999D02*
G75*
G02X200200000Y-77330000I1320000J99999D01*
G01*
X198980000Y-78800000D02*
X198980000Y-79500000D01*
X183700000Y-65704000D02*
X180090000Y-65704000D01*
X183700000Y-61750000D02*
X183700000Y-65695000D01*
X172800000Y-59796000D02*
X181425000Y-59796000D01*
X172800000Y-63704000D02*
X172800000Y-59796000D01*
X172800000Y-63750000D02*
X177850000Y-63796000D01*
X183689000Y-61680000D02*
G75*
G03X181425000Y-59796000I-2074000J-190000D01*
G01*
X180085001Y-65679999D02*
G75*
G03X177825000Y-63800000I-2070000J-190001D01*
G01*
X175325000Y-74825000D02*
X179875000Y-74825000D01*
X175325000Y-70175000D02*
X177875000Y-70175000D01*
X180175000Y-67975000D02*
X184875000Y-67975000D01*
X181100000Y-72625000D02*
X184875000Y-72625000D01*
X175300001Y-70200000D02*
X175300001Y-74800000D01*
X184875000Y-68000000D02*
X184900000Y-72599999D01*
X180170000Y-68000000D02*
G75*
G02X177800000Y-70170000I-2270000J100000D01*
G01*
X179879999Y-74049999D02*
G75*
G02X181100000Y-72630000I1320000J99999D01*
G01*
X179880000Y-74100000D02*
X179880000Y-74800000D01*
X164700000Y-64404000D02*
X161090000Y-64404000D01*
X164700000Y-60450000D02*
X164700000Y-64395000D01*
X153800000Y-58496000D02*
X162425000Y-58496000D01*
X153800000Y-62404000D02*
X153800000Y-58496000D01*
X153800000Y-62450000D02*
X158850000Y-62496000D01*
X164689000Y-60380000D02*
G75*
G03X162425000Y-58496000I-2074000J-190000D01*
G01*
X161085001Y-64379999D02*
G75*
G03X158825000Y-62500000I-2070000J-190001D01*
G01*
X156325000Y-73525000D02*
X160875000Y-73525000D01*
X156325000Y-68875000D02*
X158875000Y-68875000D01*
X161175000Y-66675000D02*
X165875000Y-66675000D01*
X162100000Y-71325000D02*
X165875000Y-71325000D01*
X156300001Y-68900000D02*
X156300001Y-73500000D01*
X165875000Y-66700000D02*
X165900000Y-71299999D01*
X161170000Y-66700000D02*
G75*
G02X158800000Y-68870000I-2270000J100000D01*
G01*
X160879999Y-72749999D02*
G75*
G02X162100000Y-71330000I1320000J99999D01*
G01*
X160880000Y-72800000D02*
X160880000Y-73500000D01*
X145600000Y-65804000D02*
X141990000Y-65804000D01*
X145600000Y-61850000D02*
X145600000Y-65795000D01*
X134700000Y-59896000D02*
X143325000Y-59896000D01*
X134700000Y-63804000D02*
X134700000Y-59896000D01*
X134700000Y-63850000D02*
X139750000Y-63896000D01*
X145589000Y-61780000D02*
G75*
G03X143325000Y-59896000I-2074000J-190000D01*
G01*
X141985001Y-65779999D02*
G75*
G03X139725000Y-63900000I-2070000J-190001D01*
G01*
X137225000Y-74925000D02*
X141775000Y-74925000D01*
X137225000Y-70275000D02*
X139775000Y-70275000D01*
X142075000Y-68075000D02*
X146775000Y-68075000D01*
X143000000Y-72725000D02*
X146775000Y-72725000D01*
X137200001Y-70300000D02*
X137200001Y-74900000D01*
X146775000Y-68100000D02*
X146800000Y-72699999D01*
X142070000Y-68100000D02*
G75*
G02X139700000Y-70270000I-2270000J100000D01*
G01*
X141779999Y-74149999D02*
G75*
G02X143000000Y-72730000I1320000J99999D01*
G01*
X141780000Y-74200000D02*
X141780000Y-74900000D01*
X126600000Y-68204000D02*
X122990000Y-68204000D01*
X126600000Y-64250000D02*
X126600000Y-68195000D01*
X115700000Y-62296000D02*
X124325000Y-62296000D01*
X115700000Y-66204000D02*
X115700000Y-62296000D01*
X115700000Y-66250000D02*
X120750000Y-66296000D01*
X126589000Y-64180000D02*
G75*
G03X124325000Y-62296000I-2074000J-190000D01*
G01*
X122985001Y-68179999D02*
G75*
G03X120725000Y-66300000I-2070000J-190001D01*
G01*
X118225000Y-77325000D02*
X122775000Y-77325000D01*
X118225000Y-72675000D02*
X120775000Y-72675000D01*
X123075000Y-70475000D02*
X127775000Y-70475000D01*
X124000000Y-75125000D02*
X127775000Y-75125000D01*
X118200001Y-72700000D02*
X118200001Y-77300000D01*
X127775000Y-70500000D02*
X127800000Y-75099999D01*
X123070000Y-70500000D02*
G75*
G02X120700000Y-72670000I-2270000J100000D01*
G01*
X122779999Y-76549999D02*
G75*
G02X124000000Y-75130000I1320000J99999D01*
G01*
X122780000Y-76600000D02*
X122780000Y-77300000D01*
X221800000Y-53004000D02*
X218190000Y-53004000D01*
X221800000Y-49050000D02*
X221800000Y-52995000D01*
X210900000Y-47096000D02*
X219525000Y-47096000D01*
X210900000Y-51004000D02*
X210900000Y-47096000D01*
X210900000Y-51050000D02*
X215950000Y-51096000D01*
X221789000Y-48980000D02*
G75*
G03X219525000Y-47096000I-2074000J-190000D01*
G01*
X218185001Y-52979999D02*
G75*
G03X215925000Y-51100000I-2070000J-190001D01*
G01*
X213425000Y-62125000D02*
X217975000Y-62125000D01*
X213425000Y-57475000D02*
X215975000Y-57475000D01*
X218275000Y-55275000D02*
X222975000Y-55275000D01*
X219200000Y-59925000D02*
X222975000Y-59925000D01*
X213400001Y-57500000D02*
X213400001Y-62100000D01*
X222975000Y-55300000D02*
X223000000Y-59899999D01*
X218270000Y-55300000D02*
G75*
G02X215900000Y-57470000I-2270000J100000D01*
G01*
X217979999Y-61349999D02*
G75*
G02X219200000Y-59930000I1320000J99999D01*
G01*
X217980000Y-61400000D02*
X217980000Y-62100000D01*
X202800000Y-51504000D02*
X199190000Y-51504000D01*
X202800000Y-47550000D02*
X202800000Y-51495000D01*
X191900000Y-45596000D02*
X200525000Y-45596000D01*
X191900000Y-49504000D02*
X191900000Y-45596000D01*
X191900000Y-49550000D02*
X196950000Y-49596000D01*
X202789000Y-47480000D02*
G75*
G03X200525000Y-45596000I-2074000J-190000D01*
G01*
X199185001Y-51479999D02*
G75*
G03X196925000Y-49600000I-2070000J-190001D01*
G01*
X194425000Y-60625000D02*
X198975000Y-60625000D01*
X194425000Y-55975000D02*
X196975000Y-55975000D01*
X199275000Y-53775000D02*
X203975000Y-53775000D01*
X200200000Y-58425000D02*
X203975000Y-58425000D01*
X194400001Y-56000000D02*
X194400001Y-60600000D01*
X203975000Y-53800000D02*
X204000000Y-58399999D01*
X199270000Y-53800000D02*
G75*
G02X196900000Y-55970000I-2270000J100000D01*
G01*
X198979999Y-59849999D02*
G75*
G02X200200000Y-58430000I1320000J99999D01*
G01*
X198980000Y-59900000D02*
X198980000Y-60600000D01*
X183700000Y-46704000D02*
X180090000Y-46704000D01*
X183700000Y-42750000D02*
X183700000Y-46695000D01*
X172800000Y-40796000D02*
X181425000Y-40796000D01*
X172800000Y-44704000D02*
X172800000Y-40796000D01*
X172800000Y-44750000D02*
X177850000Y-44796000D01*
X183689000Y-42680000D02*
G75*
G03X181425000Y-40796000I-2074000J-190000D01*
G01*
X180085001Y-46679999D02*
G75*
G03X177825000Y-44800000I-2070000J-190001D01*
G01*
X175325000Y-55825000D02*
X179875000Y-55825000D01*
X175325000Y-51175000D02*
X177875000Y-51175000D01*
X180175000Y-48975000D02*
X184875000Y-48975000D01*
X181100000Y-53625000D02*
X184875000Y-53625000D01*
X175300001Y-51200000D02*
X175300001Y-55800000D01*
X184875000Y-49000000D02*
X184900000Y-53599999D01*
X180170000Y-49000000D02*
G75*
G02X177800000Y-51170000I-2270000J100000D01*
G01*
X179879999Y-55049999D02*
G75*
G02X181100000Y-53630000I1320000J99999D01*
G01*
X179880000Y-55100000D02*
X179880000Y-55800000D01*
X164700000Y-45314000D02*
X161090000Y-45314000D01*
X164700000Y-41360000D02*
X164700000Y-45305000D01*
X153800000Y-39406000D02*
X162425000Y-39406000D01*
X153800000Y-43314000D02*
X153800000Y-39406000D01*
X153800000Y-43360000D02*
X158850000Y-43406000D01*
X164689000Y-41290000D02*
G75*
G03X162425000Y-39406000I-2074000J-190000D01*
G01*
X161085001Y-45289999D02*
G75*
G03X158825000Y-43410000I-2070000J-190001D01*
G01*
X156325000Y-54435000D02*
X160875000Y-54435000D01*
X156325000Y-49785000D02*
X158875000Y-49785000D01*
X161175000Y-47585000D02*
X165875000Y-47585000D01*
X162100000Y-52235000D02*
X165875000Y-52235000D01*
X156300001Y-49810000D02*
X156300001Y-54410000D01*
X165875000Y-47610000D02*
X165900000Y-52209999D01*
X161170000Y-47610000D02*
G75*
G02X158800000Y-49780000I-2270000J100000D01*
G01*
X160879999Y-53659999D02*
G75*
G02X162100000Y-52240000I1320000J99999D01*
G01*
X160880000Y-53710000D02*
X160880000Y-54410000D01*
X145600000Y-46704000D02*
X141990000Y-46704000D01*
X145600000Y-42750000D02*
X145600000Y-46695000D01*
X134700000Y-40796000D02*
X143325000Y-40796000D01*
X134700000Y-44704000D02*
X134700000Y-40796000D01*
X134700000Y-44750000D02*
X139750000Y-44796000D01*
X145589000Y-42680000D02*
G75*
G03X143325000Y-40796000I-2074000J-190000D01*
G01*
X141985001Y-46679999D02*
G75*
G03X139725000Y-44800000I-2070000J-190001D01*
G01*
X137225000Y-55825000D02*
X141775000Y-55825000D01*
X137225000Y-51175000D02*
X139775000Y-51175000D01*
X142075000Y-48975000D02*
X146775000Y-48975000D01*
X143000000Y-53625000D02*
X146775000Y-53625000D01*
X137200001Y-51200000D02*
X137200001Y-55800000D01*
X146775000Y-49000000D02*
X146800000Y-53599999D01*
X142070000Y-49000000D02*
G75*
G02X139700000Y-51170000I-2270000J100000D01*
G01*
X141779999Y-55049999D02*
G75*
G02X143000000Y-53630000I1320000J99999D01*
G01*
X141780000Y-55100000D02*
X141780000Y-55800000D01*
X126600000Y-49104000D02*
X122990000Y-49104000D01*
X126600000Y-45150000D02*
X126600000Y-49095000D01*
X115700000Y-43196000D02*
X124325000Y-43196000D01*
X115700000Y-47104000D02*
X115700000Y-43196000D01*
X115700000Y-47150000D02*
X120750000Y-47196000D01*
X126589000Y-45080000D02*
G75*
G03X124325000Y-43196000I-2074000J-190000D01*
G01*
X122985001Y-49079999D02*
G75*
G03X120725000Y-47200000I-2070000J-190001D01*
G01*
X118225000Y-58225000D02*
X122775000Y-58225000D01*
X118225000Y-53575000D02*
X120775000Y-53575000D01*
X123075000Y-51375000D02*
X127775000Y-51375000D01*
X124000000Y-56025000D02*
X127775000Y-56025000D01*
X118200001Y-53600000D02*
X118200001Y-58200000D01*
X127775000Y-51400000D02*
X127800000Y-55999999D01*
X123070000Y-51400000D02*
G75*
G02X120700000Y-53570000I-2270000J100000D01*
G01*
X122779999Y-57449999D02*
G75*
G02X124000000Y-56030000I1320000J99999D01*
G01*
X122780000Y-57500000D02*
X122780000Y-58200000D01*
D12*
X107448815Y-71635745D02*
X109988815Y-71635745D01*
X94748815Y-41155745D02*
X92208815Y-41155745D01*
D10*
X92208815Y-41155745D02*
X92208815Y-71635745D01*
D12*
X92208815Y-38615745D02*
X92208815Y-71635745D01*
X109988815Y-38615745D02*
X92208815Y-38615745D01*
X92208815Y-71635745D02*
X94748815Y-71635745D01*
X109988815Y-41155745D02*
X107448815Y-41155745D01*
X109988815Y-71635745D02*
X109988815Y-38615745D01*
X107448815Y-41155745D02*
X107448815Y-71635745D01*
X94748815Y-71635745D02*
X94748815Y-41155745D01*
D10*
X109988815Y-71635745D02*
X109988815Y-41155745D01*
X85700000Y-61700000D02*
X85700000Y-59700000D01*
X85700000Y-59700000D02*
X83700000Y-59700000D01*
X83700000Y-59700000D02*
X83700000Y-61700000D01*
X83700000Y-61700000D02*
X85700000Y-61700000D01*
X85900000Y-61700000D02*
X87900000Y-61700000D01*
X85900000Y-59700000D02*
X85900000Y-61700000D01*
X87900000Y-59700000D02*
X85900000Y-59700000D01*
X87900000Y-61700000D02*
X87900000Y-59700000D01*
X87938795Y-57540412D02*
X87938795Y-54538132D01*
X85937275Y-57540412D02*
X87938795Y-57540412D01*
X85937275Y-54538132D02*
X85937275Y-57540412D01*
X87938795Y-54538132D02*
X85937275Y-54538132D01*
X85688795Y-54538132D02*
X83687275Y-54538132D01*
X83687275Y-54538132D02*
X83687275Y-57540412D01*
X83687275Y-57540412D02*
X85688795Y-57540412D01*
X85688795Y-57540412D02*
X85688795Y-54538132D01*
X105189000Y-70443000D02*
X103411000Y-70443000D01*
X105189000Y-68157000D02*
X105189000Y-70443000D01*
X103411000Y-68157000D02*
X105189000Y-68157000D01*
X103411000Y-70443000D02*
X103411000Y-68157000D01*
X100811000Y-70443000D02*
X100811000Y-68157000D01*
X100811000Y-68157000D02*
X102589000Y-68157000D01*
X102589000Y-68157000D02*
X102589000Y-70443000D01*
X102589000Y-70443000D02*
X100811000Y-70443000D01*
X100089000Y-70443000D02*
X98311000Y-70443000D01*
X100089000Y-68157000D02*
X100089000Y-70443000D01*
X98311000Y-68157000D02*
X100089000Y-68157000D01*
X98311000Y-70443000D02*
X98311000Y-68157000D01*
X95811000Y-70443000D02*
X95811000Y-68157000D01*
X95811000Y-68157000D02*
X97589000Y-68157000D01*
X97589000Y-68157000D02*
X97589000Y-70443000D01*
X97589000Y-70443000D02*
X95811000Y-70443000D01*
X83200000Y-64700000D02*
X83200000Y-70700000D01*
X86700000Y-70700000D02*
X86700000Y-64700000D01*
X83200000Y-64700000D02*
X83700000Y-64700000D01*
X86700000Y-64700000D02*
X86300000Y-64700000D01*
X86700000Y-70700000D02*
X86300000Y-70700000D01*
X83200000Y-70700000D02*
X83700000Y-70700000D01*
X89889000Y-61843000D02*
X88111000Y-61843000D01*
X89889000Y-59557000D02*
X89889000Y-61843000D01*
X88111000Y-59557000D02*
X89889000Y-59557000D01*
X88111000Y-61843000D02*
X88111000Y-59557000D01*
X114800000Y-57300000D02*
X114800000Y-58700000D01*
X114800000Y-58700000D02*
X113900000Y-58000000D01*
X113900000Y-58000000D02*
X114800000Y-57300000D01*
X113900000Y-57300000D02*
X113900000Y-58700000D01*
X134700000Y-55000000D02*
X134700000Y-56400000D01*
X134700000Y-56400000D02*
X133800000Y-55700000D01*
X133800000Y-55700000D02*
X134700000Y-55000000D01*
X133800000Y-55000000D02*
X133800000Y-56400000D01*
X152900000Y-53500000D02*
X152900000Y-54900000D01*
X152900000Y-54900000D02*
X152000000Y-54200000D01*
X152000000Y-54200000D02*
X152900000Y-53500000D01*
X152000000Y-53500000D02*
X152000000Y-54900000D01*
X171900000Y-54900000D02*
X171900000Y-56300000D01*
X171900000Y-56300000D02*
X171000000Y-55600000D01*
X171000000Y-55600000D02*
X171900000Y-54900000D01*
X171000000Y-54900000D02*
X171000000Y-56300000D01*
X190100000Y-59700000D02*
X190100000Y-61100000D01*
X190100000Y-60400000D02*
X191000000Y-59700000D01*
X191000000Y-61100000D02*
X190100000Y-60400000D01*
X191000000Y-59700000D02*
X191000000Y-61100000D01*
X222200000Y-61100000D02*
X222200000Y-62500000D01*
X222200000Y-62500000D02*
X221300000Y-61800000D01*
X221300000Y-61800000D02*
X222200000Y-61100000D01*
X221300000Y-61100000D02*
X221300000Y-62500000D01*
X113900000Y-60400000D02*
X113900000Y-61800000D01*
X113900000Y-61100000D02*
X114800000Y-60400000D01*
X114800000Y-61800000D02*
X113900000Y-61100000D01*
X114800000Y-60400000D02*
X114800000Y-61800000D01*
X134800000Y-58000000D02*
X134800000Y-59400000D01*
X134800000Y-58700000D02*
X135700000Y-58000000D01*
X135700000Y-59400000D02*
X134800000Y-58700000D01*
X135700000Y-58000000D02*
X135700000Y-59400000D01*
X152100000Y-56700000D02*
X152100000Y-58100000D01*
X152100000Y-57400000D02*
X153000000Y-56700000D01*
X153000000Y-58100000D02*
X152100000Y-57400000D01*
X153000000Y-56700000D02*
X153000000Y-58100000D01*
X171900000Y-58000000D02*
X171900000Y-59400000D01*
X171900000Y-59400000D02*
X171000000Y-58700000D01*
X171000000Y-58700000D02*
X171900000Y-58000000D01*
X171000000Y-58000000D02*
X171000000Y-59400000D01*
X190100000Y-62600000D02*
X190100000Y-64000000D01*
X190100000Y-63300000D02*
X191000000Y-62600000D01*
X191000000Y-64000000D02*
X190100000Y-63300000D01*
X191000000Y-62600000D02*
X191000000Y-64000000D01*
X221300000Y-64200000D02*
X221300000Y-65600000D01*
X221300000Y-64900000D02*
X222200000Y-64200000D01*
X222200000Y-65600000D02*
X221300000Y-64900000D01*
X222200000Y-64200000D02*
X222200000Y-65600000D01*
X114800000Y-95300000D02*
X114800000Y-96700000D01*
X114800000Y-96700000D02*
X113900000Y-96000000D01*
X113900000Y-96000000D02*
X114800000Y-95300000D01*
X113900000Y-95300000D02*
X113900000Y-96700000D01*
X133800000Y-93100000D02*
X133800000Y-94500000D01*
X133800000Y-93800000D02*
X134700000Y-93100000D01*
X134700000Y-94500000D02*
X133800000Y-93800000D01*
X134700000Y-93100000D02*
X134700000Y-94500000D01*
X152000000Y-91600000D02*
X152000000Y-93000000D01*
X152000000Y-92300000D02*
X152900000Y-91600000D01*
X152900000Y-93000000D02*
X152000000Y-92300000D01*
X152900000Y-91600000D02*
X152900000Y-93000000D01*
X171900000Y-92900000D02*
X171900000Y-94300000D01*
X171900000Y-94300000D02*
X171000000Y-93600000D01*
X171000000Y-93600000D02*
X171900000Y-92900000D01*
X171000000Y-92900000D02*
X171000000Y-94300000D01*
X191000000Y-97600000D02*
X191000000Y-99000000D01*
X191000000Y-99000000D02*
X190100000Y-98300000D01*
X190100000Y-98300000D02*
X191000000Y-97600000D01*
X190100000Y-97600000D02*
X190100000Y-99000000D01*
X221300000Y-99200000D02*
X221300000Y-100600000D01*
X221300000Y-99900000D02*
X222200000Y-99200000D01*
X222200000Y-100600000D02*
X221300000Y-99900000D01*
X222200000Y-99200000D02*
X222200000Y-100600000D01*
X113900000Y-98400000D02*
X113900000Y-99800000D01*
X113900000Y-99100000D02*
X114800000Y-98400000D01*
X114800000Y-99800000D02*
X113900000Y-99100000D01*
X114800000Y-98400000D02*
X114800000Y-99800000D01*
X135700000Y-96100000D02*
X135700000Y-97500000D01*
X135700000Y-97500000D02*
X134800000Y-96800000D01*
X134800000Y-96800000D02*
X135700000Y-96100000D01*
X134800000Y-96100000D02*
X134800000Y-97500000D01*
X152000000Y-94700000D02*
X152000000Y-96100000D01*
X152000000Y-95400000D02*
X152900000Y-94700000D01*
X152900000Y-96100000D02*
X152000000Y-95400000D01*
X152900000Y-94700000D02*
X152900000Y-96100000D01*
X171900000Y-96100000D02*
X171900000Y-97500000D01*
X171900000Y-97500000D02*
X171000000Y-96800000D01*
X171000000Y-96800000D02*
X171900000Y-96100000D01*
X171000000Y-96100000D02*
X171000000Y-97500000D01*
X190100000Y-100800000D02*
X190100000Y-102200000D01*
X190100000Y-101500000D02*
X191000000Y-100800000D01*
X191000000Y-102200000D02*
X190100000Y-101500000D01*
X191000000Y-100800000D02*
X191000000Y-102200000D01*
X222300000Y-102400000D02*
X222300000Y-103800000D01*
X222300000Y-103800000D02*
X221400000Y-103100000D01*
X221400000Y-103100000D02*
X222300000Y-102400000D01*
X221400000Y-102400000D02*
X221400000Y-103800000D01*
X106000000Y-88800000D02*
X106000000Y-90200000D01*
X106000000Y-90200000D02*
X105100000Y-89500000D01*
X105100000Y-89500000D02*
X106000000Y-88800000D01*
X105100000Y-88800000D02*
X105100000Y-90200000D01*
X110156218Y-118516987D02*
X108943782Y-119216987D01*
X109550000Y-118866987D02*
X110606218Y-119296410D01*
X109393782Y-119996410D02*
X109550000Y-118866987D01*
X110606218Y-119296410D02*
X109393782Y-119996410D01*
X124300000Y-117300000D02*
X124300000Y-118700000D01*
X124300000Y-118700000D02*
X123400000Y-118000000D01*
X123400000Y-118000000D02*
X124300000Y-117300000D01*
X123400000Y-117300000D02*
X123400000Y-118700000D01*
X142400000Y-115100000D02*
X142400000Y-116500000D01*
X142400000Y-115800000D02*
X143300000Y-115100000D01*
X143300000Y-116500000D02*
X142400000Y-115800000D01*
X143300000Y-115100000D02*
X143300000Y-116500000D01*
X162400000Y-115100000D02*
X162400000Y-116500000D01*
X162400000Y-116500000D02*
X161500000Y-115800000D01*
X161500000Y-115800000D02*
X162400000Y-115100000D01*
X161500000Y-115100000D02*
X161500000Y-116500000D01*
X95430000Y-75870000D02*
X105590000Y-75870000D01*
X95430000Y-73330000D02*
X105590000Y-73330000D01*
X105590000Y-73330000D02*
X105590000Y-75870000D01*
X95430000Y-75870000D02*
X95430000Y-73330000D01*
X113833333Y-80261904D02*
X114100000Y-81061904D01*
X114366666Y-80261904D01*
X115090476Y-80985714D02*
X115052380Y-81023809D01*
X114938095Y-81061904D01*
X114861904Y-81061904D01*
X114747619Y-81023809D01*
X114671428Y-80947619D01*
X114633333Y-80871428D01*
X114595238Y-80719047D01*
X114595238Y-80604761D01*
X114633333Y-80452380D01*
X114671428Y-80376190D01*
X114747619Y-80300000D01*
X114861904Y-80261904D01*
X114938095Y-80261904D01*
X115052380Y-80300000D01*
X115090476Y-80338095D01*
X115890476Y-80985714D02*
X115852380Y-81023809D01*
X115738095Y-81061904D01*
X115661904Y-81061904D01*
X115547619Y-81023809D01*
X115471428Y-80947619D01*
X115433333Y-80871428D01*
X115395238Y-80719047D01*
X115395238Y-80604761D01*
X115433333Y-80452380D01*
X115471428Y-80376190D01*
X115547619Y-80300000D01*
X115661904Y-80261904D01*
X115738095Y-80261904D01*
X115852380Y-80300000D01*
X115890476Y-80338095D01*
X114290476Y-76200000D02*
X114214285Y-76161904D01*
X114100000Y-76161904D01*
X113985714Y-76200000D01*
X113909523Y-76276190D01*
X113871428Y-76352380D01*
X113833333Y-76504761D01*
X113833333Y-76619047D01*
X113871428Y-76771428D01*
X113909523Y-76847619D01*
X113985714Y-76923809D01*
X114100000Y-76961904D01*
X114176190Y-76961904D01*
X114290476Y-76923809D01*
X114328571Y-76885714D01*
X114328571Y-76619047D01*
X114176190Y-76619047D01*
X114671428Y-76961904D02*
X114671428Y-76161904D01*
X115128571Y-76961904D01*
X115128571Y-76161904D01*
X115509523Y-76961904D02*
X115509523Y-76161904D01*
X115700000Y-76161904D01*
X115814285Y-76200000D01*
X115890476Y-76276190D01*
X115928571Y-76352380D01*
X115966666Y-76504761D01*
X115966666Y-76619047D01*
X115928571Y-76771428D01*
X115890476Y-76847619D01*
X115814285Y-76923809D01*
X115700000Y-76961904D01*
X115509523Y-76961904D01*
X114385714Y-78961904D02*
X114004761Y-78961904D01*
X114004761Y-78161904D01*
X114652380Y-78542857D02*
X114919047Y-78542857D01*
X115033333Y-78961904D02*
X114652380Y-78961904D01*
X114652380Y-78161904D01*
X115033333Y-78161904D01*
X115376190Y-78961904D02*
X115376190Y-78161904D01*
X115566666Y-78161904D01*
X115680952Y-78200000D01*
X115757142Y-78276190D01*
X115795238Y-78352380D01*
X115833333Y-78504761D01*
X115833333Y-78619047D01*
X115795238Y-78771428D01*
X115757142Y-78847619D01*
X115680952Y-78923809D01*
X115566666Y-78961904D01*
X115376190Y-78961904D01*
X84100076Y-62739639D02*
X84100076Y-61926839D01*
X84409714Y-61926839D01*
X84487123Y-61965544D01*
X84525828Y-62004248D01*
X84564533Y-62081658D01*
X84564533Y-62197772D01*
X84525828Y-62275182D01*
X84487123Y-62313886D01*
X84409714Y-62352591D01*
X84100076Y-62352591D01*
X85338628Y-62739639D02*
X84874171Y-62739639D01*
X85106400Y-62739639D02*
X85106400Y-61926839D01*
X85028990Y-62042953D01*
X84951580Y-62120363D01*
X84874171Y-62159067D01*
X86300076Y-62739639D02*
X86300076Y-61926839D01*
X86609714Y-61926839D01*
X86687123Y-61965544D01*
X86725828Y-62004248D01*
X86764533Y-62081658D01*
X86764533Y-62197772D01*
X86725828Y-62275182D01*
X86687123Y-62313886D01*
X86609714Y-62352591D01*
X86300076Y-62352591D01*
X87074171Y-62004248D02*
X87112876Y-61965544D01*
X87190285Y-61926839D01*
X87383809Y-61926839D01*
X87461219Y-61965544D01*
X87499923Y-62004248D01*
X87538628Y-62081658D01*
X87538628Y-62159067D01*
X87499923Y-62275182D01*
X87035466Y-62739639D01*
X87538628Y-62739639D01*
X87267695Y-56135466D02*
X86880647Y-56406400D01*
X87267695Y-56599923D02*
X86454895Y-56599923D01*
X86454895Y-56290285D01*
X86493600Y-56212876D01*
X86532304Y-56174171D01*
X86609714Y-56135466D01*
X86725828Y-56135466D01*
X86803238Y-56174171D01*
X86841942Y-56212876D01*
X86880647Y-56290285D01*
X86880647Y-56599923D01*
X86532304Y-55825828D02*
X86493600Y-55787123D01*
X86454895Y-55709714D01*
X86454895Y-55516190D01*
X86493600Y-55438780D01*
X86532304Y-55400076D01*
X86609714Y-55361371D01*
X86687123Y-55361371D01*
X86803238Y-55400076D01*
X87267695Y-55864533D01*
X87267695Y-55361371D01*
X85067695Y-56135466D02*
X84680647Y-56406400D01*
X85067695Y-56599923D02*
X84254895Y-56599923D01*
X84254895Y-56290285D01*
X84293600Y-56212876D01*
X84332304Y-56174171D01*
X84409714Y-56135466D01*
X84525828Y-56135466D01*
X84603238Y-56174171D01*
X84641942Y-56212876D01*
X84680647Y-56290285D01*
X84680647Y-56599923D01*
X85067695Y-55361371D02*
X85067695Y-55825828D01*
X85067695Y-55593600D02*
X84254895Y-55593600D01*
X84371009Y-55671009D01*
X84448419Y-55748419D01*
X84487123Y-55825828D01*
X85361904Y-68861904D02*
X84980952Y-69128571D01*
X85361904Y-69319047D02*
X84561904Y-69319047D01*
X84561904Y-69014285D01*
X84600000Y-68938095D01*
X84638095Y-68900000D01*
X84714285Y-68861904D01*
X84828571Y-68861904D01*
X84904761Y-68900000D01*
X84942857Y-68938095D01*
X84980952Y-69014285D01*
X84980952Y-69319047D01*
X84942857Y-68519047D02*
X84942857Y-68252380D01*
X85361904Y-68138095D02*
X85361904Y-68519047D01*
X84561904Y-68519047D01*
X84561904Y-68138095D01*
X85323809Y-67833333D02*
X85361904Y-67719047D01*
X85361904Y-67528571D01*
X85323809Y-67452380D01*
X85285714Y-67414285D01*
X85209523Y-67376190D01*
X85133333Y-67376190D01*
X85057142Y-67414285D01*
X85019047Y-67452380D01*
X84980952Y-67528571D01*
X84942857Y-67680952D01*
X84904761Y-67757142D01*
X84866666Y-67795238D01*
X84790476Y-67833333D01*
X84714285Y-67833333D01*
X84638095Y-67795238D01*
X84600000Y-67757142D01*
X84561904Y-67680952D01*
X84561904Y-67490476D01*
X84600000Y-67376190D01*
X84942857Y-67033333D02*
X84942857Y-66766666D01*
X85361904Y-66652380D02*
X85361904Y-67033333D01*
X84561904Y-67033333D01*
X84561904Y-66652380D01*
X84561904Y-66423809D02*
X84561904Y-65966666D01*
X85361904Y-66195238D02*
X84561904Y-66195238D01*
M02*
