G04 #@! TF.GenerationSoftware,KiCad,Pcbnew,5.1.5-52549c5~84~ubuntu18.04.1*
G04 #@! TF.CreationDate,2019-12-02T10:01:40+01:00*
G04 #@! TF.ProjectId,Lily58_Pro_OneForAll,4c696c79-3538-45f5-9072-6f5f4f6e6546,rev?*
G04 #@! TF.SameCoordinates,Original*
G04 #@! TF.FileFunction,Profile,NP*
%FSLAX46Y46*%
G04 Gerber Fmt 4.6, Leading zero omitted, Abs format (unit mm)*
G04 Created by KiCad (PCBNEW 5.1.5-52549c5~84~ubuntu18.04.1) date 2019-12-02 10:01:40*
%MOMM*%
%LPD*%
G04 APERTURE LIST*
%ADD10C,0.200000*%
G04 APERTURE END LIST*
D10*
X308884965Y-84538774D02*
X308884965Y-84538774D01*
X311135400Y-103539331D02*
X311135400Y-117539526D01*
X311135400Y-117539526D02*
X297135379Y-117539526D01*
X297135379Y-117539526D02*
X297135379Y-103539331D01*
X297135379Y-103539331D02*
X311135400Y-103539331D01*
X311135400Y-103539331D02*
X311135400Y-103539331D01*
X289935122Y-94037718D02*
X289935122Y-108037912D01*
X225034872Y-31840245D02*
X225034872Y-17839780D01*
X256435563Y-36839075D02*
X256435563Y-50839269D01*
X256435563Y-50839269D02*
X242435542Y-50839269D01*
X242435542Y-50839269D02*
X242435542Y-36839075D01*
X242435542Y-36839075D02*
X256435563Y-36839075D01*
X256435563Y-36839075D02*
X256435563Y-36839075D01*
X289935336Y-55938564D02*
X289935336Y-69938758D01*
X289935336Y-69938758D02*
X275935315Y-69938758D01*
X239035338Y-17839780D02*
X239035338Y-31840245D01*
X292236571Y-127039105D02*
X278236550Y-127039105D01*
X278236550Y-127039105D02*
X278236550Y-113038911D01*
X278236550Y-113038911D02*
X292236571Y-113038911D01*
X292236571Y-113038911D02*
X292236571Y-113038911D01*
X307697016Y-125976245D02*
X314697113Y-138100769D01*
X314697113Y-138100769D02*
X302572739Y-145100780D01*
X302572739Y-145100780D02*
X295572642Y-132976256D01*
X295572642Y-132976256D02*
X307697016Y-125976245D01*
X263136541Y-17837892D02*
X277136562Y-17837892D01*
X277136562Y-17837892D02*
X277136562Y-17837892D01*
X263279496Y-129857580D02*
X217435250Y-129857580D01*
X277136562Y-17837892D02*
X277136562Y-31838086D01*
X277136562Y-31838086D02*
X263136541Y-31838086D01*
X296135248Y-31789310D02*
X282135227Y-31789310D01*
X282135227Y-31789310D02*
X282135227Y-17789116D01*
X282135227Y-17789116D02*
X296135248Y-17789116D01*
X307697016Y-125976245D02*
X307697016Y-125976245D01*
X282635392Y-132186532D02*
X282635392Y-146138722D01*
X282635392Y-146138722D02*
X268635371Y-146138722D01*
X268635371Y-146138722D02*
X268635371Y-132186532D01*
X268635371Y-132186532D02*
X282635392Y-132186532D01*
X282635392Y-132186532D02*
X282635392Y-132186532D01*
X265479398Y-155402307D02*
X265479594Y-132057215D01*
X254236477Y-113037894D02*
X254236477Y-127038088D01*
X217080411Y-32119325D02*
X216870225Y-34140318D01*
X216870225Y-34140318D02*
X216670719Y-36251929D01*
X216670719Y-36251929D02*
X216482291Y-38450513D01*
X216482291Y-38450513D02*
X216305338Y-40732429D01*
X216305338Y-40732429D02*
X216140257Y-43094033D01*
X216140257Y-43094033D02*
X215987446Y-45531683D01*
X298806802Y-15995932D02*
X298894137Y-16277588D01*
X298894137Y-16277588D02*
X298924584Y-16580084D01*
X257934175Y-17839780D02*
X257934175Y-31840245D01*
X215229866Y-70291466D02*
X215221611Y-73289203D01*
X221571605Y-15080084D02*
X297424584Y-15080084D01*
X232734874Y-94038610D02*
X232734874Y-108038804D01*
X256836590Y-94037718D02*
X270836611Y-94037718D01*
X270836611Y-94037718D02*
X270836611Y-94037718D01*
X251835632Y-94038610D02*
X251835632Y-108038804D01*
X251835632Y-108038804D02*
X237835611Y-108038804D01*
X237835611Y-108038804D02*
X237835611Y-94038610D01*
X321406606Y-136083326D02*
X320436467Y-134407631D01*
X320436467Y-134407631D02*
X319466328Y-132731937D01*
X319466328Y-132731937D02*
X318496189Y-131056242D01*
X318496189Y-131056242D02*
X317526050Y-129380548D01*
X317526050Y-129380548D02*
X316555911Y-127704853D01*
X316555911Y-127704853D02*
X315585772Y-126029159D01*
X315585772Y-126029159D02*
X314615634Y-124353465D01*
X314615634Y-124353465D02*
X313645495Y-122677770D01*
X215720224Y-50620545D02*
X215606607Y-53264472D01*
X302424584Y-62220736D02*
X301718760Y-62149693D01*
X301718760Y-62149693D02*
X301061562Y-61945910D01*
X301061562Y-61945910D02*
X300467009Y-61623406D01*
X300467009Y-61623406D02*
X299949120Y-61196200D01*
X299949120Y-61196200D02*
X299521914Y-60678311D01*
X299521914Y-60678311D02*
X299199410Y-60083758D01*
X299199410Y-60083758D02*
X298995627Y-59426560D01*
X289935122Y-108037912D02*
X275935101Y-108037912D01*
X275935101Y-108037912D02*
X275935101Y-94037718D01*
X275935101Y-94037718D02*
X289935122Y-94037718D01*
X289935122Y-94037718D02*
X289935122Y-94037718D01*
X270836611Y-94037718D02*
X270836611Y-108037912D01*
X270836611Y-108037912D02*
X256836590Y-108037912D01*
X256836590Y-108037912D02*
X256836590Y-94037718D01*
X292357308Y-153170573D02*
X293074000Y-152892225D01*
X293074000Y-152892225D02*
X293790692Y-152613878D01*
X293790692Y-152613878D02*
X294507385Y-152335531D01*
X294507385Y-152335531D02*
X295224077Y-152057184D01*
X295224077Y-152057184D02*
X295728364Y-151828814D01*
X295728364Y-151828814D02*
X296232652Y-151600444D01*
X296232652Y-151600444D02*
X296736939Y-151372074D01*
X285351772Y-155239783D02*
X286462038Y-154948941D01*
X286462038Y-154948941D02*
X287572303Y-154658099D01*
X287572303Y-154658099D02*
X288682569Y-154367258D01*
X288682569Y-154367258D02*
X289601254Y-154068086D01*
X289601254Y-154068086D02*
X290519938Y-153768915D01*
X290519938Y-153768915D02*
X291438623Y-153469744D01*
X291438623Y-153469744D02*
X292357308Y-153170573D01*
X237535463Y-50838127D02*
X223535442Y-50838127D01*
X223535442Y-50838127D02*
X223535442Y-36837933D01*
X223535442Y-36837933D02*
X237535463Y-36837933D01*
X237535463Y-36837933D02*
X237535463Y-36837933D01*
X294634326Y-36838063D02*
X294634326Y-50838257D01*
X294634326Y-50838257D02*
X280634305Y-50838257D01*
X280634305Y-50838257D02*
X280634305Y-36838063D01*
X276151389Y-156917502D02*
X277613579Y-156730780D01*
X277613579Y-156730780D02*
X279075770Y-156544058D01*
X279075770Y-156544058D02*
X280367204Y-156290700D01*
X280367204Y-156290700D02*
X281658639Y-156037341D01*
X281658639Y-156037341D02*
X282950073Y-155783983D01*
X282950073Y-155783983D02*
X284241507Y-155530624D01*
X284241507Y-155530624D02*
X285351772Y-155239783D01*
X294886000Y-65438000D02*
X308886465Y-65438000D01*
X243936249Y-31840245D02*
X243936249Y-17839780D01*
X308886465Y-79438465D02*
X304458747Y-79438465D01*
X294886000Y-79438465D02*
X294886000Y-65438000D01*
X297424584Y-15080084D02*
X297727080Y-15110531D01*
X215294709Y-64418482D02*
X215254364Y-67333345D01*
X215254364Y-67333345D02*
X215229866Y-70291466D01*
X308886465Y-65438000D02*
X308886465Y-79438465D01*
X304458747Y-79438465D02*
X294886000Y-79438465D01*
X257934175Y-31840245D02*
X243936249Y-31840245D01*
X221571605Y-15080084D02*
X221244584Y-15155751D01*
X221244584Y-15155751D02*
X220921884Y-15380323D01*
X235135168Y-113038911D02*
X235135168Y-127039105D01*
X235135168Y-127039105D02*
X221135147Y-127039105D01*
X221135147Y-127039105D02*
X221135147Y-113038911D01*
X221135147Y-113038911D02*
X235135168Y-113038911D01*
X235135168Y-113038911D02*
X235135168Y-113038911D01*
X237835611Y-94038610D02*
X251835632Y-94038610D01*
X251835632Y-94038610D02*
X251835632Y-94038610D01*
X296135248Y-17789116D02*
X296135248Y-17789116D01*
X296135248Y-17789116D02*
X296135248Y-31789310D01*
X215394359Y-128514576D02*
X215597076Y-128888228D01*
X215597076Y-128888228D02*
X215865605Y-129213700D01*
X215865605Y-129213700D02*
X216191136Y-129482182D01*
X216191136Y-129482182D02*
X216564855Y-129684863D01*
X216564855Y-129684863D02*
X216977950Y-129812932D01*
X216977950Y-129812932D02*
X217421611Y-129857580D01*
X296736939Y-151372074D02*
X297241227Y-151143705D01*
X297241227Y-151143705D02*
X297522698Y-150994466D01*
X297522698Y-150994466D02*
X297804169Y-150845228D01*
X297804169Y-150845228D02*
X298085639Y-150695989D01*
X298085639Y-150695989D02*
X298367110Y-150546750D01*
X215221611Y-73289203D02*
X215221611Y-127657972D01*
X237535463Y-36837933D02*
X237535463Y-50838127D01*
X321506283Y-136264045D02*
X321406606Y-136083326D01*
X267681730Y-157601717D02*
X269068049Y-157524024D01*
X269068049Y-157524024D02*
X270454368Y-157446331D01*
X270454368Y-157446331D02*
X271840688Y-157368638D01*
X271840688Y-157368638D02*
X273227007Y-157290945D01*
X273227007Y-157290945D02*
X274689198Y-157104223D01*
X274689198Y-157104223D02*
X276151389Y-156917502D01*
X239035338Y-31840245D02*
X225034872Y-31840245D01*
X321259326Y-137093801D02*
X321377766Y-136998158D01*
X321377766Y-136998158D02*
X321472487Y-136847732D01*
X321472487Y-136847732D02*
X321523539Y-136736568D01*
X321523539Y-136736568D02*
X321556991Y-136628983D01*
X321556991Y-136628983D02*
X321558149Y-136515042D01*
X321558149Y-136515042D02*
X321547525Y-136391528D01*
X321547525Y-136391528D02*
X321506283Y-136264045D01*
X225034872Y-17839780D02*
X239035338Y-17839780D01*
X275935315Y-69938758D02*
X275935315Y-55938564D01*
X275935315Y-55938564D02*
X289935336Y-55938564D01*
X289935336Y-55938564D02*
X289935336Y-55938564D01*
X270834363Y-55937800D02*
X270834363Y-69937994D01*
X270834363Y-69937994D02*
X256834342Y-69937994D01*
X256834342Y-69937994D02*
X256834342Y-55937800D01*
X256834342Y-55937800D02*
X270834363Y-55937800D01*
X298995627Y-59426560D02*
X298924584Y-58720736D01*
X298924584Y-58720736D02*
X298924584Y-16580084D01*
X312146508Y-62220736D02*
X312449004Y-62251183D01*
X312449004Y-62251183D02*
X312730660Y-62338519D01*
X312730660Y-62338519D02*
X312985468Y-62476735D01*
X312985468Y-62476735D02*
X313207421Y-62659823D01*
X313207421Y-62659823D02*
X313390509Y-62881775D01*
X263136541Y-31838086D02*
X263136541Y-17837892D01*
X301228637Y-148865538D02*
X304090164Y-147183861D01*
X313390509Y-62881775D02*
X313528725Y-63136584D01*
X313528725Y-63136584D02*
X313616061Y-63418240D01*
X313616061Y-63418240D02*
X313646508Y-63720736D01*
X302424584Y-62220736D02*
X312168902Y-62220736D01*
X313646508Y-122676911D02*
X313646508Y-63720736D01*
X215350503Y-61550521D02*
X215294709Y-64418482D01*
X220921884Y-15380323D02*
X220603904Y-15750158D01*
X220603904Y-15750158D02*
X220291040Y-16261613D01*
X220291040Y-16261613D02*
X219983689Y-16911044D01*
X219983689Y-16911044D02*
X219682251Y-17694808D01*
X219682251Y-17694808D02*
X219387120Y-18609262D01*
X219387120Y-18609262D02*
X219098696Y-19650764D01*
X219098696Y-19650764D02*
X218817375Y-20815671D01*
X215221611Y-127657972D02*
X215266267Y-128101553D01*
X215266267Y-128101553D02*
X215394359Y-128514576D01*
X266817697Y-157431161D02*
X267233252Y-157557695D01*
X267233252Y-157557695D02*
X267681730Y-157601712D01*
X265523666Y-155850393D02*
X265650361Y-156265373D01*
X265650361Y-156265373D02*
X265851395Y-156639216D01*
X265851395Y-156639216D02*
X266118485Y-156963645D01*
X266118485Y-156963645D02*
X266443346Y-157230386D01*
X264509972Y-130232977D02*
X264136253Y-130030297D01*
X264136253Y-130030297D02*
X263723157Y-129902227D01*
X273233646Y-113038911D02*
X273233646Y-127039105D01*
X273233646Y-127039105D02*
X259233625Y-127039105D01*
X259233625Y-127039105D02*
X259233625Y-113038911D01*
X259233625Y-113038911D02*
X273233646Y-113038911D01*
X273233646Y-113038911D02*
X273233646Y-113038911D01*
X292236571Y-113038911D02*
X292236571Y-127039105D01*
X254236477Y-127038088D02*
X240236456Y-127038088D01*
X240236456Y-127038088D02*
X240236456Y-113037894D01*
X240236456Y-113037894D02*
X254236477Y-113037894D01*
X254236477Y-113037894D02*
X254236477Y-113037894D01*
X232734874Y-108038804D02*
X218734853Y-108038804D01*
X218734853Y-108038804D02*
X218734853Y-94038610D01*
X218734853Y-94038610D02*
X232734874Y-94038610D01*
X232734874Y-94038610D02*
X232734874Y-94038610D01*
X297727080Y-15110531D02*
X298008737Y-15197867D01*
X298008737Y-15197867D02*
X298263545Y-15336083D01*
X298263545Y-15336083D02*
X298485497Y-15519171D01*
X298485497Y-15519171D02*
X298668586Y-15741123D01*
X298668586Y-15741123D02*
X298806802Y-15995932D01*
X243936249Y-17839780D02*
X257934175Y-17839780D01*
X215987446Y-45531683D02*
X215847303Y-48041734D01*
X215847303Y-48041734D02*
X215720224Y-50620545D01*
X280634305Y-36838063D02*
X294634326Y-36838063D01*
X294634326Y-36838063D02*
X294634326Y-36838063D01*
X275635381Y-36852948D02*
X275635381Y-50853142D01*
X275635381Y-50853142D02*
X261635360Y-50853142D01*
X261635360Y-50853142D02*
X261635360Y-36852948D01*
X261635360Y-36852948D02*
X275635381Y-36852948D01*
X275635381Y-36852948D02*
X275635381Y-36852948D01*
X266443346Y-157230386D02*
X266817697Y-157431161D01*
X265479594Y-155402551D02*
X265523666Y-155850393D01*
X263723157Y-129902227D02*
X263279496Y-129857580D01*
X265479496Y-132057188D02*
X265434840Y-131613606D01*
X265434840Y-131613606D02*
X265306748Y-131200584D01*
X265306748Y-131200584D02*
X265104031Y-130826931D01*
X265104031Y-130826931D02*
X264835502Y-130501459D01*
X264835502Y-130501459D02*
X264509972Y-130232977D01*
X304090164Y-147183861D02*
X306951691Y-145502185D01*
X306951691Y-145502185D02*
X309813218Y-143820508D01*
X309813218Y-143820508D02*
X312674745Y-142138831D01*
X312674745Y-142138831D02*
X315536272Y-140457155D01*
X315536272Y-140457155D02*
X318397799Y-138775478D01*
X318397799Y-138775478D02*
X321259326Y-137093801D01*
X298367110Y-150547215D02*
X301228637Y-148865538D01*
X215606607Y-53264472D02*
X215506850Y-55969873D01*
X269534314Y-74937851D02*
X269534314Y-88938045D01*
X269534314Y-88938045D02*
X255534293Y-88938045D01*
X255534293Y-88938045D02*
X255534293Y-74937851D01*
X255534293Y-74937851D02*
X269534314Y-74937851D01*
X269534314Y-74937851D02*
X269534314Y-74937851D01*
X288534529Y-74938993D02*
X288534529Y-88939187D01*
X288534529Y-88939187D02*
X274534508Y-88939187D01*
X215506850Y-55969873D02*
X215421349Y-58733103D01*
X217345475Y-75008715D02*
X231345497Y-75008715D01*
X231345497Y-75008715D02*
X231345497Y-75008715D01*
X250436095Y-74937851D02*
X250436095Y-88938045D01*
X250436095Y-88938045D02*
X236436074Y-88938045D01*
X236436074Y-88938045D02*
X236436074Y-74937851D01*
X236436074Y-74937851D02*
X250436095Y-74937851D01*
X250436095Y-74937851D02*
X250436095Y-74937851D01*
X232734874Y-69934097D02*
X218734853Y-69934097D01*
X218734853Y-69934097D02*
X218734853Y-55933903D01*
X218734853Y-55933903D02*
X232734874Y-55933903D01*
X232734874Y-55933903D02*
X232734874Y-55933903D01*
X231345497Y-75008715D02*
X231345497Y-89008909D01*
X231345497Y-89008909D02*
X217345475Y-89008909D01*
X217345475Y-89008909D02*
X217345475Y-75008715D01*
X215421349Y-58733103D02*
X215350503Y-61550521D01*
X270834363Y-55937800D02*
X270834363Y-55937800D01*
X251735088Y-55939834D02*
X251735088Y-69940028D01*
X251735088Y-69940028D02*
X237735067Y-69940028D01*
X237735067Y-69940028D02*
X237735067Y-55939834D01*
X237735067Y-55939834D02*
X251735088Y-55939834D01*
X251735088Y-55939834D02*
X251735088Y-55939834D01*
X232734874Y-55933903D02*
X232734874Y-69934097D01*
X274534508Y-88939187D02*
X274534508Y-74938993D01*
X274534508Y-74938993D02*
X288534529Y-74938993D01*
X288534529Y-74938993D02*
X288534529Y-74938993D01*
X308884965Y-84538774D02*
X308884965Y-98538969D01*
X308884965Y-98538969D02*
X294884944Y-98538969D01*
X294884944Y-98538969D02*
X294884944Y-84538774D01*
X294884944Y-84538774D02*
X308884965Y-84538774D01*
X218817375Y-20815671D02*
X218543556Y-22100339D01*
X218543556Y-22100339D02*
X218277634Y-23501125D01*
X218277634Y-23501125D02*
X218020008Y-25014386D01*
X218020008Y-25014386D02*
X217771076Y-26636480D01*
X217771076Y-26636480D02*
X217531233Y-28363763D01*
X217531233Y-28363763D02*
X217300879Y-30192593D01*
X217300879Y-30192593D02*
X217080411Y-32119325D01*
X193767438Y-14992528D02*
X200074371Y-14992528D01*
X213738238Y-78490213D02*
X213738238Y-68082379D01*
X213738238Y-68082379D02*
X213738238Y-57674545D01*
X213738238Y-57674545D02*
X213738238Y-47266711D01*
X213738238Y-36858877D02*
X213738238Y-26451044D01*
X162232771Y-14992528D02*
X168539704Y-14992528D01*
X168539704Y-14992528D02*
X174846638Y-14992528D01*
X174846638Y-14992528D02*
X181153571Y-14992528D01*
X129760439Y-112511326D02*
X129964222Y-113168524D01*
X129964222Y-113168524D02*
X130035265Y-113874348D01*
X130035265Y-113874348D02*
X130035265Y-119141929D01*
X130035265Y-119141929D02*
X130035265Y-124409511D01*
X130035265Y-124409511D02*
X130035265Y-129677092D01*
X130035265Y-129677092D02*
X130035265Y-134944673D01*
X130035265Y-134944673D02*
X130035265Y-140212255D01*
X130035265Y-140212255D02*
X130035265Y-145479836D01*
X115313342Y-64657217D02*
X115313342Y-72026738D01*
X115313342Y-72026738D02*
X115313342Y-79396260D01*
X115313342Y-79396260D02*
X115313342Y-86765782D01*
X115313342Y-86765782D02*
X115313342Y-94135304D01*
X115313342Y-94135304D02*
X115313342Y-101504826D01*
X115313342Y-101504826D02*
X115313342Y-108874348D01*
X130836577Y-22047869D02*
X127970258Y-23723563D01*
X188425000Y-157515000D02*
X178943377Y-157515000D01*
X178943377Y-157515000D02*
X169461755Y-157515000D01*
X169461755Y-157515000D02*
X159980133Y-157515000D01*
X159980133Y-157515000D02*
X150498510Y-157515000D01*
X150498510Y-157515000D02*
X141016888Y-157515000D01*
X141016888Y-157515000D02*
X131535265Y-157515000D01*
X131535265Y-157514999D02*
X131232769Y-157484552D01*
X127970258Y-23723563D02*
X125103938Y-25399258D01*
X125103938Y-25399258D02*
X122237619Y-27074952D01*
X122237619Y-27074952D02*
X119371299Y-28750647D01*
X119371299Y-28750647D02*
X116504980Y-30426341D01*
X116504980Y-30426341D02*
X113638660Y-32102036D01*
X113638660Y-32102036D02*
X110772341Y-33777730D01*
X110772341Y-33777730D02*
X107906021Y-35453425D01*
X131232769Y-157484552D02*
X130951113Y-157397217D01*
X130951113Y-157397217D02*
X130696304Y-157259001D01*
X130696304Y-157259001D02*
X130474352Y-157075912D01*
X130474352Y-157075912D02*
X130291264Y-156853960D01*
X130291264Y-156853960D02*
X130153048Y-156599152D01*
X130153048Y-156599152D02*
X130065712Y-156317495D01*
X130065712Y-156317495D02*
X130035265Y-156014999D01*
X122881146Y-110374348D02*
X121663106Y-110374348D01*
X121663106Y-110374348D02*
X120445067Y-110374348D01*
X120445067Y-110374348D02*
X119227027Y-110374348D01*
X119227027Y-110374348D02*
X118008987Y-110374348D01*
X118008987Y-110374348D02*
X116790948Y-110374348D01*
X115313342Y-49918173D02*
X115313342Y-57287695D01*
X115313342Y-57287695D02*
X115313342Y-64657217D01*
X200074371Y-14992528D02*
X206381305Y-14992528D01*
X212899985Y-15014523D02*
X213097145Y-15075657D01*
X213097145Y-15075657D02*
X213275511Y-15172409D01*
X213275511Y-15172409D02*
X213430877Y-15300570D01*
X213430877Y-15300570D02*
X213559039Y-15455937D01*
X213559039Y-15455937D02*
X213655790Y-15634303D01*
X213738238Y-99305881D02*
X213738238Y-88898047D01*
X213738238Y-88898047D02*
X213738238Y-78490213D01*
X107736850Y-35546837D02*
X107602116Y-35652295D01*
X107602116Y-35652295D02*
X107502468Y-35769328D01*
X107502468Y-35769328D02*
X107438555Y-35897470D01*
X107438555Y-35897470D02*
X107411026Y-36036252D01*
X107411026Y-36036252D02*
X107420532Y-36185206D01*
X107420532Y-36185206D02*
X107467722Y-36343864D01*
X107467722Y-36343864D02*
X107553244Y-36511758D01*
X114344216Y-48241619D02*
X115314355Y-49917313D01*
X207388245Y-157515000D02*
X208668810Y-156333471D01*
X208668810Y-156333471D02*
X209861153Y-152944319D01*
X115431124Y-109458500D02*
X115343789Y-109176844D01*
X115343789Y-109176844D02*
X115313342Y-108874348D01*
X126535265Y-110374348D02*
X125317225Y-110374348D01*
X125317225Y-110374348D02*
X124099186Y-110374348D01*
X124099186Y-110374348D02*
X122881146Y-110374348D01*
X113374077Y-46565925D02*
X114344216Y-48241619D01*
X107553244Y-36511758D02*
X108523383Y-38187452D01*
X108523383Y-38187452D02*
X109493521Y-39863147D01*
X109493521Y-39863147D02*
X110463660Y-41538841D01*
X110463660Y-41538841D02*
X111433799Y-43214536D01*
X111433799Y-43214536D02*
X112403938Y-44890230D01*
X112403938Y-44890230D02*
X113374077Y-46565925D01*
X107906021Y-35453425D02*
X107736850Y-35546837D01*
X162232683Y-14992777D02*
X158207439Y-15190690D01*
X158207439Y-15190690D02*
X154167337Y-15545297D01*
X154167337Y-15545297D02*
X150134175Y-16075972D01*
X150134175Y-16075972D02*
X146129754Y-16802083D01*
X146129754Y-16802083D02*
X142175873Y-17743004D01*
X142175873Y-17743004D02*
X138294330Y-18918105D01*
X138294330Y-18918105D02*
X134506927Y-20346758D01*
X134506927Y-20346758D02*
X130835460Y-22048333D01*
X206381305Y-14992528D02*
X212688238Y-14992528D01*
X187460505Y-14992528D02*
X193767438Y-14992528D01*
X213738238Y-26451044D02*
X213738238Y-16043210D01*
X213655790Y-15634303D02*
X213716925Y-15831462D01*
X213716925Y-15831462D02*
X213738238Y-16043210D01*
X212688238Y-14993210D02*
X212899985Y-15014523D01*
X130035265Y-145479836D02*
X130035265Y-150747418D01*
X115752429Y-109935261D02*
X115569340Y-109713308D01*
X115569340Y-109713308D02*
X115431124Y-109458500D01*
X213239626Y-121974538D02*
X213609346Y-111044563D01*
X213609346Y-111044563D02*
X213738238Y-99305881D01*
X209861153Y-152944319D02*
X210939841Y-147580697D01*
X210939841Y-147580697D02*
X211879439Y-140475758D01*
X211879439Y-140475758D02*
X212654512Y-131862654D01*
X212654512Y-131862654D02*
X213239626Y-121974538D01*
X126535265Y-110374348D02*
X127241089Y-110445391D01*
X127241089Y-110445391D02*
X127898287Y-110649174D01*
X127898287Y-110649174D02*
X128492840Y-110971678D01*
X128492840Y-110971678D02*
X129010729Y-111398884D01*
X129010729Y-111398884D02*
X129437935Y-111916773D01*
X129437935Y-111916773D02*
X129760439Y-112511326D01*
X130035265Y-150747418D02*
X130035265Y-156014999D01*
X213738238Y-47266711D02*
X213738238Y-36858877D01*
X181153571Y-14992528D02*
X187460505Y-14992528D01*
X207388245Y-157515000D02*
X197906622Y-157515000D01*
X197906622Y-157515000D02*
X188425000Y-157515000D01*
X116813342Y-110374348D02*
X116510846Y-110343901D01*
X116510846Y-110343901D02*
X116229190Y-110256565D01*
X116229190Y-110256565D02*
X115974381Y-110118349D01*
X115974381Y-110118349D02*
X115752429Y-109935261D01*
X114255784Y-124478381D02*
X113285645Y-122802687D01*
X115225923Y-126154075D02*
X114255784Y-124478381D01*
X28525629Y-157727472D02*
X22218695Y-157727472D01*
X34832562Y-157727472D02*
X28525629Y-157727472D01*
X14861762Y-125453289D02*
X14861762Y-135861123D01*
X98564735Y-21972582D02*
X98564735Y-16705001D01*
X98564735Y-27240164D02*
X98564735Y-21972582D01*
X98564735Y-32507745D02*
X98564735Y-27240164D01*
X98564735Y-37775327D02*
X98564735Y-32507745D01*
X98564735Y-43042908D02*
X98564735Y-37775327D01*
X98564735Y-48310489D02*
X98564735Y-43042908D01*
X98564735Y-53578071D02*
X98564735Y-48310489D01*
X98564735Y-58845652D02*
X98564735Y-53578071D01*
X98635778Y-59551476D02*
X98564735Y-58845652D01*
X98839561Y-60208674D02*
X98635778Y-59551476D01*
X99162065Y-60803227D02*
X98839561Y-60208674D01*
X99589271Y-61321116D02*
X99162065Y-60803227D01*
X100107160Y-61748322D02*
X99589271Y-61321116D01*
X100701713Y-62070826D02*
X100107160Y-61748322D01*
X101358911Y-62274609D02*
X100701713Y-62070826D01*
X102064735Y-62345652D02*
X101358911Y-62274609D01*
X15945488Y-40857346D02*
X15360374Y-50745462D01*
X16720561Y-32244242D02*
X15945488Y-40857346D01*
X17660159Y-25139303D02*
X16720561Y-32244242D01*
X18738847Y-19775681D02*
X17660159Y-25139303D01*
X14990654Y-61675437D02*
X14861762Y-73414119D01*
X15360374Y-50745462D02*
X14990654Y-61675437D01*
X113030660Y-63006692D02*
X113168876Y-63261500D01*
X112847571Y-62784739D02*
X113030660Y-63006692D01*
X112625619Y-62601651D02*
X112847571Y-62784739D01*
X112370810Y-62463435D02*
X112625619Y-62601651D01*
X112089154Y-62376099D02*
X112370810Y-62463435D01*
X111786658Y-62345652D02*
X112089154Y-62376099D01*
X30693378Y-15205000D02*
X40175000Y-15205000D01*
X21211755Y-15205000D02*
X30693378Y-15205000D01*
X47446429Y-157727472D02*
X41139495Y-157727472D01*
X53753362Y-157727472D02*
X47446429Y-157727472D01*
X60060296Y-157727472D02*
X53753362Y-157727472D01*
X66367229Y-157727472D02*
X60060296Y-157727472D01*
X14861762Y-135861123D02*
X14861762Y-146268956D01*
X14861762Y-115045455D02*
X14861762Y-125453289D01*
X14861762Y-104637621D02*
X14861762Y-115045455D01*
X14861762Y-94229787D02*
X14861762Y-104637621D01*
X14861762Y-83821953D02*
X14861762Y-94229787D01*
X14861762Y-73414119D02*
X14861762Y-83821953D01*
X15040961Y-157264063D02*
X14944210Y-157085697D01*
X15169123Y-157419430D02*
X15040961Y-157264063D01*
X15324489Y-157547591D02*
X15169123Y-157419430D01*
X15502855Y-157644343D02*
X15324489Y-157547591D01*
X15700015Y-157705477D02*
X15502855Y-157644343D01*
X15911762Y-157726790D02*
X15700015Y-157705477D01*
X14883075Y-156888538D02*
X14861762Y-156676790D01*
X14944210Y-157085697D02*
X14883075Y-156888538D01*
X14861762Y-146268956D02*
X14861762Y-156676790D01*
X41139495Y-157727472D02*
X34832562Y-157727472D01*
X22218695Y-157727472D02*
X15911762Y-157727472D01*
X94093073Y-152373242D02*
X97764540Y-150671667D01*
X90305670Y-153801895D02*
X94093073Y-152373242D01*
X86424127Y-154976996D02*
X90305670Y-153801895D01*
X82470246Y-155917917D02*
X86424127Y-154976996D01*
X78465825Y-156644028D02*
X82470246Y-155917917D01*
X74432663Y-157174703D02*
X78465825Y-156644028D01*
X70392561Y-157529310D02*
X74432663Y-157174703D01*
X66367317Y-157727223D02*
X70392561Y-157529310D01*
X121132278Y-136376136D02*
X121046756Y-136208242D01*
X121179468Y-136534794D02*
X121132278Y-136376136D01*
X121188974Y-136683748D02*
X121179468Y-136534794D01*
X121161445Y-136822530D02*
X121188974Y-136683748D01*
X121097532Y-136950672D02*
X121161445Y-136822530D01*
X120997884Y-137067705D02*
X121097532Y-136950672D01*
X120863150Y-137173163D02*
X120997884Y-137067705D01*
X120693979Y-137266575D02*
X120863150Y-137173163D01*
X116196062Y-127829770D02*
X115225923Y-126154075D01*
X117166201Y-129505464D02*
X116196062Y-127829770D01*
X118136340Y-131181159D02*
X117166201Y-129505464D01*
X119106479Y-132856853D02*
X118136340Y-131181159D01*
X120076617Y-134532548D02*
X119106479Y-132856853D01*
X121046756Y-136208242D02*
X120076617Y-134532548D01*
X117827659Y-138942270D02*
X120693979Y-137266575D01*
X114961340Y-140617964D02*
X117827659Y-138942270D01*
X112095020Y-142293659D02*
X114961340Y-140617964D01*
X109228701Y-143969353D02*
X112095020Y-142293659D01*
X106362381Y-145645048D02*
X109228701Y-143969353D01*
X103496062Y-147320742D02*
X106362381Y-145645048D01*
X100629742Y-148996437D02*
X103496062Y-147320742D01*
X97763423Y-150672131D02*
X100629742Y-148996437D01*
X113286658Y-71215174D02*
X113286658Y-63845652D01*
X113286658Y-78584696D02*
X113286658Y-71215174D01*
X113286658Y-85954218D02*
X113286658Y-78584696D01*
X113286658Y-93323740D02*
X113286658Y-85954218D01*
X113286658Y-100693262D02*
X113286658Y-93323740D01*
X113286658Y-108062783D02*
X113286658Y-100693262D01*
X113286658Y-115432305D02*
X113286658Y-108062783D01*
X113286658Y-122801827D02*
X113286658Y-115432305D01*
X110591013Y-62345652D02*
X111809052Y-62345652D01*
X109372973Y-62345652D02*
X110591013Y-62345652D01*
X108154933Y-62345652D02*
X109372973Y-62345652D01*
X106936894Y-62345652D02*
X108154933Y-62345652D01*
X105718854Y-62345652D02*
X106936894Y-62345652D01*
X104500814Y-62345652D02*
X105718854Y-62345652D01*
X103282775Y-62345652D02*
X104500814Y-62345652D01*
X102064735Y-62345652D02*
X103282775Y-62345652D01*
X113256211Y-63543156D02*
X113286658Y-63845652D01*
X113168876Y-63261500D02*
X113256211Y-63543156D01*
X19931190Y-16386529D02*
X18738847Y-19775681D01*
X21211755Y-15205000D02*
X19931190Y-16386529D01*
X98534288Y-16402505D02*
X98564735Y-16705001D01*
X98446952Y-16120848D02*
X98534288Y-16402505D01*
X98308736Y-15866040D02*
X98446952Y-16120848D01*
X98125648Y-15644088D02*
X98308736Y-15866040D01*
X97903696Y-15460999D02*
X98125648Y-15644088D01*
X97648887Y-15322783D02*
X97903696Y-15460999D01*
X97367231Y-15235448D02*
X97648887Y-15322783D01*
X97064735Y-15205001D02*
X97367231Y-15235448D01*
X87583112Y-15205000D02*
X97064735Y-15205000D01*
X78101490Y-15205000D02*
X87583112Y-15205000D01*
X68619867Y-15205000D02*
X78101490Y-15205000D01*
X59138245Y-15205000D02*
X68619867Y-15205000D01*
X49656623Y-15205000D02*
X59138245Y-15205000D01*
X40175000Y-15205000D02*
X49656623Y-15205000D01*
M02*
