G04 #@! TF.GenerationSoftware,KiCad,Pcbnew,5.1.5-52549c5~84~ubuntu18.04.1*
G04 #@! TF.CreationDate,2019-12-02T10:01:40+01:00*
G04 #@! TF.ProjectId,Lily58_Pro_OneForAll,4c696c79-3538-45f5-9072-6f5f4f6e6546,rev?*
G04 #@! TF.SameCoordinates,Original*
G04 #@! TF.FileFunction,Soldermask,Top*
G04 #@! TF.FilePolarity,Negative*
%FSLAX46Y46*%
G04 Gerber Fmt 4.6, Leading zero omitted, Abs format (unit mm)*
G04 Created by KiCad (PCBNEW 5.1.5-52549c5~84~ubuntu18.04.1) date 2019-12-02 10:01:40*
%MOMM*%
%LPD*%
G04 APERTURE LIST*
%ADD10C,4.400000*%
%ADD11C,1.600000*%
%ADD12R,2.500000X1.600000*%
%ADD13R,1.924000X1.924000*%
%ADD14C,0.100000*%
%ADD15C,3.400000*%
%ADD16C,0.500000*%
%ADD17C,2.300000*%
%ADD18C,2.100000*%
%ADD19R,1.900000X1.100000*%
%ADD20R,2.800000X2.800000*%
%ADD21R,2.900000X2.900000*%
%ADD22R,2.400000X2.200000*%
%ADD23R,2.400000X2.400000*%
%ADD24C,1.924000*%
%ADD25C,5.300000*%
%ADD26C,1.797000*%
%ADD27R,1.035000X1.543000*%
%ADD28C,2.900000*%
%ADD29R,0.781000X0.781000*%
%ADD30R,1.900000X2.200000*%
G04 APERTURE END LIST*
D10*
X237786000Y-110938000D03*
X239986000Y-34738000D03*
X275786000Y-110938000D03*
X278186000Y-34738000D03*
X292986000Y-135538000D03*
X191225000Y-61655000D03*
X189025000Y-137855000D03*
X136025000Y-37055000D03*
X150825000Y-137855000D03*
X153225000Y-61655000D03*
D11*
X25575000Y-154515000D03*
X18575000Y-154515000D03*
D12*
X27375000Y-156615000D03*
X28875000Y-152415000D03*
X20375000Y-156615000D03*
X23375000Y-156615000D03*
D11*
X18575000Y-152765000D03*
X25575000Y-152765000D03*
D12*
X20375000Y-150665000D03*
X23375000Y-150665000D03*
X27375000Y-150665000D03*
X28875000Y-154865000D03*
D13*
X54275000Y-127965000D03*
X56375000Y-127965000D03*
X58375000Y-127965000D03*
D14*
G36*
X95988303Y-135945994D02*
G01*
X95038303Y-134300546D01*
X95990931Y-133750546D01*
X96940931Y-135395994D01*
X95988303Y-135945994D01*
G37*
G36*
X110884902Y-130347660D02*
G01*
X109934902Y-128702212D01*
X110887530Y-128152212D01*
X111837530Y-129797660D01*
X110884902Y-130347660D01*
G37*
D15*
X106804557Y-131560295D03*
D14*
G36*
X97811091Y-132203155D02*
G01*
X99211091Y-134628027D01*
X96786219Y-136028027D01*
X95386219Y-133603155D01*
X97811091Y-132203155D01*
G37*
D15*
X106804557Y-131560295D03*
X100035295Y-132535591D03*
D14*
G36*
X110011312Y-128034558D02*
G01*
X111461312Y-130546032D01*
X108949838Y-131996032D01*
X107499838Y-129484558D01*
X110011312Y-128034558D01*
G37*
D16*
X106797547Y-131518154D03*
D15*
X110955127Y-136369294D03*
D14*
G36*
X105652757Y-140585320D02*
G01*
X106852757Y-142663780D01*
X104947501Y-143763780D01*
X103747501Y-141685320D01*
X105652757Y-140585320D01*
G37*
G36*
X114079036Y-133180064D02*
G01*
X115279036Y-135258524D01*
X113200576Y-136458524D01*
X112000576Y-134380064D01*
X114079036Y-133180064D01*
G37*
D15*
X102294873Y-141369294D03*
X107725000Y-140774550D03*
D16*
X100172453Y-135343154D03*
D15*
X104434705Y-129995591D03*
D10*
X104775000Y-135665000D03*
D17*
X100011860Y-138415000D03*
X109538140Y-132915000D03*
D18*
X109174409Y-133125000D03*
X100375591Y-138205000D03*
D15*
X100205443Y-135370295D03*
D19*
X96425000Y-79765000D03*
X99025000Y-64065000D03*
D15*
X98985000Y-68755000D03*
D20*
X96445000Y-78265000D03*
D15*
X98985000Y-68755000D03*
X96445000Y-75105000D03*
D21*
X98984999Y-65665000D03*
D16*
X98945000Y-68740000D03*
D15*
X105225000Y-67565000D03*
D22*
X107425000Y-75365000D03*
D23*
X105225000Y-64465000D03*
D15*
X105225000Y-77565000D03*
X107425000Y-72565000D03*
D16*
X98945000Y-76390000D03*
D15*
X96445000Y-70025000D03*
D10*
X101525000Y-72565000D03*
D17*
X101525000Y-78065000D03*
X101525000Y-67065000D03*
D18*
X101525000Y-67485000D03*
X101525000Y-77645000D03*
D15*
X98984999Y-76375000D03*
D19*
X96425000Y-98865000D03*
X99025000Y-83165000D03*
D15*
X98985000Y-87855000D03*
D20*
X96445000Y-97365000D03*
D15*
X98985000Y-87855000D03*
X96445000Y-94205000D03*
D21*
X98984999Y-84765000D03*
D16*
X98945000Y-87840000D03*
D15*
X105225000Y-86665000D03*
D22*
X107425000Y-94465000D03*
D23*
X105225000Y-83565000D03*
D15*
X105225000Y-96665000D03*
X107425000Y-91665000D03*
D16*
X98945000Y-95490000D03*
D15*
X96445000Y-89125000D03*
D10*
X101525000Y-91665000D03*
D17*
X101525000Y-97165000D03*
X101525000Y-86165000D03*
D18*
X101525000Y-86585000D03*
X101525000Y-96745000D03*
D15*
X98984999Y-95475000D03*
D19*
X98675000Y-117865000D03*
X101275000Y-102165000D03*
D15*
X101235000Y-106855000D03*
D20*
X98695000Y-116365000D03*
D15*
X101235000Y-106855000D03*
X98695000Y-113205000D03*
D21*
X101234999Y-103765000D03*
D16*
X101195000Y-106840000D03*
D15*
X107475000Y-105665000D03*
D22*
X109675000Y-113465000D03*
D23*
X107475000Y-102565000D03*
D15*
X107475000Y-115665000D03*
X109675000Y-110665000D03*
D16*
X101195000Y-114490000D03*
D15*
X98695000Y-108125000D03*
D10*
X103775000Y-110665000D03*
D17*
X103775000Y-116165000D03*
X103775000Y-105165000D03*
D18*
X103775000Y-105585000D03*
X103775000Y-115745000D03*
D15*
X101234999Y-114475000D03*
D19*
X70175000Y-146465000D03*
X72775000Y-130765000D03*
D15*
X72735000Y-135455000D03*
D20*
X70195000Y-144965000D03*
D15*
X72735000Y-135455000D03*
X70195000Y-141805000D03*
D21*
X72734999Y-132365000D03*
D16*
X72695000Y-135440000D03*
D15*
X78975000Y-134265000D03*
D22*
X81175000Y-142065000D03*
D23*
X78975000Y-131165000D03*
D15*
X78975000Y-144265000D03*
X81175000Y-139265000D03*
D16*
X72695000Y-143090000D03*
D15*
X70195000Y-136725000D03*
D10*
X75275000Y-139265000D03*
D17*
X75275000Y-144765000D03*
X75275000Y-133765000D03*
D18*
X75275000Y-134185000D03*
X75275000Y-144345000D03*
D15*
X72734999Y-143075000D03*
D19*
X83675000Y-32115000D03*
X86275000Y-16415000D03*
D15*
X86235000Y-21105000D03*
D20*
X83695000Y-30615000D03*
D15*
X86235000Y-21105000D03*
X83695000Y-27455000D03*
D21*
X86234999Y-18015000D03*
D16*
X86195000Y-21090000D03*
D15*
X92475000Y-19915000D03*
D22*
X94675000Y-27715000D03*
D23*
X92475000Y-16815000D03*
D15*
X92475000Y-29915000D03*
X94675000Y-24915000D03*
D16*
X86195000Y-28740000D03*
D15*
X83695000Y-22375000D03*
D10*
X88775000Y-24915000D03*
D17*
X88775000Y-30415000D03*
X88775000Y-19415000D03*
D18*
X88775000Y-19835000D03*
X88775000Y-29995000D03*
D15*
X86234999Y-28725000D03*
D19*
X82175000Y-51165000D03*
X84775000Y-35465000D03*
D15*
X84735000Y-40155000D03*
D20*
X82195000Y-49665000D03*
D15*
X84735000Y-40155000D03*
X82195000Y-46505000D03*
D21*
X84734999Y-37065000D03*
D16*
X84695000Y-40140000D03*
D15*
X90975000Y-38965000D03*
D22*
X93175000Y-46765000D03*
D23*
X90975000Y-35865000D03*
D15*
X90975000Y-48965000D03*
X93175000Y-43965000D03*
D16*
X84695000Y-47790000D03*
D15*
X82195000Y-41425000D03*
D10*
X87275000Y-43965000D03*
D17*
X87275000Y-49465000D03*
X87275000Y-38465000D03*
D18*
X87275000Y-38885000D03*
X87275000Y-49045000D03*
D15*
X84734999Y-47775000D03*
D19*
X77475000Y-70265000D03*
X80075000Y-54565000D03*
D15*
X80035000Y-59255000D03*
D20*
X77495000Y-68765000D03*
D15*
X80035000Y-59255000D03*
X77495000Y-65605000D03*
D21*
X80034999Y-56165000D03*
D16*
X79995000Y-59240000D03*
D15*
X86275000Y-58065000D03*
D22*
X88475000Y-65865000D03*
D23*
X86275000Y-54965000D03*
D15*
X86275000Y-68065000D03*
X88475000Y-63065000D03*
D16*
X79995000Y-66890000D03*
D15*
X77495000Y-60525000D03*
D10*
X82575000Y-63065000D03*
D17*
X82575000Y-68565000D03*
X82575000Y-57565000D03*
D18*
X82575000Y-57985000D03*
X82575000Y-68145000D03*
D15*
X80034999Y-66875000D03*
D19*
X76075000Y-89265000D03*
X78675000Y-73565000D03*
D15*
X78635000Y-78255000D03*
D20*
X76095000Y-87765000D03*
D15*
X78635000Y-78255000D03*
X76095000Y-84605000D03*
D21*
X78634999Y-75165000D03*
D16*
X78595000Y-78240000D03*
D15*
X84875000Y-77065000D03*
D22*
X87075000Y-84865000D03*
D23*
X84875000Y-73965000D03*
D15*
X84875000Y-87065000D03*
X87075000Y-82065000D03*
D16*
X78595000Y-85890000D03*
D15*
X76095000Y-79525000D03*
D10*
X81175000Y-82065000D03*
D17*
X81175000Y-87565000D03*
X81175000Y-76565000D03*
D18*
X81175000Y-76985000D03*
X81175000Y-87145000D03*
D15*
X78634999Y-85875000D03*
D19*
X77475000Y-108365000D03*
X80075000Y-92665000D03*
D15*
X80035000Y-97355000D03*
D20*
X77495000Y-106865000D03*
D15*
X80035000Y-97355000D03*
X77495000Y-103705000D03*
D21*
X80034999Y-94265000D03*
D16*
X79995000Y-97340000D03*
D15*
X86275000Y-96165000D03*
D22*
X88475000Y-103965000D03*
D23*
X86275000Y-93065000D03*
D15*
X86275000Y-106165000D03*
X88475000Y-101165000D03*
D16*
X79995000Y-104990000D03*
D15*
X77495000Y-98625000D03*
D10*
X82575000Y-101165000D03*
D17*
X82575000Y-106665000D03*
X82575000Y-95665000D03*
D18*
X82575000Y-96085000D03*
X82575000Y-106245000D03*
D15*
X80034999Y-104975000D03*
D19*
X79775000Y-127365000D03*
X82375000Y-111665000D03*
D15*
X82335000Y-116355000D03*
D20*
X79795000Y-125865000D03*
D15*
X82335000Y-116355000D03*
X79795000Y-122705000D03*
D21*
X82334999Y-113265000D03*
D16*
X82295000Y-116340000D03*
D15*
X88575000Y-115165000D03*
D22*
X90775000Y-122965000D03*
D23*
X88575000Y-112065000D03*
D15*
X88575000Y-125165000D03*
X90775000Y-120165000D03*
D16*
X82295000Y-123990000D03*
D15*
X79795000Y-117625000D03*
D10*
X84875000Y-120165000D03*
D17*
X84875000Y-125665000D03*
X84875000Y-114665000D03*
D18*
X84875000Y-115085000D03*
X84875000Y-125245000D03*
D15*
X82334999Y-123975000D03*
D19*
X64675000Y-32165000D03*
X67275000Y-16465000D03*
D15*
X67235000Y-21155000D03*
D20*
X64695000Y-30665000D03*
D15*
X67235000Y-21155000D03*
X64695000Y-27505000D03*
D21*
X67234999Y-18065000D03*
D16*
X67195000Y-21140000D03*
D15*
X73475000Y-19965000D03*
D22*
X75675000Y-27765000D03*
D23*
X73475000Y-16865000D03*
D15*
X73475000Y-29965000D03*
X75675000Y-24965000D03*
D16*
X67195000Y-28790000D03*
D15*
X64695000Y-22425000D03*
D10*
X69775000Y-24965000D03*
D17*
X69775000Y-30465000D03*
X69775000Y-19465000D03*
D18*
X69775000Y-19885000D03*
X69775000Y-30045000D03*
D15*
X67234999Y-28775000D03*
D19*
X63175000Y-51165000D03*
X65775000Y-35465000D03*
D15*
X65735000Y-40155000D03*
D20*
X63195000Y-49665000D03*
D15*
X65735000Y-40155000D03*
X63195000Y-46505000D03*
D21*
X65734999Y-37065000D03*
D16*
X65695000Y-40140000D03*
D15*
X71975000Y-38965000D03*
D22*
X74175000Y-46765000D03*
D23*
X71975000Y-35865000D03*
D15*
X71975000Y-48965000D03*
X74175000Y-43965000D03*
D16*
X65695000Y-47790000D03*
D15*
X63195000Y-41425000D03*
D10*
X68275000Y-43965000D03*
D17*
X68275000Y-49465000D03*
X68275000Y-38465000D03*
D18*
X68275000Y-38885000D03*
X68275000Y-49045000D03*
D15*
X65734999Y-47775000D03*
D19*
X58375000Y-70265000D03*
X60975000Y-54565000D03*
D15*
X60935000Y-59255000D03*
D20*
X58395000Y-68765000D03*
D15*
X60935000Y-59255000D03*
X58395000Y-65605000D03*
D21*
X60934999Y-56165000D03*
D16*
X60895000Y-59240000D03*
D15*
X67175000Y-58065000D03*
D22*
X69375000Y-65865000D03*
D23*
X67175000Y-54965000D03*
D15*
X67175000Y-68065000D03*
X69375000Y-63065000D03*
D16*
X60895000Y-66890000D03*
D15*
X58395000Y-60525000D03*
D10*
X63475000Y-63065000D03*
D17*
X63475000Y-68565000D03*
X63475000Y-57565000D03*
D18*
X63475000Y-57985000D03*
X63475000Y-68145000D03*
D15*
X60934999Y-66875000D03*
D19*
X57075000Y-89265000D03*
X59675000Y-73565000D03*
D15*
X59635000Y-78255000D03*
D20*
X57095000Y-87765000D03*
D15*
X59635000Y-78255000D03*
X57095000Y-84605000D03*
D21*
X59634999Y-75165000D03*
D16*
X59595000Y-78240000D03*
D15*
X65875000Y-77065000D03*
D22*
X68075000Y-84865000D03*
D23*
X65875000Y-73965000D03*
D15*
X65875000Y-87065000D03*
X68075000Y-82065000D03*
D16*
X59595000Y-85890000D03*
D15*
X57095000Y-79525000D03*
D10*
X62175000Y-82065000D03*
D17*
X62175000Y-87565000D03*
X62175000Y-76565000D03*
D18*
X62175000Y-76985000D03*
X62175000Y-87145000D03*
D15*
X59634999Y-85875000D03*
D19*
X58375000Y-108365000D03*
X60975000Y-92665000D03*
D15*
X60935000Y-97355000D03*
D20*
X58395000Y-106865000D03*
D15*
X60935000Y-97355000D03*
X58395000Y-103705000D03*
D21*
X60934999Y-94265000D03*
D16*
X60895000Y-97340000D03*
D15*
X67175000Y-96165000D03*
D22*
X69375000Y-103965000D03*
D23*
X67175000Y-93065000D03*
D15*
X67175000Y-106165000D03*
X69375000Y-101165000D03*
D16*
X60895000Y-104990000D03*
D15*
X58395000Y-98625000D03*
D10*
X63475000Y-101165000D03*
D17*
X63475000Y-106665000D03*
X63475000Y-95665000D03*
D18*
X63475000Y-96085000D03*
X63475000Y-106245000D03*
D15*
X60934999Y-104975000D03*
D19*
X60775000Y-127365000D03*
X63375000Y-111665000D03*
D15*
X63335000Y-116355000D03*
D20*
X60795000Y-125865000D03*
D15*
X63335000Y-116355000D03*
X60795000Y-122705000D03*
D21*
X63334999Y-113265000D03*
D16*
X63295000Y-116340000D03*
D15*
X69575000Y-115165000D03*
D22*
X71775000Y-122965000D03*
D23*
X69575000Y-112065000D03*
D15*
X69575000Y-125165000D03*
X71775000Y-120165000D03*
D16*
X63295000Y-123990000D03*
D15*
X60795000Y-117625000D03*
D10*
X65875000Y-120165000D03*
D17*
X65875000Y-125665000D03*
X65875000Y-114665000D03*
D18*
X65875000Y-115085000D03*
X65875000Y-125245000D03*
D15*
X63334999Y-123975000D03*
D19*
X45475000Y-32165000D03*
X48075000Y-16465000D03*
D15*
X48035000Y-21155000D03*
D20*
X45495000Y-30665000D03*
D15*
X48035000Y-21155000D03*
X45495000Y-27505000D03*
D21*
X48034999Y-18065000D03*
D16*
X47995000Y-21140000D03*
D15*
X54275000Y-19965000D03*
D22*
X56475000Y-27765000D03*
D23*
X54275000Y-16865000D03*
D15*
X54275000Y-29965000D03*
X56475000Y-24965000D03*
D16*
X47995000Y-28790000D03*
D15*
X45495000Y-22425000D03*
D10*
X50575000Y-24965000D03*
D17*
X50575000Y-30465000D03*
X50575000Y-19465000D03*
D18*
X50575000Y-19885000D03*
X50575000Y-30045000D03*
D15*
X48034999Y-28775000D03*
D19*
X43975000Y-51165000D03*
X46575000Y-35465000D03*
D15*
X46535000Y-40155000D03*
D20*
X43995000Y-49665000D03*
D15*
X46535000Y-40155000D03*
X43995000Y-46505000D03*
D21*
X46534999Y-37065000D03*
D16*
X46495000Y-40140000D03*
D15*
X52775000Y-38965000D03*
D22*
X54975000Y-46765000D03*
D23*
X52775000Y-35865000D03*
D15*
X52775000Y-48965000D03*
X54975000Y-43965000D03*
D16*
X46495000Y-47790000D03*
D15*
X43995000Y-41425000D03*
D10*
X49075000Y-43965000D03*
D17*
X49075000Y-49465000D03*
X49075000Y-38465000D03*
D18*
X49075000Y-38885000D03*
X49075000Y-49045000D03*
D15*
X46534999Y-47775000D03*
D19*
X39275000Y-70265000D03*
X41875000Y-54565000D03*
D15*
X41835000Y-59255000D03*
D20*
X39295000Y-68765000D03*
D15*
X41835000Y-59255000D03*
X39295000Y-65605000D03*
D21*
X41834999Y-56165000D03*
D16*
X41795000Y-59240000D03*
D15*
X48075000Y-58065000D03*
D22*
X50275000Y-65865000D03*
D23*
X48075000Y-54965000D03*
D15*
X48075000Y-68065000D03*
X50275000Y-63065000D03*
D16*
X41795000Y-66890000D03*
D15*
X39295000Y-60525000D03*
D10*
X44375000Y-63065000D03*
D17*
X44375000Y-68565000D03*
X44375000Y-57565000D03*
D18*
X44375000Y-57985000D03*
X44375000Y-68145000D03*
D15*
X41834999Y-66875000D03*
D19*
X37975000Y-89265000D03*
X40575000Y-73565000D03*
D15*
X40535000Y-78255000D03*
D20*
X37995000Y-87765000D03*
D15*
X40535000Y-78255000D03*
X37995000Y-84605000D03*
D21*
X40534999Y-75165000D03*
D16*
X40495000Y-78240000D03*
D15*
X46775000Y-77065000D03*
D22*
X48975000Y-84865000D03*
D23*
X46775000Y-73965000D03*
D15*
X46775000Y-87065000D03*
X48975000Y-82065000D03*
D16*
X40495000Y-85890000D03*
D15*
X37995000Y-79525000D03*
D10*
X43075000Y-82065000D03*
D17*
X43075000Y-87565000D03*
X43075000Y-76565000D03*
D18*
X43075000Y-76985000D03*
X43075000Y-87145000D03*
D15*
X40534999Y-85875000D03*
D19*
X39375000Y-108365000D03*
X41975000Y-92665000D03*
D15*
X41935000Y-97355000D03*
D20*
X39395000Y-106865000D03*
D15*
X41935000Y-97355000D03*
X39395000Y-103705000D03*
D21*
X41934999Y-94265000D03*
D16*
X41895000Y-97340000D03*
D15*
X48175000Y-96165000D03*
D22*
X50375000Y-103965000D03*
D23*
X48175000Y-93065000D03*
D15*
X48175000Y-106165000D03*
X50375000Y-101165000D03*
D16*
X41895000Y-104990000D03*
D15*
X39395000Y-98625000D03*
D10*
X44475000Y-101165000D03*
D17*
X44475000Y-106665000D03*
X44475000Y-95665000D03*
D18*
X44475000Y-96085000D03*
X44475000Y-106245000D03*
D15*
X41934999Y-104975000D03*
D19*
X41775000Y-127365000D03*
X44375000Y-111665000D03*
D15*
X44335000Y-116355000D03*
D20*
X41795000Y-125865000D03*
D15*
X44335000Y-116355000D03*
X41795000Y-122705000D03*
D21*
X44334999Y-113265000D03*
D16*
X44295000Y-116340000D03*
D15*
X50575000Y-115165000D03*
D22*
X52775000Y-122965000D03*
D23*
X50575000Y-112065000D03*
D15*
X50575000Y-125165000D03*
X52775000Y-120165000D03*
D16*
X44295000Y-123990000D03*
D15*
X41795000Y-117625000D03*
D10*
X46875000Y-120165000D03*
D17*
X46875000Y-125665000D03*
X46875000Y-114665000D03*
D18*
X46875000Y-115085000D03*
X46875000Y-125245000D03*
D15*
X44334999Y-123975000D03*
D19*
X26575000Y-32165000D03*
X29175000Y-16465000D03*
D15*
X29135000Y-21155000D03*
D20*
X26595000Y-30665000D03*
D15*
X29135000Y-21155000D03*
X26595000Y-27505000D03*
D21*
X29134999Y-18065000D03*
D16*
X29095000Y-21140000D03*
D15*
X35375000Y-19965000D03*
D22*
X37575000Y-27765000D03*
D23*
X35375000Y-16865000D03*
D15*
X35375000Y-29965000D03*
X37575000Y-24965000D03*
D16*
X29095000Y-28790000D03*
D15*
X26595000Y-22425000D03*
D10*
X31675000Y-24965000D03*
D17*
X31675000Y-30465000D03*
X31675000Y-19465000D03*
D18*
X31675000Y-19885000D03*
X31675000Y-30045000D03*
D15*
X29134999Y-28775000D03*
D19*
X25075000Y-51165000D03*
X27675000Y-35465000D03*
D15*
X27635000Y-40155000D03*
D20*
X25095000Y-49665000D03*
D15*
X27635000Y-40155000D03*
X25095000Y-46505000D03*
D21*
X27634999Y-37065000D03*
D16*
X27595000Y-40140000D03*
D15*
X33875000Y-38965000D03*
D22*
X36075000Y-46765000D03*
D23*
X33875000Y-35865000D03*
D15*
X33875000Y-48965000D03*
X36075000Y-43965000D03*
D16*
X27595000Y-47790000D03*
D15*
X25095000Y-41425000D03*
D10*
X30175000Y-43965000D03*
D17*
X30175000Y-49465000D03*
X30175000Y-38465000D03*
D18*
X30175000Y-38885000D03*
X30175000Y-49045000D03*
D15*
X27634999Y-47775000D03*
D19*
X20275000Y-70265000D03*
X22875000Y-54565000D03*
D15*
X22835000Y-59255000D03*
D20*
X20295000Y-68765000D03*
D15*
X22835000Y-59255000D03*
X20295000Y-65605000D03*
D21*
X22834999Y-56165000D03*
D16*
X22795000Y-59240000D03*
D15*
X29075000Y-58065000D03*
D22*
X31275000Y-65865000D03*
D23*
X29075000Y-54965000D03*
D15*
X29075000Y-68065000D03*
X31275000Y-63065000D03*
D16*
X22795000Y-66890000D03*
D15*
X20295000Y-60525000D03*
D10*
X25375000Y-63065000D03*
D17*
X25375000Y-68565000D03*
X25375000Y-57565000D03*
D18*
X25375000Y-57985000D03*
X25375000Y-68145000D03*
D15*
X22834999Y-66875000D03*
D19*
X18885000Y-89265000D03*
X21485000Y-73565000D03*
D15*
X21445000Y-78255000D03*
D20*
X18905000Y-87765000D03*
D15*
X21445000Y-78255000D03*
X18905000Y-84605000D03*
D21*
X21444999Y-75165000D03*
D16*
X21405000Y-78240000D03*
D15*
X27685000Y-77065000D03*
D22*
X29885000Y-84865000D03*
D23*
X27685000Y-73965000D03*
D15*
X27685000Y-87065000D03*
X29885000Y-82065000D03*
D16*
X21405000Y-85890000D03*
D15*
X18905000Y-79525000D03*
D10*
X23985000Y-82065000D03*
D17*
X23985000Y-87565000D03*
X23985000Y-76565000D03*
D18*
X23985000Y-76985000D03*
X23985000Y-87145000D03*
D15*
X21444999Y-85875000D03*
D19*
X20275000Y-108365000D03*
X22875000Y-92665000D03*
D15*
X22835000Y-97355000D03*
D20*
X20295000Y-106865000D03*
D15*
X22835000Y-97355000D03*
X20295000Y-103705000D03*
D21*
X22834999Y-94265000D03*
D16*
X22795000Y-97340000D03*
D15*
X29075000Y-96165000D03*
D22*
X31275000Y-103965000D03*
D23*
X29075000Y-93065000D03*
D15*
X29075000Y-106165000D03*
X31275000Y-101165000D03*
D16*
X22795000Y-104990000D03*
D15*
X20295000Y-98625000D03*
D10*
X25375000Y-101165000D03*
D17*
X25375000Y-106665000D03*
X25375000Y-95665000D03*
D18*
X25375000Y-96085000D03*
X25375000Y-106245000D03*
D15*
X22834999Y-104975000D03*
D19*
X22675000Y-127365000D03*
X25275000Y-111665000D03*
D15*
X25235000Y-116355000D03*
D20*
X22695000Y-125865000D03*
D15*
X25235000Y-116355000D03*
X22695000Y-122705000D03*
D21*
X25234999Y-113265000D03*
D16*
X25195000Y-116340000D03*
D15*
X31475000Y-115165000D03*
D22*
X33675000Y-122965000D03*
D23*
X31475000Y-112065000D03*
D15*
X31475000Y-125165000D03*
X33675000Y-120165000D03*
D16*
X25195000Y-123990000D03*
D15*
X22695000Y-117625000D03*
D10*
X27775000Y-120165000D03*
D17*
X27775000Y-125665000D03*
X27775000Y-114665000D03*
D18*
X27775000Y-115085000D03*
X27775000Y-125245000D03*
D15*
X25234999Y-123975000D03*
D24*
X19005000Y-133245000D03*
X21545000Y-133245000D03*
X24085000Y-133245000D03*
X26625000Y-133245000D03*
X29165000Y-133245000D03*
X31705000Y-133245000D03*
X34245000Y-133245000D03*
X36785000Y-133245000D03*
X39325000Y-133245000D03*
X41865000Y-133245000D03*
X44405000Y-133245000D03*
X46945000Y-133245000D03*
X46945000Y-148485000D03*
X44405000Y-148485000D03*
X41865000Y-148485000D03*
X39325000Y-148485000D03*
X36785000Y-148485000D03*
X34245000Y-148485000D03*
X31705000Y-148485000D03*
X29165000Y-148485000D03*
X26625000Y-148485000D03*
X24085000Y-148485000D03*
X21545000Y-148485000D03*
X19005000Y-148485000D03*
X30360745Y-131946185D03*
X35440745Y-131946185D03*
X20200745Y-147186185D03*
X22740745Y-131946185D03*
X45600745Y-131946185D03*
X48140745Y-147186185D03*
X37980745Y-131946185D03*
X40520745Y-131946185D03*
X37980745Y-147186185D03*
X43060745Y-147186185D03*
X30360745Y-147186185D03*
X27820745Y-147186185D03*
X22740745Y-147186185D03*
X32900745Y-147186185D03*
X48140745Y-131946185D03*
X40520745Y-147186185D03*
X20200745Y-131946185D03*
X25280745Y-131946185D03*
X45600745Y-147186185D03*
X27820745Y-131946185D03*
X32900745Y-131946185D03*
X35440745Y-147186185D03*
X43060745Y-131946185D03*
X25280745Y-147186185D03*
D25*
X37375000Y-111065000D03*
X39575000Y-34865000D03*
X75375000Y-111065000D03*
X77775000Y-34865000D03*
X92575000Y-135665000D03*
D26*
X38475000Y-155965000D03*
X38475000Y-153765000D03*
X36354272Y-153726965D03*
X31274272Y-153726965D03*
X31274272Y-155976965D03*
X36354272Y-155976965D03*
D27*
X46574620Y-136365000D03*
X47575380Y-136365000D03*
X47575380Y-138965000D03*
X46574620Y-138965000D03*
X46574620Y-141465000D03*
X47575380Y-141465000D03*
X47575380Y-143965000D03*
X46574620Y-143965000D03*
D28*
X48725000Y-155665000D03*
X42225000Y-155665000D03*
D29*
X38475000Y-151665000D03*
D27*
X37974620Y-151665000D03*
X38975380Y-151665000D03*
D30*
X35775000Y-127965000D03*
X35775000Y-124565000D03*
X33475000Y-108065000D03*
X33475000Y-104665000D03*
X31975000Y-89865000D03*
X31975000Y-86465000D03*
X33375000Y-70865000D03*
X33375000Y-67465000D03*
X38175000Y-48365000D03*
X38175000Y-51765000D03*
X39575000Y-20565000D03*
X39575000Y-17165000D03*
X38875000Y-124565000D03*
X38875000Y-127965000D03*
X36475000Y-103665000D03*
X36475000Y-107065000D03*
X35175000Y-86365000D03*
X35175000Y-89765000D03*
X36475000Y-70865000D03*
X36475000Y-67465000D03*
X41075000Y-48365000D03*
X41075000Y-51765000D03*
X42675000Y-17165000D03*
X42675000Y-20565000D03*
X73775000Y-127965000D03*
X73775000Y-124565000D03*
X71575000Y-104665000D03*
X71575000Y-108065000D03*
X70075000Y-86465000D03*
X70075000Y-89865000D03*
X71375000Y-70865000D03*
X71375000Y-67465000D03*
X76075000Y-51765000D03*
X76075000Y-48365000D03*
X77675000Y-17165000D03*
X77675000Y-20565000D03*
X76875000Y-124565000D03*
X76875000Y-127965000D03*
X74575000Y-107065000D03*
X74575000Y-103665000D03*
X73175000Y-86465000D03*
X73175000Y-89865000D03*
X74575000Y-70865000D03*
X74575000Y-67465000D03*
X79275000Y-48365000D03*
X79275000Y-51765000D03*
X80875000Y-20465000D03*
X80875000Y-17065000D03*
X67275000Y-136765000D03*
X67275000Y-133365000D03*
D14*
G36*
X98069615Y-131387724D02*
G01*
X97119615Y-129742276D01*
X99024871Y-128642276D01*
X99974871Y-130287724D01*
X98069615Y-131387724D01*
G37*
G36*
X95125129Y-133087724D02*
G01*
X94175129Y-131442276D01*
X96080385Y-130342276D01*
X97030385Y-131987724D01*
X95125129Y-133087724D01*
G37*
D30*
X95775000Y-118465000D03*
X95775000Y-115065000D03*
X93575000Y-96065000D03*
X93575000Y-99465000D03*
X93575000Y-80365000D03*
X93575000Y-76965000D03*
D10*
X62775000Y-154665000D03*
X62775000Y-132665000D03*
D26*
X52375000Y-143965000D03*
X52375000Y-141425000D03*
X52375000Y-138885000D03*
X52375000Y-136345000D03*
M02*
