999
"DXF R12 Output" (www.mydxf.blogspot.com)
 0 
SECTION
 2 
HEADER
 9 
$ACADVER
 1 
AC1009
 9 
$EXTMIN
 10 
 0 
 20 
 0 
 9 
$EXTMAX
 10 
 8.5 
 20 
 11 
 0 
ENDSEC
 0 
SECTION
 2 
ENTITIES
0
LINE
8
Layer 1
10
13129.000000
20
39170.000000
11
13789.000000
21
38788.000000
0
LINE
8
Layer 1
10
12469.000000
20
39552.000000
11
13129.000000
21
39170.000000
0
LINE
8
Layer 1
10
39.000000
20
5418.000000
11
39.000000
21
2935.000000
0
LINE
8
Layer 1
10
39.000000
20
7901.000000
11
39.000000
21
5418.000000
0
LINE
8
Layer 1
10
12745.000000
20
39.000000
11
8648.000000
21
39.000000
0
LINE
8
Layer 1
10
53486.000000
20
32993.000000
11
55560.000000
21
32993.000000
0
LINE
8
Layer 1
10
51412.000000
20
32993.000000
11
53486.000000
21
32993.000000
0
LINE
8
Layer 1
10
49338.000000
20
32993.000000
11
51412.000000
21
32993.000000
0
LINE
8
Layer 1
10
47264.000000
20
32993.000000
11
49338.000000
21
32993.000000
0
LINE
8
Layer 1
10
45190.000000
20
32993.000000
11
47264.000000
21
32993.000000
0
LINE
8
Layer 1
10
43116.000000
20
32993.000000
11
45190.000000
21
32993.000000
0
LINE
8
Layer 1
10
41043.000000
20
32993.000000
11
43116.000000
21
32993.000000
0
LINE
8
Layer 1
10
38969.000000
20
32993.000000
11
41043.000000
21
32993.000000
0
LINE
8
Layer 1
10
38691.000000
20
33021.000000
11
38969.000000
21
32993.000000
0
LINE
8
Layer 1
10
38432.000000
20
33101.000000
11
38691.000000
21
33021.000000
0
LINE
8
Layer 1
10
38198.000000
20
33228.000000
11
38432.000000
21
33101.000000
0
LINE
8
Layer 1
10
37994.000000
20
33396.000000
11
38198.000000
21
33228.000000
0
LINE
8
Layer 1
10
37826.000000
20
33600.000000
11
37994.000000
21
33396.000000
0
LINE
8
Layer 1
10
37699.000000
20
33834.000000
11
37826.000000
21
33600.000000
0
LINE
8
Layer 1
10
37619.000000
20
34093.000000
11
37699.000000
21
33834.000000
0
LINE
8
Layer 1
10
37591.000000
20
34371.000000
11
37619.000000
21
34093.000000
0
LINE
8
Layer 1
10
46051.000000
20
466.000000
11
42158.000000
21
235.000000
0
LINE
8
Layer 1
10
49442.000000
20
771.000000
11
46051.000000
21
466.000000
0
LINE
8
Layer 1
10
52239.000000
20
1141.000000
11
49442.000000
21
771.000000
0
LINE
8
Layer 1
10
54351.000000
20
1565.000000
11
52239.000000
21
1141.000000
0
LINE
8
Layer 1
10
37855.000000
20
90.000000
11
33233.000000
21
39.000000
0
LINE
8
Layer 1
10
42158.000000
20
235.000000
11
37855.000000
21
90.000000
0
LINE
8
Layer 1
10
37331.000000
20
38688.000000
11
37230.000000
21
38742.000000
0
LINE
8
Layer 1
10
37418.000000
20
38616.000000
11
37331.000000
21
38688.000000
0
LINE
8
Layer 1
10
37490.000000
20
38529.000000
11
37418.000000
21
38616.000000
0
LINE
8
Layer 1
10
37544.000000
20
38428.000000
11
37490.000000
21
38529.000000
0
LINE
8
Layer 1
10
37579.000000
20
38317.000000
11
37544.000000
21
38428.000000
0
LINE
8
Layer 1
10
37591.000000
20
38198.000000
11
37579.000000
21
38317.000000
0
LINE
8
Layer 1
10
56150.000000
20
6272.000000
11
56150.000000
21
10005.000000
0
LINE
8
Layer 1
10
56150.000000
20
2539.000000
11
56150.000000
21
6272.000000
0
LINE
8
Layer 1
10
39.000000
20
12867.000000
11
39.000000
21
10384.000000
0
LINE
8
Layer 1
10
39.000000
20
15351.000000
11
39.000000
21
12867.000000
0
LINE
8
Layer 1
10
39.000000
20
17834.000000
11
39.000000
21
15351.000000
0
LINE
8
Layer 1
10
39.000000
20
20317.000000
11
39.000000
21
17834.000000
0
LINE
8
Layer 1
10
8648.000000
20
39.000000
11
4550.000000
21
39.000000
0
LINE
8
Layer 1
10
16843.000000
20
39.000000
11
12745.000000
21
39.000000
0
LINE
8
Layer 1
10
20940.000000
20
39.000000
11
16843.000000
21
39.000000
0
LINE
8
Layer 1
10
25038.000000
20
39.000000
11
20940.000000
21
39.000000
0
LINE
8
Layer 1
10
29136.000000
20
39.000000
11
25038.000000
21
39.000000
0
LINE
8
Layer 1
10
33233.000000
20
39.000000
11
29136.000000
21
39.000000
0
LINE
8
Layer 1
10
221.000000
20
109.000000
11
292.000000
21
71.000000
0
LINE
8
Layer 1
10
160.000000
20
160.000000
11
221.000000
21
109.000000
0
LINE
8
Layer 1
10
110.000000
20
221.000000
11
160.000000
21
160.000000
0
LINE
8
Layer 1
10
72.000000
20
291.000000
11
110.000000
21
221.000000
0
LINE
8
Layer 1
10
48.000000
20
369.000000
11
72.000000
21
291.000000
0
LINE
8
Layer 1
10
39.000000
20
452.000000
11
48.000000
21
369.000000
0
LINE
8
Layer 1
10
369.000000
20
47.000000
11
453.000000
21
39.000000
0
LINE
8
Layer 1
10
292.000000
20
71.000000
11
369.000000
21
47.000000
0
LINE
8
Layer 1
10
4550.000000
20
39.000000
11
453.000000
21
39.000000
0
LINE
8
Layer 1
10
39.000000
20
10384.000000
11
39.000000
21
7901.000000
0
LINE
8
Layer 1
10
39.000000
20
2935.000000
11
39.000000
21
452.000000
0
LINE
8
Layer 1
10
2147.000000
20
31232.000000
11
2817.000000
21
32678.000000
0
LINE
8
Layer 1
10
1584.000000
20
29741.000000
11
2147.000000
21
31232.000000
0
LINE
8
Layer 1
10
1122.000000
20
28213.000000
11
1584.000000
21
29741.000000
0
LINE
8
Layer 1
10
751.000000
20
26656.000000
11
1122.000000
21
28213.000000
0
LINE
8
Layer 1
10
465.000000
20
25080.000000
11
751.000000
21
26656.000000
0
LINE
8
Layer 1
10
256.000000
20
23492.000000
11
465.000000
21
25080.000000
0
LINE
8
Layer 1
10
117.000000
20
21901.000000
11
256.000000
21
23492.000000
0
LINE
8
Layer 1
10
39.000000
20
20317.000000
11
117.000000
21
21901.000000
0
LINE
8
Layer 1
10
8445.000000
20
41878.000000
11
8511.000000
21
41844.000000
0
LINE
8
Layer 1
10
8382.000000
20
41896.000000
11
8445.000000
21
41878.000000
0
LINE
8
Layer 1
10
8324.000000
20
41900.000000
11
8382.000000
21
41896.000000
0
LINE
8
Layer 1
10
8269.000000
20
41889.000000
11
8324.000000
21
41900.000000
0
LINE
8
Layer 1
10
8219.000000
20
41864.000000
11
8269.000000
21
41889.000000
0
LINE
8
Layer 1
10
8173.000000
20
41825.000000
11
8219.000000
21
41864.000000
0
LINE
8
Layer 1
10
8131.000000
20
41772.000000
11
8173.000000
21
41825.000000
0
LINE
8
Layer 1
10
8094.000000
20
41705.000000
11
8131.000000
21
41772.000000
0
LINE
8
Layer 1
10
11810.000000
20
39934.000000
11
12469.000000
21
39552.000000
0
LINE
8
Layer 1
10
11150.000000
20
40316.000000
11
11810.000000
21
39934.000000
0
LINE
8
Layer 1
10
10490.000000
20
40698.000000
11
11150.000000
21
40316.000000
0
LINE
8
Layer 1
10
9830.000000
20
41080.000000
11
10490.000000
21
40698.000000
0
LINE
8
Layer 1
10
9171.000000
20
41462.000000
11
9830.000000
21
41080.000000
0
LINE
8
Layer 1
10
8511.000000
20
41844.000000
11
9171.000000
21
41462.000000
0
LINE
8
Layer 1
10
7435.000000
20
40577.000000
11
8094.000000
21
41705.000000
0
LINE
8
Layer 1
10
6775.000000
20
39448.000000
11
7435.000000
21
40577.000000
0
LINE
8
Layer 1
10
6115.000000
20
38320.000000
11
6775.000000
21
39448.000000
0
LINE
8
Layer 1
10
5455.000000
20
37191.000000
11
6115.000000
21
38320.000000
0
LINE
8
Layer 1
10
4796.000000
20
36063.000000
11
5455.000000
21
37191.000000
0
LINE
8
Layer 1
10
4136.000000
20
34934.000000
11
4796.000000
21
36063.000000
0
LINE
8
Layer 1
10
3476.000000
20
33806.000000
11
4136.000000
21
34934.000000
0
LINE
8
Layer 1
10
2817.000000
20
32677.000000
11
3476.000000
21
33806.000000
0
LINE
8
Layer 1
10
34099.000000
20
38789.000000
11
37000.000000
21
38789.000000
0
LINE
8
Layer 1
10
31197.000000
20
38789.000000
11
34099.000000
21
38789.000000
0
LINE
8
Layer 1
10
28296.000000
20
38789.000000
11
31197.000000
21
38789.000000
0
LINE
8
Layer 1
10
25395.000000
20
38789.000000
11
28296.000000
21
38789.000000
0
LINE
8
Layer 1
10
22493.000000
20
38789.000000
11
25395.000000
21
38789.000000
0
LINE
8
Layer 1
10
19592.000000
20
38789.000000
11
22493.000000
21
38789.000000
0
LINE
8
Layer 1
10
16691.000000
20
38789.000000
11
19592.000000
21
38789.000000
0
LINE
8
Layer 1
10
13789.000000
20
38789.000000
11
16691.000000
21
38789.000000
0
LINE
8
Layer 1
10
37591.000000
20
37728.000000
11
37591.000000
21
38207.000000
0
LINE
8
Layer 1
10
37591.000000
20
37248.000000
11
37591.000000
21
37728.000000
0
LINE
8
Layer 1
10
37591.000000
20
36768.000000
11
37591.000000
21
37248.000000
0
LINE
8
Layer 1
10
37591.000000
20
36289.000000
11
37591.000000
21
36768.000000
0
LINE
8
Layer 1
10
37591.000000
20
35809.000000
11
37591.000000
21
36289.000000
0
LINE
8
Layer 1
10
37591.000000
20
35330.000000
11
37591.000000
21
35809.000000
0
LINE
8
Layer 1
10
37591.000000
20
34850.000000
11
37591.000000
21
35330.000000
0
LINE
8
Layer 1
10
37591.000000
20
34371.000000
11
37591.000000
21
34850.000000
0
LINE
8
Layer 1
10
37119.000000
20
38777.000000
11
37000.000000
21
38789.000000
0
LINE
8
Layer 1
10
37230.000000
20
38742.000000
11
37119.000000
21
38777.000000
0
LINE
8
Layer 1
10
55685.000000
20
2035.000000
11
54351.000000
21
1565.000000
0
LINE
8
Layer 1
10
56150.000000
20
2539.000000
11
55685.000000
21
2035.000000
0
LINE
8
Layer 1
10
55679.000000
20
32981.000000
11
55560.000000
21
32993.000000
0
LINE
8
Layer 1
10
55790.000000
20
32946.000000
11
55679.000000
21
32981.000000
0
LINE
8
Layer 1
10
55890.000000
20
32892.000000
11
55790.000000
21
32946.000000
0
LINE
8
Layer 1
10
55977.000000
20
32820.000000
11
55890.000000
21
32892.000000
0
LINE
8
Layer 1
10
56049.000000
20
32733.000000
11
55977.000000
21
32820.000000
0
LINE
8
Layer 1
10
56104.000000
20
32632.000000
11
56049.000000
21
32733.000000
0
LINE
8
Layer 1
10
56138.000000
20
32521.000000
11
56104.000000
21
32632.000000
0
LINE
8
Layer 1
10
56150.000000
20
32402.000000
11
56138.000000
21
32521.000000
0
LINE
8
Layer 1
10
56150.000000
20
28669.000000
11
56150.000000
21
32402.000000
0
LINE
8
Layer 1
10
56150.000000
20
24936.000000
11
56150.000000
21
28669.000000
0
LINE
8
Layer 1
10
56150.000000
20
21203.000000
11
56150.000000
21
24936.000000
0
LINE
8
Layer 1
10
56150.000000
20
17471.000000
11
56150.000000
21
21203.000000
0
LINE
8
Layer 1
10
56150.000000
20
13738.000000
11
56150.000000
21
17471.000000
0
LINE
8
Layer 1
10
56150.000000
20
10005.000000
11
56150.000000
21
13738.000000
0
LINE
8
Layer 1
10
54390.000000
20
11108.000000
11
54390.000000
21
5596.000000
0
LINE
8
Layer 1
10
54390.000000
20
5596.000000
11
59902.000000
21
5596.000000
0
LINE
8
Layer 1
10
59902.000000
20
11108.000000
11
54390.000000
21
11108.000000
0
LINE
8
Layer 1
10
59902.000000
20
5596.000000
11
59902.000000
21
11108.000000
0
LINE
8
Layer 1
10
43802.000000
20
1811.000000
11
42693.000000
21
1783.000000
0
LINE
8
Layer 1
10
44890.000000
20
1845.000000
11
43802.000000
21
1811.000000
0
LINE
8
Layer 1
10
45955.000000
20
1884.000000
11
44890.000000
21
1845.000000
0
LINE
8
Layer 1
10
60988.000000
20
4233.000000
11
60988.000000
21
34096.000000
0
LINE
8
Layer 1
10
39252.000000
20
1736.000000
11
38071.000000
21
1733.000000
0
LINE
8
Layer 1
10
59902.000000
20
18549.000000
11
54390.000000
21
18549.000000
0
LINE
8
Layer 1
10
60517.000000
20
34675.000000
11
60398.000000
21
34687.000000
0
LINE
8
Layer 1
10
60628.000000
20
34640.000000
11
60517.000000
21
34675.000000
0
LINE
8
Layer 1
10
49959.000000
20
2094.000000
11
48999.000000
21
2034.000000
0
LINE
8
Layer 1
10
50889.000000
20
2159.000000
11
49959.000000
21
2094.000000
0
LINE
8
Layer 1
10
51787.000000
20
2229.000000
11
50889.000000
21
2159.000000
0
LINE
8
Layer 1
10
52653.000000
20
2303.000000
11
51787.000000
21
2229.000000
0
LINE
8
Layer 1
10
53484.000000
20
2382.000000
11
52653.000000
21
2303.000000
0
LINE
8
Layer 1
10
54280.000000
20
2464.000000
11
53484.000000
21
2382.000000
0
LINE
8
Layer 1
10
55038.000000
20
2551.000000
11
54280.000000
21
2464.000000
0
LINE
8
Layer 1
10
55759.000000
20
2642.000000
11
55038.000000
21
2551.000000
0
LINE
8
Layer 1
10
56439.000000
20
2736.000000
11
55759.000000
21
2642.000000
0
LINE
8
Layer 1
10
57077.000000
20
2834.000000
11
56439.000000
21
2736.000000
0
LINE
8
Layer 1
10
57673.000000
20
2936.000000
11
57077.000000
21
2834.000000
0
LINE
8
Layer 1
10
58224.000000
20
3040.000000
11
57673.000000
21
2936.000000
0
LINE
8
Layer 1
10
58730.000000
20
3148.000000
11
58224.000000
21
3040.000000
0
LINE
8
Layer 1
10
59189.000000
20
3259.000000
11
58730.000000
21
3148.000000
0
LINE
8
Layer 1
10
59599.000000
20
3373.000000
11
59189.000000
21
3259.000000
0
LINE
8
Layer 1
10
59959.000000
20
3489.000000
11
59599.000000
21
3373.000000
0
LINE
8
Layer 1
10
60267.000000
20
3607.000000
11
59959.000000
21
3489.000000
0
LINE
8
Layer 1
10
60523.000000
20
3728.000000
11
60267.000000
21
3607.000000
0
LINE
8
Layer 1
10
60724.000000
20
3852.000000
11
60523.000000
21
3728.000000
0
LINE
8
Layer 1
10
60870.000000
20
3977.000000
11
60724.000000
21
3852.000000
0
LINE
8
Layer 1
10
60959.000000
20
4104.000000
11
60870.000000
21
3977.000000
0
LINE
8
Layer 1
10
60988.000000
20
4233.000000
11
60959.000000
21
4104.000000
0
LINE
8
Layer 1
10
54390.000000
20
18549.000000
11
54390.000000
21
13038.000000
0
LINE
8
Layer 1
10
35650.000000
20
36865.000000
11
35650.000000
21
33097.000000
0
LINE
8
Layer 1
10
41162.000000
20
38609.000000
11
35650.000000
21
38609.000000
0
LINE
8
Layer 1
10
40416.000000
20
1745.000000
11
39252.000000
21
1736.000000
0
LINE
8
Layer 1
10
41564.000000
20
1761.000000
11
40416.000000
21
1745.000000
0
LINE
8
Layer 1
10
42693.000000
20
1783.000000
11
41564.000000
21
1761.000000
0
LINE
8
Layer 1
10
18627.000000
20
40483.000000
11
41838.000000
21
40483.000000
0
LINE
8
Layer 1
10
42429.000000
20
36064.000000
11
42429.000000
21
39901.000000
0
LINE
8
Layer 1
10
41958.000000
20
40471.000000
11
41838.000000
21
40483.000000
0
LINE
8
Layer 1
10
42068.000000
20
40436.000000
11
41958.000000
21
40471.000000
0
LINE
8
Layer 1
10
42169.000000
20
40382.000000
11
42068.000000
21
40436.000000
0
LINE
8
Layer 1
10
8317.000000
20
35594.000000
11
8979.000000
21
36720.000000
0
LINE
8
Layer 1
10
7655.000000
20
34467.000000
11
8317.000000
21
35594.000000
0
LINE
8
Layer 1
10
12289.000000
20
42353.000000
11
12951.000000
21
43480.000000
0
LINE
8
Layer 1
10
11627.000000
20
41227.000000
11
12289.000000
21
42353.000000
0
LINE
8
Layer 1
10
10965.000000
20
40100.000000
11
11627.000000
21
41227.000000
0
LINE
8
Layer 1
10
10303.000000
20
38973.000000
11
10965.000000
21
40100.000000
0
LINE
8
Layer 1
10
9641.000000
20
37847.000000
11
10303.000000
21
38973.000000
0
LINE
8
Layer 1
10
8979.000000
20
36720.000000
11
9641.000000
21
37847.000000
0
LINE
8
Layer 1
10
24391.000000
20
18116.000000
11
29903.000000
21
18116.000000
0
LINE
8
Layer 1
10
24391.000000
20
23628.000000
11
24391.000000
21
18116.000000
0
LINE
8
Layer 1
10
29903.000000
20
23628.000000
11
24391.000000
21
23628.000000
0
LINE
8
Layer 1
10
29903.000000
20
31147.000000
11
29903.000000
21
31147.000000
0
LINE
8
Layer 1
10
29903.000000
20
25636.000000
11
29903.000000
21
31147.000000
0
LINE
8
Layer 1
10
24391.000000
20
25636.000000
11
29903.000000
21
25636.000000
0
LINE
8
Layer 1
10
24391.000000
20
31147.000000
11
24391.000000
21
25636.000000
0
LINE
8
Layer 1
10
29903.000000
20
31147.000000
11
24391.000000
21
31147.000000
0
LINE
8
Layer 1
10
26162.000000
20
39494.000000
11
26162.000000
21
39494.000000
0
LINE
8
Layer 1
10
26162.000000
20
33982.000000
11
26162.000000
21
39494.000000
0
LINE
8
Layer 1
10
20650.000000
20
33982.000000
11
26162.000000
21
33982.000000
0
LINE
8
Layer 1
10
20650.000000
20
39494.000000
11
20650.000000
21
33982.000000
0
LINE
8
Layer 1
10
26162.000000
20
39494.000000
11
20650.000000
21
39494.000000
0
LINE
8
Layer 1
10
33642.000000
20
38608.000000
11
33642.000000
21
38608.000000
0
LINE
8
Layer 1
10
33642.000000
20
33096.000000
11
33642.000000
21
38608.000000
0
LINE
8
Layer 1
10
28130.000000
20
33096.000000
11
33642.000000
21
33096.000000
0
LINE
8
Layer 1
10
28130.000000
20
38608.000000
11
28130.000000
21
33096.000000
0
LINE
8
Layer 1
10
33642.000000
20
38608.000000
11
28130.000000
21
38608.000000
0
LINE
8
Layer 1
10
37422.000000
20
30596.000000
11
37422.000000
21
30596.000000
0
LINE
8
Layer 1
10
37422.000000
20
25084.000000
11
37422.000000
21
30596.000000
0
LINE
8
Layer 1
10
31910.000000
20
25084.000000
11
37422.000000
21
25084.000000
0
LINE
8
Layer 1
10
31910.000000
20
30596.000000
11
31910.000000
21
25084.000000
0
LINE
8
Layer 1
10
37422.000000
20
30596.000000
11
31910.000000
21
30596.000000
0
LINE
8
Layer 1
10
37422.000000
20
23116.000000
11
37422.000000
21
23116.000000
0
LINE
8
Layer 1
10
37422.000000
20
17604.000000
11
37422.000000
21
23116.000000
0
LINE
8
Layer 1
10
31910.000000
20
17604.000000
11
37422.000000
21
17604.000000
0
LINE
8
Layer 1
10
31910.000000
20
23116.000000
11
31910.000000
21
17604.000000
0
LINE
8
Layer 1
10
37422.000000
20
23116.000000
11
31910.000000
21
23116.000000
0
LINE
8
Layer 1
10
37422.000000
20
15597.000000
11
37422.000000
21
15597.000000
0
LINE
8
Layer 1
10
37422.000000
20
10085.000000
11
37422.000000
21
15597.000000
0
LINE
8
Layer 1
10
31910.000000
20
10085.000000
11
37422.000000
21
10085.000000
0
LINE
8
Layer 1
10
31910.000000
20
15597.000000
11
31910.000000
21
10085.000000
0
LINE
8
Layer 1
10
37422.000000
20
15597.000000
11
31910.000000
21
15597.000000
0
LINE
8
Layer 1
10
37394.000000
20
8081.000000
11
37394.000000
21
8081.000000
0
LINE
8
Layer 1
10
37394.000000
20
2569.000000
11
37394.000000
21
8081.000000
0
LINE
8
Layer 1
10
31882.000000
20
2569.000000
11
37394.000000
21
2569.000000
0
LINE
8
Layer 1
10
31882.000000
20
8081.000000
11
31882.000000
21
2569.000000
0
LINE
8
Layer 1
10
37394.000000
20
8081.000000
11
31882.000000
21
8081.000000
0
LINE
8
Layer 1
10
44904.000000
20
8628.000000
11
44904.000000
21
8628.000000
0
LINE
8
Layer 1
10
44904.000000
20
3116.000000
11
44904.000000
21
8628.000000
0
LINE
8
Layer 1
10
39392.000000
20
3116.000000
11
44904.000000
21
3116.000000
0
LINE
8
Layer 1
10
39392.000000
20
8628.000000
11
39392.000000
21
3116.000000
0
LINE
8
Layer 1
10
44904.000000
20
8628.000000
11
39392.000000
21
8628.000000
0
LINE
8
Layer 1
10
44902.000000
20
16108.000000
11
44902.000000
21
16108.000000
0
LINE
8
Layer 1
10
44902.000000
20
10596.000000
11
44902.000000
21
16108.000000
0
LINE
8
Layer 1
10
39390.000000
20
10596.000000
11
44902.000000
21
10596.000000
0
LINE
8
Layer 1
10
39390.000000
20
16108.000000
11
39390.000000
21
10596.000000
0
LINE
8
Layer 1
10
44902.000000
20
16108.000000
11
39390.000000
21
16108.000000
0
LINE
8
Layer 1
10
44903.000000
20
23627.000000
11
44903.000000
21
23627.000000
0
LINE
8
Layer 1
10
44903.000000
20
18116.000000
11
44903.000000
21
23627.000000
0
LINE
8
Layer 1
10
39391.000000
20
18116.000000
11
44903.000000
21
18116.000000
0
LINE
8
Layer 1
10
39391.000000
20
23627.000000
11
39391.000000
21
18116.000000
0
LINE
8
Layer 1
10
44903.000000
20
23627.000000
11
39391.000000
21
23627.000000
0
LINE
8
Layer 1
10
44902.000000
20
31147.000000
11
44902.000000
21
31147.000000
0
LINE
8
Layer 1
10
44902.000000
20
25636.000000
11
44902.000000
21
31147.000000
0
LINE
8
Layer 1
10
39390.000000
20
25636.000000
11
44902.000000
21
25636.000000
0
LINE
8
Layer 1
10
39390.000000
20
31147.000000
11
39390.000000
21
25636.000000
0
LINE
8
Layer 1
10
44902.000000
20
31147.000000
11
39390.000000
21
31147.000000
0
LINE
8
Layer 1
10
52422.000000
20
17959.000000
11
52422.000000
21
17959.000000
0
LINE
8
Layer 1
10
52422.000000
20
12447.000000
11
52422.000000
21
17959.000000
0
LINE
8
Layer 1
10
46910.000000
20
12447.000000
11
52422.000000
21
12447.000000
0
LINE
8
Layer 1
10
46910.000000
20
17959.000000
11
46910.000000
21
12447.000000
0
LINE
8
Layer 1
10
52422.000000
20
17959.000000
11
46910.000000
21
17959.000000
0
LINE
8
Layer 1
10
52416.000000
20
25518.000000
11
52416.000000
21
25518.000000
0
LINE
8
Layer 1
10
52416.000000
20
20006.000000
11
52416.000000
21
25518.000000
0
LINE
8
Layer 1
10
46904.000000
20
20006.000000
11
52416.000000
21
20006.000000
0
LINE
8
Layer 1
10
46904.000000
20
25518.000000
11
46904.000000
21
20006.000000
0
LINE
8
Layer 1
10
52416.000000
20
25518.000000
11
46904.000000
21
25518.000000
0
LINE
8
Layer 1
10
52422.000000
20
32997.000000
11
52422.000000
21
32997.000000
0
LINE
8
Layer 1
10
52422.000000
20
27486.000000
11
52422.000000
21
32997.000000
0
LINE
8
Layer 1
10
46910.000000
20
27486.000000
11
52422.000000
21
27486.000000
0
LINE
8
Layer 1
10
46910.000000
20
32997.000000
11
46910.000000
21
27486.000000
0
LINE
8
Layer 1
10
52422.000000
20
32997.000000
11
46910.000000
21
32997.000000
0
LINE
8
Layer 1
10
52422.000000
20
10518.000000
11
52422.000000
21
10518.000000
0
LINE
8
Layer 1
10
52422.000000
20
5006.000000
11
52422.000000
21
10518.000000
0
LINE
8
Layer 1
10
46910.000000
20
5006.000000
11
52422.000000
21
5006.000000
0
LINE
8
Layer 1
10
46910.000000
20
10518.000000
11
46910.000000
21
5006.000000
0
LINE
8
Layer 1
10
52422.000000
20
10518.000000
11
46910.000000
21
10518.000000
0
LINE
8
Layer 1
10
38071.000000
20
1733.000000
11
16666.000000
21
1733.000000
0
LINE
8
Layer 1
10
7596.000000
20
34356.000000
11
7655.000000
21
34467.000000
0
LINE
8
Layer 1
10
7537.000000
20
34245.000000
11
7596.000000
21
34356.000000
0
LINE
8
Layer 1
10
7479.000000
20
34135.000000
11
7537.000000
21
34245.000000
0
LINE
8
Layer 1
10
7420.000000
20
34024.000000
11
7479.000000
21
34135.000000
0
LINE
8
Layer 1
10
7330.000000
20
33825.000000
11
7420.000000
21
34024.000000
0
LINE
8
Layer 1
10
7240.000000
20
33627.000000
11
7330.000000
21
33825.000000
0
LINE
8
Layer 1
10
7150.000000
20
33428.000000
11
7240.000000
21
33627.000000
0
LINE
8
Layer 1
10
7060.000000
20
33230.000000
11
7150.000000
21
33428.000000
0
LINE
8
Layer 1
10
6951.000000
20
32947.000000
11
7060.000000
21
33230.000000
0
LINE
8
Layer 1
10
6841.000000
20
32665.000000
11
6951.000000
21
32947.000000
0
LINE
8
Layer 1
10
6732.000000
20
32383.000000
11
6841.000000
21
32665.000000
0
LINE
8
Layer 1
10
6622.000000
20
32101.000000
11
6732.000000
21
32383.000000
0
LINE
8
Layer 1
10
6504.000000
20
31739.000000
11
6622.000000
21
32101.000000
0
LINE
8
Layer 1
10
6386.000000
20
31378.000000
11
6504.000000
21
31739.000000
0
LINE
8
Layer 1
10
6269.000000
20
31016.000000
11
6386.000000
21
31378.000000
0
LINE
8
Layer 1
10
6151.000000
20
30654.000000
11
6269.000000
21
31016.000000
0
LINE
8
Layer 1
10
6036.000000
20
30217.000000
11
6151.000000
21
30654.000000
0
LINE
8
Layer 1
10
5922.000000
20
29780.000000
11
6036.000000
21
30217.000000
0
LINE
8
Layer 1
10
5807.000000
20
29343.000000
11
5922.000000
21
29780.000000
0
LINE
8
Layer 1
10
5693.000000
20
28906.000000
11
5807.000000
21
29343.000000
0
LINE
8
Layer 1
10
5593.000000
20
28397.000000
11
5693.000000
21
28906.000000
0
LINE
8
Layer 1
10
5493.000000
20
27889.000000
11
5593.000000
21
28397.000000
0
LINE
8
Layer 1
10
5394.000000
20
27380.000000
11
5493.000000
21
27889.000000
0
LINE
8
Layer 1
10
5294.000000
20
26872.000000
11
5394.000000
21
27380.000000
0
LINE
8
Layer 1
10
5220.000000
20
26296.000000
11
5294.000000
21
26872.000000
0
LINE
8
Layer 1
10
5147.000000
20
25721.000000
11
5220.000000
21
26296.000000
0
LINE
8
Layer 1
10
5073.000000
20
25145.000000
11
5147.000000
21
25721.000000
0
LINE
8
Layer 1
10
5000.000000
20
24569.000000
11
5073.000000
21
25145.000000
0
LINE
8
Layer 1
10
4969.000000
20
24024.000000
11
5000.000000
21
24569.000000
0
LINE
8
Layer 1
10
4939.000000
20
23478.000000
11
4969.000000
21
24024.000000
0
LINE
8
Layer 1
10
4908.000000
20
22932.000000
11
4939.000000
21
23478.000000
0
LINE
8
Layer 1
10
4877.000000
20
22386.000000
11
4908.000000
21
22932.000000
0
LINE
8
Layer 1
10
13278.000000
20
43577.000000
11
13349.000000
21
43538.000000
0
LINE
8
Layer 1
10
13228.000000
20
43593.000000
11
13278.000000
21
43577.000000
0
LINE
8
Layer 1
10
13179.000000
20
43597.000000
11
13228.000000
21
43593.000000
0
LINE
8
Layer 1
10
13134.000000
20
43597.000000
11
13179.000000
21
43597.000000
0
LINE
8
Layer 1
10
13092.000000
20
43584.000000
11
13134.000000
21
43597.000000
0
LINE
8
Layer 1
10
13048.000000
20
43564.000000
11
13092.000000
21
43584.000000
0
LINE
8
Layer 1
10
12989.000000
20
43526.000000
11
13048.000000
21
43564.000000
0
LINE
8
Layer 1
10
12951.000000
20
43480.000000
11
12989.000000
21
43526.000000
0
LINE
8
Layer 1
10
17967.000000
20
40864.000000
11
18627.000000
21
40482.000000
0
LINE
8
Layer 1
10
17308.000000
20
41246.000000
11
17967.000000
21
40864.000000
0
LINE
8
Layer 1
10
16648.000000
20
41628.000000
11
17308.000000
21
41246.000000
0
LINE
8
Layer 1
10
15988.000000
20
42010.000000
11
16648.000000
21
41628.000000
0
LINE
8
Layer 1
10
15328.000000
20
42392.000000
11
15988.000000
21
42010.000000
0
LINE
8
Layer 1
10
14669.000000
20
42774.000000
11
15328.000000
21
42392.000000
0
LINE
8
Layer 1
10
14009.000000
20
43156.000000
11
14669.000000
21
42774.000000
0
LINE
8
Layer 1
10
13349.000000
20
43538.000000
11
14009.000000
21
43156.000000
0
LINE
8
Layer 1
10
24390.000000
20
10636.000000
11
29902.000000
21
10636.000000
0
LINE
8
Layer 1
10
24390.000000
20
16148.000000
11
24390.000000
21
10636.000000
0
LINE
8
Layer 1
10
29902.000000
20
16148.000000
11
24390.000000
21
16148.000000
0
LINE
8
Layer 1
10
29903.000000
20
23628.000000
11
29903.000000
21
23628.000000
0
LINE
8
Layer 1
10
29903.000000
20
18116.000000
11
29903.000000
21
23628.000000
0
LINE
8
Layer 1
10
29902.000000
20
8628.000000
11
24390.000000
21
8628.000000
0
LINE
8
Layer 1
10
29902.000000
20
16148.000000
11
29902.000000
21
16148.000000
0
LINE
8
Layer 1
10
29902.000000
20
10636.000000
11
29902.000000
21
16148.000000
0
LINE
8
Layer 1
10
22422.000000
20
9573.000000
11
22422.000000
21
9573.000000
0
LINE
8
Layer 1
10
22422.000000
20
4061.000000
11
22422.000000
21
9573.000000
0
LINE
8
Layer 1
10
16910.000000
20
4061.000000
11
22422.000000
21
4061.000000
0
LINE
8
Layer 1
10
16910.000000
20
9573.000000
11
16910.000000
21
4061.000000
0
LINE
8
Layer 1
10
22422.000000
20
9573.000000
11
16910.000000
21
9573.000000
0
LINE
8
Layer 1
10
29902.000000
20
8628.000000
11
29902.000000
21
8628.000000
0
LINE
8
Layer 1
10
29902.000000
20
3116.000000
11
29902.000000
21
8628.000000
0
LINE
8
Layer 1
10
24390.000000
20
3116.000000
11
29902.000000
21
3116.000000
0
LINE
8
Layer 1
10
24390.000000
20
8628.000000
11
24390.000000
21
3116.000000
0
LINE
8
Layer 1
10
22422.000000
20
17093.000000
11
22422.000000
21
17093.000000
0
LINE
8
Layer 1
10
22422.000000
20
11581.000000
11
22422.000000
21
17093.000000
0
LINE
8
Layer 1
10
16910.000000
20
11581.000000
11
22422.000000
21
11581.000000
0
LINE
8
Layer 1
10
16910.000000
20
17093.000000
11
16910.000000
21
11581.000000
0
LINE
8
Layer 1
10
22422.000000
20
17093.000000
11
16910.000000
21
17093.000000
0
LINE
8
Layer 1
10
5743.000000
20
21519.000000
11
14934.000000
21
21519.000000
0
LINE
8
Layer 1
10
14883.000000
20
28273.000000
11
14883.000000
21
28273.000000
0
LINE
8
Layer 1
10
14883.000000
20
22762.000000
11
14883.000000
21
28273.000000
0
LINE
8
Layer 1
10
9390.000000
20
22762.000000
11
14883.000000
21
22762.000000
0
LINE
8
Layer 1
10
9390.000000
20
28273.000000
11
9390.000000
21
22762.000000
0
LINE
8
Layer 1
10
14883.000000
20
28273.000000
11
9390.000000
21
28273.000000
0
LINE
8
Layer 1
10
17328.000000
20
38140.000000
11
17328.000000
21
38140.000000
0
LINE
8
Layer 1
10
14572.000000
20
33367.000000
11
17328.000000
21
38140.000000
0
LINE
8
Layer 1
10
9799.000000
20
36123.000000
11
14572.000000
21
33367.000000
0
LINE
8
Layer 1
10
12555.000000
20
40896.000000
11
9799.000000
21
36123.000000
0
LINE
8
Layer 1
10
17328.000000
20
38140.000000
11
12555.000000
21
40896.000000
0
LINE
8
Layer 1
10
22422.000000
20
32053.000000
11
22422.000000
21
32053.000000
0
LINE
8
Layer 1
10
22422.000000
20
26542.000000
11
22422.000000
21
32053.000000
0
LINE
8
Layer 1
10
16910.000000
20
26542.000000
11
22422.000000
21
26542.000000
0
LINE
8
Layer 1
10
16910.000000
20
32053.000000
11
16910.000000
21
26542.000000
0
LINE
8
Layer 1
10
22422.000000
20
32053.000000
11
16910.000000
21
32053.000000
0
LINE
8
Layer 1
10
22422.000000
20
24572.000000
11
22422.000000
21
24572.000000
0
LINE
8
Layer 1
10
22422.000000
20
19060.000000
11
22422.000000
21
24572.000000
0
LINE
8
Layer 1
10
16910.000000
20
19060.000000
11
22422.000000
21
19060.000000
0
LINE
8
Layer 1
10
16910.000000
20
24572.000000
11
16910.000000
21
19060.000000
0
LINE
8
Layer 1
10
22422.000000
20
24572.000000
11
16910.000000
21
24572.000000
0
LINE
8
Layer 1
10
15732.000000
20
20990.000000
11
15783.000000
21
20828.000000
0
LINE
8
Layer 1
10
15653.000000
20
21137.000000
11
15732.000000
21
20990.000000
0
LINE
8
Layer 1
10
15547.000000
20
21266.000000
11
15653.000000
21
21137.000000
0
LINE
8
Layer 1
10
15419.000000
20
21371.000000
11
15547.000000
21
21266.000000
0
LINE
8
Layer 1
10
15272.000000
20
21451.000000
11
15419.000000
21
21371.000000
0
LINE
8
Layer 1
10
15109.000000
20
21502.000000
11
15272.000000
21
21451.000000
0
LINE
8
Layer 1
10
14934.000000
20
21519.000000
11
15109.000000
21
21502.000000
0
LINE
8
Layer 1
10
15783.000000
20
20828.000000
11
15800.000000
21
20653.000000
0
LINE
8
Layer 1
10
5743.000000
20
21519.000000
11
5567.000000
21
21537.000000
0
LINE
8
Layer 1
10
5024.000000
20
21899.000000
11
4945.000000
21
22046.000000
0
LINE
8
Layer 1
10
5129.000000
20
21771.000000
11
5024.000000
21
21899.000000
0
LINE
8
Layer 1
10
5256.000000
20
21666.000000
11
5129.000000
21
21771.000000
0
LINE
8
Layer 1
10
5404.000000
20
21586.000000
11
5256.000000
21
21666.000000
0
LINE
8
Layer 1
10
5567.000000
20
21537.000000
11
5404.000000
21
21586.000000
0
LINE
8
Layer 1
10
4895.000000
20
22210.000000
11
4877.000000
21
22386.000000
0
LINE
8
Layer 1
10
4945.000000
20
22046.000000
11
4895.000000
21
22210.000000
0
LINE
8
Layer 1
10
16492.000000
20
1750.000000
11
16329.000000
21
1801.000000
0
LINE
8
Layer 1
10
16666.000000
20
1733.000000
11
16492.000000
21
1750.000000
0
LINE
8
Layer 1
10
15818.000000
20
2424.000000
11
15800.000000
21
2599.000000
0
LINE
8
Layer 1
10
15868.000000
20
2261.000000
11
15818.000000
21
2424.000000
0
LINE
8
Layer 1
10
15948.000000
20
2114.000000
11
15868.000000
21
2261.000000
0
LINE
8
Layer 1
10
16054.000000
20
1986.000000
11
15948.000000
21
2114.000000
0
LINE
8
Layer 1
10
16182.000000
20
1880.000000
11
16054.000000
21
1986.000000
0
LINE
8
Layer 1
10
16329.000000
20
1801.000000
11
16182.000000
21
1880.000000
0
LINE
8
Layer 1
10
59922.000000
20
33588.000000
11
54410.000000
21
33588.000000
0
LINE
8
Layer 1
10
59922.000000
20
33588.000000
11
59922.000000
21
33588.000000
0
LINE
8
Layer 1
10
59922.000000
20
28077.000000
11
59922.000000
21
33588.000000
0
LINE
8
Layer 1
10
54410.000000
20
28077.000000
11
59922.000000
21
28077.000000
0
LINE
8
Layer 1
10
54410.000000
20
33588.000000
11
54410.000000
21
28077.000000
0
LINE
8
Layer 1
10
54391.000000
20
26109.000000
11
54391.000000
21
20597.000000
0
LINE
8
Layer 1
10
59903.000000
20
26109.000000
11
54391.000000
21
26109.000000
0
LINE
8
Layer 1
10
15800.000000
20
20653.000000
11
15800.000000
21
2604.000000
0
LINE
8
Layer 1
10
59903.000000
20
26109.000000
11
59903.000000
21
26109.000000
0
LINE
8
Layer 1
10
59903.000000
20
20597.000000
11
59903.000000
21
26109.000000
0
LINE
8
Layer 1
10
54391.000000
20
20597.000000
11
59903.000000
21
20597.000000
0
LINE
8
Layer 1
10
42256.000000
20
40310.000000
11
42169.000000
21
40382.000000
0
LINE
8
Layer 1
10
42328.000000
20
40222.000000
11
42256.000000
21
40310.000000
0
LINE
8
Layer 1
10
42383.000000
20
40122.000000
11
42328.000000
21
40222.000000
0
LINE
8
Layer 1
10
42417.000000
20
40011.000000
11
42383.000000
21
40122.000000
0
LINE
8
Layer 1
10
42429.000000
20
39892.000000
11
42417.000000
21
40011.000000
0
LINE
8
Layer 1
10
43807.000000
20
34687.000000
11
60398.000000
21
34687.000000
0
LINE
8
Layer 1
10
43529.000000
20
34714.000000
11
43807.000000
21
34687.000000
0
LINE
8
Layer 1
10
43270.000000
20
34795.000000
11
43529.000000
21
34714.000000
0
LINE
8
Layer 1
10
43036.000000
20
34922.000000
11
43270.000000
21
34795.000000
0
LINE
8
Layer 1
10
42832.000000
20
35090.000000
11
43036.000000
21
34922.000000
0
LINE
8
Layer 1
10
42664.000000
20
35294.000000
11
42832.000000
21
35090.000000
0
LINE
8
Layer 1
10
42537.000000
20
35528.000000
11
42664.000000
21
35294.000000
0
LINE
8
Layer 1
10
42457.000000
20
35787.000000
11
42537.000000
21
35528.000000
0
LINE
8
Layer 1
10
42429.000000
20
36064.000000
11
42457.000000
21
35787.000000
0
LINE
8
Layer 1
10
46996.000000
20
1929.000000
11
45955.000000
21
1884.000000
0
LINE
8
Layer 1
10
48011.000000
20
1979.000000
11
46996.000000
21
1929.000000
0
LINE
8
Layer 1
10
48999.000000
20
2034.000000
11
48011.000000
21
1979.000000
0
LINE
8
Layer 1
10
59902.000000
20
13038.000000
11
59902.000000
21
18549.000000
0
LINE
8
Layer 1
10
60728.000000
20
34586.000000
11
60628.000000
21
34640.000000
0
LINE
8
Layer 1
10
60815.000000
20
34514.000000
11
60728.000000
21
34586.000000
0
LINE
8
Layer 1
10
60888.000000
20
34426.000000
11
60815.000000
21
34514.000000
0
LINE
8
Layer 1
10
60942.000000
20
34326.000000
11
60888.000000
21
34426.000000
0
LINE
8
Layer 1
10
60976.000000
20
34215.000000
11
60942.000000
21
34326.000000
0
LINE
8
Layer 1
10
60988.000000
20
34096.000000
11
60976.000000
21
34215.000000
0
LINE
8
Layer 1
10
35650.000000
20
33097.000000
11
41162.000000
21
33097.000000
0
LINE
8
Layer 1
10
35650.000000
20
38609.000000
11
35650.000000
21
36865.000000
0
LINE
8
Layer 1
10
54390.000000
20
13038.000000
11
59902.000000
21
13038.000000
0
LINE
8
Layer 1
10
41162.000000
20
33097.000000
11
41162.000000
21
38609.000000
 0 
ENDSEC
 0 
EOF