<?xml version="1.0" standalone="no"?>
 <!DOCTYPE svg PUBLIC "-//W3C//DTD SVG 1.1//EN" 
 "http://www.w3.org/Graphics/SVG/1.1/DTD/svg11.dtd"> 
<svg xmlns="http://www.w3.org/2000/svg" version="1.1" 
    width="14.2697cm" height="10.6502cm" viewBox="0 0 56180 41930 ">
<title>SVG Picture created as Lily58_Pro_BOTTOM-brd.svg date 2019/11/23 15:16:56 </title>
  <desc>Picture generated by PCBNEW </desc>
<g style="fill:#000000; fill-opacity:1;stroke:#000000; stroke-opacity:1;
stroke-linecap:round; stroke-linejoin:round; "
 transform="translate(0 0) scale(1 1)">
</g>
<g style="fill:#000000; fill-opacity:0.0; 
stroke:#000000; stroke-width:-0.000393701; stroke-opacity:1; 
stroke-linecap:round; stroke-linejoin:round;">
<g >
</g>
<g style="fill:#848400; fill-opacity:0.0; 
stroke:#848400; stroke-width:-0.000393701; stroke-opacity:1; 
stroke-linecap:round; stroke-linejoin:round;">
</g>
<g style="fill:#848400; fill-opacity:1.0; 
stroke:#848400; stroke-width:0; stroke-opacity:1; 
stroke-linecap:round; stroke-linejoin:round;">
<circle cx="18410.4" cy="8902.85" r="866.142" /> 
</g>
<g style="fill:#848400; fill-opacity:1.0; 
stroke:#848400; stroke-width:39.3701; stroke-opacity:1; 
stroke-linecap:round; stroke-linejoin:round;">
</g>
<g >
</g>
<g style="fill:#848400; fill-opacity:1.0; 
stroke:#848400; stroke-width:39.3701; stroke-opacity:1; 
stroke-linecap:round; stroke-linejoin:round;">
</g>
<g style="fill:#848400; fill-opacity:1.0; 
stroke:#848400; stroke-width:0; stroke-opacity:1; 
stroke-linecap:round; stroke-linejoin:round;">
<circle cx="48410.4" cy="9768.99" r="866.142" /> 
</g>
<g style="fill:#848400; fill-opacity:1.0; 
stroke:#848400; stroke-width:39.3701; stroke-opacity:1; 
stroke-linecap:round; stroke-linejoin:round;">
</g>
<g >
</g>
<g style="fill:#848400; fill-opacity:1.0; 
stroke:#848400; stroke-width:39.3701; stroke-opacity:1; 
stroke-linecap:round; stroke-linejoin:round;">
</g>
<g style="fill:#848400; fill-opacity:1.0; 
stroke:#848400; stroke-width:0; stroke-opacity:1; 
stroke-linecap:round; stroke-linejoin:round;">
<circle cx="18410.4" cy="23863.5" r="866.142" /> 
</g>
<g style="fill:#848400; fill-opacity:1.0; 
stroke:#848400; stroke-width:39.3701; stroke-opacity:1; 
stroke-linecap:round; stroke-linejoin:round;">
</g>
<g >
</g>
<g style="fill:#848400; fill-opacity:1.0; 
stroke:#848400; stroke-width:39.3701; stroke-opacity:1; 
stroke-linecap:round; stroke-linejoin:round;">
</g>
<g style="fill:#848400; fill-opacity:1.0; 
stroke:#848400; stroke-width:0; stroke-opacity:1; 
stroke-linecap:round; stroke-linejoin:round;">
<circle cx="48410.4" cy="24808.4" r="866.142" /> 
</g>
<g style="fill:#848400; fill-opacity:1.0; 
stroke:#848400; stroke-width:39.3701; stroke-opacity:1; 
stroke-linecap:round; stroke-linejoin:round;">
</g>
<g >
</g>
<g style="fill:#848400; fill-opacity:1.0; 
stroke:#848400; stroke-width:39.3701; stroke-opacity:1; 
stroke-linecap:round; stroke-linejoin:round;">
</g>
<g style="fill:#848400; fill-opacity:1.0; 
stroke:#848400; stroke-width:0; stroke-opacity:1; 
stroke-linecap:round; stroke-linejoin:round;">
<circle cx="8725.38" cy="30635.1" r="866.142" /> 
</g>
<g style="fill:#848400; fill-opacity:1.0; 
stroke:#848400; stroke-width:39.3701; stroke-opacity:1; 
stroke-linecap:round; stroke-linejoin:round;">
</g>
<g >
</g>
<g >
</g>
<g >
</g>
</g>
<g style="fill:#000000; fill-opacity:1.0; 
stroke:#000000; stroke-width:39.3701; stroke-opacity:1; 
stroke-linecap:round; stroke-linejoin:round;">
<g >
</g>
<g >
</g>
<g >
</g>
<g >
</g>
<g >
</g>
<g >
</g>
</g>
<g style="fill:#000000; fill-opacity:1.0; 
stroke:#000000; stroke-width:39.3701; stroke-opacity:1; 
stroke-linecap:round; stroke-linejoin:round;">
</g>
<g style="fill:#C2C200; fill-opacity:1.0; 
stroke:#C2C200; stroke-width:39.3701; stroke-opacity:1; 
stroke-linecap:round; stroke-linejoin:round;">
</g>
<g style="fill:#C2C200; fill-opacity:1.0; 
stroke:#C2C200; stroke-width:78.7402; stroke-opacity:1; 
stroke-linecap:round; stroke-linejoin:round;">
</g>
<g style="fill:#C2C200; fill-opacity:0.0; 
stroke:#C2C200; stroke-width:78.7402; stroke-opacity:1; 
stroke-linecap:round; stroke-linejoin:round;">
<path d="M13129 39170
L13789 38788
" />
<path d="M12469 39552
L13129 39170
" />
<path d="M39 5418
L39 2935
" />
<path d="M39 7901
L39 5418
" />
<path d="M12745 39
L8648 39
" />
<path d="M53486 32993
L55560 32993
" />
<path d="M51412 32993
L53486 32993
" />
<path d="M49338 32993
L51412 32993
" />
<path d="M47264 32993
L49338 32993
" />
<path d="M45190 32993
L47264 32993
" />
<path d="M43116 32993
L45190 32993
" />
<path d="M41043 32993
L43116 32993
" />
<path d="M38969 32993
L41043 32993
" />
<path d="M38691 33021
L38969 32993
" />
<path d="M38432 33101
L38691 33021
" />
<path d="M38198 33228
L38432 33101
" />
<path d="M37994 33396
L38198 33228
" />
<path d="M37826 33600
L37994 33396
" />
<path d="M37699 33834
L37826 33600
" />
<path d="M37619 34093
L37699 33834
" />
<path d="M37591 34371
L37619 34093
" />
<path d="M46051 466
L42158 235
" />
<path d="M49442 771
L46051 466
" />
<path d="M52239 1141
L49442 771
" />
<path d="M54351 1565
L52239 1141
" />
<path d="M37855 90
L33233 39
" />
<path d="M42158 235
L37855 90
" />
<path d="M37331 38688
L37230 38742
" />
<path d="M37418 38616
L37331 38688
" />
<path d="M37490 38529
L37418 38616
" />
<path d="M37544 38428
L37490 38529
" />
<path d="M37579 38317
L37544 38428
" />
<path d="M37591 38198
L37579 38317
" />
<path d="M56150 6272
L56150 10005
" />
<path d="M56150 2539
L56150 6272
" />
<path d="M39 12867
L39 10384
" />
<path d="M39 15351
L39 12867
" />
<path d="M39 17834
L39 15351
" />
<path d="M39 20317
L39 17834
" />
<path d="M8648 39
L4550 39
" />
<path d="M16843 39
L12745 39
" />
<path d="M20940 39
L16843 39
" />
<path d="M25038 39
L20940 39
" />
<path d="M29136 39
L25038 39
" />
<path d="M33233 39
L29136 39
" />
<path d="M221 109
L292 71
" />
<path d="M160 160
L221 109
" />
<path d="M110 221
L160 160
" />
<path d="M72 291
L110 221
" />
<path d="M48 369
L72 291
" />
<path d="M39 452
L48 369
" />
<path d="M369 47
L453 39
" />
<path d="M292 71
L369 47
" />
<path d="M4550 39
L453 39
" />
<path d="M39 10384
L39 7901
" />
<path d="M39 2935
L39 452
" />
<path d="M2147 31232
L2817 32678
" />
<path d="M1584 29741
L2147 31232
" />
<path d="M1122 28213
L1584 29741
" />
<path d="M751 26656
L1122 28213
" />
<path d="M465 25080
L751 26656
" />
<path d="M256 23492
L465 25080
" />
<path d="M117 21901
L256 23492
" />
<path d="M39 20317
L117 21901
" />
<path d="M8445 41878
L8511 41844
" />
<path d="M8382 41896
L8445 41878
" />
<path d="M8324 41900
L8382 41896
" />
<path d="M8269 41889
L8324 41900
" />
<path d="M8219 41864
L8269 41889
" />
<path d="M8173 41825
L8219 41864
" />
<path d="M8131 41772
L8173 41825
" />
<path d="M8094 41705
L8131 41772
" />
<path d="M11810 39934
L12469 39552
" />
<path d="M11150 40316
L11810 39934
" />
<path d="M10490 40698
L11150 40316
" />
<path d="M9830 41080
L10490 40698
" />
<path d="M9171 41462
L9830 41080
" />
<path d="M8511 41844
L9171 41462
" />
<path d="M7435 40577
L8094 41705
" />
<path d="M6775 39448
L7435 40577
" />
<path d="M6115 38320
L6775 39448
" />
<path d="M5455 37191
L6115 38320
" />
<path d="M4796 36063
L5455 37191
" />
<path d="M4136 34934
L4796 36063
" />
<path d="M3476 33806
L4136 34934
" />
<path d="M2817 32677
L3476 33806
" />
<path d="M34099 38789
L37000 38789
" />
<path d="M31197 38789
L34099 38789
" />
<path d="M28296 38789
L31197 38789
" />
<path d="M25395 38789
L28296 38789
" />
<path d="M22493 38789
L25395 38789
" />
<path d="M19592 38789
L22493 38789
" />
<path d="M16691 38789
L19592 38789
" />
<path d="M13789 38789
L16691 38789
" />
<path d="M37591 37728
L37591 38207
" />
<path d="M37591 37248
L37591 37728
" />
<path d="M37591 36768
L37591 37248
" />
<path d="M37591 36289
L37591 36768
" />
<path d="M37591 35809
L37591 36289
" />
<path d="M37591 35330
L37591 35809
" />
<path d="M37591 34850
L37591 35330
" />
<path d="M37591 34371
L37591 34850
" />
<path d="M37119 38777
L37000 38789
" />
<path d="M37230 38742
L37119 38777
" />
<path d="M55685 2035
L54351 1565
" />
<path d="M56150 2539
L55685 2035
" />
<path d="M55679 32981
L55560 32993
" />
<path d="M55790 32946
L55679 32981
" />
<path d="M55890 32892
L55790 32946
" />
<path d="M55977 32820
L55890 32892
" />
<path d="M56049 32733
L55977 32820
" />
<path d="M56104 32632
L56049 32733
" />
<path d="M56138 32521
L56104 32632
" />
<path d="M56150 32402
L56138 32521
" />
<path d="M56150 28669
L56150 32402
" />
<path d="M56150 24936
L56150 28669
" />
<path d="M56150 21203
L56150 24936
" />
<path d="M56150 17471
L56150 21203
" />
<path d="M56150 13738
L56150 17471
" />
<path d="M56150 10005
L56150 13738
" />
<g >
</g>
<g >
</g>
<g >
</g>
<g >
</g>
<g >
</g>
<g >
</g>
</g> 
</svg>
