<?xml version="1.0" standalone="no"?>
 <!DOCTYPE svg PUBLIC "-//W3C//DTD SVG 1.1//EN" 
 "http://www.w3.org/Graphics/SVG/1.1/DTD/svg11.dtd"> 
<svg xmlns="http://www.w3.org/2000/svg" version="1.1" 
    width="15.5448cm" height="11.3233cm" viewBox="0 0 61200 44580 ">
<title>SVG Picture created as Lily58_Pro_TOP-brd.svg date 2019/11/23 15:15:54 </title>
  <desc>Picture generated by PCBNEW </desc>
<g style="fill:#000000; fill-opacity:1;stroke:#000000; stroke-opacity:1;
stroke-linecap:round; stroke-linejoin:round; "
 transform="translate(0 0) scale(1 1)">
</g>
<g style="fill:#000000; fill-opacity:0.0; 
stroke:#000000; stroke-width:-0.000393701; stroke-opacity:1; 
stroke-linecap:round; stroke-linejoin:round;">
<g >
</g>
<g style="fill:#848400; fill-opacity:0.0; 
stroke:#848400; stroke-width:-0.000393701; stroke-opacity:1; 
stroke-linecap:round; stroke-linejoin:round;">
</g>
<g style="fill:#848400; fill-opacity:1.0; 
stroke:#848400; stroke-width:0; stroke-opacity:1; 
stroke-linecap:round; stroke-linejoin:round;">
<circle cx="23249.5" cy="10616.7" r="866.142" /> 
</g>
<g style="fill:#848400; fill-opacity:1.0; 
stroke:#848400; stroke-width:39.3701; stroke-opacity:1; 
stroke-linecap:round; stroke-linejoin:round;">
</g>
<g >
</g>
<g style="fill:#848400; fill-opacity:1.0; 
stroke:#848400; stroke-width:39.3701; stroke-opacity:1; 
stroke-linecap:round; stroke-linejoin:round;">
</g>
<g style="fill:#848400; fill-opacity:1.0; 
stroke:#848400; stroke-width:0; stroke-opacity:1; 
stroke-linecap:round; stroke-linejoin:round;">
<circle cx="53249.5" cy="11482.8" r="866.142" /> 
</g>
<g style="fill:#848400; fill-opacity:1.0; 
stroke:#848400; stroke-width:39.3701; stroke-opacity:1; 
stroke-linecap:round; stroke-linejoin:round;">
</g>
<g >
</g>
<g style="fill:#848400; fill-opacity:1.0; 
stroke:#848400; stroke-width:39.3701; stroke-opacity:1; 
stroke-linecap:round; stroke-linejoin:round;">
</g>
<g style="fill:#848400; fill-opacity:1.0; 
stroke:#848400; stroke-width:0; stroke-opacity:1; 
stroke-linecap:round; stroke-linejoin:round;">
<circle cx="53249.5" cy="26522.2" r="866.142" /> 
</g>
<g style="fill:#848400; fill-opacity:1.0; 
stroke:#848400; stroke-width:39.3701; stroke-opacity:1; 
stroke-linecap:round; stroke-linejoin:round;">
</g>
<g >
</g>
<g style="fill:#848400; fill-opacity:1.0; 
stroke:#848400; stroke-width:39.3701; stroke-opacity:1; 
stroke-linecap:round; stroke-linejoin:round;">
</g>
<g style="fill:#848400; fill-opacity:1.0; 
stroke:#848400; stroke-width:0; stroke-opacity:1; 
stroke-linecap:round; stroke-linejoin:round;">
<circle cx="23249.5" cy="25577.3" r="866.142" /> 
</g>
<g style="fill:#848400; fill-opacity:1.0; 
stroke:#848400; stroke-width:39.3701; stroke-opacity:1; 
stroke-linecap:round; stroke-linejoin:round;">
</g>
<g >
</g>
<g style="fill:#848400; fill-opacity:1.0; 
stroke:#848400; stroke-width:39.3701; stroke-opacity:1; 
stroke-linecap:round; stroke-linejoin:round;">
</g>
<g style="fill:#848400; fill-opacity:1.0; 
stroke:#848400; stroke-width:0; stroke-opacity:1; 
stroke-linecap:round; stroke-linejoin:round;">
<circle cx="13564.4" cy="32349" r="866.142" /> 
</g>
<g style="fill:#848400; fill-opacity:1.0; 
stroke:#848400; stroke-width:39.3701; stroke-opacity:1; 
stroke-linecap:round; stroke-linejoin:round;">
</g>
<g >
</g>
<g >
</g>
<g >
</g>
</g>
<g style="fill:#000000; fill-opacity:1.0; 
stroke:#000000; stroke-width:39.3701; stroke-opacity:1; 
stroke-linecap:round; stroke-linejoin:round;">
</g>
<g style="fill:#008400; fill-opacity:1.0; 
stroke:#008400; stroke-width:39.3701; stroke-opacity:1; 
stroke-linecap:round; stroke-linejoin:round;">
</g>
<g style="fill:#008400; fill-opacity:0.0; 
stroke:#008400; stroke-width:39.3701; stroke-opacity:1; 
stroke-linecap:round; stroke-linejoin:round;">
</g>
<g style="fill:#008400; fill-opacity:0.0; 
stroke:#008400; stroke-width:118.11; stroke-opacity:1; 
stroke-linecap:round; stroke-linejoin:round;">
<path d="M2632 21136
L2632 20798
" />
<path d="M2632 20967
L3222 20967
L3138 20911
L3082 20854
L3053 20798
" />
<path d="M3222 21501
L3222 21557
L3194 21614
L3166 21642
L3110 21670
L2997 21698
L2857 21698
L2744 21670
L2688 21642
L2660 21614
L2632 21557
L2632 21501
L2660 21445
L2688 21417
L2744 21389
L2857 21361
L2997 21361
L3110 21389
L3166 21417
L3194 21445
L3222 21501
" />
<path d="M3222 21895
L3222 22289
L2632 22035
" />
<path d="M2688 22514
L2660 22542
L2632 22514
L2660 22485
L2688 22514
L2632 22514
" />
<path d="M3222 22907
L3222 22963
L3194 23020
L3166 23048
L3110 23076
L2997 23104
L2857 23104
L2744 23076
L2688 23048
L2660 23020
L2632 22963
L2632 22907
L2660 22851
L2688 22823
L2744 22795
L2857 22767
L2997 22767
L3110 22795
L3166 22823
L3194 22851
L3222 22907
" />
<path d="M3222 23470
L3222 23526
L3194 23582
L3166 23610
L3110 23638
L2997 23667
L2857 23667
L2744 23638
L2688 23610
L2660 23582
L2632 23526
L2632 23470
L2660 23413
L2688 23385
L2744 23357
L2857 23329
L2997 23329
L3110 23357
L3166 23385
L3194 23413
L3222 23470
" />
<path d="M3222 24032
L3222 24088
L3194 24145
L3166 24173
L3110 24201
L2997 24229
L2857 24229
L2744 24201
L2688 24173
L2660 24145
L2632 24088
L2632 24032
L2660 23976
L2688 23948
L2744 23920
L2857 23891
L2997 23891
L3110 23920
L3166 23948
L3194 23976
L3222 24032
" />
<path d="M2632 24932
L3025 24932
" />
<path d="M2969 24932
L2997 24960
L3025 25016
L3025 25101
L2997 25157
L2941 25185
L2632 25185
" />
<path d="M2941 25185
L2997 25213
L3025 25269
L3025 25354
L2997 25410
L2941 25438
L2632 25438
" />
<path d="M2632 25719
L3025 25719
" />
<path d="M2969 25719
L2997 25748
L3025 25804
L3025 25888
L2997 25944
L2941 25972
L2632 25972
" />
<path d="M2941 25972
L2997 26001
L3025 26057
L3025 26141
L2997 26197
L2941 26226
L2632 26226
" />
<path d="M3726 2463
L3726 44589
" />
<path d="M4907 2463
L3495 2463
" />
<path d="M4907 44589
L3495 44589
" />
<path d="M3726 44589
L3495 44145
" />
<path d="M3726 44589
L3956 44145
" />
<path d="M3726 2463
L3495 2906
" />
<path d="M3726 2463
L3956 2906
" />
<path d="M30662 721
L30324 721
" />
<path d="M30493 721
L30493 131
L30437 215
L30381 271
L30324 300
" />
<path d="M31168 328
L31168 721
" />
<path d="M31027 103
L30887 525
L31252 525
" />
<path d="M31421 131
L31787 131
L31590 356
L31674 356
L31730 384
L31759 412
L31787 468
L31787 609
L31759 665
L31730 693
L31674 721
L31505 721
L31449 693
L31421 665
" />
<path d="M32040 665
L32068 693
L32040 721
L32012 693
L32040 665
L32040 721
" />
<path d="M32433 131
L32490 131
L32546 159
L32574 187
L32602 243
L32630 356
L32630 496
L32602 609
L32574 665
L32546 693
L32490 721
L32433 721
L32377 693
L32349 665
L32321 609
L32293 496
L32293 356
L32321 243
L32349 187
L32377 159
L32433 131
" />
<path d="M32996 131
L33052 131
L33108 159
L33136 187
L33165 243
L33193 356
L33193 496
L33165 609
L33136 665
L33108 693
L33052 721
L32996 721
L32940 693
L32912 665
L32883 609
L32855 496
L32855 356
L32883 243
L32912 187
L32940 159
L32996 131
" />
<path d="M33558 131
L33615 131
L33671 159
L33699 187
L33727 243
L33755 356
L33755 496
L33727 609
L33699 665
L33671 693
L33615 721
L33558 721
L33502 693
L33474 665
L33446 609
L33418 496
L33418 356
L33446 243
L33474 187
L33502 159
L33558 131
" />
<path d="M34458 721
L34458 328
" />
<path d="M34458 384
L34486 356
L34543 328
L34627 328
L34683 356
L34711 412
L34711 721
" />
<path d="M34711 412
L34739 356
L34796 328
L34880 328
L34936 356
L34964 412
L34964 721
" />
<path d="M35246 721
L35246 328
" />
<path d="M35246 384
L35274 356
L35330 328
L35414 328
L35471 356
L35499 412
L35499 721
" />
<path d="M35499 412
L35527 356
L35583 328
L35667 328
L35724 356
L35752 412
L35752 721
" />
<path d="M4903 1281
L61202 1281
" />
<path d="M4903 2462
L4903 1050
" />
<path d="M61202 2462
L61202 1050
" />
<path d="M61202 1281
L60758 1512
" />
<path d="M61202 1281
L60758 1050
" />
<path d="M4903 1281
L5346 1512
" />
<path d="M4903 1281
L5346 1050
" />
<g >
</g>
<g >
</g>
<g >
</g>
<g >
</g>
<g >
</g>
<g >
</g>
</g>
<g style="fill:#000000; fill-opacity:0.0; 
stroke:#000000; stroke-width:118.11; stroke-opacity:1; 
stroke-linecap:round; stroke-linejoin:round;">
</g>
<g style="fill:#C2C200; fill-opacity:0.0; 
stroke:#C2C200; stroke-width:118.11; stroke-opacity:1; 
stroke-linecap:round; stroke-linejoin:round;">
</g>
<g style="fill:#C2C200; fill-opacity:0.0; 
stroke:#C2C200; stroke-width:78.7402; stroke-opacity:1; 
stroke-linecap:round; stroke-linejoin:round;">
<path d="M54390 11108
L54390 5596
" />
<path d="M54390 5596
L59902 5596
" />
<path d="M59902 11108
L54390 11108
" />
<path d="M59902 5596
L59902 11108
" />
<path d="M43802 1811
L42693 1783
" />
<path d="M44890 1845
L43802 1811
" />
<path d="M45955 1884
L44890 1845
" />
<path d="M60988 4233
L60988 34096
" />
<path d="M39252 1736
L38071 1733
" />
<path d="M59902 18549
L54390 18549
" />
<path d="M60517 34675
L60398 34687
" />
<path d="M60628 34640
L60517 34675
" />
<path d="M49959 2094
L48999 2034
" />
<path d="M50889 2159
L49959 2094
" />
<path d="M51787 2229
L50889 2159
" />
<path d="M52653 2303
L51787 2229
" />
<path d="M53484 2382
L52653 2303
" />
<path d="M54280 2464
L53484 2382
" />
<path d="M55038 2551
L54280 2464
" />
<path d="M55759 2642
L55038 2551
" />
<path d="M56439 2736
L55759 2642
" />
<path d="M57077 2834
L56439 2736
" />
<path d="M57673 2936
L57077 2834
" />
<path d="M58224 3040
L57673 2936
" />
<path d="M58730 3148
L58224 3040
" />
<path d="M59189 3259
L58730 3148
" />
<path d="M59599 3373
L59189 3259
" />
<path d="M59959 3489
L59599 3373
" />
<path d="M60267 3607
L59959 3489
" />
<path d="M60523 3728
L60267 3607
" />
<path d="M60724 3852
L60523 3728
" />
<path d="M60870 3977
L60724 3852
" />
<path d="M60959 4104
L60870 3977
" />
<path d="M60988 4233
L60959 4104
" />
<path d="M54390 18549
L54390 13038
" />
<path d="M35650 36865
L35650 33097
" />
<path d="M41162 38609
L35650 38609
" />
<path d="M40416 1745
L39252 1736
" />
<path d="M41564 1761
L40416 1745
" />
<path d="M42693 1783
L41564 1761
" />
<path d="M18627 40483
L41838 40483
" />
<path d="M42429 36064
L42429 39901
" />
<path d="M41958 40471
L41838 40483
" />
<path d="M42068 40436
L41958 40471
" />
<path d="M42169 40382
L42068 40436
" />
<path d="M8317 35594
L8979 36720
" />
<path d="M7655 34467
L8317 35594
" />
<path d="M12289 42353
L12951 43480
" />
<path d="M11627 41227
L12289 42353
" />
<path d="M10965 40100
L11627 41227
" />
<path d="M10303 38973
L10965 40100
" />
<path d="M9641 37847
L10303 38973
" />
<path d="M8979 36720
L9641 37847
" />
<path d="M24391 18116
L29903 18116
" />
<path d="M24391 23628
L24391 18116
" />
<path d="M29903 23628
L24391 23628
" />
<path d="M29903 31147
L29903 31147
" />
<path d="M29903 25636
L29903 31147
" />
<path d="M24391 25636
L29903 25636
" />
<path d="M24391 31147
L24391 25636
" />
<path d="M29903 31147
L24391 31147
" />
<path d="M26162 39494
L26162 39494
" />
<path d="M26162 33982
L26162 39494
" />
<path d="M20650 33982
L26162 33982
" />
<path d="M20650 39494
L20650 33982
" />
<path d="M26162 39494
L20650 39494
" />
<path d="M33642 38608
L33642 38608
" />
<path d="M33642 33096
L33642 38608
" />
<path d="M28130 33096
L33642 33096
" />
<path d="M28130 38608
L28130 33096
" />
<path d="M33642 38608
L28130 38608
" />
<path d="M37422 30596
L37422 30596
" />
<path d="M37422 25084
L37422 30596
" />
<path d="M31910 25084
L37422 25084
" />
<path d="M31910 30596
L31910 25084
" />
<path d="M37422 30596
L31910 30596
" />
<path d="M37422 23116
L37422 23116
" />
<path d="M37422 17604
L37422 23116
" />
<path d="M31910 17604
L37422 17604
" />
<path d="M31910 23116
L31910 17604
" />
<path d="M37422 23116
L31910 23116
" />
<path d="M37422 15597
L37422 15597
" />
<path d="M37422 10085
L37422 15597
" />
<path d="M31910 10085
L37422 10085
" />
<path d="M31910 15597
L31910 10085
" />
<path d="M37422 15597
L31910 15597
" />
<path d="M37394 8081
L37394 8081
" />
<path d="M37394 2569
L37394 8081
" />
<path d="M31882 2569
L37394 2569
" />
<path d="M31882 8081
L31882 2569
" />
<path d="M37394 8081
L31882 8081
" />
<path d="M44904 8628
L44904 8628
" />
<path d="M44904 3116
L44904 8628
" />
<path d="M39392 3116
L44904 3116
" />
<path d="M39392 8628
L39392 3116
" />
<path d="M44904 8628
L39392 8628
" />
<path d="M44902 16108
L44902 16108
" />
<path d="M44902 10596
L44902 16108
" />
<path d="M39390 10596
L44902 10596
" />
<path d="M39390 16108
L39390 10596
" />
<path d="M44902 16108
L39390 16108
" />
<path d="M44903 23627
L44903 23627
" />
<path d="M44903 18116
L44903 23627
" />
<path d="M39391 18116
L44903 18116
" />
<path d="M39391 23627
L39391 18116
" />
<path d="M44903 23627
L39391 23627
" />
<path d="M44902 31147
L44902 31147
" />
<path d="M44902 25636
L44902 31147
" />
<path d="M39390 25636
L44902 25636
" />
<path d="M39390 31147
L39390 25636
" />
<path d="M44902 31147
L39390 31147
" />
<path d="M52422 17959
L52422 17959
" />
<path d="M52422 12447
L52422 17959
" />
<path d="M46910 12447
L52422 12447
" />
<path d="M46910 17959
L46910 12447
" />
<path d="M52422 17959
L46910 17959
" />
<path d="M52416 25518
L52416 25518
" />
<path d="M52416 20006
L52416 25518
" />
<path d="M46904 20006
L52416 20006
" />
<path d="M46904 25518
L46904 20006
" />
<path d="M52416 25518
L46904 25518
" />
<path d="M52422 32997
L52422 32997
" />
<path d="M52422 27486
L52422 32997
" />
<path d="M46910 27486
L52422 27486
" />
<path d="M46910 32997
L46910 27486
" />
<path d="M52422 32997
L46910 32997
" />
<path d="M52422 10518
L52422 10518
" />
<path d="M52422 5006
L52422 10518
" />
<path d="M46910 5006
L52422 5006
" />
<path d="M46910 10518
L46910 5006
" />
<path d="M52422 10518
L46910 10518
" />
<path d="M38071 1733
L16666 1733
" />
<path d="M7596 34356
L7655 34467
" />
<path d="M7537 34245
L7596 34356
" />
<path d="M7479 34135
L7537 34245
" />
<path d="M7420 34024
L7479 34135
" />
<path d="M7330 33825
L7420 34024
" />
<path d="M7240 33627
L7330 33825
" />
<path d="M7150 33428
L7240 33627
" />
<path d="M7060 33230
L7150 33428
" />
<path d="M6951 32947
L7060 33230
" />
<path d="M6841 32665
L6951 32947
" />
<path d="M6732 32383
L6841 32665
" />
<path d="M6622 32101
L6732 32383
" />
<path d="M6504 31739
L6622 32101
" />
<path d="M6386 31378
L6504 31739
" />
<path d="M6269 31016
L6386 31378
" />
<path d="M6151 30654
L6269 31016
" />
<path d="M6036 30217
L6151 30654
" />
<path d="M5922 29780
L6036 30217
" />
<path d="M5807 29343
L5922 29780
" />
<path d="M5693 28906
L5807 29343
" />
<path d="M5593 28397
L5693 28906
" />
<path d="M5493 27889
L5593 28397
" />
<path d="M5394 27380
L5493 27889
" />
<path d="M5294 26872
L5394 27380
" />
<path d="M5220 26296
L5294 26872
" />
<path d="M5147 25721
L5220 26296
" />
<path d="M5073 25145
L5147 25721
" />
<path d="M5000 24569
L5073 25145
" />
<path d="M4969 24024
L5000 24569
" />
<path d="M4939 23478
L4969 24024
" />
<path d="M4908 22932
L4939 23478
" />
<path d="M4877 22386
L4908 22932
" />
<path d="M13278 43577
L13349 43538
" />
<path d="M13228 43593
L13278 43577
" />
<path d="M13179 43597
L13228 43593
" />
<path d="M13134 43597
L13179 43597
" />
<path d="M13092 43584
L13134 43597
" />
<path d="M13048 43564
L13092 43584
" />
<path d="M12989 43526
L13048 43564
" />
<path d="M12951 43480
L12989 43526
" />
<path d="M17967 40864
L18627 40482
" />
<path d="M17308 41246
L17967 40864
" />
<path d="M16648 41628
L17308 41246
" />
<path d="M15988 42010
L16648 41628
" />
<path d="M15328 42392
L15988 42010
" />
<path d="M14669 42774
L15328 42392
" />
<path d="M14009 43156
L14669 42774
" />
<path d="M13349 43538
L14009 43156
" />
<path d="M24390 10636
L29902 10636
" />
<path d="M24390 16148
L24390 10636
" />
<path d="M29902 16148
L24390 16148
" />
<path d="M29903 23628
L29903 23628
" />
<path d="M29903 18116
L29903 23628
" />
<path d="M29902 8628
L24390 8628
" />
<path d="M29902 16148
L29902 16148
" />
<path d="M29902 10636
L29902 16148
" />
<path d="M22422 9573
L22422 9573
" />
<path d="M22422 4061
L22422 9573
" />
<path d="M16910 4061
L22422 4061
" />
<path d="M16910 9573
L16910 4061
" />
<path d="M22422 9573
L16910 9573
" />
<path d="M29902 8628
L29902 8628
" />
<path d="M29902 3116
L29902 8628
" />
<path d="M24390 3116
L29902 3116
" />
<path d="M24390 8628
L24390 3116
" />
<path d="M22422 17093
L22422 17093
" />
<path d="M22422 11581
L22422 17093
" />
<path d="M16910 11581
L22422 11581
" />
<path d="M16910 17093
L16910 11581
" />
<path d="M22422 17093
L16910 17093
" />
<path d="M5743 21519
L14934 21519
" />
<path d="M14883 28273
L14883 28273
" />
<path d="M14883 22762
L14883 28273
" />
<path d="M9390 22762
L14883 22762
" />
<path d="M9390 28273
L9390 22762
" />
<path d="M14883 28273
L9390 28273
" />
<path d="M17328 38140
L17328 38140
" />
<path d="M14572 33367
L17328 38140
" />
<path d="M9799 36123
L14572 33367
" />
<path d="M12555 40896
L9799 36123
" />
<path d="M17328 38140
L12555 40896
" />
<path d="M22422 32053
L22422 32053
" />
<path d="M22422 26542
L22422 32053
" />
<path d="M16910 26542
L22422 26542
" />
<path d="M16910 32053
L16910 26542
" />
<path d="M22422 32053
L16910 32053
" />
<path d="M22422 24572
L22422 24572
" />
<path d="M22422 19060
L22422 24572
" />
<path d="M16910 19060
L22422 19060
" />
<path d="M16910 24572
L16910 19060
" />
<path d="M22422 24572
L16910 24572
" />
<path d="M15732 20990
L15783 20828
" />
<path d="M15653 21137
L15732 20990
" />
<path d="M15547 21266
L15653 21137
" />
<path d="M15419 21371
L15547 21266
" />
<path d="M15272 21451
L15419 21371
" />
<path d="M15109 21502
L15272 21451
" />
<path d="M14934 21519
L15109 21502
" />
<path d="M15783 20828
L15800 20653
" />
<path d="M5743 21519
L5567 21537
" />
<path d="M5024 21899
L4945 22046
" />
<path d="M5129 21771
L5024 21899
" />
<path d="M5256 21666
L5129 21771
" />
<path d="M5404 21586
L5256 21666
" />
<path d="M5567 21537
L5404 21586
" />
<path d="M4895 22210
L4877 22386
" />
<path d="M4945 22046
L4895 22210
" />
<path d="M16492 1750
L16329 1801
" />
<path d="M16666 1733
L16492 1750
" />
<path d="M15818 2424
L15800 2599
" />
<path d="M15868 2261
L15818 2424
" />
<path d="M15948 2114
L15868 2261
" />
<path d="M16054 1986
L15948 2114
" />
<path d="M16182 1880
L16054 1986
" />
<path d="M16329 1801
L16182 1880
" />
<path d="M59922 33588
L54410 33588
" />
<path d="M59922 33588
L59922 33588
" />
<path d="M59922 28077
L59922 33588
" />
<path d="M54410 28077
L59922 28077
" />
<path d="M54410 33588
L54410 28077
" />
<path d="M54391 26109
L54391 20597
" />
<path d="M59903 26109
L54391 26109
" />
<path d="M15800 20653
L15800 2604
" />
<path d="M59903 26109
L59903 26109
" />
<path d="M59903 20597
L59903 26109
" />
<path d="M54391 20597
L59903 20597
" />
<path d="M42256 40310
L42169 40382
" />
<path d="M42328 40222
L42256 40310
" />
<path d="M42383 40122
L42328 40222
" />
<path d="M42417 40011
L42383 40122
" />
<path d="M42429 39892
L42417 40011
" />
<path d="M43807 34687
L60398 34687
" />
<path d="M43529 34714
L43807 34687
" />
<path d="M43270 34795
L43529 34714
" />
<path d="M43036 34922
L43270 34795
" />
<path d="M42832 35090
L43036 34922
" />
<path d="M42664 35294
L42832 35090
" />
<path d="M42537 35528
L42664 35294
" />
<path d="M42457 35787
L42537 35528
" />
<path d="M42429 36064
L42457 35787
" />
<path d="M46996 1929
L45955 1884
" />
<path d="M48011 1979
L46996 1929
" />
<path d="M48999 2034
L48011 1979
" />
<path d="M59902 13038
L59902 18549
" />
<path d="M60728 34586
L60628 34640
" />
<path d="M60815 34514
L60728 34586
" />
<path d="M60888 34426
L60815 34514
" />
<path d="M60942 34326
L60888 34426
" />
<path d="M60976 34215
L60942 34326
" />
<path d="M60988 34096
L60976 34215
" />
<path d="M35650 33097
L41162 33097
" />
<path d="M35650 38609
L35650 36865
" />
<path d="M54390 13038
L59902 13038
" />
<path d="M41162 33097
L41162 38609
" />
<g >
</g>
<g >
</g>
<g >
</g>
<g >
</g>
<g >
</g>
<g >
</g>
</g> 
</svg>
